<svg width="1600" height="1097" viewBox="0 0 1600 1097" fill="none" xmlns="http://www.w3.org/2000/svg">
<g clip-path="url(#clip0)">
<path d="M1527.43 90H7V1073.47H1527.43V90Z" fill="#F4F4F5"/>
<path d="M382.519 1059.06V1060.33H381.249H368.171V1093.67H588.038V1060.33H582.135H580.865V1059.06V1031.64H510.391H509.121V1030.37V427.711V426.441H510.391H559.341V407.457H490.137V851.004V852.274H488.867H461.44V1030.37V1031.64H460.17H382.519V1059.06ZM127.933 1059.8V1031.85H44.0484H42.7784V1030.58V506.629V505.359H44.0484H336.931V427.711V426.441H338.201H372.804V407.457H338.201H336.931V406.187V357.236H317.95V485.105V486.375H316.68H44.0484H42.7784V485.105V124.757V123.487H44.0484H316.68H317.95V124.757V232.73H336.931V124.757V123.487H338.201H708.163V84.285H1.06982V123.487H2.27124V124.757V1030.58V1031.85H1.06982V1091.93H136.282V1061.07H129.203H127.933V1059.8ZM1515.08 84.605H848.861V125.11H955.208H956.478V126.38V261.427H975.462V126.38V125.11H976.732H1515.08H1516.35V126.38V851.004V852.274H1515.08H1437.17V888.657V889.927H1435.9H1424.51V920.781H1494.21H1495.48V922.051V1091.93H1555.55V84.285H1516.35V84.605H1515.08ZM834.512 1093.67H996.984L996.986 922.749V921.479H998.256H1190.7V852.274H976.732H975.462V851.004V407.457H676.674V426.441H933.684H934.954V427.711V1030.37V1031.64H933.684H841.685V1059.06V1060.33H840.415H834.512V1093.67Z" fill="white" stroke="#565E76"/>
<path d="M370.045 1091.93H134.649V1061.07H370.045V1091.93Z" fill="white" stroke="#565E76"/>
<path d="M837.567 1091.93H585.473V1061.07H837.567V1091.93Z" fill="white" stroke="#565E76"/>
<path d="M1497.11 1091.93H994.558V1061.07H1497.11V1091.93Z" fill="white" stroke="#565E76"/>
<path d="M1313.44 920.782H1190.75V894.102H1313.44V920.782Z" fill="white" stroke="#565E76"/>
<path d="M1313.44 895.737H1190.75V852.36H1313.44V895.737Z" fill="white" stroke="#565E76"/>
<path d="M1439.48 886.878L1328.28 811.547" stroke="#565E76"/>
<path d="M399.184 341.616L327.439 230.412" stroke="#565E76"/>
<path d="M488.867 416.95L384.836 481.52" stroke="#565E76"/>
<path d="M653.88 485.108L557.025 416.95" stroke="#565E76"/>
<path d="M829.653 18.7644L704.101 104.86" stroke="#565E76"/>
<path d="M965.97 259.111L904.987 366.729" stroke="#565E76"/>
<path d="M382.568 1062.71H126.3V1031.85H382.568V1062.71Z" fill="white" stroke="#565E76"/>
<path d="M841.741 1062.71H581.3V1031.85H841.741V1062.71Z" fill="white" stroke="#565E76"/>
<path d="M319.953 173.579H126.3V121.853H319.953V173.579Z" stroke="#565E76"/>
<path d="M695.642 165.23H627.218V121.853H695.642V165.23Z" stroke="#565E76"/>
<path d="M1046.28 257.066H973.687V126.028H1046.28V257.066Z" stroke="#565E76"/>
<path d="M1333.3 629.06H1180.9V476.66H1333.3V629.06Z" fill="#565E76"/>
<path d="M1309.78 553.759C1309.59 553.826 1309.52 553.958 1309.59 554.156L1309.95 555.179C1310.01 555.344 1310.15 555.41 1310.31 555.344L1311.24 555.08C1311.93 554.849 1312.72 554.684 1313.58 554.684C1314.97 554.684 1315.89 555.377 1315.89 556.401C1315.89 557.028 1315.46 557.59 1314.7 558.118L1311.76 560.033C1310.15 561.09 1309.45 562.576 1309.45 564.656V565.449C1309.45 565.647 1309.55 565.746 1309.75 565.746H1317.25C1317.44 565.746 1317.54 565.647 1317.54 565.449V564.392C1317.54 564.194 1317.44 564.095 1317.25 564.095H1311.27C1311.27 563.005 1311.63 562.147 1312.66 561.486L1315.63 559.538C1317.05 558.613 1317.71 557.623 1317.71 556.401C1317.71 554.255 1316.12 553 1313.58 553C1312.56 553 1311.63 553.165 1310.68 553.462L1309.78 553.759Z" fill="white"/>
<path d="M1225.87 506.375V510.98H1229.42V513.494H1225.87V525.289C1225.87 526.051 1226.03 526.625 1226.35 527.012C1226.66 527.387 1227.2 527.574 1227.96 527.574C1228.34 527.574 1228.86 527.504 1229.51 527.363V530C1228.66 530.234 1227.82 530.352 1227.02 530.352C1225.56 530.352 1224.47 529.912 1223.73 529.033C1222.99 528.154 1222.62 526.906 1222.62 525.289V513.494H1219.16V510.98H1222.62V506.375H1225.87ZM1232.03 520.314C1232.03 518.451 1232.39 516.775 1233.12 515.287C1233.85 513.799 1234.87 512.65 1236.17 511.842C1237.49 511.033 1238.98 510.629 1240.66 510.629C1243.25 510.629 1245.34 511.525 1246.93 513.318C1248.54 515.111 1249.34 517.496 1249.34 520.473V520.701C1249.34 522.553 1248.98 524.217 1248.27 525.693C1247.56 527.158 1246.55 528.301 1245.23 529.121C1243.91 529.941 1242.4 530.352 1240.69 530.352C1238.11 530.352 1236.02 529.455 1234.42 527.662C1232.82 525.869 1232.03 523.496 1232.03 520.543V520.314ZM1235.29 520.701C1235.29 522.811 1235.78 524.504 1236.75 525.781C1237.74 527.059 1239.05 527.697 1240.69 527.697C1242.34 527.697 1243.66 527.053 1244.63 525.764C1245.6 524.463 1246.09 522.646 1246.09 520.314C1246.09 518.229 1245.59 516.541 1244.59 515.252C1243.61 513.951 1242.3 513.301 1240.66 513.301C1239.05 513.301 1237.76 513.939 1236.77 515.217C1235.79 516.494 1235.29 518.322 1235.29 520.701ZM1257.83 506.375V510.98H1261.38V513.494H1257.83V525.289C1257.83 526.051 1257.99 526.625 1258.3 527.012C1258.62 527.387 1259.16 527.574 1259.92 527.574C1260.3 527.574 1260.81 527.504 1261.47 527.363V530C1260.61 530.234 1259.78 530.352 1258.97 530.352C1257.52 530.352 1256.42 529.912 1255.69 529.033C1254.95 528.154 1254.58 526.906 1254.58 525.289V513.494H1251.12V510.98H1254.58V506.375H1257.83ZM1276.94 530C1276.75 529.625 1276.6 528.957 1276.48 527.996C1274.97 529.566 1273.16 530.352 1271.07 530.352C1269.19 530.352 1267.65 529.824 1266.44 528.77C1265.25 527.703 1264.65 526.355 1264.65 524.727C1264.65 522.746 1265.4 521.211 1266.9 520.121C1268.41 519.02 1270.53 518.469 1273.26 518.469H1276.43V516.975C1276.43 515.838 1276.09 514.936 1275.41 514.268C1274.73 513.588 1273.73 513.248 1272.4 513.248C1271.24 513.248 1270.27 513.541 1269.48 514.127C1268.7 514.713 1268.31 515.422 1268.31 516.254H1265.04C1265.04 515.305 1265.37 514.391 1266.04 513.512C1266.72 512.621 1267.63 511.918 1268.78 511.402C1269.94 510.887 1271.21 510.629 1272.6 510.629C1274.79 510.629 1276.5 511.18 1277.75 512.281C1278.99 513.371 1279.63 514.877 1279.68 516.799V525.553C1279.68 527.299 1279.9 528.688 1280.35 529.719V530H1276.94ZM1271.54 527.521C1272.56 527.521 1273.53 527.258 1274.44 526.73C1275.36 526.203 1276.02 525.518 1276.43 524.674V520.771H1273.88C1269.89 520.771 1267.9 521.938 1267.9 524.27C1267.9 525.289 1268.24 526.086 1268.92 526.66C1269.6 527.234 1270.47 527.521 1271.54 527.521ZM1288.31 530H1285.06V503H1288.31V530Z" fill="white"/>
<path d="M1224.9 582H1208.13V579.662L1216.99 569.818C1218.3 568.33 1219.2 567.123 1219.69 566.197C1220.2 565.26 1220.45 564.293 1220.45 563.297C1220.45 561.961 1220.04 560.865 1219.24 560.01C1218.43 559.154 1217.35 558.727 1216 558.727C1214.38 558.727 1213.12 559.189 1212.22 560.115C1211.33 561.029 1210.89 562.307 1210.89 563.947H1207.63C1207.63 561.592 1208.39 559.688 1209.9 558.234C1211.43 556.781 1213.46 556.055 1216 556.055C1218.38 556.055 1220.26 556.682 1221.64 557.936C1223.03 559.178 1223.72 560.836 1223.72 562.91C1223.72 565.43 1222.11 568.43 1218.9 571.91L1212.05 579.346H1224.9V582ZM1242.07 573.404H1245.62V576.059H1242.07V582H1238.8V576.059H1227.15V574.143L1238.61 556.406H1242.07V573.404ZM1230.84 573.404H1238.8V560.854L1238.41 561.557L1230.84 573.404ZM1264.61 571.084C1264.61 574.893 1263.96 577.723 1262.65 579.574C1261.35 581.426 1259.32 582.352 1256.55 582.352C1253.82 582.352 1251.8 581.449 1250.49 579.645C1249.18 577.828 1248.5 575.121 1248.45 571.523V567.182C1248.45 563.42 1249.1 560.625 1250.4 558.797C1251.7 556.969 1253.74 556.055 1256.52 556.055C1259.27 556.055 1261.3 556.939 1262.6 558.709C1263.9 560.467 1264.57 563.186 1264.61 566.865V571.084ZM1261.35 566.637C1261.35 563.883 1260.97 561.879 1260.19 560.625C1259.42 559.359 1258.2 558.727 1256.52 558.727C1254.86 558.727 1253.64 559.354 1252.88 560.607C1252.12 561.861 1251.73 563.789 1251.7 566.391V571.594C1251.7 574.359 1252.1 576.404 1252.9 577.729C1253.71 579.041 1254.93 579.697 1256.55 579.697C1258.16 579.697 1259.35 579.076 1260.12 577.834C1260.91 576.592 1261.32 574.635 1261.35 571.963V566.637ZM1281.09 562.98L1281.18 565.09C1282.58 563.449 1284.46 562.629 1286.82 562.629C1289.48 562.629 1291.29 563.648 1292.26 565.688C1292.89 564.773 1293.71 564.035 1294.72 563.473C1295.74 562.91 1296.94 562.629 1298.32 562.629C1302.49 562.629 1304.61 564.838 1304.68 569.256V582H1301.43V569.449C1301.43 568.09 1301.12 567.076 1300.5 566.408C1299.88 565.729 1298.84 565.389 1297.37 565.389C1296.16 565.389 1295.16 565.752 1294.37 566.479C1293.57 567.193 1293.11 568.16 1292.98 569.379V582H1289.71V569.537C1289.71 566.771 1288.35 565.389 1285.65 565.389C1283.51 565.389 1282.05 566.297 1281.27 568.113V582H1278.02V562.98H1281.09Z" fill="white"/>
<path d="M104.98 311V293.938H110.559C112.41 293.938 113.801 294.32 114.73 295.086C115.668 295.852 116.137 296.984 116.137 298.484C116.137 299.281 115.91 299.988 115.457 300.605C115.004 301.215 114.387 301.688 113.605 302.023C114.527 302.281 115.254 302.773 115.785 303.5C116.324 304.219 116.594 305.078 116.594 306.078C116.594 307.609 116.098 308.812 115.105 309.688C114.113 310.562 112.711 311 110.898 311H104.98ZM107.23 303.02V309.16H110.945C111.992 309.16 112.816 308.891 113.418 308.352C114.027 307.805 114.332 307.055 114.332 306.102C114.332 304.047 113.215 303.02 110.98 303.02H107.23ZM107.23 301.215H110.629C111.613 301.215 112.398 300.969 112.984 300.477C113.578 299.984 113.875 299.316 113.875 298.473C113.875 297.535 113.602 296.855 113.055 296.434C112.508 296.004 111.676 295.789 110.559 295.789H107.23V301.215ZM127.422 311C127.297 310.75 127.195 310.305 127.117 309.664C126.109 310.711 124.906 311.234 123.508 311.234C122.258 311.234 121.23 310.883 120.426 310.18C119.629 309.469 119.23 308.57 119.23 307.484C119.23 306.164 119.73 305.141 120.73 304.414C121.738 303.68 123.152 303.312 124.973 303.312H127.082V302.316C127.082 301.559 126.855 300.957 126.402 300.512C125.949 300.059 125.281 299.832 124.398 299.832C123.625 299.832 122.977 300.027 122.453 300.418C121.93 300.809 121.668 301.281 121.668 301.836H119.488C119.488 301.203 119.711 300.594 120.156 300.008C120.609 299.414 121.219 298.945 121.984 298.602C122.758 298.258 123.605 298.086 124.527 298.086C125.988 298.086 127.133 298.453 127.961 299.188C128.789 299.914 129.219 300.918 129.25 302.199V308.035C129.25 309.199 129.398 310.125 129.695 310.812V311H127.422ZM123.824 309.348C124.504 309.348 125.148 309.172 125.758 308.82C126.367 308.469 126.809 308.012 127.082 307.449V304.848H125.383C122.727 304.848 121.398 305.625 121.398 307.18C121.398 307.859 121.625 308.391 122.078 308.773C122.531 309.156 123.113 309.348 123.824 309.348ZM135.59 295.25V298.32H137.957V299.996H135.59V307.859C135.59 308.367 135.695 308.75 135.906 309.008C136.117 309.258 136.477 309.383 136.984 309.383C137.234 309.383 137.578 309.336 138.016 309.242V311C137.445 311.156 136.891 311.234 136.352 311.234C135.383 311.234 134.652 310.941 134.16 310.355C133.668 309.77 133.422 308.938 133.422 307.859V299.996H131.113V298.32H133.422V295.25H135.59ZM142.668 299.855C143.629 298.676 144.879 298.086 146.418 298.086C149.098 298.086 150.449 299.598 150.473 302.621V311H148.305V302.609C148.297 301.695 148.086 301.02 147.672 300.582C147.266 300.145 146.629 299.926 145.762 299.926C145.059 299.926 144.441 300.113 143.91 300.488C143.379 300.863 142.965 301.355 142.668 301.965V311H140.5V293H142.668V299.855ZM159.848 300.266C159.52 300.211 159.164 300.184 158.781 300.184C157.359 300.184 156.395 300.789 155.887 302V311H153.719V298.32H155.828L155.863 299.785C156.574 298.652 157.582 298.086 158.887 298.086C159.309 298.086 159.629 298.141 159.848 298.25V300.266ZM161.043 304.543C161.043 303.301 161.285 302.184 161.77 301.191C162.262 300.199 162.941 299.434 163.809 298.895C164.684 298.355 165.68 298.086 166.797 298.086C168.523 298.086 169.918 298.684 170.98 299.879C172.051 301.074 172.586 302.664 172.586 304.648V304.801C172.586 306.035 172.348 307.145 171.871 308.129C171.402 309.105 170.727 309.867 169.844 310.414C168.969 310.961 167.961 311.234 166.82 311.234C165.102 311.234 163.707 310.637 162.637 309.441C161.574 308.246 161.043 306.664 161.043 304.695V304.543ZM163.223 304.801C163.223 306.207 163.547 307.336 164.195 308.188C164.852 309.039 165.727 309.465 166.82 309.465C167.922 309.465 168.797 309.035 169.445 308.176C170.094 307.309 170.418 306.098 170.418 304.543C170.418 303.152 170.086 302.027 169.422 301.168C168.766 300.301 167.891 299.867 166.797 299.867C165.727 299.867 164.863 300.293 164.207 301.145C163.551 301.996 163.223 303.215 163.223 304.801ZM174.73 304.543C174.73 303.301 174.973 302.184 175.457 301.191C175.949 300.199 176.629 299.434 177.496 298.895C178.371 298.355 179.367 298.086 180.484 298.086C182.211 298.086 183.605 298.684 184.668 299.879C185.738 301.074 186.273 302.664 186.273 304.648V304.801C186.273 306.035 186.035 307.145 185.559 308.129C185.09 309.105 184.414 309.867 183.531 310.414C182.656 310.961 181.648 311.234 180.508 311.234C178.789 311.234 177.395 310.637 176.324 309.441C175.262 308.246 174.73 306.664 174.73 304.695V304.543ZM176.91 304.801C176.91 306.207 177.234 307.336 177.883 308.188C178.539 309.039 179.414 309.465 180.508 309.465C181.609 309.465 182.484 309.035 183.133 308.176C183.781 307.309 184.105 306.098 184.105 304.543C184.105 303.152 183.773 302.027 183.109 301.168C182.453 300.301 181.578 299.867 180.484 299.867C179.414 299.867 178.551 300.293 177.895 301.145C177.238 301.996 176.91 303.215 176.91 304.801ZM191.031 298.32L191.09 299.727C192.02 298.633 193.273 298.086 194.852 298.086C196.625 298.086 197.832 298.766 198.473 300.125C198.895 299.516 199.441 299.023 200.113 298.648C200.793 298.273 201.594 298.086 202.516 298.086C205.297 298.086 206.711 299.559 206.758 302.504V311H204.59V302.633C204.59 301.727 204.383 301.051 203.969 300.605C203.555 300.152 202.859 299.926 201.883 299.926C201.078 299.926 200.41 300.168 199.879 300.652C199.348 301.129 199.039 301.773 198.953 302.586V311H196.773V302.691C196.773 300.848 195.871 299.926 194.066 299.926C192.645 299.926 191.672 300.531 191.148 301.742V311H188.98V298.32H191.031Z" fill="#565E76"/>
<path d="M114.733 355H110.5V338.682L105.446 340.249V336.807L114.279 333.643H114.733V355ZM136.296 355H121.677V352.1L128.576 344.746C129.523 343.711 130.222 342.808 130.671 342.036C131.13 341.265 131.359 340.532 131.359 339.839C131.359 338.892 131.12 338.149 130.642 337.612C130.163 337.065 129.479 336.792 128.591 336.792C127.634 336.792 126.877 337.124 126.32 337.788C125.773 338.442 125.5 339.307 125.5 340.381H121.252C121.252 339.082 121.56 337.896 122.175 336.821C122.8 335.747 123.679 334.907 124.812 334.302C125.944 333.687 127.229 333.379 128.664 333.379C130.861 333.379 132.565 333.906 133.776 334.961C134.997 336.016 135.607 337.505 135.607 339.429C135.607 340.483 135.334 341.558 134.787 342.651C134.24 343.745 133.303 345.02 131.975 346.475L127.126 351.587H136.296V355ZM139.299 352.92C139.299 352.246 139.523 351.699 139.973 351.279C140.432 350.859 141.003 350.649 141.687 350.649C142.38 350.649 142.951 350.859 143.4 351.279C143.859 351.699 144.089 352.246 144.089 352.92C144.089 353.584 143.864 354.126 143.415 354.546C142.966 354.956 142.39 355.161 141.687 355.161C140.993 355.161 140.422 354.956 139.973 354.546C139.523 354.126 139.299 353.584 139.299 352.92ZM148.264 344.512L149.494 333.672H161.447V337.202H152.966L152.438 341.787C153.444 341.25 154.514 340.981 155.646 340.981C157.678 340.981 159.27 341.611 160.422 342.871C161.574 344.131 162.15 345.894 162.15 348.159C162.15 349.536 161.857 350.771 161.271 351.865C160.695 352.949 159.865 353.794 158.781 354.399C157.697 354.995 156.418 355.293 154.943 355.293C153.654 355.293 152.458 355.034 151.354 354.517C150.251 353.989 149.377 353.252 148.732 352.305C148.098 351.357 147.761 350.278 147.722 349.067H151.911C151.999 349.956 152.307 350.649 152.834 351.147C153.371 351.636 154.069 351.88 154.929 351.88C155.886 351.88 156.623 351.538 157.141 350.854C157.658 350.161 157.917 349.185 157.917 347.925C157.917 346.714 157.619 345.786 157.023 345.142C156.428 344.497 155.583 344.175 154.489 344.175C153.483 344.175 152.668 344.438 152.043 344.966L151.633 345.347L148.264 344.512ZM176.477 339.15L176.608 340.923C177.731 339.546 179.25 338.857 181.164 338.857C183.205 338.857 184.606 339.663 185.368 341.274C186.481 339.663 188.068 338.857 190.129 338.857C191.848 338.857 193.127 339.36 193.967 340.366C194.807 341.362 195.227 342.866 195.227 344.878V355H190.979V344.893C190.979 343.994 190.803 343.34 190.451 342.93C190.1 342.51 189.479 342.3 188.591 342.3C187.321 342.3 186.442 342.905 185.954 344.116L185.969 355H181.735V344.907C181.735 343.989 181.555 343.325 181.193 342.915C180.832 342.505 180.217 342.3 179.348 342.3C178.146 342.3 177.277 342.798 176.74 343.794V355H172.507V339.15H176.477Z" fill="#565E76"/>
<path d="M203.499 336H196.677V334.646L199.896 331.215C200.339 330.732 200.664 330.31 200.874 329.95C201.088 329.59 201.195 329.248 201.195 328.925C201.195 328.483 201.084 328.136 200.86 327.886C200.637 327.631 200.318 327.503 199.903 327.503C199.457 327.503 199.104 327.658 198.844 327.968C198.589 328.273 198.461 328.676 198.461 329.178H196.479C196.479 328.572 196.622 328.018 196.909 327.517C197.201 327.015 197.611 326.623 198.14 326.341C198.668 326.054 199.268 325.91 199.938 325.91C200.963 325.91 201.758 326.156 202.323 326.648C202.893 327.141 203.178 327.836 203.178 328.733C203.178 329.226 203.05 329.727 202.795 330.237C202.54 330.748 202.102 331.342 201.482 332.021L199.22 334.407H203.499V336Z" fill="#565E76"/>
<path d="M599.094 245H596.832V237.113H588.23V245H585.98V227.938H588.23V235.273H596.832V227.938H599.094V245ZM610.578 245C610.453 244.75 610.352 244.305 610.273 243.664C609.266 244.711 608.062 245.234 606.664 245.234C605.414 245.234 604.387 244.883 603.582 244.18C602.785 243.469 602.387 242.57 602.387 241.484C602.387 240.164 602.887 239.141 603.887 238.414C604.895 237.68 606.309 237.312 608.129 237.312H610.238V236.316C610.238 235.559 610.012 234.957 609.559 234.512C609.105 234.059 608.438 233.832 607.555 233.832C606.781 233.832 606.133 234.027 605.609 234.418C605.086 234.809 604.824 235.281 604.824 235.836H602.645C602.645 235.203 602.867 234.594 603.312 234.008C603.766 233.414 604.375 232.945 605.141 232.602C605.914 232.258 606.762 232.086 607.684 232.086C609.145 232.086 610.289 232.453 611.117 233.188C611.945 233.914 612.375 234.918 612.406 236.199V242.035C612.406 243.199 612.555 244.125 612.852 244.812V245H610.578ZM606.98 243.348C607.66 243.348 608.305 243.172 608.914 242.82C609.523 242.469 609.965 242.012 610.238 241.449V238.848H608.539C605.883 238.848 604.555 239.625 604.555 241.18C604.555 241.859 604.781 242.391 605.234 242.773C605.688 243.156 606.27 243.348 606.98 243.348ZM618.16 245H615.992V227H618.16V245ZM623.996 245H621.828V227H623.996V245ZM638.703 242.012L641.141 232.32H643.309L639.617 245H637.859L634.777 235.391L631.777 245H630.02L626.34 232.32H628.496L630.992 241.812L633.945 232.32H635.691L638.703 242.012ZM653.352 245C653.227 244.75 653.125 244.305 653.047 243.664C652.039 244.711 650.836 245.234 649.438 245.234C648.188 245.234 647.16 244.883 646.355 244.18C645.559 243.469 645.16 242.57 645.16 241.484C645.16 240.164 645.66 239.141 646.66 238.414C647.668 237.68 649.082 237.312 650.902 237.312H653.012V236.316C653.012 235.559 652.785 234.957 652.332 234.512C651.879 234.059 651.211 233.832 650.328 233.832C649.555 233.832 648.906 234.027 648.383 234.418C647.859 234.809 647.598 235.281 647.598 235.836H645.418C645.418 235.203 645.641 234.594 646.086 234.008C646.539 233.414 647.148 232.945 647.914 232.602C648.688 232.258 649.535 232.086 650.457 232.086C651.918 232.086 653.062 232.453 653.891 233.188C654.719 233.914 655.148 234.918 655.18 236.199V242.035C655.18 243.199 655.328 244.125 655.625 244.812V245H653.352ZM649.754 243.348C650.434 243.348 651.078 243.172 651.688 242.82C652.297 242.469 652.738 242.012 653.012 241.449V238.848H651.312C648.656 238.848 647.328 239.625 647.328 241.18C647.328 241.859 647.555 242.391 648.008 242.773C648.461 243.156 649.043 243.348 649.754 243.348ZM662.539 241.824L665.492 232.32H667.812L662.715 246.957C661.926 249.066 660.672 250.121 658.953 250.121L658.543 250.086L657.734 249.934V248.176L658.32 248.223C659.055 248.223 659.625 248.074 660.031 247.777C660.445 247.48 660.785 246.938 661.051 246.148L661.531 244.859L657.008 232.32H659.375L662.539 241.824Z" fill="#565E76"/>
<path d="M595.733 289H591.5V272.682L586.446 274.249V270.807L595.279 267.643H595.733V289ZM615.201 280.973H617.618V284.386H615.201V289H610.968V284.386H602.223L602.032 281.72L610.924 267.672H615.201V280.973ZM606.251 280.973H610.968V273.443L610.689 273.927L606.251 280.973ZM620.299 286.92C620.299 286.246 620.523 285.699 620.973 285.279C621.432 284.859 622.003 284.649 622.687 284.649C623.38 284.649 623.951 284.859 624.4 285.279C624.859 285.699 625.089 286.246 625.089 286.92C625.089 287.584 624.864 288.126 624.415 288.546C623.966 288.956 623.39 289.161 622.687 289.161C621.993 289.161 621.422 288.956 620.973 288.546C620.523 288.126 620.299 287.584 620.299 286.92ZM643.253 289H628.634V286.1L635.533 278.746C636.48 277.711 637.179 276.808 637.628 276.036C638.087 275.265 638.316 274.532 638.316 273.839C638.316 272.892 638.077 272.149 637.599 271.612C637.12 271.065 636.437 270.792 635.548 270.792C634.591 270.792 633.834 271.124 633.277 271.788C632.73 272.442 632.457 273.307 632.457 274.381H628.209C628.209 273.082 628.517 271.896 629.132 270.821C629.757 269.747 630.636 268.907 631.769 268.302C632.901 267.687 634.186 267.379 635.621 267.379C637.818 267.379 639.522 267.906 640.733 268.961C641.954 270.016 642.564 271.505 642.564 273.429C642.564 274.483 642.291 275.558 641.744 276.651C641.197 277.745 640.26 279.02 638.932 280.475L634.083 285.587H643.253V289ZM657.477 273.15L657.608 274.923C658.731 273.546 660.25 272.857 662.164 272.857C664.205 272.857 665.606 273.663 666.368 275.274C667.481 273.663 669.068 272.857 671.129 272.857C672.848 272.857 674.127 273.36 674.967 274.366C675.807 275.362 676.227 276.866 676.227 278.878V289H671.979V278.893C671.979 277.994 671.803 277.34 671.451 276.93C671.1 276.51 670.479 276.3 669.591 276.3C668.321 276.3 667.442 276.905 666.954 278.116L666.969 289H662.735V278.907C662.735 277.989 662.555 277.325 662.193 276.915C661.832 276.505 661.217 276.3 660.348 276.3C659.146 276.3 658.277 276.798 657.74 277.794V289H653.507V273.15H657.477Z" fill="#565E76"/>
<path d="M684.499 270H677.677V268.646L680.896 265.215C681.339 264.732 681.664 264.31 681.874 263.95C682.088 263.59 682.195 263.248 682.195 262.925C682.195 262.483 682.084 262.136 681.86 261.886C681.637 261.631 681.318 261.503 680.903 261.503C680.457 261.503 680.104 261.658 679.844 261.968C679.589 262.273 679.461 262.676 679.461 263.178H677.479C677.479 262.572 677.622 262.018 677.909 261.517C678.201 261.015 678.611 260.623 679.14 260.341C679.668 260.054 680.268 259.91 680.938 259.91C681.963 259.91 682.758 260.156 683.323 260.648C683.893 261.141 684.178 261.836 684.178 262.733C684.178 263.226 684.05 263.727 683.795 264.237C683.54 264.748 683.102 265.342 682.482 266.021L680.22 268.407H684.499V270Z" fill="#565E76"/>
<path d="M1312.24 254.16H1320.33V256H1309.98V238.938H1312.24V254.16ZM1324.91 256H1322.74V243.32H1324.91V256ZM1322.57 239.957C1322.57 239.605 1322.67 239.309 1322.88 239.066C1323.1 238.824 1323.42 238.703 1323.84 238.703C1324.27 238.703 1324.59 238.824 1324.8 239.066C1325.02 239.309 1325.13 239.605 1325.13 239.957C1325.13 240.309 1325.02 240.602 1324.8 240.836C1324.59 241.07 1324.27 241.188 1323.84 241.188C1323.42 241.188 1323.1 241.07 1322.88 240.836C1322.67 240.602 1322.57 240.309 1322.57 239.957ZM1332.57 253.059L1335.71 243.32H1337.93L1333.38 256H1331.73L1327.14 243.32H1329.35L1332.57 253.059ZM1342.37 256H1340.2V243.32H1342.37V256ZM1340.03 239.957C1340.03 239.605 1340.13 239.309 1340.34 239.066C1340.56 238.824 1340.88 238.703 1341.3 238.703C1341.73 238.703 1342.05 238.824 1342.27 239.066C1342.48 239.309 1342.59 239.605 1342.59 239.957C1342.59 240.309 1342.48 240.602 1342.27 240.836C1342.05 241.07 1341.73 241.188 1341.3 241.188C1340.88 241.188 1340.56 241.07 1340.34 240.836C1340.13 240.602 1340.03 240.309 1340.03 239.957ZM1347.9 243.32L1347.97 244.914C1348.94 243.695 1350.21 243.086 1351.77 243.086C1354.45 243.086 1355.8 244.598 1355.82 247.621V256H1353.66V247.609C1353.65 246.695 1353.44 246.02 1353.02 245.582C1352.62 245.145 1351.98 244.926 1351.11 244.926C1350.41 244.926 1349.79 245.113 1349.26 245.488C1348.73 245.863 1348.32 246.355 1348.02 246.965V256H1345.85V243.32H1347.9ZM1358.58 249.555C1358.58 247.578 1359.04 246.008 1359.95 244.844C1360.86 243.672 1362.07 243.086 1363.58 243.086C1365.13 243.086 1366.34 243.633 1367.2 244.727L1367.31 243.32H1369.29V255.695C1369.29 257.336 1368.8 258.629 1367.82 259.574C1366.86 260.52 1365.55 260.992 1363.91 260.992C1363 260.992 1362.1 260.797 1361.23 260.406C1360.35 260.016 1359.68 259.48 1359.22 258.801L1360.35 257.5C1361.28 258.648 1362.41 259.223 1363.76 259.223C1364.81 259.223 1365.63 258.926 1366.22 258.332C1366.81 257.738 1367.11 256.902 1367.11 255.824V254.734C1366.24 255.734 1365.06 256.234 1363.56 256.234C1362.07 256.234 1360.87 255.637 1359.95 254.441C1359.04 253.246 1358.58 251.617 1358.58 249.555ZM1360.76 249.801C1360.76 251.23 1361.05 252.355 1361.64 253.176C1362.22 253.988 1363.04 254.395 1364.1 254.395C1365.46 254.395 1366.47 253.773 1367.11 252.531V246.742C1366.45 245.531 1365.45 244.926 1364.12 244.926C1363.07 244.926 1362.24 245.336 1361.65 246.156C1361.05 246.977 1360.76 248.191 1360.76 249.801ZM1384.65 245.266C1384.32 245.211 1383.97 245.184 1383.59 245.184C1382.16 245.184 1381.2 245.789 1380.69 247V256H1378.52V243.32H1380.63L1380.67 244.785C1381.38 243.652 1382.39 243.086 1383.69 243.086C1384.11 243.086 1384.43 243.141 1384.65 243.25V245.266ZM1385.85 249.543C1385.85 248.301 1386.09 247.184 1386.57 246.191C1387.07 245.199 1387.75 244.434 1388.61 243.895C1389.49 243.355 1390.48 243.086 1391.6 243.086C1393.33 243.086 1394.72 243.684 1395.79 244.879C1396.86 246.074 1397.39 247.664 1397.39 249.648V249.801C1397.39 251.035 1397.15 252.145 1396.68 253.129C1396.21 254.105 1395.53 254.867 1394.65 255.414C1393.77 255.961 1392.77 256.234 1391.62 256.234C1389.91 256.234 1388.51 255.637 1387.44 254.441C1386.38 253.246 1385.85 251.664 1385.85 249.695V249.543ZM1388.03 249.801C1388.03 251.207 1388.35 252.336 1389 253.188C1389.66 254.039 1390.53 254.465 1391.62 254.465C1392.73 254.465 1393.6 254.035 1394.25 253.176C1394.9 252.309 1395.22 251.098 1395.22 249.543C1395.22 248.152 1394.89 247.027 1394.23 246.168C1393.57 245.301 1392.7 244.867 1391.6 244.867C1390.53 244.867 1389.67 245.293 1389.01 246.145C1388.36 246.996 1388.03 248.215 1388.03 249.801ZM1399.54 249.543C1399.54 248.301 1399.78 247.184 1400.26 246.191C1400.75 245.199 1401.43 244.434 1402.3 243.895C1403.18 243.355 1404.17 243.086 1405.29 243.086C1407.02 243.086 1408.41 243.684 1409.47 244.879C1410.54 246.074 1411.08 247.664 1411.08 249.648V249.801C1411.08 251.035 1410.84 252.145 1410.36 253.129C1409.89 254.105 1409.22 254.867 1408.34 255.414C1407.46 255.961 1406.45 256.234 1405.31 256.234C1403.59 256.234 1402.2 255.637 1401.13 254.441C1400.07 253.246 1399.54 251.664 1399.54 249.695V249.543ZM1401.71 249.801C1401.71 251.207 1402.04 252.336 1402.69 253.188C1403.34 254.039 1404.22 254.465 1405.31 254.465C1406.41 254.465 1407.29 254.035 1407.94 253.176C1408.59 252.309 1408.91 251.098 1408.91 249.543C1408.91 248.152 1408.58 247.027 1407.91 246.168C1407.26 245.301 1406.38 244.867 1405.29 244.867C1404.22 244.867 1403.36 245.293 1402.7 246.145C1402.04 246.996 1401.71 248.215 1401.71 249.801ZM1415.84 243.32L1415.89 244.727C1416.82 243.633 1418.08 243.086 1419.66 243.086C1421.43 243.086 1422.64 243.766 1423.28 245.125C1423.7 244.516 1424.25 244.023 1424.92 243.648C1425.6 243.273 1426.4 243.086 1427.32 243.086C1430.1 243.086 1431.52 244.559 1431.56 247.504V256H1429.39V247.633C1429.39 246.727 1429.19 246.051 1428.77 245.605C1428.36 245.152 1427.66 244.926 1426.69 244.926C1425.88 244.926 1425.21 245.168 1424.68 245.652C1424.15 246.129 1423.84 246.773 1423.76 247.586V256H1421.58V247.691C1421.58 245.848 1420.68 244.926 1418.87 244.926C1417.45 244.926 1416.48 245.531 1415.95 246.742V256H1413.79V243.32H1415.84Z" fill="#565E76"/>
<path d="M1319.73 295.125H1315.5V278.807L1310.45 280.374V276.932L1319.28 273.768H1319.73V295.125ZM1339.2 287.098H1341.62V290.511H1339.2V295.125H1334.97V290.511H1326.22L1326.03 287.845L1334.92 273.797H1339.2V287.098ZM1330.25 287.098H1334.97V279.568L1334.69 280.052L1330.25 287.098ZM1344.3 293.045C1344.3 292.371 1344.52 291.824 1344.97 291.404C1345.43 290.984 1346 290.774 1346.69 290.774C1347.38 290.774 1347.95 290.984 1348.4 291.404C1348.86 291.824 1349.09 292.371 1349.09 293.045C1349.09 293.709 1348.86 294.251 1348.42 294.671C1347.97 295.081 1347.39 295.286 1346.69 295.286C1345.99 295.286 1345.42 295.081 1344.97 294.671C1344.52 294.251 1344.3 293.709 1344.3 293.045ZM1367.25 295.125H1352.63V292.225L1359.53 284.871C1360.48 283.836 1361.18 282.933 1361.63 282.161C1362.09 281.39 1362.32 280.657 1362.32 279.964C1362.32 279.017 1362.08 278.274 1361.6 277.737C1361.12 277.19 1360.44 276.917 1359.55 276.917C1358.59 276.917 1357.83 277.249 1357.28 277.913C1356.73 278.567 1356.46 279.432 1356.46 280.506H1352.21C1352.21 279.207 1352.52 278.021 1353.13 276.946C1353.76 275.872 1354.64 275.032 1355.77 274.427C1356.9 273.812 1358.19 273.504 1359.62 273.504C1361.82 273.504 1363.52 274.031 1364.73 275.086C1365.95 276.141 1366.56 277.63 1366.56 279.554C1366.56 280.608 1366.29 281.683 1365.74 282.776C1365.2 283.87 1364.26 285.145 1362.93 286.6L1358.08 291.712H1367.25V295.125ZM1381.48 279.275L1381.61 281.048C1382.73 279.671 1384.25 278.982 1386.16 278.982C1388.21 278.982 1389.61 279.788 1390.37 281.399C1391.48 279.788 1393.07 278.982 1395.13 278.982C1396.85 278.982 1398.13 279.485 1398.97 280.491C1399.81 281.487 1400.23 282.991 1400.23 285.003V295.125H1395.98V285.018C1395.98 284.119 1395.8 283.465 1395.45 283.055C1395.1 282.635 1394.48 282.425 1393.59 282.425C1392.32 282.425 1391.44 283.03 1390.95 284.241L1390.97 295.125H1386.74V285.032C1386.74 284.114 1386.55 283.45 1386.19 283.04C1385.83 282.63 1385.22 282.425 1384.35 282.425C1383.15 282.425 1382.28 282.923 1381.74 283.919V295.125H1377.51V279.275H1381.48Z" fill="#565E76"/>
<path d="M1409.5 278H1402.68V276.646L1405.9 273.215C1406.34 272.732 1406.66 272.31 1406.87 271.95C1407.09 271.59 1407.2 271.248 1407.2 270.925C1407.2 270.483 1407.08 270.136 1406.86 269.886C1406.64 269.631 1406.32 269.503 1405.9 269.503C1405.46 269.503 1405.1 269.658 1404.84 269.968C1404.59 270.273 1404.46 270.676 1404.46 271.178H1402.48C1402.48 270.572 1402.62 270.018 1402.91 269.517C1403.2 269.015 1403.61 268.623 1404.14 268.341C1404.67 268.054 1405.27 267.91 1405.94 267.91C1406.96 267.91 1407.76 268.156 1408.32 268.648C1408.89 269.141 1409.18 269.836 1409.18 270.733C1409.18 271.226 1409.05 271.727 1408.79 272.237C1408.54 272.748 1408.1 273.342 1407.48 274.021L1405.22 276.407H1409.5V278Z" fill="#565E76"/>
<path d="M645.98 639V621.938H651.559C653.41 621.938 654.801 622.32 655.73 623.086C656.668 623.852 657.137 624.984 657.137 626.484C657.137 627.281 656.91 627.988 656.457 628.605C656.004 629.215 655.387 629.688 654.605 630.023C655.527 630.281 656.254 630.773 656.785 631.5C657.324 632.219 657.594 633.078 657.594 634.078C657.594 635.609 657.098 636.812 656.105 637.688C655.113 638.562 653.711 639 651.898 639H645.98ZM648.23 631.02V637.16H651.945C652.992 637.16 653.816 636.891 654.418 636.352C655.027 635.805 655.332 635.055 655.332 634.102C655.332 632.047 654.215 631.02 651.98 631.02H648.23ZM648.23 629.215H651.629C652.613 629.215 653.398 628.969 653.984 628.477C654.578 627.984 654.875 627.316 654.875 626.473C654.875 625.535 654.602 624.855 654.055 624.434C653.508 624.004 652.676 623.789 651.559 623.789H648.23V629.215ZM665.855 639.234C664.137 639.234 662.738 638.672 661.66 637.547C660.582 636.414 660.043 634.902 660.043 633.012V632.613C660.043 631.355 660.281 630.234 660.758 629.25C661.242 628.258 661.914 627.484 662.773 626.93C663.641 626.367 664.578 626.086 665.586 626.086C667.234 626.086 668.516 626.629 669.43 627.715C670.344 628.801 670.801 630.355 670.801 632.379V633.281H662.211C662.242 634.531 662.605 635.543 663.301 636.316C664.004 637.082 664.895 637.465 665.973 637.465C666.738 637.465 667.387 637.309 667.918 636.996C668.449 636.684 668.914 636.27 669.312 635.754L670.637 636.785C669.574 638.418 667.98 639.234 665.855 639.234ZM665.586 627.867C664.711 627.867 663.977 628.188 663.383 628.828C662.789 629.461 662.422 630.352 662.281 631.5H668.633V631.336C668.57 630.234 668.273 629.383 667.742 628.781C667.211 628.172 666.492 627.867 665.586 627.867ZM672.793 632.555C672.793 630.609 673.254 629.047 674.176 627.867C675.098 626.68 676.305 626.086 677.797 626.086C679.281 626.086 680.457 626.594 681.324 627.609V621H683.492V639H681.5L681.395 637.641C680.527 638.703 679.32 639.234 677.773 639.234C676.305 639.234 675.105 638.633 674.176 637.43C673.254 636.227 672.793 634.656 672.793 632.719V632.555ZM674.961 632.801C674.961 634.238 675.258 635.363 675.852 636.176C676.445 636.988 677.266 637.395 678.312 637.395C679.688 637.395 680.691 636.777 681.324 635.543V629.719C680.676 628.523 679.68 627.926 678.336 627.926C677.273 627.926 676.445 628.336 675.852 629.156C675.258 629.977 674.961 631.191 674.961 632.801ZM692.996 628.266C692.668 628.211 692.312 628.184 691.93 628.184C690.508 628.184 689.543 628.789 689.035 630V639H686.867V626.32H688.977L689.012 627.785C689.723 626.652 690.73 626.086 692.035 626.086C692.457 626.086 692.777 626.141 692.996 626.25V628.266ZM694.191 632.543C694.191 631.301 694.434 630.184 694.918 629.191C695.41 628.199 696.09 627.434 696.957 626.895C697.832 626.355 698.828 626.086 699.945 626.086C701.672 626.086 703.066 626.684 704.129 627.879C705.199 629.074 705.734 630.664 705.734 632.648V632.801C705.734 634.035 705.496 635.145 705.02 636.129C704.551 637.105 703.875 637.867 702.992 638.414C702.117 638.961 701.109 639.234 699.969 639.234C698.25 639.234 696.855 638.637 695.785 637.441C694.723 636.246 694.191 634.664 694.191 632.695V632.543ZM696.371 632.801C696.371 634.207 696.695 635.336 697.344 636.188C698 637.039 698.875 637.465 699.969 637.465C701.07 637.465 701.945 637.035 702.594 636.176C703.242 635.309 703.566 634.098 703.566 632.543C703.566 631.152 703.234 630.027 702.57 629.168C701.914 628.301 701.039 627.867 699.945 627.867C698.875 627.867 698.012 628.293 697.355 629.145C696.699 629.996 696.371 631.215 696.371 632.801ZM707.879 632.543C707.879 631.301 708.121 630.184 708.605 629.191C709.098 628.199 709.777 627.434 710.645 626.895C711.52 626.355 712.516 626.086 713.633 626.086C715.359 626.086 716.754 626.684 717.816 627.879C718.887 629.074 719.422 630.664 719.422 632.648V632.801C719.422 634.035 719.184 635.145 718.707 636.129C718.238 637.105 717.562 637.867 716.68 638.414C715.805 638.961 714.797 639.234 713.656 639.234C711.938 639.234 710.543 638.637 709.473 637.441C708.41 636.246 707.879 634.664 707.879 632.695V632.543ZM710.059 632.801C710.059 634.207 710.383 635.336 711.031 636.188C711.688 637.039 712.562 637.465 713.656 637.465C714.758 637.465 715.633 637.035 716.281 636.176C716.93 635.309 717.254 634.098 717.254 632.543C717.254 631.152 716.922 630.027 716.258 629.168C715.602 628.301 714.727 627.867 713.633 627.867C712.562 627.867 711.699 628.293 711.043 629.145C710.387 629.996 710.059 631.215 710.059 632.801ZM724.18 626.32L724.238 627.727C725.168 626.633 726.422 626.086 728 626.086C729.773 626.086 730.98 626.766 731.621 628.125C732.043 627.516 732.59 627.023 733.262 626.648C733.941 626.273 734.742 626.086 735.664 626.086C738.445 626.086 739.859 627.559 739.906 630.504V639H737.738V630.633C737.738 629.727 737.531 629.051 737.117 628.605C736.703 628.152 736.008 627.926 735.031 627.926C734.227 627.926 733.559 628.168 733.027 628.652C732.496 629.129 732.188 629.773 732.102 630.586V639H729.922V630.691C729.922 628.848 729.02 627.926 727.215 627.926C725.793 627.926 724.82 628.531 724.297 629.742V639H722.129V626.32H724.18Z" fill="#565E76"/>
<path d="M660.069 678.125H645.45V675.225L652.35 667.871C653.297 666.836 653.995 665.933 654.444 665.161C654.903 664.39 655.133 663.657 655.133 662.964C655.133 662.017 654.894 661.274 654.415 660.737C653.937 660.19 653.253 659.917 652.364 659.917C651.407 659.917 650.65 660.249 650.094 660.913C649.547 661.567 649.273 662.432 649.273 663.506H645.025C645.025 662.207 645.333 661.021 645.948 659.946C646.573 658.872 647.452 658.032 648.585 657.427C649.718 656.812 651.002 656.504 652.438 656.504C654.635 656.504 656.339 657.031 657.55 658.086C658.771 659.141 659.381 660.63 659.381 662.554C659.381 663.608 659.107 664.683 658.561 665.776C658.014 666.87 657.076 668.145 655.748 669.6L650.899 674.712H660.069V678.125ZM672.96 678.125H668.727V661.807L663.673 663.374V659.932L672.506 656.768H672.96V678.125ZM680.299 676.045C680.299 675.371 680.523 674.824 680.973 674.404C681.432 673.984 682.003 673.774 682.687 673.774C683.38 673.774 683.951 673.984 684.4 674.404C684.859 674.824 685.089 675.371 685.089 676.045C685.089 676.709 684.864 677.251 684.415 677.671C683.966 678.081 683.39 678.286 682.687 678.286C681.993 678.286 681.422 678.081 680.973 677.671C680.523 677.251 680.299 676.709 680.299 676.045ZM701.158 670.098H703.575V673.511H701.158V678.125H696.925V673.511H688.18L687.989 670.845L696.881 656.797H701.158V670.098ZM692.208 670.098H696.925V662.568L696.646 663.052L692.208 670.098ZM717.477 662.275L717.608 664.048C718.731 662.671 720.25 661.982 722.164 661.982C724.205 661.982 725.606 662.788 726.368 664.399C727.481 662.788 729.068 661.982 731.129 661.982C732.848 661.982 734.127 662.485 734.967 663.491C735.807 664.487 736.227 665.991 736.227 668.003V678.125H731.979V668.018C731.979 667.119 731.803 666.465 731.451 666.055C731.1 665.635 730.479 665.425 729.591 665.425C728.321 665.425 727.442 666.03 726.954 667.241L726.969 678.125H722.735V668.032C722.735 667.114 722.555 666.45 722.193 666.04C721.832 665.63 721.217 665.425 720.348 665.425C719.146 665.425 718.277 665.923 717.74 666.919V678.125H713.507V662.275H717.477Z" fill="#565E76"/>
<path d="M745.499 661H738.677V659.646L741.896 656.215C742.339 655.732 742.664 655.31 742.874 654.95C743.088 654.59 743.195 654.248 743.195 653.925C743.195 653.483 743.084 653.136 742.86 652.886C742.637 652.631 742.318 652.503 741.903 652.503C741.457 652.503 741.104 652.658 740.844 652.968C740.589 653.273 740.461 653.676 740.461 654.178H738.479C738.479 653.572 738.622 653.018 738.909 652.517C739.201 652.015 739.611 651.623 740.14 651.341C740.668 651.054 741.268 650.91 741.938 650.91C742.963 650.91 743.758 651.156 744.323 651.648C744.893 652.141 745.178 652.836 745.178 653.733C745.178 654.226 745.05 654.727 744.795 655.237C744.54 655.748 744.102 656.342 743.482 657.021L741.22 659.407H745.499V661Z" fill="#565E76"/>
<path d="M164.98 695V677.938H170.559C172.41 677.938 173.801 678.32 174.73 679.086C175.668 679.852 176.137 680.984 176.137 682.484C176.137 683.281 175.91 683.988 175.457 684.605C175.004 685.215 174.387 685.688 173.605 686.023C174.527 686.281 175.254 686.773 175.785 687.5C176.324 688.219 176.594 689.078 176.594 690.078C176.594 691.609 176.098 692.812 175.105 693.688C174.113 694.562 172.711 695 170.898 695H164.98ZM167.23 687.02V693.16H170.945C171.992 693.16 172.816 692.891 173.418 692.352C174.027 691.805 174.332 691.055 174.332 690.102C174.332 688.047 173.215 687.02 170.98 687.02H167.23ZM167.23 685.215H170.629C171.613 685.215 172.398 684.969 172.984 684.477C173.578 683.984 173.875 683.316 173.875 682.473C173.875 681.535 173.602 680.855 173.055 680.434C172.508 680.004 171.676 679.789 170.559 679.789H167.23V685.215ZM184.855 695.234C183.137 695.234 181.738 694.672 180.66 693.547C179.582 692.414 179.043 690.902 179.043 689.012V688.613C179.043 687.355 179.281 686.234 179.758 685.25C180.242 684.258 180.914 683.484 181.773 682.93C182.641 682.367 183.578 682.086 184.586 682.086C186.234 682.086 187.516 682.629 188.43 683.715C189.344 684.801 189.801 686.355 189.801 688.379V689.281H181.211C181.242 690.531 181.605 691.543 182.301 692.316C183.004 693.082 183.895 693.465 184.973 693.465C185.738 693.465 186.387 693.309 186.918 692.996C187.449 692.684 187.914 692.27 188.312 691.754L189.637 692.785C188.574 694.418 186.98 695.234 184.855 695.234ZM184.586 683.867C183.711 683.867 182.977 684.188 182.383 684.828C181.789 685.461 181.422 686.352 181.281 687.5H187.633V687.336C187.57 686.234 187.273 685.383 186.742 684.781C186.211 684.172 185.492 683.867 184.586 683.867ZM191.793 688.555C191.793 686.609 192.254 685.047 193.176 683.867C194.098 682.68 195.305 682.086 196.797 682.086C198.281 682.086 199.457 682.594 200.324 683.609V677H202.492V695H200.5L200.395 693.641C199.527 694.703 198.32 695.234 196.773 695.234C195.305 695.234 194.105 694.633 193.176 693.43C192.254 692.227 191.793 690.656 191.793 688.719V688.555ZM193.961 688.801C193.961 690.238 194.258 691.363 194.852 692.176C195.445 692.988 196.266 693.395 197.312 693.395C198.688 693.395 199.691 692.777 200.324 691.543V685.719C199.676 684.523 198.68 683.926 197.336 683.926C196.273 683.926 195.445 684.336 194.852 685.156C194.258 685.977 193.961 687.191 193.961 688.801ZM211.996 684.266C211.668 684.211 211.312 684.184 210.93 684.184C209.508 684.184 208.543 684.789 208.035 686V695H205.867V682.32H207.977L208.012 683.785C208.723 682.652 209.73 682.086 211.035 682.086C211.457 682.086 211.777 682.141 211.996 682.25V684.266ZM213.191 688.543C213.191 687.301 213.434 686.184 213.918 685.191C214.41 684.199 215.09 683.434 215.957 682.895C216.832 682.355 217.828 682.086 218.945 682.086C220.672 682.086 222.066 682.684 223.129 683.879C224.199 685.074 224.734 686.664 224.734 688.648V688.801C224.734 690.035 224.496 691.145 224.02 692.129C223.551 693.105 222.875 693.867 221.992 694.414C221.117 694.961 220.109 695.234 218.969 695.234C217.25 695.234 215.855 694.637 214.785 693.441C213.723 692.246 213.191 690.664 213.191 688.695V688.543ZM215.371 688.801C215.371 690.207 215.695 691.336 216.344 692.188C217 693.039 217.875 693.465 218.969 693.465C220.07 693.465 220.945 693.035 221.594 692.176C222.242 691.309 222.566 690.098 222.566 688.543C222.566 687.152 222.234 686.027 221.57 685.168C220.914 684.301 220.039 683.867 218.945 683.867C217.875 683.867 217.012 684.293 216.355 685.145C215.699 685.996 215.371 687.215 215.371 688.801ZM226.879 688.543C226.879 687.301 227.121 686.184 227.605 685.191C228.098 684.199 228.777 683.434 229.645 682.895C230.52 682.355 231.516 682.086 232.633 682.086C234.359 682.086 235.754 682.684 236.816 683.879C237.887 685.074 238.422 686.664 238.422 688.648V688.801C238.422 690.035 238.184 691.145 237.707 692.129C237.238 693.105 236.562 693.867 235.68 694.414C234.805 694.961 233.797 695.234 232.656 695.234C230.938 695.234 229.543 694.637 228.473 693.441C227.41 692.246 226.879 690.664 226.879 688.695V688.543ZM229.059 688.801C229.059 690.207 229.383 691.336 230.031 692.188C230.688 693.039 231.562 693.465 232.656 693.465C233.758 693.465 234.633 693.035 235.281 692.176C235.93 691.309 236.254 690.098 236.254 688.543C236.254 687.152 235.922 686.027 235.258 685.168C234.602 684.301 233.727 683.867 232.633 683.867C231.562 683.867 230.699 684.293 230.043 685.145C229.387 685.996 229.059 687.215 229.059 688.801ZM243.18 682.32L243.238 683.727C244.168 682.633 245.422 682.086 247 682.086C248.773 682.086 249.98 682.766 250.621 684.125C251.043 683.516 251.59 683.023 252.262 682.648C252.941 682.273 253.742 682.086 254.664 682.086C257.445 682.086 258.859 683.559 258.906 686.504V695H256.738V686.633C256.738 685.727 256.531 685.051 256.117 684.605C255.703 684.152 255.008 683.926 254.031 683.926C253.227 683.926 252.559 684.168 252.027 684.652C251.496 685.129 251.188 685.773 251.102 686.586V695H248.922V686.691C248.922 684.848 248.02 683.926 246.215 683.926C244.793 683.926 243.82 684.531 243.297 685.742V695H241.129V682.32H243.18Z" fill="#565E76"/>
<path d="M179.069 734.125H164.45V731.225L171.35 723.871C172.297 722.836 172.995 721.933 173.444 721.161C173.903 720.39 174.133 719.657 174.133 718.964C174.133 718.017 173.894 717.274 173.415 716.737C172.937 716.19 172.253 715.917 171.364 715.917C170.407 715.917 169.65 716.249 169.094 716.913C168.547 717.567 168.273 718.432 168.273 719.506H164.025C164.025 718.207 164.333 717.021 164.948 715.946C165.573 714.872 166.452 714.032 167.585 713.427C168.718 712.812 170.002 712.504 171.438 712.504C173.635 712.504 175.339 713.031 176.55 714.086C177.771 715.141 178.381 716.63 178.381 718.554C178.381 719.608 178.107 720.683 177.561 721.776C177.014 722.87 176.076 724.145 174.748 725.6L169.899 730.712H179.069V734.125ZM196.032 725.307C196.032 728.256 195.422 730.512 194.201 732.074C192.98 733.637 191.193 734.418 188.84 734.418C186.516 734.418 184.738 733.651 183.508 732.118C182.277 730.585 181.647 728.388 181.618 725.526V721.601C181.618 718.622 182.233 716.361 183.464 714.818C184.704 713.275 186.486 712.504 188.811 712.504C191.135 712.504 192.912 713.271 194.143 714.804C195.373 716.327 196.003 718.52 196.032 721.381V725.307ZM191.799 721C191.799 719.232 191.555 717.948 191.066 717.147C190.588 716.337 189.836 715.932 188.811 715.932C187.814 715.932 187.077 716.317 186.599 717.089C186.13 717.851 185.881 719.047 185.852 720.678V725.863C185.852 727.602 186.086 728.896 186.555 729.745C187.033 730.585 187.795 731.005 188.84 731.005C189.875 731.005 190.622 730.6 191.081 729.789C191.54 728.979 191.779 727.738 191.799 726.068V721ZM199.299 732.045C199.299 731.371 199.523 730.824 199.973 730.404C200.432 729.984 201.003 729.774 201.687 729.774C202.38 729.774 202.951 729.984 203.4 730.404C203.859 730.824 204.089 731.371 204.089 732.045C204.089 732.709 203.864 733.251 203.415 733.671C202.966 734.081 202.39 734.286 201.687 734.286C200.993 734.286 200.422 734.081 199.973 733.671C199.523 733.251 199.299 732.709 199.299 732.045ZM222.253 734.125H207.634V731.225L214.533 723.871C215.48 722.836 216.179 721.933 216.628 721.161C217.087 720.39 217.316 719.657 217.316 718.964C217.316 718.017 217.077 717.274 216.599 716.737C216.12 716.19 215.437 715.917 214.548 715.917C213.591 715.917 212.834 716.249 212.277 716.913C211.73 717.567 211.457 718.432 211.457 719.506H207.209C207.209 718.207 207.517 717.021 208.132 715.946C208.757 714.872 209.636 714.032 210.769 713.427C211.901 712.812 213.186 712.504 214.621 712.504C216.818 712.504 218.522 713.031 219.733 714.086C220.954 715.141 221.564 716.63 221.564 718.554C221.564 719.608 221.291 720.683 220.744 721.776C220.197 722.87 219.26 724.145 217.932 725.6L213.083 730.712H222.253V734.125ZM236.477 718.275L236.608 720.048C237.731 718.671 239.25 717.982 241.164 717.982C243.205 717.982 244.606 718.788 245.368 720.399C246.481 718.788 248.068 717.982 250.129 717.982C251.848 717.982 253.127 718.485 253.967 719.491C254.807 720.487 255.227 721.991 255.227 724.003V734.125H250.979V724.018C250.979 723.119 250.803 722.465 250.451 722.055C250.1 721.635 249.479 721.425 248.591 721.425C247.321 721.425 246.442 722.03 245.954 723.241L245.969 734.125H241.735V724.032C241.735 723.114 241.555 722.45 241.193 722.04C240.832 721.63 240.217 721.425 239.348 721.425C238.146 721.425 237.277 721.923 236.74 722.919V734.125H232.507V718.275H236.477Z" fill="#565E76"/>
<path d="M264.499 717H257.677V715.646L260.896 712.215C261.339 711.732 261.664 711.31 261.874 710.95C262.088 710.59 262.195 710.248 262.195 709.925C262.195 709.483 262.084 709.136 261.86 708.886C261.637 708.631 261.318 708.503 260.903 708.503C260.457 708.503 260.104 708.658 259.844 708.968C259.589 709.273 259.461 709.676 259.461 710.178H257.479C257.479 709.572 257.622 709.018 257.909 708.517C258.201 708.015 258.611 707.623 259.14 707.341C259.668 707.054 260.268 706.91 260.938 706.91C261.963 706.91 262.758 707.156 263.323 707.648C263.893 708.141 264.178 708.836 264.178 709.733C264.178 710.226 264.05 710.727 263.795 711.237C263.54 711.748 263.102 712.342 262.482 713.021L260.22 715.407H264.499V717Z" fill="#565E76"/>
</g>
<defs>
<clipPath id="clip0">
<rect width="1600" height="1097" fill="white" transform="matrix(1 0 0 -1 0 1097)"/>
</clipPath>
</defs>
</svg>
