<svg width="1773" height="1267" viewBox="0 0 1773 1267" fill="none" xmlns="http://www.w3.org/2000/svg">
<g clip-path="url(#clip0)">
<path d="M0 0H1773V1266.11H0V0Z" fill="white"/>
<path d="M41.3462 835.372V76.2461H1603.56V1057.46H952.635V835.372H41.3462Z" fill="#F4F4F5"/>
<path d="M319.848 533.892H151.181V365.224H319.848V533.892Z" fill="#565E76"/>
<path d="M200.11 406.588V411.193H203.661V413.707H200.11V425.502C200.11 426.264 200.268 426.838 200.584 427.225C200.901 427.6 201.44 427.787 202.202 427.787C202.577 427.787 203.092 427.717 203.749 427.576V430.213C202.893 430.447 202.061 430.564 201.252 430.564C199.799 430.564 198.704 430.125 197.965 429.246C197.227 428.367 196.858 427.119 196.858 425.502V413.707H193.395V411.193H196.858V406.588H200.11ZM206.262 420.527C206.262 418.664 206.625 416.988 207.352 415.5C208.09 414.012 209.11 412.863 210.411 412.055C211.723 411.246 213.217 410.842 214.893 410.842C217.483 410.842 219.575 411.738 221.168 413.531C222.774 415.324 223.577 417.709 223.577 420.686V420.914C223.577 422.766 223.219 424.43 222.504 425.906C221.801 427.371 220.788 428.514 219.463 429.334C218.151 430.154 216.639 430.564 214.928 430.564C212.35 430.564 210.258 429.668 208.653 427.875C207.059 426.082 206.262 423.709 206.262 420.756V420.527ZM209.532 420.914C209.532 423.023 210.018 424.717 210.991 425.994C211.975 427.271 213.288 427.91 214.928 427.91C216.581 427.91 217.893 427.266 218.866 425.977C219.838 424.676 220.325 422.859 220.325 420.527C220.325 418.441 219.827 416.754 218.831 415.465C217.846 414.164 216.534 413.514 214.893 413.514C213.288 413.514 211.993 414.152 211.008 415.43C210.024 416.707 209.532 418.535 209.532 420.914ZM232.067 406.588V411.193H235.618V413.707H232.067V425.502C232.067 426.264 232.225 426.838 232.542 427.225C232.858 427.6 233.397 427.787 234.159 427.787C234.534 427.787 235.049 427.717 235.706 427.576V430.213C234.85 430.447 234.018 430.564 233.209 430.564C231.756 430.564 230.661 430.125 229.922 429.246C229.184 428.367 228.815 427.119 228.815 425.502V413.707H225.352V411.193H228.815V406.588H232.067ZM251.174 430.213C250.987 429.838 250.834 429.17 250.717 428.209C249.206 429.779 247.401 430.564 245.303 430.564C243.428 430.564 241.887 430.037 240.68 428.982C239.485 427.916 238.887 426.568 238.887 424.939C238.887 422.959 239.637 421.424 241.137 420.334C242.649 419.232 244.77 418.682 247.5 418.682H250.665V417.188C250.665 416.051 250.325 415.148 249.645 414.48C248.965 413.801 247.963 413.461 246.639 413.461C245.479 413.461 244.506 413.754 243.721 414.34C242.936 414.926 242.543 415.635 242.543 416.467H239.274C239.274 415.518 239.608 414.604 240.276 413.725C240.956 412.834 241.87 412.131 243.018 411.615C244.178 411.1 245.45 410.842 246.833 410.842C249.024 410.842 250.741 411.393 251.983 412.494C253.225 413.584 253.87 415.09 253.917 417.012V425.766C253.917 427.512 254.139 428.9 254.584 429.932V430.213H251.174ZM245.778 427.734C246.797 427.734 247.764 427.471 248.678 426.943C249.592 426.416 250.254 425.73 250.665 424.887V420.984H248.116C244.131 420.984 242.139 422.15 242.139 424.482C242.139 425.502 242.479 426.299 243.159 426.873C243.838 427.447 244.711 427.734 245.778 427.734ZM262.547 430.213H259.295V403.213H262.547V430.213Z" fill="white"/>
<path d="M284.394 448.841C284.175 448.914 284.102 449.06 284.175 449.279L284.577 450.412C284.65 450.595 284.796 450.668 284.979 450.595L286.002 450.302C286.77 450.046 287.647 449.864 288.597 449.864C290.132 449.864 291.155 450.631 291.155 451.764C291.155 452.458 290.68 453.08 289.839 453.664L286.587 455.784C284.796 456.953 284.029 458.598 284.029 460.9V461.777C284.029 461.997 284.138 462.106 284.358 462.106H292.653C292.873 462.106 292.982 461.997 292.982 461.777V460.608C292.982 460.389 292.873 460.279 292.653 460.279H286.039C286.039 459.073 286.441 458.123 287.574 457.392L290.863 455.236C292.434 454.213 293.165 453.116 293.165 451.764C293.165 449.389 291.411 448 288.597 448C287.464 448 286.441 448.183 285.381 448.512L284.394 448.841Z" fill="white"/>
<path d="M176.76 466.314H179.181C180.523 466.314 181.694 466.08 182.697 465.611C183.7 465.13 184.461 464.479 184.982 463.658C185.516 462.825 185.783 461.868 185.783 460.787C185.783 458.964 185.269 457.538 184.24 456.51C183.211 455.481 181.733 454.967 179.806 454.967C177.983 454.967 176.486 455.507 175.314 456.588C174.155 457.656 173.576 459.068 173.576 460.826H171.232C171.232 459.355 171.603 458.014 172.345 456.803C173.088 455.579 174.116 454.635 175.431 453.971C176.747 453.307 178.205 452.975 179.806 452.975C182.385 452.975 184.416 453.678 185.9 455.084C187.385 456.49 188.127 458.417 188.127 460.865C188.127 462.232 187.691 463.495 186.818 464.654C185.959 465.8 184.774 466.66 183.263 467.232C185.034 467.727 186.375 468.58 187.287 469.791C188.198 470.989 188.654 472.421 188.654 474.088C188.654 476.523 187.86 478.482 186.271 479.967C184.683 481.451 182.56 482.193 179.904 482.193C178.211 482.193 176.655 481.855 175.236 481.178C173.83 480.501 172.736 479.557 171.955 478.346C171.187 477.122 170.802 475.702 170.802 474.088H173.146C173.146 475.898 173.778 477.376 175.041 478.521C176.304 479.654 177.925 480.221 179.904 480.221C181.922 480.221 183.491 479.706 184.611 478.678C185.744 477.636 186.31 476.132 186.31 474.166C186.31 472.265 185.698 470.813 184.474 469.811C183.263 468.808 181.473 468.307 179.103 468.307H176.76V466.314ZM211.564 481.803H193.752V480.006L203.498 468.951C205.112 467.089 206.232 465.553 206.857 464.342C207.482 463.131 207.795 461.952 207.795 460.807C207.795 459.01 207.267 457.59 206.213 456.549C205.158 455.494 203.706 454.967 201.857 454.967C199.943 454.967 198.394 455.579 197.209 456.803C196.037 458.027 195.451 459.615 195.451 461.568H193.127C193.127 459.967 193.485 458.508 194.201 457.193C194.93 455.878 195.959 454.85 197.287 454.107C198.628 453.352 200.151 452.975 201.857 452.975C204.461 452.975 206.493 453.658 207.951 455.025C209.422 456.393 210.158 458.255 210.158 460.611C210.158 461.939 209.741 463.391 208.908 464.967C208.088 466.542 206.636 468.508 204.552 470.865L196.623 479.83H211.564V481.803ZM233.088 469.947C233.088 473.958 232.352 477.005 230.881 479.088C229.409 481.158 227.241 482.193 224.377 482.193C221.564 482.193 219.409 481.178 217.912 479.146C216.414 477.102 215.646 474.133 215.607 470.24V465.143C215.607 461.145 216.349 458.118 217.834 456.061C219.318 454.003 221.486 452.975 224.338 452.975C227.15 452.975 229.299 453.971 230.783 455.963C232.267 457.942 233.036 460.865 233.088 464.732V469.947ZM230.744 464.85C230.744 461.594 230.21 459.133 229.142 457.467C228.088 455.8 226.486 454.967 224.338 454.967C222.228 454.967 220.64 455.781 219.572 457.408C218.504 459.036 217.957 461.438 217.931 464.615V470.201C217.931 473.443 218.478 475.924 219.572 477.643C220.679 479.361 222.28 480.221 224.377 480.221C226.46 480.221 228.036 479.381 229.103 477.701C230.184 476.021 230.731 473.561 230.744 470.318V464.85ZM250.353 460.67L250.431 464.107C251.213 462.831 252.189 461.874 253.361 461.236C254.533 460.598 255.835 460.279 257.267 460.279C260.601 460.279 262.717 461.646 263.615 464.381C264.37 463.066 265.379 462.057 266.642 461.354C267.905 460.637 269.299 460.279 270.822 460.279C275.353 460.279 277.664 462.753 277.756 467.701V481.803H275.412V467.877C275.399 465.989 274.989 464.589 274.181 463.678C273.387 462.766 272.085 462.311 270.275 462.311C268.595 462.337 267.176 462.883 266.017 463.951C264.858 465.006 264.214 466.295 264.084 467.818V481.803H261.74V467.701C261.727 465.891 261.297 464.544 260.451 463.658C259.618 462.76 258.329 462.311 256.584 462.311C255.112 462.311 253.849 462.734 252.795 463.58C251.74 464.413 250.959 465.657 250.451 467.311V481.803H248.107V460.67H250.353Z" fill="white"/>
<path d="M1348.79 426.774L1346.71 428.942V434.708H1344.46V417.646H1346.71V426.083L1354.29 417.646H1357.01L1350.29 425.181L1357.54 434.708H1354.84L1348.79 426.774ZM1361.52 434.708H1359.35V422.028H1361.52V434.708ZM1359.18 418.665C1359.18 418.313 1359.28 418.017 1359.49 417.774C1359.71 417.532 1360.03 417.411 1360.45 417.411C1360.88 417.411 1361.2 417.532 1361.42 417.774C1361.63 418.017 1361.74 418.313 1361.74 418.665C1361.74 419.017 1361.63 419.31 1361.42 419.544C1361.2 419.778 1360.88 419.896 1360.45 419.896C1360.03 419.896 1359.71 419.778 1359.49 419.544C1359.28 419.31 1359.18 419.017 1359.18 418.665ZM1367.94 418.958V422.028H1370.31V423.704H1367.94V431.567C1367.94 432.075 1368.05 432.458 1368.26 432.716C1368.47 432.966 1368.83 433.091 1369.34 433.091C1369.59 433.091 1369.93 433.044 1370.37 432.95V434.708C1369.8 434.864 1369.24 434.942 1368.7 434.942C1367.74 434.942 1367 434.649 1366.51 434.063C1366.02 433.478 1365.77 432.646 1365.77 431.567V423.704H1363.47V422.028H1365.77V418.958H1367.94ZM1377.94 433.173C1378.71 433.173 1379.39 432.938 1379.97 432.47C1380.54 432.001 1380.86 431.415 1380.93 430.712H1382.98C1382.94 431.438 1382.69 432.13 1382.23 432.786C1381.77 433.442 1381.15 433.966 1380.38 434.356C1379.61 434.747 1378.8 434.942 1377.94 434.942C1376.21 434.942 1374.84 434.368 1373.81 433.22C1372.8 432.063 1372.29 430.485 1372.29 428.485V428.122C1372.29 426.888 1372.52 425.79 1372.97 424.829C1373.42 423.868 1374.07 423.122 1374.92 422.591C1375.77 422.06 1376.77 421.794 1377.93 421.794C1379.35 421.794 1380.53 422.22 1381.47 423.071C1382.41 423.923 1382.92 425.028 1382.98 426.388H1380.93C1380.86 425.567 1380.55 424.896 1379.99 424.372C1379.43 423.841 1378.75 423.575 1377.93 423.575C1376.83 423.575 1375.97 423.974 1375.36 424.771C1374.76 425.56 1374.46 426.704 1374.46 428.204V428.614C1374.46 430.075 1374.76 431.2 1375.36 431.989C1375.96 432.778 1376.82 433.173 1377.94 433.173ZM1387.58 423.563C1388.54 422.384 1389.79 421.794 1391.33 421.794C1394.01 421.794 1395.36 423.306 1395.39 426.329V434.708H1393.22V426.317C1393.21 425.403 1393 424.728 1392.59 424.29C1392.18 423.853 1391.54 423.634 1390.68 423.634C1389.97 423.634 1389.36 423.821 1388.83 424.196C1388.29 424.571 1387.88 425.063 1387.58 425.673V434.708H1385.42V416.708H1387.58V423.563ZM1403.9 434.942C1402.18 434.942 1400.78 434.38 1399.7 433.255C1398.62 432.122 1398.08 430.61 1398.08 428.72V428.321C1398.08 427.063 1398.32 425.942 1398.8 424.958C1399.28 423.966 1399.95 423.192 1400.81 422.638C1401.68 422.075 1402.62 421.794 1403.63 421.794C1405.27 421.794 1406.56 422.337 1407.47 423.423C1408.38 424.509 1408.84 426.063 1408.84 428.087V428.989H1400.25C1400.28 430.239 1400.65 431.251 1401.34 432.024C1402.04 432.79 1402.93 433.173 1404.01 433.173C1404.78 433.173 1405.43 433.017 1405.96 432.704C1406.49 432.392 1406.95 431.978 1407.35 431.462L1408.68 432.493C1407.61 434.126 1406.02 434.942 1403.9 434.942ZM1403.63 423.575C1402.75 423.575 1402.02 423.896 1401.42 424.536C1400.83 425.169 1400.46 426.06 1400.32 427.208H1406.67V427.044C1406.61 425.942 1406.31 425.091 1405.78 424.489C1405.25 423.88 1404.53 423.575 1403.63 423.575ZM1413.41 422.028L1413.48 423.622C1414.45 422.403 1415.72 421.794 1417.28 421.794C1419.96 421.794 1421.31 423.306 1421.33 426.329V434.708H1419.17V426.317C1419.16 425.403 1418.95 424.728 1418.53 424.29C1418.13 423.853 1417.49 423.634 1416.62 423.634C1415.92 423.634 1415.3 423.821 1414.77 424.196C1414.24 424.571 1413.83 425.063 1413.53 425.673V434.708H1411.36V422.028H1413.41Z" fill="#565E76"/>
<path d="M1358.42 479.551H1344.07V477.104L1351.18 469.355C1352.2 468.213 1352.93 467.261 1353.36 466.499C1353.8 465.728 1354.02 464.956 1354.02 464.185C1354.02 463.169 1353.73 462.349 1353.16 461.724C1352.59 461.099 1351.82 460.786 1350.86 460.786C1349.7 460.786 1348.81 461.138 1348.18 461.841C1347.54 462.544 1347.22 463.506 1347.22 464.727H1343.66C1343.66 463.428 1343.96 462.261 1344.54 461.226C1345.14 460.181 1345.98 459.37 1347.08 458.794C1348.18 458.218 1349.45 457.93 1350.89 457.93C1352.96 457.93 1354.59 458.452 1355.78 459.497C1356.98 460.532 1357.58 461.968 1357.58 463.804C1357.58 464.868 1357.28 465.986 1356.67 467.158C1356.08 468.32 1355.09 469.644 1353.73 471.128L1348.51 476.709H1358.42V479.551ZM1370.76 479.551H1367.22V462.427L1361.99 464.214V461.211L1370.31 458.149H1370.76V479.551ZM1380.62 475.801C1381.29 475.801 1381.8 475.991 1382.16 476.372C1382.52 476.743 1382.7 477.212 1382.7 477.778C1382.7 478.335 1382.52 478.799 1382.16 479.17C1381.8 479.531 1381.29 479.712 1380.62 479.712C1379.99 479.712 1379.48 479.531 1379.11 479.17C1378.74 478.809 1378.56 478.345 1378.56 477.778C1378.56 477.212 1378.74 476.743 1379.1 476.372C1379.46 475.991 1379.97 475.801 1380.62 475.801ZM1387.51 468.975L1388.66 458.223H1400.12V461.299H1391.62L1391.04 466.396C1392.02 465.83 1393.14 465.547 1394.38 465.547C1396.41 465.547 1397.99 466.196 1399.11 467.495C1400.24 468.794 1400.81 470.542 1400.81 472.739C1400.81 474.907 1400.18 476.636 1398.93 477.925C1397.68 479.204 1395.97 479.844 1393.79 479.844C1391.84 479.844 1390.22 479.292 1388.93 478.188C1387.65 477.075 1386.96 475.61 1386.85 473.794H1390.29C1390.43 474.829 1390.8 475.625 1391.4 476.182C1392.01 476.729 1392.8 477.002 1393.78 477.002C1394.87 477.002 1395.72 476.611 1396.33 475.83C1396.94 475.049 1397.25 473.984 1397.25 472.637C1397.25 471.338 1396.91 470.312 1396.24 469.561C1395.56 468.799 1394.64 468.418 1393.45 468.418C1392.81 468.418 1392.26 468.506 1391.81 468.682C1391.36 468.848 1390.88 469.18 1390.35 469.678L1387.51 468.975ZM1414.65 463.701L1414.75 465.356C1415.87 464.058 1417.39 463.408 1419.32 463.408C1421.44 463.408 1422.89 464.219 1423.67 465.84C1424.83 464.219 1426.45 463.408 1428.54 463.408C1430.29 463.408 1431.58 463.892 1432.43 464.858C1433.29 465.825 1433.73 467.251 1433.75 469.136V479.551H1430.19V469.238C1430.19 468.232 1429.97 467.495 1429.53 467.026C1429.09 466.558 1428.37 466.323 1427.35 466.323C1426.54 466.323 1425.88 466.543 1425.36 466.982C1424.85 467.412 1424.49 467.979 1424.29 468.682L1424.3 479.551H1420.74V469.121C1420.7 467.256 1419.74 466.323 1417.89 466.323C1416.46 466.323 1415.45 466.904 1414.86 468.066V479.551H1411.3V463.701H1414.65Z" fill="#565E76"/>
<path d="M1444.67 464H1438.46V462.94L1441.53 459.582C1441.98 459.087 1442.29 458.674 1442.48 458.344C1442.67 458.01 1442.77 457.676 1442.77 457.341C1442.77 456.901 1442.64 456.546 1442.39 456.275C1442.15 456.004 1441.81 455.869 1441.4 455.869C1440.9 455.869 1440.51 456.021 1440.23 456.326C1439.96 456.63 1439.82 457.047 1439.82 457.576H1438.28C1438.28 457.013 1438.41 456.508 1438.66 456.059C1438.92 455.606 1439.28 455.255 1439.76 455.005C1440.24 454.756 1440.79 454.631 1441.41 454.631C1442.3 454.631 1443.01 454.857 1443.53 455.31C1444.05 455.759 1444.31 456.381 1444.31 457.176C1444.31 457.638 1444.18 458.122 1443.92 458.63C1443.66 459.133 1443.23 459.707 1442.64 460.35L1440.38 462.769H1444.67V464Z" fill="#565E76"/>
<path d="M961.525 346.169V329.106H967.103C968.955 329.106 970.346 329.489 971.275 330.255C972.213 331.021 972.682 332.153 972.682 333.653C972.682 334.45 972.455 335.157 972.002 335.774C971.549 336.384 970.932 336.856 970.15 337.192C971.072 337.45 971.799 337.942 972.33 338.669C972.869 339.388 973.139 340.247 973.139 341.247C973.139 342.778 972.642 343.981 971.65 344.856C970.658 345.731 969.256 346.169 967.443 346.169H961.525ZM963.775 338.188V344.329H967.49C968.537 344.329 969.361 344.06 969.963 343.521C970.572 342.974 970.877 342.224 970.877 341.271C970.877 339.216 969.76 338.188 967.525 338.188H963.775ZM963.775 336.384H967.174C968.158 336.384 968.943 336.138 969.529 335.646C970.123 335.153 970.42 334.485 970.42 333.642C970.42 332.704 970.146 332.024 969.599 331.603C969.053 331.173 968.221 330.958 967.103 330.958H963.775V336.384ZM981.4 346.403C979.682 346.403 978.283 345.841 977.205 344.716C976.127 343.583 975.588 342.071 975.588 340.181V339.782C975.588 338.524 975.826 337.403 976.303 336.419C976.787 335.427 977.459 334.653 978.318 334.099C979.185 333.536 980.123 333.255 981.131 333.255C982.779 333.255 984.06 333.798 984.974 334.884C985.889 335.97 986.346 337.524 986.346 339.548V340.45H977.756C977.787 341.7 978.15 342.712 978.846 343.485C979.549 344.251 980.439 344.634 981.517 344.634C982.283 344.634 982.932 344.478 983.463 344.165C983.994 343.853 984.459 343.438 984.857 342.923L986.182 343.954C985.119 345.587 983.525 346.403 981.4 346.403ZM981.131 335.036C980.256 335.036 979.521 335.356 978.928 335.997C978.334 336.63 977.967 337.521 977.826 338.669H984.178V338.505C984.115 337.403 983.818 336.552 983.287 335.95C982.756 335.341 982.037 335.036 981.131 335.036ZM988.338 339.724C988.338 337.778 988.799 336.216 989.721 335.036C990.642 333.849 991.849 333.255 993.342 333.255C994.826 333.255 996.002 333.763 996.869 334.778V328.169H999.037V346.169H997.045L996.939 344.81C996.072 345.872 994.865 346.403 993.318 346.403C991.849 346.403 990.65 345.802 989.721 344.599C988.799 343.396 988.338 341.825 988.338 339.888V339.724ZM990.506 339.97C990.506 341.407 990.803 342.532 991.396 343.345C991.99 344.157 992.81 344.563 993.857 344.563C995.232 344.563 996.236 343.946 996.869 342.712V336.888C996.221 335.692 995.224 335.095 993.881 335.095C992.818 335.095 991.99 335.505 991.396 336.325C990.803 337.146 990.506 338.36 990.506 339.97ZM1008.54 335.435C1008.21 335.38 1007.86 335.353 1007.47 335.353C1006.05 335.353 1005.09 335.958 1004.58 337.169V346.169H1002.41V333.489H1004.52L1004.56 334.954C1005.27 333.821 1006.28 333.255 1007.58 333.255C1008 333.255 1008.32 333.31 1008.54 333.419V335.435ZM1009.74 339.712C1009.74 338.47 1009.98 337.353 1010.46 336.36C1010.95 335.368 1011.63 334.603 1012.5 334.063C1013.38 333.524 1014.37 333.255 1015.49 333.255C1017.22 333.255 1018.61 333.853 1019.67 335.048C1020.74 336.243 1021.28 337.833 1021.28 339.817V339.97C1021.28 341.204 1021.04 342.313 1020.56 343.298C1020.1 344.274 1019.42 345.036 1018.54 345.583C1017.66 346.13 1016.65 346.403 1015.51 346.403C1013.79 346.403 1012.4 345.806 1011.33 344.61C1010.27 343.415 1009.74 341.833 1009.74 339.864V339.712ZM1011.92 339.97C1011.92 341.376 1012.24 342.505 1012.89 343.356C1013.54 344.208 1014.42 344.634 1015.51 344.634C1016.62 344.634 1017.49 344.204 1018.14 343.345C1018.79 342.478 1019.11 341.267 1019.11 339.712C1019.11 338.321 1018.78 337.196 1018.12 336.337C1017.46 335.47 1016.58 335.036 1015.49 335.036C1014.42 335.036 1013.56 335.462 1012.9 336.313C1012.24 337.165 1011.92 338.384 1011.92 339.97ZM1023.42 339.712C1023.42 338.47 1023.67 337.353 1024.15 336.36C1024.64 335.368 1025.32 334.603 1026.19 334.063C1027.06 333.524 1028.06 333.255 1029.18 333.255C1030.9 333.255 1032.3 333.853 1033.36 335.048C1034.43 336.243 1034.97 337.833 1034.97 339.817V339.97C1034.97 341.204 1034.73 342.313 1034.25 343.298C1033.78 344.274 1033.11 345.036 1032.22 345.583C1031.35 346.13 1030.34 346.403 1029.2 346.403C1027.48 346.403 1026.09 345.806 1025.02 344.61C1023.95 343.415 1023.42 341.833 1023.42 339.864V339.712ZM1025.6 339.97C1025.6 341.376 1025.93 342.505 1026.58 343.356C1027.23 344.208 1028.11 344.634 1029.2 344.634C1030.3 344.634 1031.18 344.204 1031.83 343.345C1032.47 342.478 1032.8 341.267 1032.8 339.712C1032.8 338.321 1032.47 337.196 1031.8 336.337C1031.15 335.47 1030.27 335.036 1029.18 335.036C1028.11 335.036 1027.24 335.462 1026.59 336.313C1025.93 337.165 1025.6 338.384 1025.6 339.97ZM1039.72 333.489L1039.78 334.896C1040.71 333.802 1041.97 333.255 1043.54 333.255C1045.32 333.255 1046.53 333.935 1047.17 335.294C1047.59 334.685 1048.13 334.192 1048.81 333.817C1049.49 333.442 1050.29 333.255 1051.21 333.255C1053.99 333.255 1055.4 334.728 1055.45 337.673V346.169H1053.28V337.802C1053.28 336.896 1053.08 336.22 1052.66 335.774C1052.25 335.321 1051.55 335.095 1050.58 335.095C1049.77 335.095 1049.1 335.337 1048.57 335.821C1048.04 336.298 1047.73 336.942 1047.65 337.755V346.169H1045.47V337.86C1045.47 336.017 1044.56 335.095 1042.76 335.095C1041.34 335.095 1040.37 335.7 1039.84 336.911V346.169H1037.67V333.489H1039.72Z" fill="#565E76"/>
<path d="M965.258 378.722H967.426C968.519 378.712 969.384 378.429 970.018 377.872C970.663 377.315 970.985 376.51 970.985 375.455C970.985 374.439 970.717 373.653 970.18 373.097C969.652 372.53 968.842 372.247 967.748 372.247C966.791 372.247 966.005 372.525 965.39 373.082C964.774 373.629 964.467 374.347 964.467 375.235H960.907C960.907 374.142 961.195 373.146 961.771 372.247C962.357 371.349 963.168 370.65 964.203 370.152C965.248 369.645 966.415 369.391 967.704 369.391C969.833 369.391 971.503 369.928 972.714 371.002C973.934 372.066 974.545 373.551 974.545 375.455C974.545 376.412 974.237 377.315 973.622 378.165C973.016 379.005 972.23 379.64 971.264 380.069C972.435 380.47 973.324 381.1 973.93 381.959C974.545 382.818 974.852 383.844 974.852 385.035C974.852 386.949 974.193 388.473 972.875 389.605C971.566 390.738 969.843 391.305 967.704 391.305C965.653 391.305 963.974 390.758 962.665 389.664C961.356 388.57 960.702 387.115 960.702 385.299H964.262C964.262 386.236 964.574 386.998 965.199 387.584C965.834 388.17 966.683 388.463 967.748 388.463C968.851 388.463 969.721 388.17 970.355 387.584C970.99 386.998 971.307 386.148 971.307 385.035C971.307 383.912 970.975 383.048 970.311 382.442C969.647 381.837 968.661 381.534 967.352 381.534H965.258V378.722ZM992.094 382.032C992.094 385.099 991.517 387.413 990.365 388.976C989.223 390.528 987.479 391.305 985.136 391.305C982.831 391.305 981.093 390.548 979.921 389.034C978.759 387.511 978.163 385.26 978.134 382.281V378.59C978.134 375.523 978.705 373.224 979.848 371.69C981 370.157 982.753 369.391 985.106 369.391C987.44 369.391 989.179 370.138 990.321 371.632C991.474 373.126 992.064 375.362 992.094 378.341V382.032ZM988.534 378.048C988.534 376.046 988.261 374.581 987.714 373.653C987.167 372.716 986.298 372.247 985.106 372.247C983.944 372.247 983.09 372.691 982.543 373.58C981.996 374.459 981.708 375.836 981.679 377.711V382.545C981.679 384.537 981.957 386.021 982.514 386.998C983.07 387.975 983.944 388.463 985.136 388.463C986.278 388.463 987.123 388.014 987.67 387.115C988.217 386.207 988.505 384.791 988.534 382.867V378.048ZM997.689 387.262C998.353 387.262 998.866 387.452 999.227 387.833C999.589 388.204 999.769 388.673 999.769 389.239C999.769 389.796 999.589 390.26 999.227 390.631C998.866 390.992 998.353 391.173 997.689 391.173C997.055 391.173 996.552 390.992 996.181 390.631C995.809 390.27 995.624 389.806 995.624 389.239C995.624 388.673 995.805 388.204 996.166 387.833C996.527 387.452 997.035 387.262 997.689 387.262ZM1013.26 391.012H1009.72V373.888L1004.49 375.675V372.672L1012.81 369.61H1013.26V391.012ZM1021.62 380.436L1022.78 369.684H1034.24V372.76H1025.74L1025.16 377.857C1026.14 377.291 1027.25 377.008 1028.49 377.008C1030.53 377.008 1032.1 377.657 1033.23 378.956C1034.36 380.255 1034.93 382.003 1034.93 384.2C1034.93 386.368 1034.3 388.097 1033.05 389.386C1031.8 390.665 1030.09 391.305 1027.91 391.305C1025.96 391.305 1024.33 390.753 1023.05 389.649C1021.77 388.536 1021.07 387.071 1020.97 385.255H1024.41C1024.54 386.29 1024.92 387.086 1025.52 387.643C1026.13 388.189 1026.92 388.463 1027.89 388.463C1028.99 388.463 1029.84 388.072 1030.44 387.291C1031.06 386.51 1031.37 385.445 1031.37 384.098C1031.37 382.799 1031.03 381.773 1030.36 381.021C1029.68 380.26 1028.75 379.879 1027.57 379.879C1026.93 379.879 1026.38 379.967 1025.93 380.143C1025.48 380.309 1024.99 380.641 1024.47 381.139L1021.62 380.436ZM1048.77 375.162L1048.87 376.817C1049.98 375.519 1051.51 374.869 1053.44 374.869C1055.56 374.869 1057.01 375.68 1057.79 377.301C1058.94 375.68 1060.57 374.869 1062.66 374.869C1064.4 374.869 1065.7 375.353 1066.55 376.319C1067.41 377.286 1067.85 378.712 1067.87 380.597V391.012H1064.31V380.699C1064.31 379.693 1064.09 378.956 1063.65 378.487C1063.21 378.019 1062.48 377.784 1061.47 377.784C1060.66 377.784 1059.99 378.004 1059.48 378.443C1058.97 378.873 1058.61 379.439 1058.41 380.143L1058.42 391.012H1054.86V380.582C1054.81 378.717 1053.86 377.784 1052.01 377.784C1050.58 377.784 1049.57 378.365 1048.97 379.527V391.012H1045.41V375.162H1048.77Z" fill="#565E76"/>
<path d="M1079.81 376H1073.59V374.94L1076.67 371.582C1077.11 371.087 1077.43 370.674 1077.62 370.344C1077.81 370.01 1077.9 369.676 1077.9 369.341C1077.9 368.901 1077.78 368.546 1077.53 368.275C1077.28 368.004 1076.95 367.869 1076.53 367.869C1076.03 367.869 1075.64 368.021 1075.37 368.326C1075.09 368.63 1074.96 369.047 1074.96 369.576H1073.41C1073.41 369.013 1073.54 368.508 1073.79 368.059C1074.05 367.606 1074.42 367.255 1074.89 367.005C1075.37 366.756 1075.92 366.631 1076.54 366.631C1077.44 366.631 1078.15 366.857 1078.66 367.31C1079.18 367.759 1079.44 368.381 1079.44 369.176C1079.44 369.638 1079.31 370.122 1079.05 370.63C1078.79 371.133 1078.37 371.707 1077.77 372.35L1075.51 374.769H1079.81V376Z" fill="#565E76"/>
<path d="M851.791 729.102H849.529V721.215H840.927V729.102H838.677V712.039H840.927V719.375H849.529V712.039H851.791V729.102ZM863.275 729.102C863.15 728.852 863.048 728.406 862.97 727.766C861.963 728.812 860.759 729.336 859.361 729.336C858.111 729.336 857.084 728.984 856.279 728.281C855.482 727.57 855.084 726.672 855.084 725.586C855.084 724.266 855.584 723.242 856.584 722.516C857.591 721.781 859.005 721.414 860.826 721.414H862.935V720.418C862.935 719.66 862.709 719.059 862.255 718.613C861.802 718.16 861.134 717.934 860.252 717.934C859.478 717.934 858.83 718.129 858.306 718.52C857.783 718.91 857.521 719.383 857.521 719.938H855.341C855.341 719.305 855.564 718.695 856.009 718.109C856.463 717.516 857.072 717.047 857.838 716.703C858.611 716.359 859.459 716.188 860.38 716.188C861.841 716.188 862.986 716.555 863.814 717.289C864.642 718.016 865.072 719.02 865.103 720.301V726.137C865.103 727.301 865.252 728.227 865.548 728.914V729.102H863.275ZM859.677 727.449C860.357 727.449 861.002 727.273 861.611 726.922C862.22 726.57 862.662 726.113 862.935 725.551V722.949H861.236C858.58 722.949 857.252 723.727 857.252 725.281C857.252 725.961 857.478 726.492 857.931 726.875C858.384 727.258 858.966 727.449 859.677 727.449ZM870.857 729.102H868.689V711.102H870.857V729.102ZM876.693 729.102H874.525V711.102H876.693V729.102ZM891.4 726.113L893.838 716.422H896.005L892.314 729.102H890.556L887.474 719.492L884.474 729.102H882.716L879.037 716.422H881.193L883.689 725.914L886.642 716.422H888.388L891.4 726.113ZM906.048 729.102C905.923 728.852 905.822 728.406 905.744 727.766C904.736 728.812 903.533 729.336 902.134 729.336C900.884 729.336 899.857 728.984 899.052 728.281C898.255 727.57 897.857 726.672 897.857 725.586C897.857 724.266 898.357 723.242 899.357 722.516C900.365 721.781 901.779 721.414 903.599 721.414H905.709V720.418C905.709 719.66 905.482 719.059 905.029 718.613C904.576 718.16 903.908 717.934 903.025 717.934C902.252 717.934 901.603 718.129 901.08 718.52C900.556 718.91 900.295 719.383 900.295 719.938H898.115C898.115 719.305 898.338 718.695 898.783 718.109C899.236 717.516 899.845 717.047 900.611 716.703C901.384 716.359 902.232 716.188 903.154 716.188C904.615 716.188 905.759 716.555 906.588 717.289C907.416 718.016 907.845 719.02 907.877 720.301V726.137C907.877 727.301 908.025 728.227 908.322 728.914V729.102H906.048ZM902.451 727.449C903.13 727.449 903.775 727.273 904.384 726.922C904.994 726.57 905.435 726.113 905.709 725.551V722.949H904.009C901.353 722.949 900.025 723.727 900.025 725.281C900.025 725.961 900.252 726.492 900.705 726.875C901.158 727.258 901.74 727.449 902.451 727.449ZM915.236 725.926L918.189 716.422H920.509L915.412 731.059C914.623 733.168 913.369 734.223 911.65 734.223L911.24 734.188L910.431 734.035V732.277L911.017 732.324C911.752 732.324 912.322 732.176 912.728 731.879C913.142 731.582 913.482 731.039 913.748 730.25L914.228 728.961L909.705 716.422H912.072L915.236 725.926Z" fill="#565E76"/>
<path d="M847.932 773.944H844.387V756.82L839.158 758.607V755.604L847.478 752.543H847.932V773.944ZM867.385 766.342H870.037V769.198H867.385V773.944H863.826V769.198H854.612L854.509 767.03L863.709 752.616H867.385V766.342ZM858.245 766.342H863.826V757.436L863.562 757.904L858.245 766.342ZM874.841 770.194C875.505 770.194 876.018 770.385 876.38 770.766C876.741 771.137 876.922 771.605 876.922 772.172C876.922 772.729 876.741 773.192 876.38 773.563C876.018 773.925 875.505 774.105 874.841 774.105C874.207 774.105 873.704 773.925 873.333 773.563C872.962 773.202 872.776 772.738 872.776 772.172C872.776 771.605 872.957 771.137 873.318 770.766C873.679 770.385 874.187 770.194 874.841 770.194ZM890.413 773.944H886.868V756.82L881.638 758.607V755.604L889.959 752.543H890.413V773.944ZM898.777 763.368L899.934 752.616H911.389V755.692H902.893L902.307 760.79C903.294 760.224 904.407 759.94 905.647 759.94C907.678 759.94 909.255 760.59 910.379 761.889C911.511 763.188 912.078 764.936 912.078 767.133C912.078 769.301 911.453 771.029 910.203 772.318C908.953 773.598 907.239 774.237 905.061 774.237C903.108 774.237 901.487 773.686 900.198 772.582C898.919 771.469 898.225 770.004 898.118 768.188H901.56C901.697 769.223 902.068 770.019 902.673 770.575C903.279 771.122 904.07 771.396 905.047 771.396C906.14 771.396 906.99 771.005 907.595 770.224C908.211 769.442 908.518 768.378 908.518 767.03C908.518 765.731 908.181 764.706 907.507 763.954C906.834 763.192 905.906 762.812 904.724 762.812C904.08 762.812 903.533 762.899 903.084 763.075C902.634 763.241 902.146 763.573 901.619 764.071L898.777 763.368ZM925.921 758.095L926.023 759.75C927.136 758.451 928.66 757.802 930.593 757.802C932.713 757.802 934.163 758.612 934.944 760.233C936.096 758.612 937.717 757.802 939.807 757.802C941.555 757.802 942.854 758.285 943.704 759.252C944.563 760.219 945.003 761.645 945.022 763.529V773.944H941.463V763.632C941.463 762.626 941.243 761.889 940.803 761.42C940.364 760.951 939.636 760.717 938.621 760.717C937.81 760.717 937.146 760.937 936.629 761.376C936.121 761.806 935.764 762.372 935.559 763.075L935.574 773.944H932.014V763.515C931.965 761.649 931.013 760.717 929.158 760.717C927.732 760.717 926.721 761.298 926.126 762.46V773.944H922.566V758.095H925.921Z" fill="#565E76"/>
<path d="M956.109 758H949.894V756.94L952.973 753.582C953.417 753.087 953.733 752.674 953.919 752.344C954.109 752.01 954.204 751.676 954.204 751.341C954.204 750.901 954.08 750.546 953.83 750.275C953.585 750.004 953.252 749.869 952.833 749.869C952.334 749.869 951.947 750.021 951.672 750.326C951.397 750.63 951.259 751.047 951.259 751.576H949.717C949.717 751.013 949.844 750.508 950.098 750.059C950.356 749.606 950.722 749.255 951.196 749.005C951.674 748.756 952.224 748.631 952.846 748.631C953.743 748.631 954.45 748.857 954.966 749.31C955.487 749.759 955.747 750.381 955.747 751.176C955.747 751.638 955.616 752.122 955.353 752.63C955.095 753.133 954.67 753.707 954.078 754.35L951.818 756.769H956.109V758Z" fill="#565E76"/>
<path d="M1327.86 931.635V914.572H1333.44C1335.29 914.572 1336.68 914.955 1337.61 915.721C1338.54 916.486 1339.01 917.619 1339.01 919.119C1339.01 919.916 1338.79 920.623 1338.33 921.24C1337.88 921.85 1337.26 922.322 1336.48 922.658C1337.4 922.916 1338.13 923.408 1338.66 924.135C1339.2 924.854 1339.47 925.713 1339.47 926.713C1339.47 928.244 1338.97 929.447 1337.98 930.322C1336.99 931.197 1335.59 931.635 1333.77 931.635H1327.86ZM1330.11 923.654V929.795H1333.82C1334.87 929.795 1335.69 929.525 1336.29 928.986C1336.9 928.439 1337.21 927.689 1337.21 926.736C1337.21 924.682 1336.09 923.654 1333.86 923.654H1330.11ZM1330.11 921.85H1333.51C1334.49 921.85 1335.27 921.604 1335.86 921.111C1336.45 920.619 1336.75 919.951 1336.75 919.107C1336.75 918.17 1336.48 917.49 1335.93 917.068C1335.38 916.639 1334.55 916.424 1333.44 916.424H1330.11V921.85ZM1350.3 931.635C1350.17 931.385 1350.07 930.939 1349.99 930.299C1348.99 931.346 1347.78 931.869 1346.38 931.869C1345.13 931.869 1344.11 931.518 1343.3 930.814C1342.51 930.104 1342.11 929.205 1342.11 928.119C1342.11 926.799 1342.61 925.775 1343.61 925.049C1344.61 924.314 1346.03 923.947 1347.85 923.947H1349.96V922.951C1349.96 922.193 1349.73 921.592 1349.28 921.146C1348.83 920.693 1348.16 920.467 1347.27 920.467C1346.5 920.467 1345.85 920.662 1345.33 921.053C1344.81 921.443 1344.54 921.916 1344.54 922.471H1342.36C1342.36 921.838 1342.59 921.229 1343.03 920.643C1343.49 920.049 1344.1 919.58 1344.86 919.236C1345.63 918.893 1346.48 918.721 1347.4 918.721C1348.86 918.721 1350.01 919.088 1350.84 919.822C1351.67 920.549 1352.1 921.553 1352.13 922.834V928.67C1352.13 929.834 1352.27 930.76 1352.57 931.447V931.635H1350.3ZM1346.7 929.982C1347.38 929.982 1348.02 929.807 1348.63 929.455C1349.24 929.104 1349.69 928.646 1349.96 928.084V925.482H1348.26C1345.6 925.482 1344.27 926.26 1344.27 927.814C1344.27 928.494 1344.5 929.025 1344.95 929.408C1345.41 929.791 1345.99 929.982 1346.7 929.982ZM1358.47 915.885V918.955H1360.83V920.631H1358.47V928.494C1358.47 929.002 1358.57 929.385 1358.78 929.643C1358.99 929.893 1359.35 930.018 1359.86 930.018C1360.11 930.018 1360.45 929.971 1360.89 929.877V931.635C1360.32 931.791 1359.77 931.869 1359.23 931.869C1358.26 931.869 1357.53 931.576 1357.04 930.99C1356.54 930.404 1356.3 929.572 1356.3 928.494V920.631H1353.99V918.955H1356.3V915.885H1358.47ZM1365.54 920.49C1366.51 919.311 1367.76 918.721 1369.29 918.721C1371.97 918.721 1373.33 920.232 1373.35 923.256V931.635H1371.18V923.244C1371.17 922.33 1370.96 921.654 1370.55 921.217C1370.14 920.779 1369.51 920.561 1368.64 920.561C1367.94 920.561 1367.32 920.748 1366.79 921.123C1366.26 921.498 1365.84 921.99 1365.54 922.6V931.635H1363.38V913.635H1365.54V920.49ZM1382.72 920.9C1382.4 920.846 1382.04 920.818 1381.66 920.818C1380.24 920.818 1379.27 921.424 1378.76 922.635V931.635H1376.6V918.955H1378.7L1378.74 920.42C1379.45 919.287 1380.46 918.721 1381.76 918.721C1382.19 918.721 1382.51 918.775 1382.72 918.885V920.9ZM1383.92 925.178C1383.92 923.936 1384.16 922.818 1384.65 921.826C1385.14 920.834 1385.82 920.068 1386.69 919.529C1387.56 918.99 1388.56 918.721 1389.67 918.721C1391.4 918.721 1392.79 919.318 1393.86 920.514C1394.93 921.709 1395.46 923.299 1395.46 925.283V925.436C1395.46 926.67 1395.22 927.779 1394.75 928.764C1394.28 929.74 1393.6 930.502 1392.72 931.049C1391.85 931.596 1390.84 931.869 1389.7 931.869C1387.98 931.869 1386.58 931.271 1385.51 930.076C1384.45 928.881 1383.92 927.299 1383.92 925.33V925.178ZM1386.1 925.436C1386.1 926.842 1386.42 927.971 1387.07 928.822C1387.73 929.674 1388.6 930.1 1389.7 930.1C1390.8 930.1 1391.67 929.67 1392.32 928.811C1392.97 927.943 1393.29 926.732 1393.29 925.178C1393.29 923.787 1392.96 922.662 1392.3 921.803C1391.64 920.936 1390.77 920.502 1389.67 920.502C1388.6 920.502 1387.74 920.928 1387.08 921.779C1386.43 922.631 1386.1 923.85 1386.1 925.436ZM1397.61 925.178C1397.61 923.936 1397.85 922.818 1398.33 921.826C1398.83 920.834 1399.51 920.068 1400.37 919.529C1401.25 918.99 1402.24 918.721 1403.36 918.721C1405.09 918.721 1406.48 919.318 1407.54 920.514C1408.61 921.709 1409.15 923.299 1409.15 925.283V925.436C1409.15 926.67 1408.91 927.779 1408.44 928.764C1407.97 929.74 1407.29 930.502 1406.41 931.049C1405.53 931.596 1404.52 931.869 1403.38 931.869C1401.67 931.869 1400.27 931.271 1399.2 930.076C1398.14 928.881 1397.61 927.299 1397.61 925.33V925.178ZM1399.79 925.436C1399.79 926.842 1400.11 927.971 1400.76 928.822C1401.42 929.674 1402.29 930.1 1403.38 930.1C1404.49 930.1 1405.36 929.67 1406.01 928.811C1406.66 927.943 1406.98 926.732 1406.98 925.178C1406.98 923.787 1406.65 922.662 1405.99 921.803C1405.33 920.936 1404.45 920.502 1403.36 920.502C1402.29 920.502 1401.43 920.928 1400.77 921.779C1400.11 922.631 1399.79 923.85 1399.79 925.436ZM1413.91 918.955L1413.97 920.361C1414.9 919.268 1416.15 918.721 1417.73 918.721C1419.5 918.721 1420.71 919.4 1421.35 920.76C1421.77 920.15 1422.32 919.658 1422.99 919.283C1423.67 918.908 1424.47 918.721 1425.39 918.721C1428.17 918.721 1429.59 920.193 1429.63 923.139V931.635H1427.47V923.268C1427.47 922.361 1427.26 921.686 1426.85 921.24C1426.43 920.787 1425.74 920.561 1424.76 920.561C1423.95 920.561 1423.29 920.803 1422.76 921.287C1422.22 921.764 1421.92 922.408 1421.83 923.221V931.635H1419.65V923.326C1419.65 921.482 1418.75 920.561 1416.94 920.561C1415.52 920.561 1414.55 921.166 1414.02 922.377V931.635H1411.86V918.955H1413.91Z" fill="#565E76"/>
<path d="M1337.11 976.478H1333.57V959.354L1328.34 961.141V958.138L1336.66 955.076H1337.11V976.478ZM1358.86 976.478H1344.52V974.031L1351.63 966.282C1352.65 965.14 1353.38 964.188 1353.81 963.426C1354.25 962.654 1354.47 961.883 1354.47 961.111C1354.47 960.096 1354.18 959.275 1353.61 958.65C1353.04 958.025 1352.27 957.713 1351.31 957.713C1350.15 957.713 1349.26 958.064 1348.63 958.768C1347.99 959.471 1347.67 960.433 1347.67 961.653H1344.11C1344.11 960.354 1344.41 959.188 1344.99 958.152C1345.59 957.107 1346.43 956.297 1347.53 955.721C1348.63 955.145 1349.9 954.856 1351.34 954.856C1353.41 954.856 1355.04 955.379 1356.23 956.424C1357.43 957.459 1358.03 958.895 1358.03 960.73C1358.03 961.795 1357.73 962.913 1357.12 964.085C1356.53 965.247 1355.54 966.57 1354.18 968.055L1348.96 973.636H1358.86V976.478ZM1364.02 972.728C1364.69 972.728 1365.2 972.918 1365.56 973.299C1365.92 973.67 1366.1 974.139 1366.1 974.705C1366.1 975.262 1365.92 975.726 1365.56 976.097C1365.2 976.458 1364.69 976.639 1364.02 976.639C1363.39 976.639 1362.88 976.458 1362.51 976.097C1362.14 975.735 1361.96 975.271 1361.96 974.705C1361.96 974.139 1362.14 973.67 1362.5 973.299C1362.86 972.918 1363.37 972.728 1364.02 972.728ZM1379.59 976.478H1376.05V959.354L1370.82 961.141V958.138L1379.14 955.076H1379.59V976.478ZM1387.96 965.901L1389.11 955.149H1400.57V958.226H1392.07L1391.49 963.323C1392.47 962.757 1393.59 962.474 1394.83 962.474C1396.86 962.474 1398.44 963.123 1399.56 964.422C1400.69 965.721 1401.26 967.469 1401.26 969.666C1401.26 971.834 1400.63 973.562 1399.38 974.852C1398.13 976.131 1396.42 976.771 1394.24 976.771C1392.29 976.771 1390.67 976.219 1389.38 975.115C1388.1 974.002 1387.4 972.537 1387.3 970.721H1390.74C1390.88 971.756 1391.25 972.552 1391.85 973.108C1392.46 973.655 1393.25 973.929 1394.23 973.929C1395.32 973.929 1396.17 973.538 1396.77 972.757C1397.39 971.976 1397.7 970.911 1397.7 969.563C1397.7 968.265 1397.36 967.239 1396.69 966.487C1396.01 965.726 1395.09 965.345 1393.9 965.345C1393.26 965.345 1392.71 965.433 1392.26 965.608C1391.81 965.774 1391.33 966.106 1390.8 966.604L1387.96 965.901ZM1415.1 960.628L1415.2 962.283C1416.32 960.984 1417.84 960.335 1419.77 960.335C1421.89 960.335 1423.34 961.146 1424.12 962.767C1425.28 961.146 1426.9 960.335 1428.99 960.335C1430.73 960.335 1432.03 960.818 1432.88 961.785C1433.74 962.752 1434.18 964.178 1434.2 966.062V976.478H1430.64V966.165C1430.64 965.159 1430.42 964.422 1429.98 963.953C1429.54 963.484 1428.82 963.25 1427.8 963.25C1426.99 963.25 1426.33 963.47 1425.81 963.909C1425.3 964.339 1424.94 964.905 1424.74 965.608L1424.75 976.478H1421.19V966.048C1421.15 964.183 1420.19 963.25 1418.34 963.25C1416.91 963.25 1415.9 963.831 1415.31 964.993V976.478H1411.75V960.628H1415.1Z" fill="#565E76"/>
<path d="M1445.47 959H1439.25V957.94L1442.33 954.582C1442.78 954.087 1443.09 953.674 1443.28 953.344C1443.47 953.01 1443.56 952.676 1443.56 952.341C1443.56 951.901 1443.44 951.546 1443.19 951.275C1442.94 951.004 1442.61 950.869 1442.19 950.869C1441.69 950.869 1441.31 951.021 1441.03 951.326C1440.76 951.63 1440.62 952.047 1440.62 952.576H1439.08C1439.08 952.013 1439.2 951.508 1439.46 951.059C1439.71 950.606 1440.08 950.255 1440.55 950.005C1441.03 949.756 1441.58 949.631 1442.21 949.631C1443.1 949.631 1443.81 949.857 1444.33 950.31C1444.85 950.759 1445.11 951.381 1445.11 952.176C1445.11 952.638 1444.98 953.122 1444.71 953.63C1444.45 954.133 1444.03 954.707 1443.44 955.35L1441.18 957.769H1445.47V959Z" fill="#565E76"/>
<path d="M589.66 320.714V303.651H595.238C597.09 303.651 598.48 304.034 599.41 304.8C600.348 305.565 600.816 306.698 600.816 308.198C600.816 308.995 600.59 309.702 600.137 310.319C599.684 310.929 599.066 311.401 598.285 311.737C599.207 311.995 599.934 312.487 600.465 313.214C601.004 313.933 601.273 314.792 601.273 315.792C601.273 317.323 600.777 318.526 599.785 319.401C598.793 320.276 597.391 320.714 595.578 320.714H589.66ZM591.91 312.733V318.874H595.625C596.672 318.874 597.496 318.604 598.098 318.065C598.707 317.519 599.012 316.769 599.012 315.815C599.012 313.761 597.895 312.733 595.66 312.733H591.91ZM591.91 310.929H595.309C596.293 310.929 597.078 310.683 597.664 310.19C598.258 309.698 598.555 309.03 598.555 308.187C598.555 307.249 598.281 306.569 597.734 306.147C597.188 305.718 596.355 305.503 595.238 305.503H591.91V310.929ZM609.535 320.948C607.816 320.948 606.418 320.386 605.34 319.261C604.262 318.128 603.723 316.616 603.723 314.726V314.327C603.723 313.069 603.961 311.948 604.438 310.964C604.922 309.972 605.594 309.198 606.453 308.644C607.32 308.081 608.258 307.8 609.266 307.8C610.914 307.8 612.195 308.343 613.109 309.429C614.023 310.515 614.48 312.069 614.48 314.093V314.995H605.891C605.922 316.245 606.285 317.257 606.98 318.03C607.684 318.796 608.574 319.179 609.652 319.179C610.418 319.179 611.066 319.022 611.598 318.71C612.129 318.397 612.594 317.983 612.992 317.468L614.316 318.499C613.254 320.132 611.66 320.948 609.535 320.948ZM609.266 309.581C608.391 309.581 607.656 309.901 607.062 310.542C606.469 311.175 606.102 312.065 605.961 313.214H612.312V313.05C612.25 311.948 611.953 311.097 611.422 310.495C610.891 309.886 610.172 309.581 609.266 309.581ZM616.473 314.269C616.473 312.323 616.934 310.761 617.855 309.581C618.777 308.394 619.984 307.8 621.477 307.8C622.961 307.8 624.137 308.308 625.004 309.323V302.714H627.172V320.714H625.18L625.074 319.354C624.207 320.417 623 320.948 621.453 320.948C619.984 320.948 618.785 320.347 617.855 319.144C616.934 317.94 616.473 316.37 616.473 314.433V314.269ZM618.641 314.515C618.641 315.952 618.938 317.077 619.531 317.89C620.125 318.702 620.945 319.108 621.992 319.108C623.367 319.108 624.371 318.491 625.004 317.257V311.433C624.355 310.237 623.359 309.64 622.016 309.64C620.953 309.64 620.125 310.05 619.531 310.87C618.938 311.69 618.641 312.905 618.641 314.515ZM636.676 309.979C636.348 309.925 635.992 309.897 635.609 309.897C634.188 309.897 633.223 310.503 632.715 311.714V320.714H630.547V308.034H632.656L632.691 309.499C633.402 308.366 634.41 307.8 635.715 307.8C636.137 307.8 636.457 307.854 636.676 307.964V309.979ZM637.871 314.257C637.871 313.015 638.113 311.897 638.598 310.905C639.09 309.913 639.77 309.147 640.637 308.608C641.512 308.069 642.508 307.8 643.625 307.8C645.352 307.8 646.746 308.397 647.809 309.593C648.879 310.788 649.414 312.378 649.414 314.362V314.515C649.414 315.749 649.176 316.858 648.699 317.843C648.23 318.819 647.555 319.581 646.672 320.128C645.797 320.675 644.789 320.948 643.648 320.948C641.93 320.948 640.535 320.351 639.465 319.155C638.402 317.96 637.871 316.378 637.871 314.409V314.257ZM640.051 314.515C640.051 315.921 640.375 317.05 641.023 317.901C641.68 318.753 642.555 319.179 643.648 319.179C644.75 319.179 645.625 318.749 646.273 317.89C646.922 317.022 647.246 315.812 647.246 314.257C647.246 312.866 646.914 311.741 646.25 310.882C645.594 310.015 644.719 309.581 643.625 309.581C642.555 309.581 641.691 310.007 641.035 310.858C640.379 311.71 640.051 312.929 640.051 314.515ZM651.559 314.257C651.559 313.015 651.801 311.897 652.285 310.905C652.777 309.913 653.457 309.147 654.324 308.608C655.199 308.069 656.195 307.8 657.312 307.8C659.039 307.8 660.434 308.397 661.496 309.593C662.566 310.788 663.102 312.378 663.102 314.362V314.515C663.102 315.749 662.863 316.858 662.387 317.843C661.918 318.819 661.242 319.581 660.359 320.128C659.484 320.675 658.477 320.948 657.336 320.948C655.617 320.948 654.223 320.351 653.152 319.155C652.09 317.96 651.559 316.378 651.559 314.409V314.257ZM653.738 314.515C653.738 315.921 654.062 317.05 654.711 317.901C655.367 318.753 656.242 319.179 657.336 319.179C658.438 319.179 659.312 318.749 659.961 317.89C660.609 317.022 660.934 315.812 660.934 314.257C660.934 312.866 660.602 311.741 659.938 310.882C659.281 310.015 658.406 309.581 657.312 309.581C656.242 309.581 655.379 310.007 654.723 310.858C654.066 311.71 653.738 312.929 653.738 314.515ZM667.859 308.034L667.918 309.44C668.848 308.347 670.102 307.8 671.68 307.8C673.453 307.8 674.66 308.479 675.301 309.839C675.723 309.229 676.27 308.737 676.941 308.362C677.621 307.987 678.422 307.8 679.344 307.8C682.125 307.8 683.539 309.272 683.586 312.218V320.714H681.418V312.347C681.418 311.44 681.211 310.765 680.797 310.319C680.383 309.866 679.688 309.64 678.711 309.64C677.906 309.64 677.238 309.882 676.707 310.366C676.176 310.843 675.867 311.487 675.781 312.3V320.714H673.602V312.405C673.602 310.562 672.699 309.64 670.895 309.64C669.473 309.64 668.5 310.245 667.977 311.456V320.714H665.809V308.034H667.859Z" fill="#565E76"/>
<path d="M593.393 353.267H595.561C596.654 353.257 597.519 352.974 598.153 352.417C598.798 351.86 599.12 351.055 599.12 350C599.12 348.984 598.852 348.198 598.314 347.642C597.787 347.075 596.977 346.792 595.883 346.792C594.926 346.792 594.14 347.07 593.524 347.627C592.909 348.174 592.602 348.892 592.602 349.78H589.042C589.042 348.687 589.33 347.69 589.906 346.792C590.492 345.894 591.303 345.195 592.338 344.697C593.383 344.189 594.55 343.936 595.839 343.936C597.968 343.936 599.638 344.473 600.849 345.547C602.069 346.611 602.68 348.096 602.68 350C602.68 350.957 602.372 351.86 601.757 352.71C601.151 353.55 600.365 354.185 599.398 354.614C600.57 355.015 601.459 355.645 602.064 356.504C602.68 357.363 602.987 358.389 602.987 359.58C602.987 361.494 602.328 363.018 601.01 364.15C599.701 365.283 597.978 365.85 595.839 365.85C593.788 365.85 592.108 365.303 590.8 364.209C589.491 363.115 588.837 361.66 588.837 359.844H592.396C592.396 360.781 592.709 361.543 593.334 362.129C593.969 362.715 594.818 363.008 595.883 363.008C596.986 363.008 597.855 362.715 598.49 362.129C599.125 361.543 599.442 360.693 599.442 359.58C599.442 358.457 599.11 357.593 598.446 356.987C597.782 356.382 596.796 356.079 595.487 356.079H593.393V353.267ZM607.279 354.98L608.437 344.229H619.892V347.305H611.396L610.81 352.402C611.796 351.836 612.909 351.553 614.149 351.553C616.181 351.553 617.758 352.202 618.881 353.501C620.014 354.8 620.58 356.548 620.58 358.745C620.58 360.913 619.955 362.642 618.705 363.931C617.455 365.21 615.741 365.85 613.563 365.85C611.61 365.85 609.989 365.298 608.7 364.194C607.421 363.081 606.728 361.616 606.62 359.8H610.062C610.199 360.835 610.57 361.631 611.176 362.188C611.781 362.734 612.572 363.008 613.549 363.008C614.643 363.008 615.492 362.617 616.098 361.836C616.713 361.055 617.021 359.99 617.021 358.643C617.021 357.344 616.684 356.318 616.01 355.566C615.336 354.805 614.408 354.424 613.227 354.424C612.582 354.424 612.035 354.512 611.586 354.688C611.137 354.854 610.648 355.186 610.121 355.684L607.279 354.98ZM625.824 361.807C626.488 361.807 627.001 361.997 627.362 362.378C627.724 362.749 627.904 363.218 627.904 363.784C627.904 364.341 627.724 364.805 627.362 365.176C627.001 365.537 626.488 365.718 625.824 365.718C625.189 365.718 624.687 365.537 624.315 365.176C623.944 364.814 623.759 364.351 623.759 363.784C623.759 363.218 623.939 362.749 624.301 362.378C624.662 361.997 625.17 361.807 625.824 361.807ZM641.396 365.557H637.851V348.433L632.621 350.22V347.217L640.941 344.155H641.396V365.557ZM649.76 354.98L650.917 344.229H662.372V347.305H653.876L653.29 352.402C654.276 351.836 655.39 351.553 656.63 351.553C658.661 351.553 660.238 352.202 661.361 353.501C662.494 354.8 663.061 356.548 663.061 358.745C663.061 360.913 662.436 362.642 661.186 363.931C659.936 365.21 658.222 365.85 656.044 365.85C654.091 365.85 652.47 365.298 651.181 364.194C649.901 363.081 649.208 361.616 649.101 359.8H652.543C652.68 360.835 653.051 361.631 653.656 362.188C654.262 362.734 655.053 363.008 656.029 363.008C657.123 363.008 657.973 362.617 658.578 361.836C659.193 361.055 659.501 359.99 659.501 358.643C659.501 357.344 659.164 356.318 658.49 355.566C657.816 354.805 656.889 354.424 655.707 354.424C655.062 354.424 654.516 354.512 654.066 354.688C653.617 354.854 653.129 355.186 652.602 355.684L649.76 354.98ZM676.903 349.707L677.006 351.362C678.119 350.063 679.643 349.414 681.576 349.414C683.695 349.414 685.146 350.225 685.927 351.846C687.079 350.225 688.7 349.414 690.79 349.414C692.538 349.414 693.837 349.897 694.687 350.864C695.546 351.831 695.985 353.257 696.005 355.142V365.557H692.445V355.244C692.445 354.238 692.226 353.501 691.786 353.032C691.347 352.563 690.619 352.329 689.604 352.329C688.793 352.329 688.129 352.549 687.611 352.988C687.104 353.418 686.747 353.984 686.542 354.688L686.557 365.557H682.997V355.127C682.948 353.262 681.996 352.329 680.141 352.329C678.715 352.329 677.704 352.91 677.108 354.072V365.557H673.549V349.707H676.903Z" fill="#565E76"/>
<path d="M706.075 350H699.86V348.94L702.939 345.582C703.383 345.087 703.699 344.674 703.885 344.344C704.075 344.01 704.17 343.676 704.17 343.341C704.17 342.901 704.046 342.546 703.796 342.275C703.55 342.004 703.218 341.869 702.799 341.869C702.3 341.869 701.913 342.021 701.638 342.326C701.363 342.63 701.225 343.047 701.225 343.576H699.683C699.683 343.013 699.81 342.508 700.063 342.059C700.322 341.606 700.688 341.255 701.162 341.005C701.64 340.756 702.19 340.631 702.812 340.631C703.709 340.631 704.416 340.857 704.932 341.31C705.453 341.759 705.713 342.381 705.713 343.176C705.713 343.638 705.582 344.122 705.319 344.63C705.061 345.133 704.636 345.707 704.043 346.35L701.784 348.769H706.075V350Z" fill="#565E76"/>
<path d="M160.293 674.138H168.379V675.978H158.031V658.915H160.293V674.138ZM172.961 675.978H170.793V663.298H172.961V675.978ZM170.617 659.935C170.617 659.583 170.723 659.286 170.934 659.044C171.152 658.802 171.473 658.681 171.895 658.681C172.316 658.681 172.637 658.802 172.855 659.044C173.074 659.286 173.184 659.583 173.184 659.935C173.184 660.286 173.074 660.579 172.855 660.813C172.637 661.048 172.316 661.165 171.895 661.165C171.473 661.165 171.152 661.048 170.934 660.813C170.723 660.579 170.617 660.286 170.617 659.935ZM180.625 673.036L183.766 663.298H185.98L181.434 675.978H179.781L175.188 663.298H177.402L180.625 673.036ZM190.422 675.978H188.254V663.298H190.422V675.978ZM188.078 659.935C188.078 659.583 188.184 659.286 188.395 659.044C188.613 658.802 188.934 658.681 189.355 658.681C189.777 658.681 190.098 658.802 190.316 659.044C190.535 659.286 190.645 659.583 190.645 659.935C190.645 660.286 190.535 660.579 190.316 660.813C190.098 661.048 189.777 661.165 189.355 661.165C188.934 661.165 188.613 661.048 188.395 660.813C188.184 660.579 188.078 660.286 188.078 659.935ZM195.953 663.298L196.023 664.892C196.992 663.673 198.258 663.063 199.82 663.063C202.5 663.063 203.852 664.575 203.875 667.599V675.978H201.707V667.587C201.699 666.673 201.488 665.997 201.074 665.56C200.668 665.122 200.031 664.903 199.164 664.903C198.461 664.903 197.844 665.091 197.312 665.466C196.781 665.841 196.367 666.333 196.07 666.942V675.978H193.902V663.298H195.953ZM206.629 669.532C206.629 667.556 207.086 665.985 208 664.821C208.914 663.649 210.125 663.063 211.633 663.063C213.18 663.063 214.387 663.61 215.254 664.704L215.359 663.298H217.34V675.673C217.34 677.313 216.852 678.606 215.875 679.552C214.906 680.497 213.602 680.97 211.961 680.97C211.047 680.97 210.152 680.774 209.277 680.384C208.402 679.993 207.734 679.458 207.273 678.778L208.398 677.478C209.328 678.626 210.465 679.2 211.809 679.2C212.863 679.2 213.684 678.903 214.27 678.31C214.863 677.716 215.16 676.88 215.16 675.802V674.712C214.293 675.712 213.109 676.212 211.609 676.212C210.125 676.212 208.922 675.614 208 674.419C207.086 673.224 206.629 671.595 206.629 669.532ZM208.809 669.778C208.809 671.208 209.102 672.333 209.688 673.153C210.273 673.966 211.094 674.372 212.148 674.372C213.516 674.372 214.52 673.751 215.16 672.509V666.72C214.496 665.509 213.5 664.903 212.172 664.903C211.117 664.903 210.293 665.313 209.699 666.134C209.105 666.954 208.809 668.169 208.809 669.778ZM232.703 665.243C232.375 665.188 232.02 665.161 231.637 665.161C230.215 665.161 229.25 665.767 228.742 666.978V675.978H226.574V663.298H228.684L228.719 664.763C229.43 663.63 230.438 663.063 231.742 663.063C232.164 663.063 232.484 663.118 232.703 663.228V665.243ZM233.898 669.521C233.898 668.278 234.141 667.161 234.625 666.169C235.117 665.177 235.797 664.411 236.664 663.872C237.539 663.333 238.535 663.063 239.652 663.063C241.379 663.063 242.773 663.661 243.836 664.856C244.906 666.052 245.441 667.642 245.441 669.626V669.778C245.441 671.013 245.203 672.122 244.727 673.106C244.258 674.083 243.582 674.845 242.699 675.392C241.824 675.938 240.816 676.212 239.676 676.212C237.957 676.212 236.562 675.614 235.492 674.419C234.43 673.224 233.898 671.642 233.898 669.673V669.521ZM236.078 669.778C236.078 671.185 236.402 672.313 237.051 673.165C237.707 674.017 238.582 674.442 239.676 674.442C240.777 674.442 241.652 674.013 242.301 673.153C242.949 672.286 243.273 671.075 243.273 669.521C243.273 668.13 242.941 667.005 242.277 666.146C241.621 665.278 240.746 664.845 239.652 664.845C238.582 664.845 237.719 665.271 237.062 666.122C236.406 666.974 236.078 668.192 236.078 669.778ZM247.586 669.521C247.586 668.278 247.828 667.161 248.312 666.169C248.805 665.177 249.484 664.411 250.352 663.872C251.227 663.333 252.223 663.063 253.34 663.063C255.066 663.063 256.461 663.661 257.523 664.856C258.594 666.052 259.129 667.642 259.129 669.626V669.778C259.129 671.013 258.891 672.122 258.414 673.106C257.945 674.083 257.27 674.845 256.387 675.392C255.512 675.938 254.504 676.212 253.363 676.212C251.645 676.212 250.25 675.614 249.18 674.419C248.117 673.224 247.586 671.642 247.586 669.673V669.521ZM249.766 669.778C249.766 671.185 250.09 672.313 250.738 673.165C251.395 674.017 252.27 674.442 253.363 674.442C254.465 674.442 255.34 674.013 255.988 673.153C256.637 672.286 256.961 671.075 256.961 669.521C256.961 668.13 256.629 667.005 255.965 666.146C255.309 665.278 254.434 664.845 253.34 664.845C252.27 664.845 251.406 665.271 250.75 666.122C250.094 666.974 249.766 668.192 249.766 669.778ZM263.887 663.298L263.945 664.704C264.875 663.61 266.129 663.063 267.707 663.063C269.48 663.063 270.688 663.743 271.328 665.103C271.75 664.493 272.297 664.001 272.969 663.626C273.648 663.251 274.449 663.063 275.371 663.063C278.152 663.063 279.566 664.536 279.613 667.481V675.978H277.445V667.61C277.445 666.704 277.238 666.028 276.824 665.583C276.41 665.13 275.715 664.903 274.738 664.903C273.934 664.903 273.266 665.146 272.734 665.63C272.203 666.106 271.895 666.751 271.809 667.563V675.978H269.629V667.669C269.629 665.825 268.727 664.903 266.922 664.903C265.5 664.903 264.527 665.509 264.004 666.72V675.978H261.836V663.298H263.887Z" fill="#565E76"/>
<path d="M161.764 708.53H163.932C165.025 708.521 165.89 708.237 166.524 707.681C167.169 707.124 167.491 706.318 167.491 705.264C167.491 704.248 167.223 703.462 166.686 702.905C166.158 702.339 165.348 702.056 164.254 702.056C163.297 702.056 162.511 702.334 161.896 702.891C161.28 703.438 160.973 704.155 160.973 705.044H157.413C157.413 703.95 157.701 702.954 158.277 702.056C158.863 701.157 159.674 700.459 160.709 699.961C161.754 699.453 162.921 699.199 164.21 699.199C166.339 699.199 168.009 699.736 169.22 700.811C170.44 701.875 171.051 703.359 171.051 705.264C171.051 706.221 170.743 707.124 170.128 707.974C169.522 708.813 168.736 709.448 167.77 709.878C168.941 710.278 169.83 710.908 170.436 711.768C171.051 712.627 171.358 713.652 171.358 714.844C171.358 716.758 170.699 718.281 169.381 719.414C168.072 720.547 166.349 721.113 164.21 721.113C162.159 721.113 160.479 720.566 159.171 719.473C157.862 718.379 157.208 716.924 157.208 715.107H160.768C160.768 716.045 161.08 716.807 161.705 717.393C162.34 717.979 163.189 718.271 164.254 718.271C165.357 718.271 166.227 717.979 166.861 717.393C167.496 716.807 167.813 715.957 167.813 714.844C167.813 713.721 167.481 712.856 166.817 712.251C166.153 711.646 165.167 711.343 163.858 711.343H161.764V708.53ZM188.6 711.841C188.6 714.907 188.023 717.222 186.871 718.784C185.729 720.337 183.985 721.113 181.642 721.113C179.337 721.113 177.599 720.356 176.427 718.843C175.265 717.319 174.669 715.068 174.64 712.09V708.398C174.64 705.332 175.211 703.032 176.354 701.499C177.506 699.966 179.259 699.199 181.612 699.199C183.946 699.199 185.685 699.946 186.827 701.44C187.979 702.935 188.57 705.171 188.6 708.149V711.841ZM185.04 707.856C185.04 705.854 184.767 704.39 184.22 703.462C183.673 702.524 182.804 702.056 181.612 702.056C180.45 702.056 179.596 702.5 179.049 703.389C178.502 704.268 178.214 705.645 178.185 707.52V712.354C178.185 714.346 178.463 715.83 179.02 716.807C179.576 717.783 180.45 718.271 181.642 718.271C182.784 718.271 183.629 717.822 184.176 716.924C184.723 716.016 185.011 714.6 185.04 712.676V707.856ZM194.195 717.07C194.859 717.07 195.372 717.261 195.733 717.642C196.095 718.013 196.275 718.481 196.275 719.048C196.275 719.604 196.095 720.068 195.733 720.439C195.372 720.801 194.859 720.981 194.195 720.981C193.561 720.981 193.058 720.801 192.687 720.439C192.315 720.078 192.13 719.614 192.13 719.048C192.13 718.481 192.311 718.013 192.672 717.642C193.033 717.261 193.541 717.07 194.195 717.07ZM209.767 720.82H206.222V703.696L200.992 705.483V702.48L209.312 699.419H209.767V720.82ZM218.131 710.244L219.288 699.492H230.743V702.568H222.247L221.661 707.666C222.647 707.1 223.761 706.816 225.001 706.816C227.032 706.816 228.609 707.466 229.732 708.765C230.865 710.063 231.432 711.812 231.432 714.009C231.432 716.177 230.807 717.905 229.557 719.194C228.307 720.474 226.593 721.113 224.415 721.113C222.462 721.113 220.841 720.562 219.552 719.458C218.272 718.345 217.579 716.88 217.472 715.063H220.914C221.051 716.099 221.422 716.895 222.027 717.451C222.633 717.998 223.424 718.271 224.4 718.271C225.494 718.271 226.344 717.881 226.949 717.1C227.564 716.318 227.872 715.254 227.872 713.906C227.872 712.607 227.535 711.582 226.861 710.83C226.188 710.068 225.26 709.688 224.078 709.688C223.434 709.688 222.887 709.775 222.438 709.951C221.988 710.117 221.5 710.449 220.973 710.947L218.131 710.244ZM245.274 704.971L245.377 706.626C246.49 705.327 248.014 704.678 249.947 704.678C252.066 704.678 253.517 705.488 254.298 707.109C255.45 705.488 257.071 704.678 259.161 704.678C260.909 704.678 262.208 705.161 263.058 706.128C263.917 707.095 264.356 708.521 264.376 710.405V720.82H260.816V710.508C260.816 709.502 260.597 708.765 260.157 708.296C259.718 707.827 258.99 707.593 257.975 707.593C257.164 707.593 256.5 707.812 255.982 708.252C255.475 708.682 255.118 709.248 254.913 709.951L254.928 720.82H251.368V710.391C251.319 708.525 250.367 707.593 248.512 707.593C247.086 707.593 246.075 708.174 245.479 709.336V720.82H241.92V704.971H245.274Z" fill="#565E76"/>
<path d="M274.311 704H268.097V702.94L271.175 699.582C271.62 699.087 271.935 698.674 272.121 698.344C272.312 698.01 272.407 697.676 272.407 697.341C272.407 696.901 272.282 696.546 272.032 696.275C271.787 696.004 271.455 695.869 271.036 695.869C270.536 695.869 270.149 696.021 269.874 696.326C269.599 696.63 269.461 697.047 269.461 697.576H267.919C267.919 697.013 268.046 696.508 268.3 696.059C268.558 695.606 268.924 695.255 269.398 695.005C269.876 694.756 270.426 694.631 271.048 694.631C271.945 694.631 272.652 694.857 273.168 695.31C273.689 695.759 273.949 696.381 273.949 697.176C273.949 697.638 273.818 698.122 273.556 698.63C273.298 699.133 272.872 699.707 272.28 700.35L270.02 702.769H274.311V704Z" fill="#565E76"/>
<path d="M1225.2 76.1768H1558.76V95.6783H1225.2V76.1768Z" fill="white" stroke="#565E76"/>
<path d="M922.159 76.1768H1123.49V101.187H922.159V76.1768Z" fill="white" stroke="#565E76"/>
<path d="M553.002 76.1768H743.312V101.187H553.002V76.1768Z" fill="white" stroke="#565E76"/>
<path d="M134.255 76.1768H324.565V101.187H134.255V76.1768Z" fill="white" stroke="#565E76"/>
<path d="M1328.62 281.478L1248.73 229.148" stroke="#565E76"/>
<path d="M1320.36 598.213L1243.22 645.036" stroke="#565E76"/>
<path d="M1144.04 642.281L1072.41 598.213" stroke="#565E76"/>
<path d="M1314.84 846.092L1234.95 785.501" stroke="#565E76"/>
<path d="M1075.17 788.254L995.276 843.34" stroke="#565E76"/>
<path d="M791.412 631.263L717.029 578.935" stroke="#565E76"/>
<path d="M579.285 895.668L670.197 837.83" stroke="#565E76"/>
<path d="M502.146 716.644L449.802 634.018" stroke="#565E76"/>
<path d="M911.141 98.2129H1129V123.223H911.141V98.2129Z" fill="white" stroke="#565E76"/>
<path d="M541.981 98.2129H748.821V123.223H541.981V98.2129Z" fill="white" stroke="#565E76"/>
<path d="M1340.91 202.872H1415.51V227.882H1340.91V202.872Z" fill="white" stroke="#565E76"/>
<path d="M1162.29 866.188H1209.34V1045.43H1162.29V866.188Z" stroke="#565E76"/>
<path d="M688.443 794.579H735.499V819.589H688.443V794.579Z" stroke="#565E76"/>
<path d="M457.031 778.054H487.557V819.589H457.031V778.054Z" stroke="#565E76"/>
<path d="M54.8135 739.493H118.398V819.587H54.8135V739.493Z" stroke="#565E76"/>
<path d="M1340.91 224.906H1415.51V260.933H1340.91V224.906Z" fill="white" stroke="#565E76"/>
<path d="M123.236 98.2129H330.077V123.223H123.236V98.2129Z" fill="white" stroke="#565E76"/>
<path d="M1554.52 74.9111H1576.56V76.2464H1608.36V1076.19H931.947V1049.91H931.912V851.602H667.441V818.551H959.462V835.076H998.029V851.602H964.97V1044.14H1146.79V851.602H1080.68V835.076H1218.42V851.602H1163.32V1044.14H1569.89V851.602H1312.09V835.076H1361.68V791.008H1378.21V835.076H1569.89V653.298H1378.21V697.364H1361.68V653.298H1328.62V636.773H1569.89V262.198H1411.27V201.605H1554.52V74.9111Z" fill="white"/>
<path d="M1229.44 74.9111L1119.25 74.9114V102.454H1124.76V124.487H1179.85V262.198H1196.38V515.586H1179.85V636.773H1141.29V653.298H1245.97V636.773H1212.91V262.198H1251.48V229.148H1256.99V201.605H1229.44V74.9111Z" fill="white"/>
<path d="M854.776 124.489V636.775H1058.64V653.3L821.717 653.297V636.775H788.658V620.249H821.717V124.489H744.579V102.455H739.07V74.9131H926.403V102.455H915.382V124.489H854.776Z" fill="white"/>
<path d="M458.07 124.489H546.226V102.455H557.246V74.9131H320.323V102.455H325.834V124.489H425.011V262.2H441.54V636.774H706.011V620.249H458.07V124.489Z" fill="white"/>
<path d="M747.971 1184V1158.41H755.195C757.422 1158.41 759.391 1158.9 761.102 1159.88C762.812 1160.87 764.131 1162.27 765.057 1164.08C765.994 1165.9 766.469 1167.99 766.48 1170.34V1171.98C766.48 1174.39 766.012 1176.51 765.074 1178.32C764.148 1180.14 762.818 1181.53 761.084 1182.51C759.361 1183.48 757.352 1183.98 755.055 1184H747.971ZM751.346 1161.18V1181.24H754.896C757.498 1181.24 759.52 1180.43 760.961 1178.81C762.414 1177.2 763.141 1174.89 763.141 1171.91V1170.41C763.141 1167.51 762.455 1165.25 761.084 1163.64C759.725 1162.03 757.791 1161.21 755.283 1161.18H751.346ZM782.828 1182.12C781.562 1183.61 779.705 1184.35 777.256 1184.35C775.229 1184.35 773.682 1183.77 772.615 1182.59C771.561 1181.41 771.027 1179.66 771.016 1177.36V1164.98H774.268V1177.27C774.268 1180.15 775.439 1181.59 777.783 1181.59C780.268 1181.59 781.92 1180.67 782.74 1178.81V1164.98H785.992V1184H782.898L782.828 1182.12ZM794.482 1184H791.23V1157H794.482V1184ZM816.543 1179.52L820.199 1164.98H823.451L817.914 1184H815.277L810.654 1169.59L806.154 1184H803.518L797.998 1164.98H801.232L804.977 1179.22L809.406 1164.98H812.025L816.543 1179.52ZM830.307 1184H827.055V1164.98H830.307V1184ZM826.791 1159.94C826.791 1159.41 826.949 1158.96 827.266 1158.6C827.594 1158.24 828.074 1158.05 828.707 1158.05C829.34 1158.05 829.82 1158.24 830.148 1158.6C830.477 1158.96 830.641 1159.41 830.641 1159.94C830.641 1160.46 830.477 1160.9 830.148 1161.25C829.82 1161.61 829.34 1161.78 828.707 1161.78C828.074 1161.78 827.594 1161.61 827.266 1161.25C826.949 1160.9 826.791 1160.46 826.791 1159.94ZM843.156 1181.7C844.316 1181.7 845.33 1181.35 846.197 1180.64C847.064 1179.94 847.545 1179.06 847.639 1178.01H850.715C850.656 1179.1 850.281 1180.13 849.59 1181.12C848.898 1182.1 847.973 1182.89 846.812 1183.47C845.664 1184.06 844.445 1184.35 843.156 1184.35C840.566 1184.35 838.504 1183.49 836.969 1181.77C835.445 1180.03 834.684 1177.67 834.684 1174.67V1174.12C834.684 1172.27 835.023 1170.62 835.703 1169.18C836.383 1167.74 837.355 1166.62 838.621 1165.82C839.898 1165.03 841.404 1164.63 843.139 1164.63C845.271 1164.63 847.041 1165.27 848.447 1166.54C849.865 1167.82 850.621 1169.48 850.715 1171.52H847.639C847.545 1170.29 847.076 1169.28 846.232 1168.5C845.4 1167.7 844.369 1167.3 843.139 1167.3C841.486 1167.3 840.203 1167.9 839.289 1169.09C838.387 1170.28 837.936 1171.99 837.936 1174.24V1174.86C837.936 1177.05 838.387 1178.74 839.289 1179.92C840.191 1181.11 841.48 1181.7 843.156 1181.7ZM857.623 1167.28C859.064 1165.51 860.939 1164.63 863.248 1164.63C867.268 1164.63 869.295 1166.9 869.33 1171.43V1184H866.078V1171.41C866.066 1170.04 865.75 1169.03 865.129 1168.37C864.52 1167.72 863.564 1167.39 862.264 1167.39C861.209 1167.39 860.283 1167.67 859.486 1168.23C858.689 1168.79 858.068 1169.53 857.623 1170.45V1184H854.371V1157H857.623V1167.28ZM893.025 1173.65H887.014V1184H883.621V1158.41H892.094C894.977 1158.41 897.191 1159.06 898.738 1160.38C900.297 1161.69 901.076 1163.6 901.076 1166.11C901.076 1167.7 900.643 1169.09 899.775 1170.27C898.92 1171.46 897.725 1172.34 896.189 1172.93L902.201 1183.79V1184H898.58L893.025 1173.65ZM887.014 1170.89H892.199C893.875 1170.89 895.205 1170.45 896.189 1169.59C897.186 1168.72 897.684 1167.56 897.684 1166.11C897.684 1164.52 897.209 1163.31 896.26 1162.47C895.322 1161.62 893.963 1161.2 892.182 1161.18H887.014V1170.89ZM904.521 1174.33C904.521 1171.41 905.213 1169.07 906.596 1167.3C907.979 1165.52 909.789 1164.63 912.027 1164.63C914.254 1164.63 916.018 1165.39 917.318 1166.91V1157H920.57V1184H917.582L917.424 1181.96C916.123 1183.55 914.312 1184.35 911.992 1184.35C909.789 1184.35 907.99 1183.45 906.596 1181.64C905.213 1179.84 904.521 1177.48 904.521 1174.58V1174.33ZM907.773 1174.7C907.773 1176.86 908.219 1178.54 909.109 1179.76C910 1180.98 911.23 1181.59 912.801 1181.59C914.863 1181.59 916.369 1180.67 917.318 1178.81V1170.08C916.346 1168.29 914.852 1167.39 912.836 1167.39C911.242 1167.39 910 1168 909.109 1169.23C908.219 1170.46 907.773 1172.29 907.773 1174.7Z" fill="#565E76"/>
<mask id="mask0" mask-type="alpha" maskUnits="userSpaceOnUse" x="21" y="74" width="1588" height="1003">
<path d="M1554.52 74.9111H1576.56V76.2464H1608.36V1076.19H931.947V1049.91H931.912V851.602H667.441V818.551H959.462V835.076H998.029V851.602H964.971V1044.14H1146.79V851.602H1080.68V835.076H1218.42V851.602H1163.32V1044.14H1569.9V851.602H1312.09V835.076H1361.68V791.008H1378.21V835.076H1569.9V653.298H1378.21V697.364H1361.68V653.298H1328.62V636.773H1569.9V262.198H1411.27V201.605H1554.52V74.9111Z" fill="white"/>
<path d="M1229.44 74.9111L1119.25 74.9114V102.454H1124.76V124.487H1179.85V262.198H1196.38V515.586H1179.85V636.773H1141.29V653.298H1245.97V636.773H1212.91V262.198H1251.48V229.148H1256.99V201.605H1229.44V74.9111Z" fill="white"/>
<path d="M854.776 124.487V636.773H1058.64V653.298L821.717 653.295V636.773H788.659V620.247H821.717V124.487H744.579V102.453H739.07V74.9111H926.403V102.453H915.382V124.487H854.776Z" fill="white"/>
<path d="M458.07 124.487H546.226V102.453H557.246V74.9111H320.323V102.453H325.834V124.487H425.011V262.198H441.54V636.773H706.011V620.247H458.07V124.487Z" fill="white"/>
<path d="M21.5115 851.847H550.463V819.797H458.07V730.414H441.54V819.797H56.7739V124.32H127.301V101.886H136.919V76.2461H21.5115V851.847Z" fill="white"/>
</mask>
<g mask="url(#mask0)">
<path d="M21.5116 851.847H550.463V819.797H458.07V730.414H441.54V819.797H56.774V124.32H127.302V101.886H136.919V76.2461H21.5116V851.847Z" fill="white"/>
<path d="M1554.52 74.9111H1576.56V76.2464H1608.36V1076.19H931.947V1049.91H931.912V851.602H667.441V818.551H959.462V835.076H998.029V851.602H964.97V1044.14H1146.79V851.602H1080.68V835.076H1218.42V851.602H1163.32V1044.14H1569.89V851.602H1312.09V835.076H1361.68V791.008H1378.21V835.076H1569.89V653.298H1378.21V697.364H1361.68V653.298H1328.62V636.773H1569.89V262.198H1411.27V201.605H1554.52V74.9111Z" stroke="#565E76" stroke-width="2"/>
<path d="M1229.44 74.9111L1119.25 74.9114V102.454H1124.76V124.487H1179.85V262.198H1196.38V515.586H1179.85V636.773H1141.29V653.298H1245.97V636.773H1212.91V262.198H1251.48V229.148H1256.99V201.605H1229.44V74.9111Z" stroke="#565E76" stroke-width="2"/>
<path d="M854.776 124.489V636.775H1058.64V653.3L821.717 653.297V636.775H788.658V620.249H821.717V124.489H744.579V102.455H739.07V74.9131H926.403V102.455H915.382V124.489H854.776Z" stroke="#565E76" stroke-width="2"/>
<path d="M458.07 124.489H546.226V102.455H557.246V74.9131H320.323V102.455H325.834V124.489H425.011V262.2H441.54V636.774H706.011V620.249H458.07V124.489Z" stroke="#565E76" stroke-width="2"/>
<path d="M21.5116 851.847H550.463V819.797H458.07V730.414H441.54V819.797H56.774V124.32H127.302V101.886H136.919V76.2461H21.5116V851.847Z" stroke="#565E76" stroke-width="2"/>
</g>
</g>
<path d="M1672.02 438.346L1662 438.346L1662 434.971L1687.59 434.971L1687.59 444.41C1687.59 447.211 1686.88 449.402 1685.45 450.984C1684.02 452.578 1682.13 453.375 1679.77 453.375C1677.29 453.375 1675.37 452.596 1674.02 451.037C1672.69 449.49 1672.02 447.27 1672.02 444.375L1672.02 438.346ZM1674.78 438.346L1674.78 444.41C1674.78 446.215 1675.2 447.598 1676.04 448.559C1676.9 449.52 1678.13 450 1679.74 450C1681.26 450 1682.48 449.52 1683.39 448.559C1684.31 447.598 1684.78 446.279 1684.82 444.604L1684.82 438.346L1674.78 438.346ZM1662 460.705L1662 457.453L1689 457.453L1689 460.705L1662 460.705ZM1663.88 477.668C1662.39 476.402 1661.65 474.545 1661.65 472.096C1661.65 470.068 1662.23 468.521 1663.41 467.455C1664.59 466.4 1666.34 465.867 1668.64 465.855L1681.02 465.855L1681.02 469.107L1668.73 469.107C1665.85 469.107 1664.41 470.279 1664.41 472.623C1664.41 475.107 1665.33 476.76 1667.19 477.58L1681.02 477.58L1681.02 480.832L1662 480.832L1662 477.738L1663.88 477.668ZM1681.02 488.848L1678.91 488.936C1680.55 490.33 1681.37 492.211 1681.37 494.578C1681.37 497.238 1680.35 499.049 1678.31 500.01C1679.23 500.643 1679.96 501.463 1680.53 502.471C1681.09 503.49 1681.37 504.691 1681.37 506.074C1681.37 510.246 1679.16 512.367 1674.74 512.438L1662 512.438L1662 509.186L1674.55 509.186C1675.91 509.186 1676.92 508.875 1677.59 508.254C1678.27 507.633 1678.61 506.59 1678.61 505.125C1678.61 503.918 1678.25 502.916 1677.52 502.119C1676.81 501.322 1675.84 500.859 1674.62 500.73L1662 500.73L1662 497.461L1674.46 497.461C1677.23 497.461 1678.61 496.107 1678.61 493.4C1678.61 491.268 1677.7 489.809 1675.89 489.023L1662 489.023L1662 485.771L1681.02 485.771L1681.02 488.848ZM1667.04 528.434C1667.92 528.434 1668.6 528.1 1669.08 527.432C1669.58 526.775 1670 525.621 1670.35 523.969C1670.7 522.328 1671.12 521.021 1671.62 520.049C1672.11 519.088 1672.69 518.373 1673.37 517.904C1674.05 517.447 1674.86 517.219 1675.8 517.219C1677.36 517.219 1678.68 517.875 1679.75 519.188C1680.83 520.512 1681.37 522.199 1681.37 524.25C1681.37 526.406 1680.81 528.152 1679.7 529.488C1678.59 530.836 1677.16 531.51 1675.43 531.51L1675.43 528.24C1676.32 528.24 1677.09 527.859 1677.73 527.098C1678.38 526.348 1678.7 525.398 1678.7 524.25C1678.7 523.066 1678.44 522.141 1677.93 521.473C1677.41 520.805 1676.74 520.471 1675.9 520.471C1675.12 520.471 1674.53 520.781 1674.13 521.402C1673.73 522.023 1673.35 523.143 1672.99 524.76C1672.62 526.389 1672.19 527.707 1671.69 528.715C1671.18 529.723 1670.57 530.467 1669.86 530.947C1669.15 531.439 1668.29 531.686 1667.27 531.686C1665.57 531.686 1664.21 531.006 1663.18 529.646C1662.16 528.287 1661.65 526.523 1661.65 524.355C1661.65 522.832 1661.92 521.484 1662.46 520.313C1663 519.141 1663.75 518.221 1664.71 517.553C1665.68 516.896 1666.73 516.568 1667.85 516.568L1667.85 519.82C1666.76 519.879 1665.9 520.313 1665.25 521.121C1664.62 521.941 1664.3 523.02 1664.3 524.355C1664.3 525.586 1664.55 526.57 1665.04 527.309C1665.54 528.059 1666.21 528.434 1667.04 528.434ZM1685.63 540.334L1681.02 540.334L1681.02 543.885L1678.51 543.885L1678.51 540.334L1666.71 540.334C1665.95 540.334 1665.38 540.492 1664.99 540.809C1664.61 541.125 1664.43 541.664 1664.43 542.426C1664.43 542.801 1664.5 543.316 1664.64 543.973L1662 543.973C1661.77 543.117 1661.65 542.285 1661.65 541.477C1661.65 540.023 1662.09 538.928 1662.97 538.189C1663.85 537.451 1665.09 537.082 1666.71 537.082L1678.51 537.082L1678.51 533.619L1681.02 533.619L1681.02 537.082L1685.63 537.082L1685.63 540.334ZM1661.65 555.592C1661.65 553.014 1662.49 550.916 1664.18 549.299C1665.88 547.682 1668.15 546.873 1670.98 546.873L1671.58 546.873C1673.47 546.873 1675.15 547.23 1676.63 547.945C1678.11 548.672 1679.27 549.68 1680.11 550.969C1680.95 552.27 1681.37 553.676 1681.37 555.188C1681.37 557.66 1680.56 559.582 1678.93 560.953C1677.3 562.324 1674.97 563.01 1671.93 563.01L1670.58 563.01L1670.58 550.125C1668.7 550.172 1667.19 550.717 1666.03 551.76C1664.88 552.814 1664.3 554.15 1664.3 555.768C1664.3 556.916 1664.54 557.889 1665.01 558.686C1665.47 559.482 1666.1 560.18 1666.87 560.777L1665.32 562.764C1662.87 561.17 1661.65 558.779 1661.65 555.592ZM1678.7 555.188C1678.7 553.875 1678.22 552.773 1677.26 551.883C1676.31 550.992 1674.97 550.441 1673.25 550.23L1673.25 559.758L1673.5 559.758C1675.15 559.664 1676.43 559.219 1677.33 558.422C1678.24 557.625 1678.7 556.547 1678.7 555.188ZM1662 578.531C1662.38 578.344 1663.04 578.191 1664 578.074C1662.43 576.563 1661.65 574.758 1661.65 572.66C1661.65 570.785 1662.18 569.244 1663.23 568.037C1664.3 566.842 1665.64 566.244 1667.27 566.244C1669.25 566.244 1670.79 566.994 1671.88 568.494C1672.98 570.006 1673.53 572.127 1673.53 574.857L1673.53 578.021L1675.03 578.021C1676.16 578.021 1677.06 577.682 1677.73 577.002C1678.41 576.322 1678.75 575.32 1678.75 573.996C1678.75 572.836 1678.46 571.863 1677.87 571.078C1677.29 570.293 1676.58 569.9 1675.75 569.9L1675.75 566.631C1676.7 566.631 1677.61 566.965 1678.49 567.633C1679.38 568.313 1680.08 569.227 1680.6 570.375C1681.11 571.535 1681.37 572.807 1681.37 574.189C1681.37 576.381 1680.82 578.098 1679.72 579.34C1678.63 580.582 1677.12 581.227 1675.2 581.273L1666.45 581.273C1664.7 581.273 1663.31 581.496 1662.28 581.941L1662 581.941L1662 578.531ZM1664.48 573.135C1664.48 574.154 1664.74 575.121 1665.27 576.035C1665.8 576.949 1666.48 577.611 1667.33 578.021L1671.23 578.021L1671.23 575.473C1671.23 571.488 1670.06 569.496 1667.73 569.496C1666.71 569.496 1665.91 569.836 1665.34 570.516C1664.77 571.195 1664.48 572.068 1664.48 573.135ZM1671.67 585.58C1674.59 585.58 1676.93 586.271 1678.7 587.654C1680.48 589.037 1681.37 590.848 1681.37 593.086C1681.37 595.313 1680.61 597.076 1679.09 598.377L1689 598.377L1689 601.629L1662 601.629L1662 598.641L1664.04 598.482C1662.45 597.182 1661.65 595.371 1661.65 593.051C1661.65 590.848 1662.55 589.049 1664.36 587.654C1666.16 586.271 1668.52 585.58 1671.42 585.58L1671.67 585.58ZM1671.3 588.832C1669.14 588.832 1667.46 589.277 1666.24 590.168C1665.02 591.059 1664.41 592.289 1664.41 593.859C1664.41 595.922 1665.33 597.428 1667.19 598.377L1675.92 598.377C1677.71 597.404 1678.61 595.91 1678.61 593.895C1678.61 592.301 1678 591.059 1676.77 590.168C1675.54 589.277 1673.71 588.832 1671.3 588.832ZM1672.35 625.518L1672.35 619.506L1662 619.506L1662 616.113L1687.59 616.113L1687.59 624.586C1687.59 627.469 1686.94 629.684 1685.63 631.23C1684.31 632.789 1682.4 633.568 1679.89 633.568C1678.3 633.568 1676.91 633.135 1675.73 632.268C1674.54 631.412 1673.66 630.217 1673.07 628.682L1662.21 634.693L1662 634.693L1662 631.072L1672.35 625.518ZM1675.11 619.506L1675.11 624.691C1675.11 626.367 1675.55 627.697 1676.41 628.682C1677.28 629.678 1678.44 630.176 1679.89 630.176C1681.48 630.176 1682.69 629.701 1683.53 628.752C1684.38 627.814 1684.8 626.455 1684.82 624.674L1684.82 619.506L1675.11 619.506ZM1671.67 637.014C1674.59 637.014 1676.93 637.705 1678.7 639.088C1680.48 640.471 1681.37 642.281 1681.37 644.52C1681.37 646.746 1680.61 648.51 1679.09 649.811L1689 649.811L1689 653.063L1662 653.063L1662 650.074L1664.04 649.916C1662.45 648.615 1661.65 646.805 1661.65 644.484C1661.65 642.281 1662.55 640.482 1664.36 639.088C1666.16 637.705 1668.52 637.014 1671.42 637.014L1671.67 637.014ZM1671.3 640.266C1669.14 640.266 1667.46 640.711 1666.24 641.602C1665.02 642.492 1664.41 643.723 1664.41 645.293C1664.41 647.355 1665.33 648.861 1667.19 649.811L1675.92 649.811C1677.71 648.838 1678.61 647.344 1678.61 645.328C1678.61 643.734 1678 642.492 1676.77 641.602C1675.54 640.711 1673.71 640.266 1671.3 640.266Z" fill="#565E76"/>
<defs>
<clipPath id="clip0">
<rect width="1773" height="1266.11" fill="white" transform="matrix(-1 0 0 1 1773 0)"/>
</clipPath>
</defs>
</svg>
