<svg width="1605" height="1021" viewBox="0 0 1605 1021" fill="none" xmlns="http://www.w3.org/2000/svg">
<g clip-path="url(#clip0)">
<path d="M28.3462 775.372V16.2461H1590.56V997.459H939.635V775.372H28.3462Z" fill="#F4F4F5"/>
<path d="M306.848 473.892H138.181V305.224H306.848V473.892Z" fill="#565E76"/>
<path d="M187.11 346.588V351.193H190.661V353.707H187.11V365.502C187.11 366.264 187.268 366.838 187.584 367.225C187.901 367.6 188.44 367.787 189.202 367.787C189.577 367.787 190.092 367.717 190.749 367.576V370.213C189.893 370.447 189.061 370.564 188.252 370.564C186.799 370.564 185.704 370.125 184.965 369.246C184.227 368.367 183.858 367.119 183.858 365.502V353.707H180.395V351.193H183.858V346.588H187.11ZM193.262 360.527C193.262 358.664 193.625 356.988 194.352 355.5C195.09 354.012 196.11 352.863 197.411 352.055C198.723 351.246 200.217 350.842 201.893 350.842C204.483 350.842 206.575 351.738 208.168 353.531C209.774 355.324 210.577 357.709 210.577 360.686V360.914C210.577 362.766 210.219 364.43 209.504 365.906C208.801 367.371 207.788 368.514 206.463 369.334C205.151 370.154 203.639 370.564 201.928 370.564C199.35 370.564 197.258 369.668 195.653 367.875C194.059 366.082 193.262 363.709 193.262 360.756V360.527ZM196.532 360.914C196.532 363.023 197.018 364.717 197.991 365.994C198.975 367.271 200.288 367.91 201.928 367.91C203.581 367.91 204.893 367.266 205.866 365.977C206.838 364.676 207.325 362.859 207.325 360.527C207.325 358.441 206.827 356.754 205.831 355.465C204.846 354.164 203.534 353.514 201.893 353.514C200.288 353.514 198.993 354.152 198.008 355.43C197.024 356.707 196.532 358.535 196.532 360.914ZM219.067 346.588V351.193H222.618V353.707H219.067V365.502C219.067 366.264 219.225 366.838 219.542 367.225C219.858 367.6 220.397 367.787 221.159 367.787C221.534 367.787 222.049 367.717 222.706 367.576V370.213C221.85 370.447 221.018 370.564 220.209 370.564C218.756 370.564 217.661 370.125 216.922 369.246C216.184 368.367 215.815 367.119 215.815 365.502V353.707H212.352V351.193H215.815V346.588H219.067ZM238.174 370.213C237.987 369.838 237.834 369.17 237.717 368.209C236.206 369.779 234.401 370.564 232.303 370.564C230.428 370.564 228.887 370.037 227.68 368.982C226.485 367.916 225.887 366.568 225.887 364.939C225.887 362.959 226.637 361.424 228.137 360.334C229.649 359.232 231.77 358.682 234.5 358.682H237.665V357.188C237.665 356.051 237.325 355.148 236.645 354.48C235.965 353.801 234.963 353.461 233.639 353.461C232.479 353.461 231.506 353.754 230.721 354.34C229.936 354.926 229.543 355.635 229.543 356.467H226.274C226.274 355.518 226.608 354.604 227.276 353.725C227.956 352.834 228.87 352.131 230.018 351.615C231.178 351.1 232.45 350.842 233.833 350.842C236.024 350.842 237.741 351.393 238.983 352.494C240.225 353.584 240.87 355.09 240.917 357.012V365.766C240.917 367.512 241.139 368.9 241.584 369.932V370.213H238.174ZM232.778 367.734C233.797 367.734 234.764 367.471 235.678 366.943C236.592 366.416 237.254 365.73 237.665 364.887V360.984H235.116C231.131 360.984 229.139 362.15 229.139 364.482C229.139 365.502 229.479 366.299 230.159 366.873C230.838 367.447 231.711 367.734 232.778 367.734ZM249.547 370.213H246.295V343.213H249.547V370.213Z" fill="white"/>
<path d="M271.394 388.841C271.175 388.914 271.102 389.06 271.175 389.279L271.577 390.412C271.65 390.595 271.796 390.668 271.979 390.595L273.002 390.302C273.77 390.046 274.647 389.864 275.597 389.864C277.132 389.864 278.155 390.631 278.155 391.764C278.155 392.458 277.68 393.08 276.839 393.664L273.587 395.784C271.796 396.953 271.029 398.598 271.029 400.9V401.777C271.029 401.997 271.138 402.106 271.358 402.106H279.653C279.873 402.106 279.982 401.997 279.982 401.777V400.608C279.982 400.389 279.873 400.279 279.653 400.279H273.039C273.039 399.073 273.441 398.123 274.574 397.392L277.863 395.236C279.434 394.213 280.165 393.116 280.165 391.764C280.165 389.389 278.411 388 275.597 388C274.464 388 273.441 388.183 272.381 388.512L271.394 388.841Z" fill="white"/>
<path d="M163.76 406.314H166.181C167.523 406.314 168.694 406.08 169.697 405.611C170.7 405.13 171.461 404.479 171.982 403.658C172.516 402.825 172.783 401.868 172.783 400.787C172.783 398.964 172.269 397.538 171.24 396.51C170.211 395.481 168.733 394.967 166.806 394.967C164.983 394.967 163.486 395.507 162.314 396.588C161.155 397.656 160.576 399.068 160.576 400.826H158.232C158.232 399.355 158.603 398.014 159.345 396.803C160.088 395.579 161.116 394.635 162.431 393.971C163.747 393.307 165.205 392.975 166.806 392.975C169.385 392.975 171.416 393.678 172.9 395.084C174.385 396.49 175.127 398.417 175.127 400.865C175.127 402.232 174.691 403.495 173.818 404.654C172.959 405.8 171.774 406.66 170.263 407.232C172.034 407.727 173.375 408.58 174.287 409.791C175.198 410.989 175.654 412.421 175.654 414.088C175.654 416.523 174.86 418.482 173.271 419.967C171.683 421.451 169.56 422.193 166.904 422.193C165.211 422.193 163.655 421.855 162.236 421.178C160.83 420.501 159.736 419.557 158.955 418.346C158.187 417.122 157.802 415.702 157.802 414.088H160.146C160.146 415.898 160.778 417.376 162.041 418.521C163.304 419.654 164.925 420.221 166.904 420.221C168.922 420.221 170.491 419.706 171.611 418.678C172.744 417.636 173.31 416.132 173.31 414.166C173.31 412.265 172.698 410.813 171.474 409.811C170.263 408.808 168.473 408.307 166.103 408.307H163.76V406.314ZM198.564 421.803H180.752V420.006L190.498 408.951C192.112 407.089 193.232 405.553 193.857 404.342C194.482 403.131 194.795 401.952 194.795 400.807C194.795 399.01 194.267 397.59 193.213 396.549C192.158 395.494 190.706 394.967 188.857 394.967C186.943 394.967 185.394 395.579 184.209 396.803C183.037 398.027 182.451 399.615 182.451 401.568H180.127C180.127 399.967 180.485 398.508 181.201 397.193C181.93 395.878 182.959 394.85 184.287 394.107C185.628 393.352 187.151 392.975 188.857 392.975C191.461 392.975 193.493 393.658 194.951 395.025C196.422 396.393 197.158 398.255 197.158 400.611C197.158 401.939 196.741 403.391 195.908 404.967C195.088 406.542 193.636 408.508 191.552 410.865L183.623 419.83H198.564V421.803ZM220.088 409.947C220.088 413.958 219.352 417.005 217.881 419.088C216.409 421.158 214.241 422.193 211.377 422.193C208.564 422.193 206.409 421.178 204.912 419.146C203.414 417.102 202.646 414.133 202.607 410.24V405.143C202.607 401.145 203.349 398.118 204.834 396.061C206.318 394.003 208.486 392.975 211.338 392.975C214.15 392.975 216.299 393.971 217.783 395.963C219.267 397.942 220.036 400.865 220.088 404.732V409.947ZM217.744 404.85C217.744 401.594 217.21 399.133 216.142 397.467C215.088 395.8 213.486 394.967 211.338 394.967C209.228 394.967 207.64 395.781 206.572 397.408C205.504 399.036 204.957 401.438 204.931 404.615V410.201C204.931 413.443 205.478 415.924 206.572 417.643C207.679 419.361 209.28 420.221 211.377 420.221C213.46 420.221 215.036 419.381 216.103 417.701C217.184 416.021 217.731 413.561 217.744 410.318V404.85ZM237.353 400.67L237.431 404.107C238.213 402.831 239.189 401.874 240.361 401.236C241.533 400.598 242.835 400.279 244.267 400.279C247.601 400.279 249.717 401.646 250.615 404.381C251.37 403.066 252.379 402.057 253.642 401.354C254.905 400.637 256.299 400.279 257.822 400.279C262.353 400.279 264.664 402.753 264.756 407.701V421.803H262.412V407.877C262.399 405.989 261.989 404.589 261.181 403.678C260.387 402.766 259.085 402.311 257.275 402.311C255.595 402.337 254.176 402.883 253.017 403.951C251.858 405.006 251.214 406.295 251.084 407.818V421.803H248.74V407.701C248.727 405.891 248.297 404.544 247.451 403.658C246.618 402.76 245.329 402.311 243.584 402.311C242.112 402.311 240.849 402.734 239.795 403.58C238.74 404.413 237.959 405.657 237.451 407.311V421.803H235.107V400.67H237.353Z" fill="white"/>
<path d="M1335.79 366.774L1333.71 368.942V374.708H1331.46V357.646H1333.71V366.083L1341.29 357.646H1344.01L1337.29 365.181L1344.54 374.708H1341.84L1335.79 366.774ZM1348.52 374.708H1346.35V362.028H1348.52V374.708ZM1346.18 358.665C1346.18 358.313 1346.28 358.017 1346.49 357.774C1346.71 357.532 1347.03 357.411 1347.45 357.411C1347.88 357.411 1348.2 357.532 1348.42 357.774C1348.63 358.017 1348.74 358.313 1348.74 358.665C1348.74 359.017 1348.63 359.31 1348.42 359.544C1348.2 359.778 1347.88 359.896 1347.45 359.896C1347.03 359.896 1346.71 359.778 1346.49 359.544C1346.28 359.31 1346.18 359.017 1346.18 358.665ZM1354.94 358.958V362.028H1357.31V363.704H1354.94V371.567C1354.94 372.075 1355.05 372.458 1355.26 372.716C1355.47 372.966 1355.83 373.091 1356.34 373.091C1356.59 373.091 1356.93 373.044 1357.37 372.95V374.708C1356.8 374.864 1356.24 374.942 1355.7 374.942C1354.74 374.942 1354 374.649 1353.51 374.063C1353.02 373.478 1352.77 372.646 1352.77 371.567V363.704H1350.47V362.028H1352.77V358.958H1354.94ZM1364.94 373.173C1365.71 373.173 1366.39 372.938 1366.97 372.47C1367.54 372.001 1367.86 371.415 1367.93 370.712H1369.98C1369.94 371.438 1369.69 372.13 1369.23 372.786C1368.77 373.442 1368.15 373.966 1367.38 374.356C1366.61 374.747 1365.8 374.942 1364.94 374.942C1363.21 374.942 1361.84 374.368 1360.81 373.22C1359.8 372.063 1359.29 370.485 1359.29 368.485V368.122C1359.29 366.888 1359.52 365.79 1359.97 364.829C1360.42 363.868 1361.07 363.122 1361.92 362.591C1362.77 362.06 1363.77 361.794 1364.93 361.794C1366.35 361.794 1367.53 362.22 1368.47 363.071C1369.41 363.923 1369.92 365.028 1369.98 366.388H1367.93C1367.86 365.567 1367.55 364.896 1366.99 364.372C1366.43 363.841 1365.75 363.575 1364.93 363.575C1363.83 363.575 1362.97 363.974 1362.36 364.771C1361.76 365.56 1361.46 366.704 1361.46 368.204V368.614C1361.46 370.075 1361.76 371.2 1362.36 371.989C1362.96 372.778 1363.82 373.173 1364.94 373.173ZM1374.58 363.563C1375.54 362.384 1376.79 361.794 1378.33 361.794C1381.01 361.794 1382.36 363.306 1382.39 366.329V374.708H1380.22V366.317C1380.21 365.403 1380 364.728 1379.59 364.29C1379.18 363.853 1378.54 363.634 1377.68 363.634C1376.97 363.634 1376.36 363.821 1375.83 364.196C1375.29 364.571 1374.88 365.063 1374.58 365.673V374.708H1372.42V356.708H1374.58V363.563ZM1390.9 374.942C1389.18 374.942 1387.78 374.38 1386.7 373.255C1385.62 372.122 1385.08 370.61 1385.08 368.72V368.321C1385.08 367.063 1385.32 365.942 1385.8 364.958C1386.28 363.966 1386.95 363.192 1387.81 362.638C1388.68 362.075 1389.62 361.794 1390.63 361.794C1392.27 361.794 1393.56 362.337 1394.47 363.423C1395.38 364.509 1395.84 366.063 1395.84 368.087V368.989H1387.25C1387.28 370.239 1387.65 371.251 1388.34 372.024C1389.04 372.79 1389.93 373.173 1391.01 373.173C1391.78 373.173 1392.43 373.017 1392.96 372.704C1393.49 372.392 1393.95 371.978 1394.35 371.462L1395.68 372.493C1394.61 374.126 1393.02 374.942 1390.9 374.942ZM1390.63 363.575C1389.75 363.575 1389.02 363.896 1388.42 364.536C1387.83 365.169 1387.46 366.06 1387.32 367.208H1393.67V367.044C1393.61 365.942 1393.31 365.091 1392.78 364.489C1392.25 363.88 1391.53 363.575 1390.63 363.575ZM1400.41 362.028L1400.48 363.622C1401.45 362.403 1402.72 361.794 1404.28 361.794C1406.96 361.794 1408.31 363.306 1408.33 366.329V374.708H1406.17V366.317C1406.16 365.403 1405.95 364.728 1405.53 364.29C1405.13 363.853 1404.49 363.634 1403.62 363.634C1402.92 363.634 1402.3 363.821 1401.77 364.196C1401.24 364.571 1400.83 365.063 1400.53 365.673V374.708H1398.36V362.028H1400.41Z" fill="#565E76"/>
<path d="M1345.42 419.551H1331.07V417.104L1338.18 409.355C1339.2 408.213 1339.93 407.261 1340.36 406.499C1340.8 405.728 1341.02 404.956 1341.02 404.185C1341.02 403.169 1340.73 402.349 1340.16 401.724C1339.59 401.099 1338.82 400.786 1337.86 400.786C1336.7 400.786 1335.81 401.138 1335.18 401.841C1334.54 402.544 1334.22 403.506 1334.22 404.727H1330.66C1330.66 403.428 1330.96 402.261 1331.54 401.226C1332.14 400.181 1332.98 399.37 1334.08 398.794C1335.18 398.218 1336.45 397.93 1337.89 397.93C1339.96 397.93 1341.59 398.452 1342.78 399.497C1343.98 400.532 1344.58 401.968 1344.58 403.804C1344.58 404.868 1344.28 405.986 1343.67 407.158C1343.08 408.32 1342.09 409.644 1340.73 411.128L1335.51 416.709H1345.42V419.551ZM1357.76 419.551H1354.22V402.427L1348.99 404.214V401.211L1357.31 398.149H1357.76V419.551ZM1367.62 415.801C1368.29 415.801 1368.8 415.991 1369.16 416.372C1369.52 416.743 1369.7 417.212 1369.7 417.778C1369.7 418.335 1369.52 418.799 1369.16 419.17C1368.8 419.531 1368.29 419.712 1367.62 419.712C1366.99 419.712 1366.48 419.531 1366.11 419.17C1365.74 418.809 1365.56 418.345 1365.56 417.778C1365.56 417.212 1365.74 416.743 1366.1 416.372C1366.46 415.991 1366.97 415.801 1367.62 415.801ZM1374.51 408.975L1375.66 398.223H1387.12V401.299H1378.62L1378.04 406.396C1379.02 405.83 1380.14 405.547 1381.38 405.547C1383.41 405.547 1384.99 406.196 1386.11 407.495C1387.24 408.794 1387.81 410.542 1387.81 412.739C1387.81 414.907 1387.18 416.636 1385.93 417.925C1384.68 419.204 1382.97 419.844 1380.79 419.844C1378.84 419.844 1377.22 419.292 1375.93 418.188C1374.65 417.075 1373.96 415.61 1373.85 413.794H1377.29C1377.43 414.829 1377.8 415.625 1378.4 416.182C1379.01 416.729 1379.8 417.002 1380.78 417.002C1381.87 417.002 1382.72 416.611 1383.33 415.83C1383.94 415.049 1384.25 413.984 1384.25 412.637C1384.25 411.338 1383.91 410.312 1383.24 409.561C1382.56 408.799 1381.64 408.418 1380.45 408.418C1379.81 408.418 1379.26 408.506 1378.81 408.682C1378.36 408.848 1377.88 409.18 1377.35 409.678L1374.51 408.975ZM1401.65 403.701L1401.75 405.356C1402.87 404.058 1404.39 403.408 1406.32 403.408C1408.44 403.408 1409.89 404.219 1410.67 405.84C1411.83 404.219 1413.45 403.408 1415.54 403.408C1417.29 403.408 1418.58 403.892 1419.43 404.858C1420.29 405.825 1420.73 407.251 1420.75 409.136V419.551H1417.19V409.238C1417.19 408.232 1416.97 407.495 1416.53 407.026C1416.09 406.558 1415.37 406.323 1414.35 406.323C1413.54 406.323 1412.88 406.543 1412.36 406.982C1411.85 407.412 1411.49 407.979 1411.29 408.682L1411.3 419.551H1407.74V409.121C1407.7 407.256 1406.74 406.323 1404.89 406.323C1403.46 406.323 1402.45 406.904 1401.86 408.066V419.551H1398.3V403.701H1401.65Z" fill="#565E76"/>
<path d="M1431.67 404H1425.46V402.94L1428.53 399.582C1428.98 399.087 1429.29 398.674 1429.48 398.344C1429.67 398.01 1429.77 397.676 1429.77 397.341C1429.77 396.901 1429.64 396.546 1429.39 396.275C1429.15 396.004 1428.81 395.869 1428.4 395.869C1427.9 395.869 1427.51 396.021 1427.23 396.326C1426.96 396.63 1426.82 397.047 1426.82 397.576H1425.28C1425.28 397.013 1425.41 396.508 1425.66 396.059C1425.92 395.606 1426.28 395.255 1426.76 395.005C1427.24 394.756 1427.79 394.631 1428.41 394.631C1429.3 394.631 1430.01 394.857 1430.53 395.31C1431.05 395.759 1431.31 396.381 1431.31 397.176C1431.31 397.638 1431.18 398.122 1430.92 398.63C1430.66 399.133 1430.23 399.707 1429.64 400.35L1427.38 402.769H1431.67V404Z" fill="#565E76"/>
<path d="M948.525 286.169V269.106H954.103C955.955 269.106 957.346 269.489 958.275 270.255C959.213 271.021 959.682 272.153 959.682 273.653C959.682 274.45 959.455 275.157 959.002 275.774C958.549 276.384 957.932 276.856 957.15 277.192C958.072 277.45 958.799 277.942 959.33 278.669C959.869 279.388 960.139 280.247 960.139 281.247C960.139 282.778 959.642 283.981 958.65 284.856C957.658 285.731 956.256 286.169 954.443 286.169H948.525ZM950.775 278.188V284.329H954.49C955.537 284.329 956.361 284.06 956.963 283.521C957.572 282.974 957.877 282.224 957.877 281.271C957.877 279.216 956.76 278.188 954.525 278.188H950.775ZM950.775 276.384H954.174C955.158 276.384 955.943 276.138 956.529 275.646C957.123 275.153 957.42 274.485 957.42 273.642C957.42 272.704 957.146 272.024 956.599 271.603C956.053 271.173 955.221 270.958 954.103 270.958H950.775V276.384ZM968.4 286.403C966.682 286.403 965.283 285.841 964.205 284.716C963.127 283.583 962.588 282.071 962.588 280.181V279.782C962.588 278.524 962.826 277.403 963.303 276.419C963.787 275.427 964.459 274.653 965.318 274.099C966.185 273.536 967.123 273.255 968.131 273.255C969.779 273.255 971.06 273.798 971.974 274.884C972.889 275.97 973.346 277.524 973.346 279.548V280.45H964.756C964.787 281.7 965.15 282.712 965.846 283.485C966.549 284.251 967.439 284.634 968.517 284.634C969.283 284.634 969.932 284.478 970.463 284.165C970.994 283.853 971.459 283.438 971.857 282.923L973.182 283.954C972.119 285.587 970.525 286.403 968.4 286.403ZM968.131 275.036C967.256 275.036 966.521 275.356 965.928 275.997C965.334 276.63 964.967 277.521 964.826 278.669H971.178V278.505C971.115 277.403 970.818 276.552 970.287 275.95C969.756 275.341 969.037 275.036 968.131 275.036ZM975.338 279.724C975.338 277.778 975.799 276.216 976.721 275.036C977.642 273.849 978.849 273.255 980.342 273.255C981.826 273.255 983.002 273.763 983.869 274.778V268.169H986.037V286.169H984.045L983.939 284.81C983.072 285.872 981.865 286.403 980.318 286.403C978.849 286.403 977.65 285.802 976.721 284.599C975.799 283.396 975.338 281.825 975.338 279.888V279.724ZM977.506 279.97C977.506 281.407 977.803 282.532 978.396 283.345C978.99 284.157 979.81 284.563 980.857 284.563C982.232 284.563 983.236 283.946 983.869 282.712V276.888C983.221 275.692 982.224 275.095 980.881 275.095C979.818 275.095 978.99 275.505 978.396 276.325C977.803 277.146 977.506 278.36 977.506 279.97ZM995.541 275.435C995.213 275.38 994.857 275.353 994.474 275.353C993.053 275.353 992.088 275.958 991.58 277.169V286.169H989.412V273.489H991.521L991.557 274.954C992.267 273.821 993.275 273.255 994.58 273.255C995.002 273.255 995.322 273.31 995.541 273.419V275.435ZM996.736 279.712C996.736 278.47 996.978 277.353 997.463 276.36C997.955 275.368 998.635 274.603 999.502 274.063C1000.38 273.524 1001.37 273.255 1002.49 273.255C1004.22 273.255 1005.61 273.853 1006.67 275.048C1007.74 276.243 1008.28 277.833 1008.28 279.817V279.97C1008.28 281.204 1008.04 282.313 1007.56 283.298C1007.1 284.274 1006.42 285.036 1005.54 285.583C1004.66 286.13 1003.65 286.403 1002.51 286.403C1000.79 286.403 999.4 285.806 998.33 284.61C997.267 283.415 996.736 281.833 996.736 279.864V279.712ZM998.916 279.97C998.916 281.376 999.24 282.505 999.889 283.356C1000.54 284.208 1001.42 284.634 1002.51 284.634C1003.62 284.634 1004.49 284.204 1005.14 283.345C1005.79 282.478 1006.11 281.267 1006.11 279.712C1006.11 278.321 1005.78 277.196 1005.12 276.337C1004.46 275.47 1003.58 275.036 1002.49 275.036C1001.42 275.036 1000.56 275.462 999.9 276.313C999.244 277.165 998.916 278.384 998.916 279.97ZM1010.42 279.712C1010.42 278.47 1010.67 277.353 1011.15 276.36C1011.64 275.368 1012.32 274.603 1013.19 274.063C1014.06 273.524 1015.06 273.255 1016.18 273.255C1017.9 273.255 1019.3 273.853 1020.36 275.048C1021.43 276.243 1021.97 277.833 1021.97 279.817V279.97C1021.97 281.204 1021.73 282.313 1021.25 283.298C1020.78 284.274 1020.11 285.036 1019.22 285.583C1018.35 286.13 1017.34 286.403 1016.2 286.403C1014.48 286.403 1013.09 285.806 1012.02 284.61C1010.95 283.415 1010.42 281.833 1010.42 279.864V279.712ZM1012.6 279.97C1012.6 281.376 1012.93 282.505 1013.58 283.356C1014.23 284.208 1015.11 284.634 1016.2 284.634C1017.3 284.634 1018.18 284.204 1018.83 283.345C1019.47 282.478 1019.8 281.267 1019.8 279.712C1019.8 278.321 1019.47 277.196 1018.8 276.337C1018.15 275.47 1017.27 275.036 1016.18 275.036C1015.11 275.036 1014.24 275.462 1013.59 276.313C1012.93 277.165 1012.6 278.384 1012.6 279.97ZM1026.72 273.489L1026.78 274.896C1027.71 273.802 1028.97 273.255 1030.54 273.255C1032.32 273.255 1033.53 273.935 1034.17 275.294C1034.59 274.685 1035.13 274.192 1035.81 273.817C1036.49 273.442 1037.29 273.255 1038.21 273.255C1040.99 273.255 1042.4 274.728 1042.45 277.673V286.169H1040.28V277.802C1040.28 276.896 1040.08 276.22 1039.66 275.774C1039.25 275.321 1038.55 275.095 1037.58 275.095C1036.77 275.095 1036.1 275.337 1035.57 275.821C1035.04 276.298 1034.73 276.942 1034.65 277.755V286.169H1032.47V277.86C1032.47 276.017 1031.56 275.095 1029.76 275.095C1028.34 275.095 1027.37 275.7 1026.84 276.911V286.169H1024.67V273.489H1026.72Z" fill="#565E76"/>
<path d="M952.258 318.722H954.426C955.519 318.712 956.384 318.429 957.018 317.872C957.663 317.315 957.985 316.51 957.985 315.455C957.985 314.439 957.717 313.653 957.18 313.097C956.652 312.53 955.842 312.247 954.748 312.247C953.791 312.247 953.005 312.525 952.39 313.082C951.774 313.629 951.467 314.347 951.467 315.235H947.907C947.907 314.142 948.195 313.146 948.771 312.247C949.357 311.349 950.168 310.65 951.203 310.152C952.248 309.645 953.415 309.391 954.704 309.391C956.833 309.391 958.503 309.928 959.714 311.002C960.934 312.066 961.545 313.551 961.545 315.455C961.545 316.412 961.237 317.315 960.622 318.165C960.016 319.005 959.23 319.64 958.264 320.069C959.435 320.47 960.324 321.1 960.93 321.959C961.545 322.818 961.852 323.844 961.852 325.035C961.852 326.949 961.193 328.473 959.875 329.605C958.566 330.738 956.843 331.305 954.704 331.305C952.653 331.305 950.974 330.758 949.665 329.664C948.356 328.57 947.702 327.115 947.702 325.299H951.262C951.262 326.236 951.574 326.998 952.199 327.584C952.834 328.17 953.683 328.463 954.748 328.463C955.851 328.463 956.721 328.17 957.355 327.584C957.99 326.998 958.307 326.148 958.307 325.035C958.307 323.912 957.975 323.048 957.311 322.442C956.647 321.837 955.661 321.534 954.352 321.534H952.258V318.722ZM979.094 322.032C979.094 325.099 978.517 327.413 977.365 328.976C976.223 330.528 974.479 331.305 972.136 331.305C969.831 331.305 968.093 330.548 966.921 329.034C965.759 327.511 965.163 325.26 965.134 322.281V318.59C965.134 315.523 965.705 313.224 966.848 311.69C968 310.157 969.753 309.391 972.106 309.391C974.44 309.391 976.179 310.138 977.321 311.632C978.474 313.126 979.064 315.362 979.094 318.341V322.032ZM975.534 318.048C975.534 316.046 975.261 314.581 974.714 313.653C974.167 312.716 973.298 312.247 972.106 312.247C970.944 312.247 970.09 312.691 969.543 313.58C968.996 314.459 968.708 315.836 968.679 317.711V322.545C968.679 324.537 968.957 326.021 969.514 326.998C970.07 327.975 970.944 328.463 972.136 328.463C973.278 328.463 974.123 328.014 974.67 327.115C975.217 326.207 975.505 324.791 975.534 322.867V318.048ZM984.689 327.262C985.353 327.262 985.866 327.452 986.227 327.833C986.589 328.204 986.769 328.673 986.769 329.239C986.769 329.796 986.589 330.26 986.227 330.631C985.866 330.992 985.353 331.173 984.689 331.173C984.055 331.173 983.552 330.992 983.181 330.631C982.809 330.27 982.624 329.806 982.624 329.239C982.624 328.673 982.805 328.204 983.166 327.833C983.527 327.452 984.035 327.262 984.689 327.262ZM1000.26 331.012H996.716V313.888L991.486 315.675V312.672L999.807 309.61H1000.26V331.012ZM1008.62 320.436L1009.78 309.684H1021.24V312.76H1012.74L1012.16 317.857C1013.14 317.291 1014.25 317.008 1015.49 317.008C1017.53 317.008 1019.1 317.657 1020.23 318.956C1021.36 320.255 1021.93 322.003 1021.93 324.2C1021.93 326.368 1021.3 328.097 1020.05 329.386C1018.8 330.665 1017.09 331.305 1014.91 331.305C1012.96 331.305 1011.33 330.753 1010.05 329.649C1008.77 328.536 1008.07 327.071 1007.97 325.255H1011.41C1011.54 326.29 1011.92 327.086 1012.52 327.643C1013.13 328.189 1013.92 328.463 1014.89 328.463C1015.99 328.463 1016.84 328.072 1017.44 327.291C1018.06 326.51 1018.37 325.445 1018.37 324.098C1018.37 322.799 1018.03 321.773 1017.36 321.021C1016.68 320.26 1015.75 319.879 1014.57 319.879C1013.93 319.879 1013.38 319.967 1012.93 320.143C1012.48 320.309 1011.99 320.641 1011.47 321.139L1008.62 320.436ZM1035.77 315.162L1035.87 316.817C1036.98 315.519 1038.51 314.869 1040.44 314.869C1042.56 314.869 1044.01 315.68 1044.79 317.301C1045.94 315.68 1047.57 314.869 1049.66 314.869C1051.4 314.869 1052.7 315.353 1053.55 316.319C1054.41 317.286 1054.85 318.712 1054.87 320.597V331.012H1051.31V320.699C1051.31 319.693 1051.09 318.956 1050.65 318.487C1050.21 318.019 1049.48 317.784 1048.47 317.784C1047.66 317.784 1046.99 318.004 1046.48 318.443C1045.97 318.873 1045.61 319.439 1045.41 320.143L1045.42 331.012H1041.86V320.582C1041.81 318.717 1040.86 317.784 1039.01 317.784C1037.58 317.784 1036.57 318.365 1035.97 319.527V331.012H1032.41V315.162H1035.77Z" fill="#565E76"/>
<path d="M1066.81 316H1060.59V314.94L1063.67 311.582C1064.11 311.087 1064.43 310.674 1064.62 310.344C1064.81 310.01 1064.9 309.676 1064.9 309.341C1064.9 308.901 1064.78 308.546 1064.53 308.275C1064.28 308.004 1063.95 307.869 1063.53 307.869C1063.03 307.869 1062.64 308.021 1062.37 308.326C1062.09 308.63 1061.96 309.047 1061.96 309.576H1060.41C1060.41 309.013 1060.54 308.508 1060.79 308.059C1061.05 307.606 1061.42 307.255 1061.89 307.005C1062.37 306.756 1062.92 306.631 1063.54 306.631C1064.44 306.631 1065.15 306.857 1065.66 307.31C1066.18 307.759 1066.44 308.381 1066.44 309.176C1066.44 309.638 1066.31 310.122 1066.05 310.63C1065.79 311.133 1065.37 311.707 1064.77 312.35L1062.51 314.769H1066.81V316Z" fill="#565E76"/>
<path d="M838.791 669.102H836.529V661.215H827.927V669.102H825.677V652.039H827.927V659.375H836.529V652.039H838.791V669.102ZM850.275 669.102C850.15 668.852 850.048 668.406 849.97 667.766C848.962 668.812 847.759 669.336 846.361 669.336C845.111 669.336 844.083 668.984 843.279 668.281C842.482 667.57 842.083 666.672 842.083 665.586C842.083 664.266 842.583 663.242 843.583 662.516C844.591 661.781 846.005 661.414 847.826 661.414H849.935V660.418C849.935 659.66 849.708 659.059 849.255 658.613C848.802 658.16 848.134 657.934 847.251 657.934C846.478 657.934 845.83 658.129 845.306 658.52C844.783 658.91 844.521 659.383 844.521 659.938H842.341C842.341 659.305 842.564 658.695 843.009 658.109C843.462 657.516 844.072 657.047 844.837 656.703C845.611 656.359 846.458 656.188 847.38 656.188C848.841 656.188 849.986 656.555 850.814 657.289C851.642 658.016 852.072 659.02 852.103 660.301V666.137C852.103 667.301 852.251 668.227 852.548 668.914V669.102H850.275ZM846.677 667.449C847.357 667.449 848.001 667.273 848.611 666.922C849.22 666.57 849.662 666.113 849.935 665.551V662.949H848.236C845.58 662.949 844.251 663.727 844.251 665.281C844.251 665.961 844.478 666.492 844.931 666.875C845.384 667.258 845.966 667.449 846.677 667.449ZM857.857 669.102H855.689V651.102H857.857V669.102ZM863.693 669.102H861.525V651.102H863.693V669.102ZM878.4 666.113L880.837 656.422H883.005L879.314 669.102H877.556L874.474 659.492L871.474 669.102H869.716L866.037 656.422H868.193L870.689 665.914L873.642 656.422H875.388L878.4 666.113ZM893.048 669.102C892.923 668.852 892.822 668.406 892.744 667.766C891.736 668.812 890.533 669.336 889.134 669.336C887.884 669.336 886.857 668.984 886.052 668.281C885.255 667.57 884.857 666.672 884.857 665.586C884.857 664.266 885.357 663.242 886.357 662.516C887.365 661.781 888.779 661.414 890.599 661.414H892.708V660.418C892.708 659.66 892.482 659.059 892.029 658.613C891.576 658.16 890.908 657.934 890.025 657.934C889.251 657.934 888.603 658.129 888.08 658.52C887.556 658.91 887.294 659.383 887.294 659.938H885.115C885.115 659.305 885.337 658.695 885.783 658.109C886.236 657.516 886.845 657.047 887.611 656.703C888.384 656.359 889.232 656.188 890.154 656.188C891.615 656.188 892.759 656.555 893.587 657.289C894.416 658.016 894.845 659.02 894.876 660.301V666.137C894.876 667.301 895.025 668.227 895.322 668.914V669.102H893.048ZM889.451 667.449C890.13 667.449 890.775 667.273 891.384 666.922C891.994 666.57 892.435 666.113 892.708 665.551V662.949H891.009C888.353 662.949 887.025 663.727 887.025 665.281C887.025 665.961 887.251 666.492 887.705 666.875C888.158 667.258 888.74 667.449 889.451 667.449ZM902.236 665.926L905.189 656.422H907.509L902.412 671.059C901.623 673.168 900.369 674.223 898.65 674.223L898.24 674.188L897.431 674.035V672.277L898.017 672.324C898.751 672.324 899.322 672.176 899.728 671.879C900.142 671.582 900.482 671.039 900.748 670.25L901.228 668.961L896.705 656.422H899.072L902.236 665.926Z" fill="#565E76"/>
<path d="M834.932 713.944H831.387V696.82L826.158 698.607V695.604L834.478 692.543H834.932V713.944ZM854.385 706.342H857.037V709.198H854.385V713.944H850.826V709.198H841.612L841.509 707.03L850.708 692.616H854.385V706.342ZM845.245 706.342H850.826V697.436L850.562 697.904L845.245 706.342ZM861.841 710.194C862.505 710.194 863.018 710.385 863.379 710.766C863.741 711.137 863.921 711.605 863.921 712.172C863.921 712.729 863.741 713.192 863.379 713.563C863.018 713.925 862.505 714.105 861.841 714.105C861.207 714.105 860.704 713.925 860.333 713.563C859.961 713.202 859.776 712.738 859.776 712.172C859.776 711.605 859.957 711.137 860.318 710.766C860.679 710.385 861.187 710.194 861.841 710.194ZM877.413 713.944H873.868V696.82L868.638 698.607V695.604L876.958 692.543H877.413V713.944ZM885.777 703.368L886.934 692.616H898.389V695.692H889.893L889.307 700.79C890.293 700.224 891.407 699.94 892.647 699.94C894.678 699.94 896.255 700.59 897.378 701.889C898.511 703.188 899.078 704.936 899.078 707.133C899.078 709.301 898.453 711.029 897.203 712.318C895.953 713.598 894.239 714.237 892.061 714.237C890.108 714.237 888.487 713.686 887.198 712.582C885.918 711.469 885.225 710.004 885.118 708.188H888.56C888.697 709.223 889.068 710.019 889.673 710.575C890.279 711.122 891.07 711.396 892.046 711.396C893.14 711.396 893.99 711.005 894.595 710.224C895.21 709.442 895.518 708.378 895.518 707.03C895.518 705.731 895.181 704.706 894.507 703.954C893.833 703.192 892.906 702.812 891.724 702.812C891.08 702.812 890.533 702.899 890.083 703.075C889.634 703.241 889.146 703.573 888.619 704.071L885.777 703.368ZM912.92 698.095L913.023 699.75C914.136 698.451 915.66 697.802 917.593 697.802C919.712 697.802 921.163 698.612 921.944 700.233C923.096 698.612 924.717 697.802 926.807 697.802C928.555 697.802 929.854 698.285 930.704 699.252C931.563 700.219 932.002 701.645 932.022 703.529V713.944H928.462V703.632C928.462 702.626 928.243 701.889 927.803 701.42C927.364 700.951 926.636 700.717 925.621 700.717C924.81 700.717 924.146 700.937 923.628 701.376C923.121 701.806 922.764 702.372 922.559 703.075L922.574 713.944H919.014V703.515C918.965 701.649 918.013 700.717 916.158 700.717C914.732 700.717 913.721 701.298 913.125 702.46V713.944H909.566V698.095H912.92Z" fill="#565E76"/>
<path d="M943.109 698H936.894V696.94L939.973 693.582C940.417 693.087 940.733 692.674 940.919 692.344C941.109 692.01 941.204 691.676 941.204 691.341C941.204 690.901 941.08 690.546 940.83 690.275C940.584 690.004 940.252 689.869 939.833 689.869C939.334 689.869 938.947 690.021 938.672 690.326C938.397 690.63 938.259 691.047 938.259 691.576H936.717C936.717 691.013 936.844 690.508 937.097 690.059C937.356 689.606 937.722 689.255 938.196 689.005C938.674 688.756 939.224 688.631 939.846 688.631C940.743 688.631 941.45 688.857 941.966 689.31C942.487 689.759 942.747 690.381 942.747 691.176C942.747 691.638 942.616 692.122 942.353 692.63C942.095 693.133 941.67 693.707 941.077 694.35L938.818 696.769H943.109V698Z" fill="#565E76"/>
<path d="M1314.86 871.635V854.572H1320.44C1322.29 854.572 1323.68 854.955 1324.61 855.721C1325.54 856.486 1326.01 857.619 1326.01 859.119C1326.01 859.916 1325.79 860.623 1325.33 861.24C1324.88 861.85 1324.26 862.322 1323.48 862.658C1324.4 862.916 1325.13 863.408 1325.66 864.135C1326.2 864.854 1326.47 865.713 1326.47 866.713C1326.47 868.244 1325.97 869.447 1324.98 870.322C1323.99 871.197 1322.59 871.635 1320.77 871.635H1314.86ZM1317.11 863.654V869.795H1320.82C1321.87 869.795 1322.69 869.525 1323.29 868.986C1323.9 868.439 1324.21 867.689 1324.21 866.736C1324.21 864.682 1323.09 863.654 1320.86 863.654H1317.11ZM1317.11 861.85H1320.51C1321.49 861.85 1322.27 861.604 1322.86 861.111C1323.45 860.619 1323.75 859.951 1323.75 859.107C1323.75 858.17 1323.48 857.49 1322.93 857.068C1322.38 856.639 1321.55 856.424 1320.44 856.424H1317.11V861.85ZM1337.3 871.635C1337.17 871.385 1337.07 870.939 1336.99 870.299C1335.99 871.346 1334.78 871.869 1333.38 871.869C1332.13 871.869 1331.11 871.518 1330.3 870.814C1329.51 870.104 1329.11 869.205 1329.11 868.119C1329.11 866.799 1329.61 865.775 1330.61 865.049C1331.61 864.314 1333.03 863.947 1334.85 863.947H1336.96V862.951C1336.96 862.193 1336.73 861.592 1336.28 861.146C1335.83 860.693 1335.16 860.467 1334.27 860.467C1333.5 860.467 1332.85 860.662 1332.33 861.053C1331.81 861.443 1331.54 861.916 1331.54 862.471H1329.36C1329.36 861.838 1329.59 861.229 1330.03 860.643C1330.49 860.049 1331.1 859.58 1331.86 859.236C1332.63 858.893 1333.48 858.721 1334.4 858.721C1335.86 858.721 1337.01 859.088 1337.84 859.822C1338.67 860.549 1339.1 861.553 1339.13 862.834V868.67C1339.13 869.834 1339.27 870.76 1339.57 871.447V871.635H1337.3ZM1333.7 869.982C1334.38 869.982 1335.02 869.807 1335.63 869.455C1336.24 869.104 1336.69 868.646 1336.96 868.084V865.482H1335.26C1332.6 865.482 1331.27 866.26 1331.27 867.814C1331.27 868.494 1331.5 869.025 1331.95 869.408C1332.41 869.791 1332.99 869.982 1333.7 869.982ZM1345.47 855.885V858.955H1347.83V860.631H1345.47V868.494C1345.47 869.002 1345.57 869.385 1345.78 869.643C1345.99 869.893 1346.35 870.018 1346.86 870.018C1347.11 870.018 1347.45 869.971 1347.89 869.877V871.635C1347.32 871.791 1346.77 871.869 1346.23 871.869C1345.26 871.869 1344.53 871.576 1344.04 870.99C1343.54 870.404 1343.3 869.572 1343.3 868.494V860.631H1340.99V858.955H1343.3V855.885H1345.47ZM1352.54 860.49C1353.51 859.311 1354.76 858.721 1356.29 858.721C1358.97 858.721 1360.33 860.232 1360.35 863.256V871.635H1358.18V863.244C1358.17 862.33 1357.96 861.654 1357.55 861.217C1357.14 860.779 1356.51 860.561 1355.64 860.561C1354.94 860.561 1354.32 860.748 1353.79 861.123C1353.26 861.498 1352.84 861.99 1352.54 862.6V871.635H1350.38V853.635H1352.54V860.49ZM1369.72 860.9C1369.4 860.846 1369.04 860.818 1368.66 860.818C1367.24 860.818 1366.27 861.424 1365.76 862.635V871.635H1363.6V858.955H1365.7L1365.74 860.42C1366.45 859.287 1367.46 858.721 1368.76 858.721C1369.19 858.721 1369.51 858.775 1369.72 858.885V860.9ZM1370.92 865.178C1370.92 863.936 1371.16 862.818 1371.65 861.826C1372.14 860.834 1372.82 860.068 1373.69 859.529C1374.56 858.99 1375.56 858.721 1376.67 858.721C1378.4 858.721 1379.79 859.318 1380.86 860.514C1381.93 861.709 1382.46 863.299 1382.46 865.283V865.436C1382.46 866.67 1382.22 867.779 1381.75 868.764C1381.28 869.74 1380.6 870.502 1379.72 871.049C1378.85 871.596 1377.84 871.869 1376.7 871.869C1374.98 871.869 1373.58 871.271 1372.51 870.076C1371.45 868.881 1370.92 867.299 1370.92 865.33V865.178ZM1373.1 865.436C1373.1 866.842 1373.42 867.971 1374.07 868.822C1374.73 869.674 1375.6 870.1 1376.7 870.1C1377.8 870.1 1378.67 869.67 1379.32 868.811C1379.97 867.943 1380.29 866.732 1380.29 865.178C1380.29 863.787 1379.96 862.662 1379.3 861.803C1378.64 860.936 1377.77 860.502 1376.67 860.502C1375.6 860.502 1374.74 860.928 1374.08 861.779C1373.43 862.631 1373.1 863.85 1373.1 865.436ZM1384.61 865.178C1384.61 863.936 1384.85 862.818 1385.33 861.826C1385.83 860.834 1386.51 860.068 1387.37 859.529C1388.25 858.99 1389.24 858.721 1390.36 858.721C1392.09 858.721 1393.48 859.318 1394.54 860.514C1395.61 861.709 1396.15 863.299 1396.15 865.283V865.436C1396.15 866.67 1395.91 867.779 1395.44 868.764C1394.97 869.74 1394.29 870.502 1393.41 871.049C1392.53 871.596 1391.52 871.869 1390.38 871.869C1388.67 871.869 1387.27 871.271 1386.2 870.076C1385.14 868.881 1384.61 867.299 1384.61 865.33V865.178ZM1386.79 865.436C1386.79 866.842 1387.11 867.971 1387.76 868.822C1388.42 869.674 1389.29 870.1 1390.38 870.1C1391.49 870.1 1392.36 869.67 1393.01 868.811C1393.66 867.943 1393.98 866.732 1393.98 865.178C1393.98 863.787 1393.65 862.662 1392.99 861.803C1392.33 860.936 1391.45 860.502 1390.36 860.502C1389.29 860.502 1388.43 860.928 1387.77 861.779C1387.11 862.631 1386.79 863.85 1386.79 865.436ZM1400.91 858.955L1400.97 860.361C1401.9 859.268 1403.15 858.721 1404.73 858.721C1406.5 858.721 1407.71 859.4 1408.35 860.76C1408.77 860.15 1409.32 859.658 1409.99 859.283C1410.67 858.908 1411.47 858.721 1412.39 858.721C1415.17 858.721 1416.59 860.193 1416.63 863.139V871.635H1414.47V863.268C1414.47 862.361 1414.26 861.686 1413.85 861.24C1413.43 860.787 1412.74 860.561 1411.76 860.561C1410.95 860.561 1410.29 860.803 1409.76 861.287C1409.22 861.764 1408.92 862.408 1408.83 863.221V871.635H1406.65V863.326C1406.65 861.482 1405.75 860.561 1403.94 860.561C1402.52 860.561 1401.55 861.166 1401.02 862.377V871.635H1398.86V858.955H1400.91Z" fill="#565E76"/>
<path d="M1324.11 916.478H1320.57V899.354L1315.34 901.141V898.138L1323.66 895.076H1324.11V916.478ZM1345.86 916.478H1331.52V914.031L1338.63 906.282C1339.65 905.14 1340.38 904.188 1340.81 903.426C1341.25 902.654 1341.47 901.883 1341.47 901.111C1341.47 900.096 1341.18 899.275 1340.61 898.65C1340.04 898.025 1339.27 897.713 1338.31 897.713C1337.15 897.713 1336.26 898.064 1335.63 898.768C1334.99 899.471 1334.67 900.433 1334.67 901.653H1331.11C1331.11 900.354 1331.41 899.188 1331.99 898.152C1332.59 897.107 1333.43 896.297 1334.53 895.721C1335.63 895.145 1336.9 894.856 1338.34 894.856C1340.41 894.856 1342.04 895.379 1343.23 896.424C1344.43 897.459 1345.03 898.895 1345.03 900.73C1345.03 901.795 1344.73 902.913 1344.12 904.085C1343.53 905.247 1342.54 906.57 1341.18 908.055L1335.96 913.636H1345.86V916.478ZM1351.02 912.728C1351.69 912.728 1352.2 912.918 1352.56 913.299C1352.92 913.67 1353.1 914.139 1353.1 914.705C1353.1 915.262 1352.92 915.726 1352.56 916.097C1352.2 916.458 1351.69 916.639 1351.02 916.639C1350.39 916.639 1349.88 916.458 1349.51 916.097C1349.14 915.735 1348.96 915.271 1348.96 914.705C1348.96 914.139 1349.14 913.67 1349.5 913.299C1349.86 912.918 1350.37 912.728 1351.02 912.728ZM1366.59 916.478H1363.05V899.354L1357.82 901.141V898.138L1366.14 895.076H1366.59V916.478ZM1374.96 905.901L1376.11 895.149H1387.57V898.226H1379.07L1378.49 903.323C1379.47 902.757 1380.59 902.474 1381.83 902.474C1383.86 902.474 1385.44 903.123 1386.56 904.422C1387.69 905.721 1388.26 907.469 1388.26 909.666C1388.26 911.834 1387.63 913.562 1386.38 914.852C1385.13 916.131 1383.42 916.771 1381.24 916.771C1379.29 916.771 1377.67 916.219 1376.38 915.115C1375.1 914.002 1374.4 912.537 1374.3 910.721H1377.74C1377.88 911.756 1378.25 912.552 1378.85 913.108C1379.46 913.655 1380.25 913.929 1381.23 913.929C1382.32 913.929 1383.17 913.538 1383.77 912.757C1384.39 911.976 1384.7 910.911 1384.7 909.563C1384.7 908.265 1384.36 907.239 1383.69 906.487C1383.01 905.726 1382.09 905.345 1380.9 905.345C1380.26 905.345 1379.71 905.433 1379.26 905.608C1378.81 905.774 1378.33 906.106 1377.8 906.604L1374.96 905.901ZM1402.1 900.628L1402.2 902.283C1403.32 900.984 1404.84 900.335 1406.77 900.335C1408.89 900.335 1410.34 901.146 1411.12 902.767C1412.28 901.146 1413.9 900.335 1415.99 900.335C1417.73 900.335 1419.03 900.818 1419.88 901.785C1420.74 902.752 1421.18 904.178 1421.2 906.062V916.478H1417.64V906.165C1417.64 905.159 1417.42 904.422 1416.98 903.953C1416.54 903.484 1415.82 903.25 1414.8 903.25C1413.99 903.25 1413.33 903.47 1412.81 903.909C1412.3 904.339 1411.94 904.905 1411.74 905.608L1411.75 916.478H1408.19V906.048C1408.15 904.183 1407.19 903.25 1405.34 903.25C1403.91 903.25 1402.9 903.831 1402.31 904.993V916.478H1398.75V900.628H1402.1Z" fill="#565E76"/>
<path d="M1432.47 899H1426.25V897.94L1429.33 894.582C1429.78 894.087 1430.09 893.674 1430.28 893.344C1430.47 893.01 1430.56 892.676 1430.56 892.341C1430.56 891.901 1430.44 891.546 1430.19 891.275C1429.94 891.004 1429.61 890.869 1429.19 890.869C1428.69 890.869 1428.31 891.021 1428.03 891.326C1427.76 891.63 1427.62 892.047 1427.62 892.576H1426.08C1426.08 892.013 1426.2 891.508 1426.46 891.059C1426.71 890.606 1427.08 890.255 1427.55 890.005C1428.03 889.756 1428.58 889.631 1429.21 889.631C1430.1 889.631 1430.81 889.857 1431.33 890.31C1431.85 890.759 1432.11 891.381 1432.11 892.176C1432.11 892.638 1431.98 893.122 1431.71 893.63C1431.45 894.133 1431.03 894.707 1430.44 895.35L1428.18 897.769H1432.47V899Z" fill="#565E76"/>
<path d="M576.66 260.714V243.651H582.238C584.09 243.651 585.48 244.034 586.41 244.8C587.348 245.565 587.816 246.698 587.816 248.198C587.816 248.995 587.59 249.702 587.137 250.319C586.684 250.929 586.066 251.401 585.285 251.737C586.207 251.995 586.934 252.487 587.465 253.214C588.004 253.933 588.273 254.792 588.273 255.792C588.273 257.323 587.777 258.526 586.785 259.401C585.793 260.276 584.391 260.714 582.578 260.714H576.66ZM578.91 252.733V258.874H582.625C583.672 258.874 584.496 258.604 585.098 258.065C585.707 257.519 586.012 256.769 586.012 255.815C586.012 253.761 584.895 252.733 582.66 252.733H578.91ZM578.91 250.929H582.309C583.293 250.929 584.078 250.683 584.664 250.19C585.258 249.698 585.555 249.03 585.555 248.187C585.555 247.249 585.281 246.569 584.734 246.147C584.188 245.718 583.355 245.503 582.238 245.503H578.91V250.929ZM596.535 260.948C594.816 260.948 593.418 260.386 592.34 259.261C591.262 258.128 590.723 256.616 590.723 254.726V254.327C590.723 253.069 590.961 251.948 591.438 250.964C591.922 249.972 592.594 249.198 593.453 248.644C594.32 248.081 595.258 247.8 596.266 247.8C597.914 247.8 599.195 248.343 600.109 249.429C601.023 250.515 601.48 252.069 601.48 254.093V254.995H592.891C592.922 256.245 593.285 257.257 593.98 258.03C594.684 258.796 595.574 259.179 596.652 259.179C597.418 259.179 598.066 259.022 598.598 258.71C599.129 258.397 599.594 257.983 599.992 257.468L601.316 258.499C600.254 260.132 598.66 260.948 596.535 260.948ZM596.266 249.581C595.391 249.581 594.656 249.901 594.062 250.542C593.469 251.175 593.102 252.065 592.961 253.214H599.312V253.05C599.25 251.948 598.953 251.097 598.422 250.495C597.891 249.886 597.172 249.581 596.266 249.581ZM603.473 254.269C603.473 252.323 603.934 250.761 604.855 249.581C605.777 248.394 606.984 247.8 608.477 247.8C609.961 247.8 611.137 248.308 612.004 249.323V242.714H614.172V260.714H612.18L612.074 259.354C611.207 260.417 610 260.948 608.453 260.948C606.984 260.948 605.785 260.347 604.855 259.144C603.934 257.94 603.473 256.37 603.473 254.433V254.269ZM605.641 254.515C605.641 255.952 605.938 257.077 606.531 257.89C607.125 258.702 607.945 259.108 608.992 259.108C610.367 259.108 611.371 258.491 612.004 257.257V251.433C611.355 250.237 610.359 249.64 609.016 249.64C607.953 249.64 607.125 250.05 606.531 250.87C605.938 251.69 605.641 252.905 605.641 254.515ZM623.676 249.979C623.348 249.925 622.992 249.897 622.609 249.897C621.188 249.897 620.223 250.503 619.715 251.714V260.714H617.547V248.034H619.656L619.691 249.499C620.402 248.366 621.41 247.8 622.715 247.8C623.137 247.8 623.457 247.854 623.676 247.964V249.979ZM624.871 254.257C624.871 253.015 625.113 251.897 625.598 250.905C626.09 249.913 626.77 249.147 627.637 248.608C628.512 248.069 629.508 247.8 630.625 247.8C632.352 247.8 633.746 248.397 634.809 249.593C635.879 250.788 636.414 252.378 636.414 254.362V254.515C636.414 255.749 636.176 256.858 635.699 257.843C635.23 258.819 634.555 259.581 633.672 260.128C632.797 260.675 631.789 260.948 630.648 260.948C628.93 260.948 627.535 260.351 626.465 259.155C625.402 257.96 624.871 256.378 624.871 254.409V254.257ZM627.051 254.515C627.051 255.921 627.375 257.05 628.023 257.901C628.68 258.753 629.555 259.179 630.648 259.179C631.75 259.179 632.625 258.749 633.273 257.89C633.922 257.022 634.246 255.812 634.246 254.257C634.246 252.866 633.914 251.741 633.25 250.882C632.594 250.015 631.719 249.581 630.625 249.581C629.555 249.581 628.691 250.007 628.035 250.858C627.379 251.71 627.051 252.929 627.051 254.515ZM638.559 254.257C638.559 253.015 638.801 251.897 639.285 250.905C639.777 249.913 640.457 249.147 641.324 248.608C642.199 248.069 643.195 247.8 644.312 247.8C646.039 247.8 647.434 248.397 648.496 249.593C649.566 250.788 650.102 252.378 650.102 254.362V254.515C650.102 255.749 649.863 256.858 649.387 257.843C648.918 258.819 648.242 259.581 647.359 260.128C646.484 260.675 645.477 260.948 644.336 260.948C642.617 260.948 641.223 260.351 640.152 259.155C639.09 257.96 638.559 256.378 638.559 254.409V254.257ZM640.738 254.515C640.738 255.921 641.062 257.05 641.711 257.901C642.367 258.753 643.242 259.179 644.336 259.179C645.438 259.179 646.312 258.749 646.961 257.89C647.609 257.022 647.934 255.812 647.934 254.257C647.934 252.866 647.602 251.741 646.938 250.882C646.281 250.015 645.406 249.581 644.312 249.581C643.242 249.581 642.379 250.007 641.723 250.858C641.066 251.71 640.738 252.929 640.738 254.515ZM654.859 248.034L654.918 249.44C655.848 248.347 657.102 247.8 658.68 247.8C660.453 247.8 661.66 248.479 662.301 249.839C662.723 249.229 663.27 248.737 663.941 248.362C664.621 247.987 665.422 247.8 666.344 247.8C669.125 247.8 670.539 249.272 670.586 252.218V260.714H668.418V252.347C668.418 251.44 668.211 250.765 667.797 250.319C667.383 249.866 666.688 249.64 665.711 249.64C664.906 249.64 664.238 249.882 663.707 250.366C663.176 250.843 662.867 251.487 662.781 252.3V260.714H660.602V252.405C660.602 250.562 659.699 249.64 657.895 249.64C656.473 249.64 655.5 250.245 654.977 251.456V260.714H652.809V248.034H654.859Z" fill="#565E76"/>
<path d="M580.393 293.267H582.561C583.654 293.257 584.519 292.974 585.153 292.417C585.798 291.86 586.12 291.055 586.12 290C586.12 288.984 585.852 288.198 585.314 287.642C584.787 287.075 583.977 286.792 582.883 286.792C581.926 286.792 581.14 287.07 580.524 287.627C579.909 288.174 579.602 288.892 579.602 289.78H576.042C576.042 288.687 576.33 287.69 576.906 286.792C577.492 285.894 578.303 285.195 579.338 284.697C580.383 284.189 581.55 283.936 582.839 283.936C584.968 283.936 586.638 284.473 587.849 285.547C589.069 286.611 589.68 288.096 589.68 290C589.68 290.957 589.372 291.86 588.757 292.71C588.151 293.55 587.365 294.185 586.398 294.614C587.57 295.015 588.459 295.645 589.064 296.504C589.68 297.363 589.987 298.389 589.987 299.58C589.987 301.494 589.328 303.018 588.01 304.15C586.701 305.283 584.978 305.85 582.839 305.85C580.788 305.85 579.108 305.303 577.8 304.209C576.491 303.115 575.837 301.66 575.837 299.844H579.396C579.396 300.781 579.709 301.543 580.334 302.129C580.969 302.715 581.818 303.008 582.883 303.008C583.986 303.008 584.855 302.715 585.49 302.129C586.125 301.543 586.442 300.693 586.442 299.58C586.442 298.457 586.11 297.593 585.446 296.987C584.782 296.382 583.796 296.079 582.487 296.079H580.393V293.267ZM594.279 294.98L595.437 284.229H606.892V287.305H598.396L597.81 292.402C598.796 291.836 599.909 291.553 601.149 291.553C603.181 291.553 604.758 292.202 605.881 293.501C607.014 294.8 607.58 296.548 607.58 298.745C607.58 300.913 606.955 302.642 605.705 303.931C604.455 305.21 602.741 305.85 600.563 305.85C598.61 305.85 596.989 305.298 595.7 304.194C594.421 303.081 593.728 301.616 593.62 299.8H597.062C597.199 300.835 597.57 301.631 598.176 302.188C598.781 302.734 599.572 303.008 600.549 303.008C601.643 303.008 602.492 302.617 603.098 301.836C603.713 301.055 604.021 299.99 604.021 298.643C604.021 297.344 603.684 296.318 603.01 295.566C602.336 294.805 601.408 294.424 600.227 294.424C599.582 294.424 599.035 294.512 598.586 294.688C598.137 294.854 597.648 295.186 597.121 295.684L594.279 294.98ZM612.824 301.807C613.488 301.807 614.001 301.997 614.362 302.378C614.724 302.749 614.904 303.218 614.904 303.784C614.904 304.341 614.724 304.805 614.362 305.176C614.001 305.537 613.488 305.718 612.824 305.718C612.189 305.718 611.687 305.537 611.315 305.176C610.944 304.814 610.759 304.351 610.759 303.784C610.759 303.218 610.939 302.749 611.301 302.378C611.662 301.997 612.17 301.807 612.824 301.807ZM628.396 305.557H624.851V288.433L619.621 290.22V287.217L627.941 284.155H628.396V305.557ZM636.76 294.98L637.917 284.229H649.372V287.305H640.876L640.29 292.402C641.276 291.836 642.39 291.553 643.63 291.553C645.661 291.553 647.238 292.202 648.361 293.501C649.494 294.8 650.061 296.548 650.061 298.745C650.061 300.913 649.436 302.642 648.186 303.931C646.936 305.21 645.222 305.85 643.044 305.85C641.091 305.85 639.47 305.298 638.181 304.194C636.901 303.081 636.208 301.616 636.101 299.8H639.543C639.68 300.835 640.051 301.631 640.656 302.188C641.262 302.734 642.053 303.008 643.029 303.008C644.123 303.008 644.973 302.617 645.578 301.836C646.193 301.055 646.501 299.99 646.501 298.643C646.501 297.344 646.164 296.318 645.49 295.566C644.816 294.805 643.889 294.424 642.707 294.424C642.062 294.424 641.516 294.512 641.066 294.688C640.617 294.854 640.129 295.186 639.602 295.684L636.76 294.98ZM663.903 289.707L664.006 291.362C665.119 290.063 666.643 289.414 668.576 289.414C670.695 289.414 672.146 290.225 672.927 291.846C674.079 290.225 675.7 289.414 677.79 289.414C679.538 289.414 680.837 289.897 681.687 290.864C682.546 291.831 682.985 293.257 683.005 295.142V305.557H679.445V295.244C679.445 294.238 679.226 293.501 678.786 293.032C678.347 292.563 677.619 292.329 676.604 292.329C675.793 292.329 675.129 292.549 674.611 292.988C674.104 293.418 673.747 293.984 673.542 294.688L673.557 305.557H669.997V295.127C669.948 293.262 668.996 292.329 667.141 292.329C665.715 292.329 664.704 292.91 664.108 294.072V305.557H660.549V289.707H663.903Z" fill="#565E76"/>
<path d="M693.075 290H686.86V288.94L689.939 285.582C690.383 285.087 690.699 284.674 690.885 284.344C691.075 284.01 691.17 283.676 691.17 283.341C691.17 282.901 691.046 282.546 690.796 282.275C690.55 282.004 690.218 281.869 689.799 281.869C689.3 281.869 688.913 282.021 688.638 282.326C688.363 282.63 688.225 283.047 688.225 283.576H686.683C686.683 283.013 686.81 282.508 687.063 282.059C687.322 281.606 687.688 281.255 688.162 281.005C688.64 280.756 689.19 280.631 689.812 280.631C690.709 280.631 691.416 280.857 691.932 281.31C692.453 281.759 692.713 282.381 692.713 283.176C692.713 283.638 692.582 284.122 692.319 284.63C692.061 285.133 691.636 285.707 691.043 286.35L688.784 288.769H693.075V290Z" fill="#565E76"/>
<path d="M147.293 614.138H155.379V615.978H145.031V598.915H147.293V614.138ZM159.961 615.978H157.793V603.298H159.961V615.978ZM157.617 599.935C157.617 599.583 157.723 599.286 157.934 599.044C158.152 598.802 158.473 598.681 158.895 598.681C159.316 598.681 159.637 598.802 159.855 599.044C160.074 599.286 160.184 599.583 160.184 599.935C160.184 600.286 160.074 600.579 159.855 600.813C159.637 601.048 159.316 601.165 158.895 601.165C158.473 601.165 158.152 601.048 157.934 600.813C157.723 600.579 157.617 600.286 157.617 599.935ZM167.625 613.036L170.766 603.298H172.98L168.434 615.978H166.781L162.188 603.298H164.402L167.625 613.036ZM177.422 615.978H175.254V603.298H177.422V615.978ZM175.078 599.935C175.078 599.583 175.184 599.286 175.395 599.044C175.613 598.802 175.934 598.681 176.355 598.681C176.777 598.681 177.098 598.802 177.316 599.044C177.535 599.286 177.645 599.583 177.645 599.935C177.645 600.286 177.535 600.579 177.316 600.813C177.098 601.048 176.777 601.165 176.355 601.165C175.934 601.165 175.613 601.048 175.395 600.813C175.184 600.579 175.078 600.286 175.078 599.935ZM182.953 603.298L183.023 604.892C183.992 603.673 185.258 603.063 186.82 603.063C189.5 603.063 190.852 604.575 190.875 607.599V615.978H188.707V607.587C188.699 606.673 188.488 605.997 188.074 605.56C187.668 605.122 187.031 604.903 186.164 604.903C185.461 604.903 184.844 605.091 184.312 605.466C183.781 605.841 183.367 606.333 183.07 606.942V615.978H180.902V603.298H182.953ZM193.629 609.532C193.629 607.556 194.086 605.985 195 604.821C195.914 603.649 197.125 603.063 198.633 603.063C200.18 603.063 201.387 603.61 202.254 604.704L202.359 603.298H204.34V615.673C204.34 617.313 203.852 618.606 202.875 619.552C201.906 620.497 200.602 620.97 198.961 620.97C198.047 620.97 197.152 620.774 196.277 620.384C195.402 619.993 194.734 619.458 194.273 618.778L195.398 617.478C196.328 618.626 197.465 619.2 198.809 619.2C199.863 619.2 200.684 618.903 201.27 618.31C201.863 617.716 202.16 616.88 202.16 615.802V614.712C201.293 615.712 200.109 616.212 198.609 616.212C197.125 616.212 195.922 615.614 195 614.419C194.086 613.224 193.629 611.595 193.629 609.532ZM195.809 609.778C195.809 611.208 196.102 612.333 196.688 613.153C197.273 613.966 198.094 614.372 199.148 614.372C200.516 614.372 201.52 613.751 202.16 612.509V606.72C201.496 605.509 200.5 604.903 199.172 604.903C198.117 604.903 197.293 605.313 196.699 606.134C196.105 606.954 195.809 608.169 195.809 609.778ZM219.703 605.243C219.375 605.188 219.02 605.161 218.637 605.161C217.215 605.161 216.25 605.767 215.742 606.978V615.978H213.574V603.298H215.684L215.719 604.763C216.43 603.63 217.438 603.063 218.742 603.063C219.164 603.063 219.484 603.118 219.703 603.228V605.243ZM220.898 609.521C220.898 608.278 221.141 607.161 221.625 606.169C222.117 605.177 222.797 604.411 223.664 603.872C224.539 603.333 225.535 603.063 226.652 603.063C228.379 603.063 229.773 603.661 230.836 604.856C231.906 606.052 232.441 607.642 232.441 609.626V609.778C232.441 611.013 232.203 612.122 231.727 613.106C231.258 614.083 230.582 614.845 229.699 615.392C228.824 615.938 227.816 616.212 226.676 616.212C224.957 616.212 223.562 615.614 222.492 614.419C221.43 613.224 220.898 611.642 220.898 609.673V609.521ZM223.078 609.778C223.078 611.185 223.402 612.313 224.051 613.165C224.707 614.017 225.582 614.442 226.676 614.442C227.777 614.442 228.652 614.013 229.301 613.153C229.949 612.286 230.273 611.075 230.273 609.521C230.273 608.13 229.941 607.005 229.277 606.146C228.621 605.278 227.746 604.845 226.652 604.845C225.582 604.845 224.719 605.271 224.062 606.122C223.406 606.974 223.078 608.192 223.078 609.778ZM234.586 609.521C234.586 608.278 234.828 607.161 235.312 606.169C235.805 605.177 236.484 604.411 237.352 603.872C238.227 603.333 239.223 603.063 240.34 603.063C242.066 603.063 243.461 603.661 244.523 604.856C245.594 606.052 246.129 607.642 246.129 609.626V609.778C246.129 611.013 245.891 612.122 245.414 613.106C244.945 614.083 244.27 614.845 243.387 615.392C242.512 615.938 241.504 616.212 240.363 616.212C238.645 616.212 237.25 615.614 236.18 614.419C235.117 613.224 234.586 611.642 234.586 609.673V609.521ZM236.766 609.778C236.766 611.185 237.09 612.313 237.738 613.165C238.395 614.017 239.27 614.442 240.363 614.442C241.465 614.442 242.34 614.013 242.988 613.153C243.637 612.286 243.961 611.075 243.961 609.521C243.961 608.13 243.629 607.005 242.965 606.146C242.309 605.278 241.434 604.845 240.34 604.845C239.27 604.845 238.406 605.271 237.75 606.122C237.094 606.974 236.766 608.192 236.766 609.778ZM250.887 603.298L250.945 604.704C251.875 603.61 253.129 603.063 254.707 603.063C256.48 603.063 257.688 603.743 258.328 605.103C258.75 604.493 259.297 604.001 259.969 603.626C260.648 603.251 261.449 603.063 262.371 603.063C265.152 603.063 266.566 604.536 266.613 607.481V615.978H264.445V607.61C264.445 606.704 264.238 606.028 263.824 605.583C263.41 605.13 262.715 604.903 261.738 604.903C260.934 604.903 260.266 605.146 259.734 605.63C259.203 606.106 258.895 606.751 258.809 607.563V615.978H256.629V607.669C256.629 605.825 255.727 604.903 253.922 604.903C252.5 604.903 251.527 605.509 251.004 606.72V615.978H248.836V603.298H250.887Z" fill="#565E76"/>
<path d="M148.764 648.53H150.932C152.025 648.521 152.89 648.237 153.524 647.681C154.169 647.124 154.491 646.318 154.491 645.264C154.491 644.248 154.223 643.462 153.686 642.905C153.158 642.339 152.348 642.056 151.254 642.056C150.297 642.056 149.511 642.334 148.896 642.891C148.28 643.438 147.973 644.155 147.973 645.044H144.413C144.413 643.95 144.701 642.954 145.277 642.056C145.863 641.157 146.674 640.459 147.709 639.961C148.754 639.453 149.921 639.199 151.21 639.199C153.339 639.199 155.009 639.736 156.22 640.811C157.44 641.875 158.051 643.359 158.051 645.264C158.051 646.221 157.743 647.124 157.128 647.974C156.522 648.813 155.736 649.448 154.77 649.878C155.941 650.278 156.83 650.908 157.436 651.768C158.051 652.627 158.358 653.652 158.358 654.844C158.358 656.758 157.699 658.281 156.381 659.414C155.072 660.547 153.349 661.113 151.21 661.113C149.159 661.113 147.479 660.566 146.171 659.473C144.862 658.379 144.208 656.924 144.208 655.107H147.768C147.768 656.045 148.08 656.807 148.705 657.393C149.34 657.979 150.189 658.271 151.254 658.271C152.357 658.271 153.227 657.979 153.861 657.393C154.496 656.807 154.813 655.957 154.813 654.844C154.813 653.721 154.481 652.856 153.817 652.251C153.153 651.646 152.167 651.343 150.858 651.343H148.764V648.53ZM175.6 651.841C175.6 654.907 175.023 657.222 173.871 658.784C172.729 660.337 170.985 661.113 168.642 661.113C166.337 661.113 164.599 660.356 163.427 658.843C162.265 657.319 161.669 655.068 161.64 652.09V648.398C161.64 645.332 162.211 643.032 163.354 641.499C164.506 639.966 166.259 639.199 168.612 639.199C170.946 639.199 172.685 639.946 173.827 641.44C174.979 642.935 175.57 645.171 175.6 648.149V651.841ZM172.04 647.856C172.04 645.854 171.767 644.39 171.22 643.462C170.673 642.524 169.804 642.056 168.612 642.056C167.45 642.056 166.596 642.5 166.049 643.389C165.502 644.268 165.214 645.645 165.185 647.52V652.354C165.185 654.346 165.463 655.83 166.02 656.807C166.576 657.783 167.45 658.271 168.642 658.271C169.784 658.271 170.629 657.822 171.176 656.924C171.723 656.016 172.011 654.6 172.04 652.676V647.856ZM181.195 657.07C181.859 657.07 182.372 657.261 182.733 657.642C183.095 658.013 183.275 658.481 183.275 659.048C183.275 659.604 183.095 660.068 182.733 660.439C182.372 660.801 181.859 660.981 181.195 660.981C180.561 660.981 180.058 660.801 179.687 660.439C179.315 660.078 179.13 659.614 179.13 659.048C179.13 658.481 179.311 658.013 179.672 657.642C180.033 657.261 180.541 657.07 181.195 657.07ZM196.767 660.82H193.222V643.696L187.992 645.483V642.48L196.312 639.419H196.767V660.82ZM205.131 650.244L206.288 639.492H217.743V642.568H209.247L208.661 647.666C209.647 647.1 210.761 646.816 212.001 646.816C214.032 646.816 215.609 647.466 216.732 648.765C217.865 650.063 218.432 651.812 218.432 654.009C218.432 656.177 217.807 657.905 216.557 659.194C215.307 660.474 213.593 661.113 211.415 661.113C209.462 661.113 207.841 660.562 206.552 659.458C205.272 658.345 204.579 656.88 204.472 655.063H207.914C208.051 656.099 208.422 656.895 209.027 657.451C209.633 657.998 210.424 658.271 211.4 658.271C212.494 658.271 213.344 657.881 213.949 657.1C214.564 656.318 214.872 655.254 214.872 653.906C214.872 652.607 214.535 651.582 213.861 650.83C213.188 650.068 212.26 649.688 211.078 649.688C210.434 649.688 209.887 649.775 209.438 649.951C208.988 650.117 208.5 650.449 207.973 650.947L205.131 650.244ZM232.274 644.971L232.377 646.626C233.49 645.327 235.014 644.678 236.947 644.678C239.066 644.678 240.517 645.488 241.298 647.109C242.45 645.488 244.071 644.678 246.161 644.678C247.909 644.678 249.208 645.161 250.058 646.128C250.917 647.095 251.356 648.521 251.376 650.405V660.82H247.816V650.508C247.816 649.502 247.597 648.765 247.157 648.296C246.718 647.827 245.99 647.593 244.975 647.593C244.164 647.593 243.5 647.812 242.982 648.252C242.475 648.682 242.118 649.248 241.913 649.951L241.928 660.82H238.368V650.391C238.319 648.525 237.367 647.593 235.512 647.593C234.086 647.593 233.075 648.174 232.479 649.336V660.82H228.92V644.971H232.274Z" fill="#565E76"/>
<path d="M261.311 644H255.097V642.94L258.175 639.582C258.62 639.087 258.935 638.674 259.121 638.344C259.312 638.01 259.407 637.676 259.407 637.341C259.407 636.901 259.282 636.546 259.032 636.275C258.787 636.004 258.455 635.869 258.036 635.869C257.536 635.869 257.149 636.021 256.874 636.326C256.599 636.63 256.461 637.047 256.461 637.576H254.919C254.919 637.013 255.046 636.508 255.3 636.059C255.558 635.606 255.924 635.255 256.398 635.005C256.876 634.756 257.426 634.631 258.048 634.631C258.945 634.631 259.652 634.857 260.168 635.31C260.689 635.759 260.949 636.381 260.949 637.176C260.949 637.638 260.818 638.122 260.556 638.63C260.298 639.133 259.872 639.707 259.28 640.35L257.02 642.769H261.311V644Z" fill="#565E76"/>
<path d="M1212.2 16.1768H1545.76V35.6783H1212.2V16.1768Z" fill="white" stroke="#565E76"/>
<path d="M909.159 16.1768H1110.49V41.1867H909.159V16.1768Z" fill="white" stroke="#565E76"/>
<path d="M540.002 16.1768H730.312V41.1867H540.002V16.1768Z" fill="white" stroke="#565E76"/>
<path d="M121.255 16.1768H311.565V41.1867H121.255V16.1768Z" fill="white" stroke="#565E76"/>
<path d="M1315.62 221.478L1235.73 169.148" stroke="#565E76"/>
<path d="M1307.36 538.213L1230.22 585.036" stroke="#565E76"/>
<path d="M1131.04 582.281L1059.41 538.213" stroke="#565E76"/>
<path d="M1301.84 786.092L1221.95 725.501" stroke="#565E76"/>
<path d="M1062.17 728.254L982.276 783.34" stroke="#565E76"/>
<path d="M778.412 571.263L704.029 518.935" stroke="#565E76"/>
<path d="M566.285 835.668L657.197 777.83" stroke="#565E76"/>
<path d="M489.146 656.644L436.802 574.018" stroke="#565E76"/>
<path d="M898.141 38.2129H1116V63.2229H898.141V38.2129Z" fill="white" stroke="#565E76"/>
<path d="M528.981 38.2129H735.821V63.2229H528.981V38.2129Z" fill="white" stroke="#565E76"/>
<path d="M1327.91 142.872H1402.51V167.882H1327.91V142.872Z" fill="white" stroke="#565E76"/>
<path d="M1149.29 806.188H1196.34V985.434H1149.29V806.188Z" stroke="#565E76"/>
<path d="M675.443 734.579H722.499V759.589H675.443V734.579Z" stroke="#565E76"/>
<path d="M444.031 718.054H474.557V759.589H444.031V718.054Z" stroke="#565E76"/>
<path d="M41.8135 679.493H105.398V759.587H41.8135V679.493Z" stroke="#565E76"/>
<path d="M1327.91 164.906H1402.51V200.933H1327.91V164.906Z" fill="white" stroke="#565E76"/>
<path d="M110.236 38.2129H317.077V63.2229H110.236V38.2129Z" fill="white" stroke="#565E76"/>
<path d="M1541.52 14.9111H1563.56V16.2464H1595.36V1016.19H918.947V989.905H918.912V791.602H654.441V758.551H946.461V775.076H985.029V791.602H951.97V984.144H1133.79V791.602H1067.68V775.076H1205.42V791.602H1150.32V984.144H1556.89V791.602H1299.09V775.076H1348.68V731.008H1365.21V775.076H1556.89V593.298H1365.21V637.364H1348.68V593.298H1315.62V576.773H1556.89V202.198H1398.27V141.605H1541.52V14.9111Z" fill="white"/>
<path d="M1216.44 14.9111L1106.25 14.9114V42.4536H1111.76V64.487H1166.85V202.198H1183.38V455.586H1166.85V576.773H1128.29V593.298H1232.97V576.773H1199.91V202.198H1238.48V169.148H1243.99V141.605H1216.44V14.9111Z" fill="white"/>
<path d="M841.776 64.4887V576.775H1045.64V593.3L808.717 593.297V576.775H775.658V560.249H808.717V64.4887H731.579V42.4553H726.07V14.9131H913.403V42.4553H902.382V64.4887H841.776Z" fill="white"/>
<path d="M445.07 64.4887H533.226V42.4553H544.246V14.9131H307.323V42.4553H312.834V64.4887H412.011V202.2H428.54V576.774H693.011V560.249H445.07V64.4887Z" fill="white"/>
<mask id="mask0" mask-type="alpha" maskUnits="userSpaceOnUse" x="8" y="14" width="1588" height="1003">
<path d="M1541.52 14.9111H1563.56V16.2464H1595.36V1016.19H918.947V989.905H918.912V791.602H654.441V758.551H946.462V775.076H985.029V791.602H951.971V984.144H1133.79V791.602H1067.68V775.076H1205.42V791.602H1150.32V984.144H1556.9V791.602H1299.09V775.076H1348.68V731.008H1365.21V775.076H1556.9V593.298H1365.21V637.364H1348.68V593.298H1315.62V576.773H1556.9V202.198H1398.27V141.605H1541.52V14.9111Z" fill="white"/>
<path d="M1216.44 14.9111L1106.25 14.9114V42.4536H1111.76V64.487H1166.85V202.198H1183.38V455.586H1166.85V576.773H1128.29V593.298H1232.97V576.773H1199.91V202.198H1238.48V169.148H1243.99V141.605H1216.44V14.9111Z" fill="white"/>
<path d="M841.776 64.4868V576.773H1045.64V593.298L808.717 593.295V576.773H775.659V560.247H808.717V64.4868H731.579V42.4534H726.07V14.9111H913.403V42.4534H902.382V64.4868H841.776Z" fill="white"/>
<path d="M445.07 64.4868H533.226V42.4534H544.246V14.9111H307.323V42.4534H312.834V64.4868H412.011V202.198H428.54V576.773H693.011V560.247H445.07V64.4868Z" fill="white"/>
<path d="M8.51147 791.847H537.463V759.797H445.07V670.414H428.54V759.797H43.7739V64.3204H114.301V41.8856H123.919V16.2461H8.51147V791.847Z" fill="white"/>
</mask>
<g mask="url(#mask0)">
<path d="M8.5116 791.847H537.463V759.797H445.07V670.414H428.54V759.797H43.774V64.3204H114.302V41.8856H123.919V16.2461H8.5116V791.847Z" fill="white"/>
<path d="M1541.52 14.9111H1563.56V16.2464H1595.36V1016.19H918.947V989.905H918.912V791.602H654.441V758.551H946.462V775.076H985.029V791.602H951.97V984.144H1133.79V791.602H1067.68V775.076H1205.42V791.602H1150.32V984.144H1556.89V791.602H1299.09V775.076H1348.68V731.008H1365.21V775.076H1556.89V593.298H1365.21V637.364H1348.68V593.298H1315.62V576.773H1556.89V202.198H1398.27V141.605H1541.52V14.9111Z" stroke="#565E76" stroke-width="2"/>
<path d="M1216.44 14.9111L1106.25 14.9114V42.4536H1111.76V64.487H1166.85V202.198H1183.38V455.586H1166.85V576.773H1128.29V593.298H1232.97V576.773H1199.91V202.198H1238.48V169.148H1243.99V141.605H1216.44V14.9111Z" stroke="#565E76" stroke-width="2"/>
<path d="M841.776 64.4887V576.775H1045.64V593.3L808.717 593.297V576.775H775.658V560.249H808.717V64.4887H731.579V42.4553H726.07V14.9131H913.403V42.4553H902.382V64.4887H841.776Z" stroke="#565E76" stroke-width="2"/>
<path d="M445.07 64.4887H533.226V42.4553H544.246V14.9131H307.323V42.4553H312.834V64.4887H412.011V202.2H428.54V576.774H693.011V560.249H445.07V64.4887Z" stroke="#565E76" stroke-width="2"/>
<path d="M8.51159 791.847H537.463V759.797H445.07V670.414H428.54V759.797H43.774V64.3204H114.302V41.8856H123.919V16.2461H8.51159V791.847Z" stroke="#565E76" stroke-width="2"/>
</g>
</g>
<defs>
<clipPath id="clip0">
<rect width="1605" height="1021" fill="white" transform="matrix(-1 0 0 1 1605 0)"/>
</clipPath>
</defs>
</svg>
