<svg width="1778" height="1270" viewBox="0 0 1778 1270" fill="none" xmlns="http://www.w3.org/2000/svg">
<path d="M1778 1270H0V0H1778V1270Z" fill="white"/>
<path d="M1705.43 195H185V1178.47H1705.43V195Z" fill="#F4F4F5"/>
<path d="M560.519 1164.06V1165.33H559.249H546.171V1198.67H766.038V1165.33H760.135H758.865V1164.06V1136.64H688.391H687.121V1135.37V532.711V531.441H688.391H737.341V512.457H668.137V956.004V957.274H666.867H639.44V1135.37V1136.64H638.17H560.519V1164.06ZM305.933 1164.8V1136.85H222.048H220.778V1135.58V611.629V610.359H222.048H514.931V532.711V531.441H516.201H550.804V512.457H516.201H514.931V511.187V462.236H495.95V590.105V591.375H494.68H222.048H220.778V590.105V229.757V228.487H222.048H494.68H495.95V229.757V337.73H514.931V229.757V228.487H516.201H886.163V189.285H179.07V228.487H180.271V229.757V1135.58V1136.85H179.07V1196.93H314.282V1166.07H307.203H305.933V1164.8ZM1693.08 189.605H1026.86V230.11H1133.21H1134.48V231.38V366.427H1153.46V231.38V230.11H1154.73H1693.08H1694.35V231.38V956.004V957.274H1693.08H1615.17V993.657V994.927H1613.9H1602.51V1025.78H1672.21H1673.48V1027.05V1196.93H1733.55V189.285H1694.35V189.605H1693.08ZM1012.51 1198.67H1174.98L1174.99 1027.75V1026.48H1176.26H1368.7V957.274H1154.73H1153.46V956.004V512.457H854.674V531.441H1111.68H1112.95V532.711V1135.37V1136.64H1111.68H1019.69V1164.06V1165.33H1018.42H1012.51V1198.67Z" fill="white" stroke="#565E76"/>
<path d="M548.045 1196.93H312.649V1166.07H548.045V1196.93Z" fill="white" stroke="#565E76"/>
<path d="M1015.57 1196.93H763.473V1166.07H1015.57V1196.93Z" fill="white" stroke="#565E76"/>
<path d="M1675.11 1196.93H1172.56V1166.07H1675.11V1196.93Z" fill="white" stroke="#565E76"/>
<path d="M1491.44 1025.78H1368.75V999.102H1491.44V1025.78Z" fill="white" stroke="#565E76"/>
<path d="M1491.44 1000.74H1368.75V957.36H1491.44V1000.74Z" fill="white" stroke="#565E76"/>
<path d="M1617.48 991.878L1506.28 916.547" stroke="#565E76"/>
<path d="M577.184 446.616L505.439 335.412" stroke="#565E76"/>
<path d="M666.867 521.95L562.836 586.52" stroke="#565E76"/>
<path d="M831.88 590.108L735.025 521.95" stroke="#565E76"/>
<path d="M1007.65 123.764L882.101 209.86" stroke="#565E76"/>
<path d="M1143.97 364.111L1082.99 471.729" stroke="#565E76"/>
<path d="M560.568 1167.71H304.3V1136.85H560.568V1167.71Z" fill="white" stroke="#565E76"/>
<path d="M1019.74 1167.71H759.3V1136.85H1019.74V1167.71Z" fill="white" stroke="#565E76"/>
<path d="M497.953 278.579H304.3V226.853H497.953V278.579Z" stroke="#565E76"/>
<path d="M873.642 270.23H805.218V226.853H873.642V270.23Z" stroke="#565E76"/>
<path d="M1224.28 362.066H1151.69V231.028H1224.28V362.066Z" stroke="#565E76"/>
<path d="M1511.3 734.06H1358.9V581.66H1511.3V734.06Z" fill="#565E76"/>
<path d="M1487.78 658.759C1487.59 658.826 1487.52 658.958 1487.59 659.156L1487.95 660.179C1488.01 660.344 1488.15 660.41 1488.31 660.344L1489.24 660.08C1489.93 659.849 1490.72 659.684 1491.58 659.684C1492.97 659.684 1493.89 660.377 1493.89 661.401C1493.89 662.028 1493.46 662.59 1492.7 663.118L1489.76 665.033C1488.15 666.09 1487.45 667.576 1487.45 669.656V670.449C1487.45 670.647 1487.55 670.746 1487.75 670.746H1495.25C1495.44 670.746 1495.54 670.647 1495.54 670.449V669.392C1495.54 669.194 1495.44 669.095 1495.25 669.095H1489.27C1489.27 668.005 1489.63 667.147 1490.66 666.486L1493.63 664.538C1495.05 663.613 1495.71 662.623 1495.71 661.401C1495.71 659.255 1494.12 658 1491.58 658C1490.56 658 1489.63 658.165 1488.68 658.462L1487.78 658.759Z" fill="white"/>
<path d="M1403.87 611.375V615.98H1407.42V618.494H1403.87V630.289C1403.87 631.051 1404.03 631.625 1404.35 632.012C1404.66 632.387 1405.2 632.574 1405.96 632.574C1406.34 632.574 1406.86 632.504 1407.51 632.363V635C1406.66 635.234 1405.82 635.352 1405.02 635.352C1403.56 635.352 1402.47 634.912 1401.73 634.033C1400.99 633.154 1400.62 631.906 1400.62 630.289V618.494H1397.16V615.98H1400.62V611.375H1403.87ZM1410.03 625.314C1410.03 623.451 1410.39 621.775 1411.12 620.287C1411.85 618.799 1412.87 617.65 1414.17 616.842C1415.49 616.033 1416.98 615.629 1418.66 615.629C1421.25 615.629 1423.34 616.525 1424.93 618.318C1426.54 620.111 1427.34 622.496 1427.34 625.473V625.701C1427.34 627.553 1426.98 629.217 1426.27 630.693C1425.56 632.158 1424.55 633.301 1423.23 634.121C1421.91 634.941 1420.4 635.352 1418.69 635.352C1416.11 635.352 1414.02 634.455 1412.42 632.662C1410.82 630.869 1410.03 628.496 1410.03 625.543V625.314ZM1413.29 625.701C1413.29 627.811 1413.78 629.504 1414.75 630.781C1415.74 632.059 1417.05 632.697 1418.69 632.697C1420.34 632.697 1421.66 632.053 1422.63 630.764C1423.6 629.463 1424.09 627.646 1424.09 625.314C1424.09 623.229 1423.59 621.541 1422.59 620.252C1421.61 618.951 1420.3 618.301 1418.66 618.301C1417.05 618.301 1415.76 618.939 1414.77 620.217C1413.79 621.494 1413.29 623.322 1413.29 625.701ZM1435.83 611.375V615.98H1439.38V618.494H1435.83V630.289C1435.83 631.051 1435.99 631.625 1436.3 632.012C1436.62 632.387 1437.16 632.574 1437.92 632.574C1438.3 632.574 1438.81 632.504 1439.47 632.363V635C1438.61 635.234 1437.78 635.352 1436.97 635.352C1435.52 635.352 1434.42 634.912 1433.69 634.033C1432.95 633.154 1432.58 631.906 1432.58 630.289V618.494H1429.12V615.98H1432.58V611.375H1435.83ZM1454.94 635C1454.75 634.625 1454.6 633.957 1454.48 632.996C1452.97 634.566 1451.16 635.352 1449.07 635.352C1447.19 635.352 1445.65 634.824 1444.44 633.77C1443.25 632.703 1442.65 631.355 1442.65 629.727C1442.65 627.746 1443.4 626.211 1444.9 625.121C1446.41 624.02 1448.53 623.469 1451.26 623.469H1454.43V621.975C1454.43 620.838 1454.09 619.936 1453.41 619.268C1452.73 618.588 1451.73 618.248 1450.4 618.248C1449.24 618.248 1448.27 618.541 1447.48 619.127C1446.7 619.713 1446.31 620.422 1446.31 621.254H1443.04C1443.04 620.305 1443.37 619.391 1444.04 618.512C1444.72 617.621 1445.63 616.918 1446.78 616.402C1447.94 615.887 1449.21 615.629 1450.6 615.629C1452.79 615.629 1454.5 616.18 1455.75 617.281C1456.99 618.371 1457.63 619.877 1457.68 621.799V630.553C1457.68 632.299 1457.9 633.688 1458.35 634.719V635H1454.94ZM1449.54 632.521C1450.56 632.521 1451.53 632.258 1452.44 631.73C1453.36 631.203 1454.02 630.518 1454.43 629.674V625.771H1451.88C1447.89 625.771 1445.9 626.938 1445.9 629.27C1445.9 630.289 1446.24 631.086 1446.92 631.66C1447.6 632.234 1448.47 632.521 1449.54 632.521ZM1466.31 635H1463.06V608H1466.31V635Z" fill="white"/>
<path d="M1402.9 687H1386.13V684.662L1394.99 674.818C1396.3 673.33 1397.2 672.123 1397.69 671.197C1398.2 670.26 1398.45 669.293 1398.45 668.297C1398.45 666.961 1398.04 665.865 1397.24 665.01C1396.43 664.154 1395.35 663.727 1394 663.727C1392.38 663.727 1391.12 664.189 1390.22 665.115C1389.33 666.029 1388.89 667.307 1388.89 668.947H1385.63C1385.63 666.592 1386.39 664.688 1387.9 663.234C1389.43 661.781 1391.46 661.055 1394 661.055C1396.38 661.055 1398.26 661.682 1399.64 662.936C1401.03 664.178 1401.72 665.836 1401.72 667.91C1401.72 670.43 1400.11 673.43 1396.9 676.91L1390.05 684.346H1402.9V687ZM1420.07 678.404H1423.62V681.059H1420.07V687H1416.8V681.059H1405.15V679.143L1416.61 661.406H1420.07V678.404ZM1408.84 678.404H1416.8V665.854L1416.41 666.557L1408.84 678.404ZM1442.61 676.084C1442.61 679.893 1441.96 682.723 1440.65 684.574C1439.35 686.426 1437.32 687.352 1434.55 687.352C1431.82 687.352 1429.8 686.449 1428.49 684.645C1427.18 682.828 1426.5 680.121 1426.45 676.523V672.182C1426.45 668.42 1427.1 665.625 1428.4 663.797C1429.7 661.969 1431.74 661.055 1434.52 661.055C1437.27 661.055 1439.3 661.939 1440.6 663.709C1441.9 665.467 1442.57 668.186 1442.61 671.865V676.084ZM1439.35 671.637C1439.35 668.883 1438.97 666.879 1438.19 665.625C1437.42 664.359 1436.2 663.727 1434.52 663.727C1432.86 663.727 1431.64 664.354 1430.88 665.607C1430.12 666.861 1429.73 668.789 1429.7 671.391V676.594C1429.7 679.359 1430.1 681.404 1430.9 682.729C1431.71 684.041 1432.93 684.697 1434.55 684.697C1436.16 684.697 1437.35 684.076 1438.12 682.834C1438.91 681.592 1439.32 679.635 1439.35 676.963V671.637ZM1459.09 667.98L1459.18 670.09C1460.58 668.449 1462.46 667.629 1464.82 667.629C1467.48 667.629 1469.29 668.648 1470.26 670.688C1470.89 669.773 1471.71 669.035 1472.72 668.473C1473.74 667.91 1474.94 667.629 1476.32 667.629C1480.49 667.629 1482.61 669.838 1482.68 674.256V687H1479.43V674.449C1479.43 673.09 1479.12 672.076 1478.5 671.408C1477.88 670.729 1476.84 670.389 1475.37 670.389C1474.16 670.389 1473.16 670.752 1472.37 671.479C1471.57 672.193 1471.11 673.16 1470.98 674.379V687H1467.71V674.537C1467.71 671.771 1466.35 670.389 1463.65 670.389C1461.51 670.389 1460.05 671.297 1459.27 673.113V687H1456.02V667.98H1459.09Z" fill="white"/>
<path d="M282.98 416V398.938H288.559C290.41 398.938 291.801 399.32 292.73 400.086C293.668 400.852 294.137 401.984 294.137 403.484C294.137 404.281 293.91 404.988 293.457 405.605C293.004 406.215 292.387 406.688 291.605 407.023C292.527 407.281 293.254 407.773 293.785 408.5C294.324 409.219 294.594 410.078 294.594 411.078C294.594 412.609 294.098 413.812 293.105 414.688C292.113 415.562 290.711 416 288.898 416H282.98ZM285.23 408.02V414.16H288.945C289.992 414.16 290.816 413.891 291.418 413.352C292.027 412.805 292.332 412.055 292.332 411.102C292.332 409.047 291.215 408.02 288.98 408.02H285.23ZM285.23 406.215H288.629C289.613 406.215 290.398 405.969 290.984 405.477C291.578 404.984 291.875 404.316 291.875 403.473C291.875 402.535 291.602 401.855 291.055 401.434C290.508 401.004 289.676 400.789 288.559 400.789H285.23V406.215ZM305.422 416C305.297 415.75 305.195 415.305 305.117 414.664C304.109 415.711 302.906 416.234 301.508 416.234C300.258 416.234 299.23 415.883 298.426 415.18C297.629 414.469 297.23 413.57 297.23 412.484C297.23 411.164 297.73 410.141 298.73 409.414C299.738 408.68 301.152 408.312 302.973 408.312H305.082V407.316C305.082 406.559 304.855 405.957 304.402 405.512C303.949 405.059 303.281 404.832 302.398 404.832C301.625 404.832 300.977 405.027 300.453 405.418C299.93 405.809 299.668 406.281 299.668 406.836H297.488C297.488 406.203 297.711 405.594 298.156 405.008C298.609 404.414 299.219 403.945 299.984 403.602C300.758 403.258 301.605 403.086 302.527 403.086C303.988 403.086 305.133 403.453 305.961 404.188C306.789 404.914 307.219 405.918 307.25 407.199V413.035C307.25 414.199 307.398 415.125 307.695 415.812V416H305.422ZM301.824 414.348C302.504 414.348 303.148 414.172 303.758 413.82C304.367 413.469 304.809 413.012 305.082 412.449V409.848H303.383C300.727 409.848 299.398 410.625 299.398 412.18C299.398 412.859 299.625 413.391 300.078 413.773C300.531 414.156 301.113 414.348 301.824 414.348ZM313.59 400.25V403.32H315.957V404.996H313.59V412.859C313.59 413.367 313.695 413.75 313.906 414.008C314.117 414.258 314.477 414.383 314.984 414.383C315.234 414.383 315.578 414.336 316.016 414.242V416C315.445 416.156 314.891 416.234 314.352 416.234C313.383 416.234 312.652 415.941 312.16 415.355C311.668 414.77 311.422 413.938 311.422 412.859V404.996H309.113V403.32H311.422V400.25H313.59ZM320.668 404.855C321.629 403.676 322.879 403.086 324.418 403.086C327.098 403.086 328.449 404.598 328.473 407.621V416H326.305V407.609C326.297 406.695 326.086 406.02 325.672 405.582C325.266 405.145 324.629 404.926 323.762 404.926C323.059 404.926 322.441 405.113 321.91 405.488C321.379 405.863 320.965 406.355 320.668 406.965V416H318.5V398H320.668V404.855ZM337.848 405.266C337.52 405.211 337.164 405.184 336.781 405.184C335.359 405.184 334.395 405.789 333.887 407V416H331.719V403.32H333.828L333.863 404.785C334.574 403.652 335.582 403.086 336.887 403.086C337.309 403.086 337.629 403.141 337.848 403.25V405.266ZM339.043 409.543C339.043 408.301 339.285 407.184 339.77 406.191C340.262 405.199 340.941 404.434 341.809 403.895C342.684 403.355 343.68 403.086 344.797 403.086C346.523 403.086 347.918 403.684 348.98 404.879C350.051 406.074 350.586 407.664 350.586 409.648V409.801C350.586 411.035 350.348 412.145 349.871 413.129C349.402 414.105 348.727 414.867 347.844 415.414C346.969 415.961 345.961 416.234 344.82 416.234C343.102 416.234 341.707 415.637 340.637 414.441C339.574 413.246 339.043 411.664 339.043 409.695V409.543ZM341.223 409.801C341.223 411.207 341.547 412.336 342.195 413.188C342.852 414.039 343.727 414.465 344.82 414.465C345.922 414.465 346.797 414.035 347.445 413.176C348.094 412.309 348.418 411.098 348.418 409.543C348.418 408.152 348.086 407.027 347.422 406.168C346.766 405.301 345.891 404.867 344.797 404.867C343.727 404.867 342.863 405.293 342.207 406.145C341.551 406.996 341.223 408.215 341.223 409.801ZM352.73 409.543C352.73 408.301 352.973 407.184 353.457 406.191C353.949 405.199 354.629 404.434 355.496 403.895C356.371 403.355 357.367 403.086 358.484 403.086C360.211 403.086 361.605 403.684 362.668 404.879C363.738 406.074 364.273 407.664 364.273 409.648V409.801C364.273 411.035 364.035 412.145 363.559 413.129C363.09 414.105 362.414 414.867 361.531 415.414C360.656 415.961 359.648 416.234 358.508 416.234C356.789 416.234 355.395 415.637 354.324 414.441C353.262 413.246 352.73 411.664 352.73 409.695V409.543ZM354.91 409.801C354.91 411.207 355.234 412.336 355.883 413.188C356.539 414.039 357.414 414.465 358.508 414.465C359.609 414.465 360.484 414.035 361.133 413.176C361.781 412.309 362.105 411.098 362.105 409.543C362.105 408.152 361.773 407.027 361.109 406.168C360.453 405.301 359.578 404.867 358.484 404.867C357.414 404.867 356.551 405.293 355.895 406.145C355.238 406.996 354.91 408.215 354.91 409.801ZM369.031 403.32L369.09 404.727C370.02 403.633 371.273 403.086 372.852 403.086C374.625 403.086 375.832 403.766 376.473 405.125C376.895 404.516 377.441 404.023 378.113 403.648C378.793 403.273 379.594 403.086 380.516 403.086C383.297 403.086 384.711 404.559 384.758 407.504V416H382.59V407.633C382.59 406.727 382.383 406.051 381.969 405.605C381.555 405.152 380.859 404.926 379.883 404.926C379.078 404.926 378.41 405.168 377.879 405.652C377.348 406.129 377.039 406.773 376.953 407.586V416H374.773V407.691C374.773 405.848 373.871 404.926 372.066 404.926C370.645 404.926 369.672 405.531 369.148 406.742V416H366.98V403.32H369.031Z" fill="#565E76"/>
<path d="M292.733 460H288.5V443.682L283.446 445.249V441.807L292.279 438.643H292.733V460ZM314.296 460H299.677V457.1L306.576 449.746C307.523 448.711 308.222 447.808 308.671 447.036C309.13 446.265 309.359 445.532 309.359 444.839C309.359 443.892 309.12 443.149 308.642 442.612C308.163 442.065 307.479 441.792 306.591 441.792C305.634 441.792 304.877 442.124 304.32 442.788C303.773 443.442 303.5 444.307 303.5 445.381H299.252C299.252 444.082 299.56 442.896 300.175 441.821C300.8 440.747 301.679 439.907 302.812 439.302C303.944 438.687 305.229 438.379 306.664 438.379C308.861 438.379 310.565 438.906 311.776 439.961C312.997 441.016 313.607 442.505 313.607 444.429C313.607 445.483 313.334 446.558 312.787 447.651C312.24 448.745 311.303 450.02 309.975 451.475L305.126 456.587H314.296V460ZM317.299 457.92C317.299 457.246 317.523 456.699 317.973 456.279C318.432 455.859 319.003 455.649 319.687 455.649C320.38 455.649 320.951 455.859 321.4 456.279C321.859 456.699 322.089 457.246 322.089 457.92C322.089 458.584 321.864 459.126 321.415 459.546C320.966 459.956 320.39 460.161 319.687 460.161C318.993 460.161 318.422 459.956 317.973 459.546C317.523 459.126 317.299 458.584 317.299 457.92ZM326.264 449.512L327.494 438.672H339.447V442.202H330.966L330.438 446.787C331.444 446.25 332.514 445.981 333.646 445.981C335.678 445.981 337.27 446.611 338.422 447.871C339.574 449.131 340.15 450.894 340.15 453.159C340.15 454.536 339.857 455.771 339.271 456.865C338.695 457.949 337.865 458.794 336.781 459.399C335.697 459.995 334.418 460.293 332.943 460.293C331.654 460.293 330.458 460.034 329.354 459.517C328.251 458.989 327.377 458.252 326.732 457.305C326.098 456.357 325.761 455.278 325.722 454.067H329.911C329.999 454.956 330.307 455.649 330.834 456.147C331.371 456.636 332.069 456.88 332.929 456.88C333.886 456.88 334.623 456.538 335.141 455.854C335.658 455.161 335.917 454.185 335.917 452.925C335.917 451.714 335.619 450.786 335.023 450.142C334.428 449.497 333.583 449.175 332.489 449.175C331.483 449.175 330.668 449.438 330.043 449.966L329.633 450.347L326.264 449.512ZM354.477 444.15L354.608 445.923C355.731 444.546 357.25 443.857 359.164 443.857C361.205 443.857 362.606 444.663 363.368 446.274C364.481 444.663 366.068 443.857 368.129 443.857C369.848 443.857 371.127 444.36 371.967 445.366C372.807 446.362 373.227 447.866 373.227 449.878V460H368.979V449.893C368.979 448.994 368.803 448.34 368.451 447.93C368.1 447.51 367.479 447.3 366.591 447.3C365.321 447.3 364.442 447.905 363.954 449.116L363.969 460H359.735V449.907C359.735 448.989 359.555 448.325 359.193 447.915C358.832 447.505 358.217 447.3 357.348 447.3C356.146 447.3 355.277 447.798 354.74 448.794V460H350.507V444.15H354.477Z" fill="#565E76"/>
<path d="M381.499 441H374.677V439.646L377.896 436.215C378.339 435.732 378.664 435.31 378.874 434.95C379.088 434.59 379.195 434.248 379.195 433.925C379.195 433.483 379.084 433.136 378.86 432.886C378.637 432.631 378.318 432.503 377.903 432.503C377.457 432.503 377.104 432.658 376.844 432.968C376.589 433.273 376.461 433.676 376.461 434.178H374.479C374.479 433.572 374.622 433.018 374.909 432.517C375.201 432.015 375.611 431.623 376.14 431.341C376.668 431.054 377.268 430.91 377.938 430.91C378.963 430.91 379.758 431.156 380.323 431.648C380.893 432.141 381.178 432.836 381.178 433.733C381.178 434.226 381.05 434.727 380.795 435.237C380.54 435.748 380.102 436.342 379.482 437.021L377.22 439.407H381.499V441Z" fill="#565E76"/>
<path d="M777.094 350H774.832V342.113H766.23V350H763.98V332.938H766.23V340.273H774.832V332.938H777.094V350ZM788.578 350C788.453 349.75 788.352 349.305 788.273 348.664C787.266 349.711 786.062 350.234 784.664 350.234C783.414 350.234 782.387 349.883 781.582 349.18C780.785 348.469 780.387 347.57 780.387 346.484C780.387 345.164 780.887 344.141 781.887 343.414C782.895 342.68 784.309 342.312 786.129 342.312H788.238V341.316C788.238 340.559 788.012 339.957 787.559 339.512C787.105 339.059 786.438 338.832 785.555 338.832C784.781 338.832 784.133 339.027 783.609 339.418C783.086 339.809 782.824 340.281 782.824 340.836H780.645C780.645 340.203 780.867 339.594 781.312 339.008C781.766 338.414 782.375 337.945 783.141 337.602C783.914 337.258 784.762 337.086 785.684 337.086C787.145 337.086 788.289 337.453 789.117 338.188C789.945 338.914 790.375 339.918 790.406 341.199V347.035C790.406 348.199 790.555 349.125 790.852 349.812V350H788.578ZM784.98 348.348C785.66 348.348 786.305 348.172 786.914 347.82C787.523 347.469 787.965 347.012 788.238 346.449V343.848H786.539C783.883 343.848 782.555 344.625 782.555 346.18C782.555 346.859 782.781 347.391 783.234 347.773C783.688 348.156 784.27 348.348 784.98 348.348ZM796.16 350H793.992V332H796.16V350ZM801.996 350H799.828V332H801.996V350ZM816.703 347.012L819.141 337.32H821.309L817.617 350H815.859L812.777 340.391L809.777 350H808.02L804.34 337.32H806.496L808.992 346.812L811.945 337.32H813.691L816.703 347.012ZM831.352 350C831.227 349.75 831.125 349.305 831.047 348.664C830.039 349.711 828.836 350.234 827.438 350.234C826.188 350.234 825.16 349.883 824.355 349.18C823.559 348.469 823.16 347.57 823.16 346.484C823.16 345.164 823.66 344.141 824.66 343.414C825.668 342.68 827.082 342.312 828.902 342.312H831.012V341.316C831.012 340.559 830.785 339.957 830.332 339.512C829.879 339.059 829.211 338.832 828.328 338.832C827.555 338.832 826.906 339.027 826.383 339.418C825.859 339.809 825.598 340.281 825.598 340.836H823.418C823.418 340.203 823.641 339.594 824.086 339.008C824.539 338.414 825.148 337.945 825.914 337.602C826.688 337.258 827.535 337.086 828.457 337.086C829.918 337.086 831.062 337.453 831.891 338.188C832.719 338.914 833.148 339.918 833.18 341.199V347.035C833.18 348.199 833.328 349.125 833.625 349.812V350H831.352ZM827.754 348.348C828.434 348.348 829.078 348.172 829.688 347.82C830.297 347.469 830.738 347.012 831.012 346.449V343.848H829.312C826.656 343.848 825.328 344.625 825.328 346.18C825.328 346.859 825.555 347.391 826.008 347.773C826.461 348.156 827.043 348.348 827.754 348.348ZM840.539 346.824L843.492 337.32H845.812L840.715 351.957C839.926 354.066 838.672 355.121 836.953 355.121L836.543 355.086L835.734 354.934V353.176L836.32 353.223C837.055 353.223 837.625 353.074 838.031 352.777C838.445 352.48 838.785 351.938 839.051 351.148L839.531 349.859L835.008 337.32H837.375L840.539 346.824Z" fill="#565E76"/>
<path d="M773.733 394H769.5V377.682L764.446 379.249V375.807L773.279 372.643H773.733V394ZM793.201 385.973H795.618V389.386H793.201V394H788.968V389.386H780.223L780.032 386.72L788.924 372.672H793.201V385.973ZM784.251 385.973H788.968V378.443L788.689 378.927L784.251 385.973ZM798.299 391.92C798.299 391.246 798.523 390.699 798.973 390.279C799.432 389.859 800.003 389.649 800.687 389.649C801.38 389.649 801.951 389.859 802.4 390.279C802.859 390.699 803.089 391.246 803.089 391.92C803.089 392.584 802.864 393.126 802.415 393.546C801.966 393.956 801.39 394.161 800.687 394.161C799.993 394.161 799.422 393.956 798.973 393.546C798.523 393.126 798.299 392.584 798.299 391.92ZM821.253 394H806.634V391.1L813.533 383.746C814.48 382.711 815.179 381.808 815.628 381.036C816.087 380.265 816.316 379.532 816.316 378.839C816.316 377.892 816.077 377.149 815.599 376.612C815.12 376.065 814.437 375.792 813.548 375.792C812.591 375.792 811.834 376.124 811.277 376.788C810.73 377.442 810.457 378.307 810.457 379.381H806.209C806.209 378.082 806.517 376.896 807.132 375.821C807.757 374.747 808.636 373.907 809.769 373.302C810.901 372.687 812.186 372.379 813.621 372.379C815.818 372.379 817.522 372.906 818.733 373.961C819.954 375.016 820.564 376.505 820.564 378.429C820.564 379.483 820.291 380.558 819.744 381.651C819.197 382.745 818.26 384.02 816.932 385.475L812.083 390.587H821.253V394ZM835.477 378.15L835.608 379.923C836.731 378.546 838.25 377.857 840.164 377.857C842.205 377.857 843.606 378.663 844.368 380.274C845.481 378.663 847.068 377.857 849.129 377.857C850.848 377.857 852.127 378.36 852.967 379.366C853.807 380.362 854.227 381.866 854.227 383.878V394H849.979V383.893C849.979 382.994 849.803 382.34 849.451 381.93C849.1 381.51 848.479 381.3 847.591 381.3C846.321 381.3 845.442 381.905 844.954 383.116L844.969 394H840.735V383.907C840.735 382.989 840.555 382.325 840.193 381.915C839.832 381.505 839.217 381.3 838.348 381.3C837.146 381.3 836.277 381.798 835.74 382.794V394H831.507V378.15H835.477Z" fill="#565E76"/>
<path d="M862.499 375H855.677V373.646L858.896 370.215C859.339 369.732 859.664 369.31 859.874 368.95C860.088 368.59 860.195 368.248 860.195 367.925C860.195 367.483 860.084 367.136 859.86 366.886C859.637 366.631 859.318 366.503 858.903 366.503C858.457 366.503 858.104 366.658 857.844 366.968C857.589 367.273 857.461 367.676 857.461 368.178H855.479C855.479 367.572 855.622 367.018 855.909 366.517C856.201 366.015 856.611 365.623 857.14 365.341C857.668 365.054 858.268 364.91 858.938 364.91C859.963 364.91 860.758 365.156 861.323 365.648C861.893 366.141 862.178 366.836 862.178 367.733C862.178 368.226 862.05 368.727 861.795 369.237C861.54 369.748 861.102 370.342 860.482 371.021L858.22 373.407H862.499V375Z" fill="#565E76"/>
<path d="M1490.24 359.16H1498.33V361H1487.98V343.938H1490.24V359.16ZM1502.91 361H1500.74V348.32H1502.91V361ZM1500.57 344.957C1500.57 344.605 1500.67 344.309 1500.88 344.066C1501.1 343.824 1501.42 343.703 1501.84 343.703C1502.27 343.703 1502.59 343.824 1502.8 344.066C1503.02 344.309 1503.13 344.605 1503.13 344.957C1503.13 345.309 1503.02 345.602 1502.8 345.836C1502.59 346.07 1502.27 346.188 1501.84 346.188C1501.42 346.188 1501.1 346.07 1500.88 345.836C1500.67 345.602 1500.57 345.309 1500.57 344.957ZM1510.57 358.059L1513.71 348.32H1515.93L1511.38 361H1509.73L1505.14 348.32H1507.35L1510.57 358.059ZM1520.37 361H1518.2V348.32H1520.37V361ZM1518.03 344.957C1518.03 344.605 1518.13 344.309 1518.34 344.066C1518.56 343.824 1518.88 343.703 1519.3 343.703C1519.73 343.703 1520.05 343.824 1520.27 344.066C1520.48 344.309 1520.59 344.605 1520.59 344.957C1520.59 345.309 1520.48 345.602 1520.27 345.836C1520.05 346.07 1519.73 346.188 1519.3 346.188C1518.88 346.188 1518.56 346.07 1518.34 345.836C1518.13 345.602 1518.03 345.309 1518.03 344.957ZM1525.9 348.32L1525.97 349.914C1526.94 348.695 1528.21 348.086 1529.77 348.086C1532.45 348.086 1533.8 349.598 1533.82 352.621V361H1531.66V352.609C1531.65 351.695 1531.44 351.02 1531.02 350.582C1530.62 350.145 1529.98 349.926 1529.11 349.926C1528.41 349.926 1527.79 350.113 1527.26 350.488C1526.73 350.863 1526.32 351.355 1526.02 351.965V361H1523.85V348.32H1525.9ZM1536.58 354.555C1536.58 352.578 1537.04 351.008 1537.95 349.844C1538.86 348.672 1540.07 348.086 1541.58 348.086C1543.13 348.086 1544.34 348.633 1545.2 349.727L1545.31 348.32H1547.29V360.695C1547.29 362.336 1546.8 363.629 1545.82 364.574C1544.86 365.52 1543.55 365.992 1541.91 365.992C1541 365.992 1540.1 365.797 1539.23 365.406C1538.35 365.016 1537.68 364.48 1537.22 363.801L1538.35 362.5C1539.28 363.648 1540.41 364.223 1541.76 364.223C1542.81 364.223 1543.63 363.926 1544.22 363.332C1544.81 362.738 1545.11 361.902 1545.11 360.824V359.734C1544.24 360.734 1543.06 361.234 1541.56 361.234C1540.07 361.234 1538.87 360.637 1537.95 359.441C1537.04 358.246 1536.58 356.617 1536.58 354.555ZM1538.76 354.801C1538.76 356.23 1539.05 357.355 1539.64 358.176C1540.22 358.988 1541.04 359.395 1542.1 359.395C1543.46 359.395 1544.47 358.773 1545.11 357.531V351.742C1544.45 350.531 1543.45 349.926 1542.12 349.926C1541.07 349.926 1540.24 350.336 1539.65 351.156C1539.05 351.977 1538.76 353.191 1538.76 354.801ZM1562.65 350.266C1562.32 350.211 1561.97 350.184 1561.59 350.184C1560.16 350.184 1559.2 350.789 1558.69 352V361H1556.52V348.32H1558.63L1558.67 349.785C1559.38 348.652 1560.39 348.086 1561.69 348.086C1562.11 348.086 1562.43 348.141 1562.65 348.25V350.266ZM1563.85 354.543C1563.85 353.301 1564.09 352.184 1564.57 351.191C1565.07 350.199 1565.75 349.434 1566.61 348.895C1567.49 348.355 1568.48 348.086 1569.6 348.086C1571.33 348.086 1572.72 348.684 1573.79 349.879C1574.86 351.074 1575.39 352.664 1575.39 354.648V354.801C1575.39 356.035 1575.15 357.145 1574.68 358.129C1574.21 359.105 1573.53 359.867 1572.65 360.414C1571.77 360.961 1570.77 361.234 1569.62 361.234C1567.91 361.234 1566.51 360.637 1565.44 359.441C1564.38 358.246 1563.85 356.664 1563.85 354.695V354.543ZM1566.03 354.801C1566.03 356.207 1566.35 357.336 1567 358.188C1567.66 359.039 1568.53 359.465 1569.62 359.465C1570.73 359.465 1571.6 359.035 1572.25 358.176C1572.9 357.309 1573.22 356.098 1573.22 354.543C1573.22 353.152 1572.89 352.027 1572.23 351.168C1571.57 350.301 1570.7 349.867 1569.6 349.867C1568.53 349.867 1567.67 350.293 1567.01 351.145C1566.36 351.996 1566.03 353.215 1566.03 354.801ZM1577.54 354.543C1577.54 353.301 1577.78 352.184 1578.26 351.191C1578.75 350.199 1579.43 349.434 1580.3 348.895C1581.18 348.355 1582.17 348.086 1583.29 348.086C1585.02 348.086 1586.41 348.684 1587.47 349.879C1588.54 351.074 1589.08 352.664 1589.08 354.648V354.801C1589.08 356.035 1588.84 357.145 1588.36 358.129C1587.89 359.105 1587.22 359.867 1586.34 360.414C1585.46 360.961 1584.45 361.234 1583.31 361.234C1581.59 361.234 1580.2 360.637 1579.13 359.441C1578.07 358.246 1577.54 356.664 1577.54 354.695V354.543ZM1579.71 354.801C1579.71 356.207 1580.04 357.336 1580.69 358.188C1581.34 359.039 1582.22 359.465 1583.31 359.465C1584.41 359.465 1585.29 359.035 1585.94 358.176C1586.59 357.309 1586.91 356.098 1586.91 354.543C1586.91 353.152 1586.58 352.027 1585.91 351.168C1585.26 350.301 1584.38 349.867 1583.29 349.867C1582.22 349.867 1581.36 350.293 1580.7 351.145C1580.04 351.996 1579.71 353.215 1579.71 354.801ZM1593.84 348.32L1593.89 349.727C1594.82 348.633 1596.08 348.086 1597.66 348.086C1599.43 348.086 1600.64 348.766 1601.28 350.125C1601.7 349.516 1602.25 349.023 1602.92 348.648C1603.6 348.273 1604.4 348.086 1605.32 348.086C1608.1 348.086 1609.52 349.559 1609.56 352.504V361H1607.39V352.633C1607.39 351.727 1607.19 351.051 1606.77 350.605C1606.36 350.152 1605.66 349.926 1604.69 349.926C1603.88 349.926 1603.21 350.168 1602.68 350.652C1602.15 351.129 1601.84 351.773 1601.76 352.586V361H1599.58V352.691C1599.58 350.848 1598.68 349.926 1596.87 349.926C1595.45 349.926 1594.48 350.531 1593.95 351.742V361H1591.79V348.32H1593.84Z" fill="#565E76"/>
<path d="M1497.73 400.125H1493.5V383.807L1488.45 385.374V381.932L1497.28 378.768H1497.73V400.125ZM1517.2 392.098H1519.62V395.511H1517.2V400.125H1512.97V395.511H1504.22L1504.03 392.845L1512.92 378.797H1517.2V392.098ZM1508.25 392.098H1512.97V384.568L1512.69 385.052L1508.25 392.098ZM1522.3 398.045C1522.3 397.371 1522.52 396.824 1522.97 396.404C1523.43 395.984 1524 395.774 1524.69 395.774C1525.38 395.774 1525.95 395.984 1526.4 396.404C1526.86 396.824 1527.09 397.371 1527.09 398.045C1527.09 398.709 1526.86 399.251 1526.42 399.671C1525.97 400.081 1525.39 400.286 1524.69 400.286C1523.99 400.286 1523.42 400.081 1522.97 399.671C1522.52 399.251 1522.3 398.709 1522.3 398.045ZM1545.25 400.125H1530.63V397.225L1537.53 389.871C1538.48 388.836 1539.18 387.933 1539.63 387.161C1540.09 386.39 1540.32 385.657 1540.32 384.964C1540.32 384.017 1540.08 383.274 1539.6 382.737C1539.12 382.19 1538.44 381.917 1537.55 381.917C1536.59 381.917 1535.83 382.249 1535.28 382.913C1534.73 383.567 1534.46 384.432 1534.46 385.506H1530.21C1530.21 384.207 1530.52 383.021 1531.13 381.946C1531.76 380.872 1532.64 380.032 1533.77 379.427C1534.9 378.812 1536.19 378.504 1537.62 378.504C1539.82 378.504 1541.52 379.031 1542.73 380.086C1543.95 381.141 1544.56 382.63 1544.56 384.554C1544.56 385.608 1544.29 386.683 1543.74 387.776C1543.2 388.87 1542.26 390.145 1540.93 391.6L1536.08 396.712H1545.25V400.125ZM1559.48 384.275L1559.61 386.048C1560.73 384.671 1562.25 383.982 1564.16 383.982C1566.21 383.982 1567.61 384.788 1568.37 386.399C1569.48 384.788 1571.07 383.982 1573.13 383.982C1574.85 383.982 1576.13 384.485 1576.97 385.491C1577.81 386.487 1578.23 387.991 1578.23 390.003V400.125H1573.98V390.018C1573.98 389.119 1573.8 388.465 1573.45 388.055C1573.1 387.635 1572.48 387.425 1571.59 387.425C1570.32 387.425 1569.44 388.03 1568.95 389.241L1568.97 400.125H1564.74V390.032C1564.74 389.114 1564.55 388.45 1564.19 388.04C1563.83 387.63 1563.22 387.425 1562.35 387.425C1561.15 387.425 1560.28 387.923 1559.74 388.919V400.125H1555.51V384.275H1559.48Z" fill="#565E76"/>
<path d="M1587.5 383H1580.68V381.646L1583.9 378.215C1584.34 377.732 1584.66 377.31 1584.87 376.95C1585.09 376.59 1585.2 376.248 1585.2 375.925C1585.2 375.483 1585.08 375.136 1584.86 374.886C1584.64 374.631 1584.32 374.503 1583.9 374.503C1583.46 374.503 1583.1 374.658 1582.84 374.968C1582.59 375.273 1582.46 375.676 1582.46 376.178H1580.48C1580.48 375.572 1580.62 375.018 1580.91 374.517C1581.2 374.015 1581.61 373.623 1582.14 373.341C1582.67 373.054 1583.27 372.91 1583.94 372.91C1584.96 372.91 1585.76 373.156 1586.32 373.648C1586.89 374.141 1587.18 374.836 1587.18 375.733C1587.18 376.226 1587.05 376.727 1586.79 377.237C1586.54 377.748 1586.1 378.342 1585.48 379.021L1583.22 381.407H1587.5V383Z" fill="#565E76"/>
<path d="M823.98 744V726.938H829.559C831.41 726.938 832.801 727.32 833.73 728.086C834.668 728.852 835.137 729.984 835.137 731.484C835.137 732.281 834.91 732.988 834.457 733.605C834.004 734.215 833.387 734.688 832.605 735.023C833.527 735.281 834.254 735.773 834.785 736.5C835.324 737.219 835.594 738.078 835.594 739.078C835.594 740.609 835.098 741.812 834.105 742.688C833.113 743.562 831.711 744 829.898 744H823.98ZM826.23 736.02V742.16H829.945C830.992 742.16 831.816 741.891 832.418 741.352C833.027 740.805 833.332 740.055 833.332 739.102C833.332 737.047 832.215 736.02 829.98 736.02H826.23ZM826.23 734.215H829.629C830.613 734.215 831.398 733.969 831.984 733.477C832.578 732.984 832.875 732.316 832.875 731.473C832.875 730.535 832.602 729.855 832.055 729.434C831.508 729.004 830.676 728.789 829.559 728.789H826.23V734.215ZM843.855 744.234C842.137 744.234 840.738 743.672 839.66 742.547C838.582 741.414 838.043 739.902 838.043 738.012V737.613C838.043 736.355 838.281 735.234 838.758 734.25C839.242 733.258 839.914 732.484 840.773 731.93C841.641 731.367 842.578 731.086 843.586 731.086C845.234 731.086 846.516 731.629 847.43 732.715C848.344 733.801 848.801 735.355 848.801 737.379V738.281H840.211C840.242 739.531 840.605 740.543 841.301 741.316C842.004 742.082 842.895 742.465 843.973 742.465C844.738 742.465 845.387 742.309 845.918 741.996C846.449 741.684 846.914 741.27 847.312 740.754L848.637 741.785C847.574 743.418 845.98 744.234 843.855 744.234ZM843.586 732.867C842.711 732.867 841.977 733.188 841.383 733.828C840.789 734.461 840.422 735.352 840.281 736.5H846.633V736.336C846.57 735.234 846.273 734.383 845.742 733.781C845.211 733.172 844.492 732.867 843.586 732.867ZM850.793 737.555C850.793 735.609 851.254 734.047 852.176 732.867C853.098 731.68 854.305 731.086 855.797 731.086C857.281 731.086 858.457 731.594 859.324 732.609V726H861.492V744H859.5L859.395 742.641C858.527 743.703 857.32 744.234 855.773 744.234C854.305 744.234 853.105 743.633 852.176 742.43C851.254 741.227 850.793 739.656 850.793 737.719V737.555ZM852.961 737.801C852.961 739.238 853.258 740.363 853.852 741.176C854.445 741.988 855.266 742.395 856.312 742.395C857.688 742.395 858.691 741.777 859.324 740.543V734.719C858.676 733.523 857.68 732.926 856.336 732.926C855.273 732.926 854.445 733.336 853.852 734.156C853.258 734.977 852.961 736.191 852.961 737.801ZM870.996 733.266C870.668 733.211 870.312 733.184 869.93 733.184C868.508 733.184 867.543 733.789 867.035 735V744H864.867V731.32H866.977L867.012 732.785C867.723 731.652 868.73 731.086 870.035 731.086C870.457 731.086 870.777 731.141 870.996 731.25V733.266ZM872.191 737.543C872.191 736.301 872.434 735.184 872.918 734.191C873.41 733.199 874.09 732.434 874.957 731.895C875.832 731.355 876.828 731.086 877.945 731.086C879.672 731.086 881.066 731.684 882.129 732.879C883.199 734.074 883.734 735.664 883.734 737.648V737.801C883.734 739.035 883.496 740.145 883.02 741.129C882.551 742.105 881.875 742.867 880.992 743.414C880.117 743.961 879.109 744.234 877.969 744.234C876.25 744.234 874.855 743.637 873.785 742.441C872.723 741.246 872.191 739.664 872.191 737.695V737.543ZM874.371 737.801C874.371 739.207 874.695 740.336 875.344 741.188C876 742.039 876.875 742.465 877.969 742.465C879.07 742.465 879.945 742.035 880.594 741.176C881.242 740.309 881.566 739.098 881.566 737.543C881.566 736.152 881.234 735.027 880.57 734.168C879.914 733.301 879.039 732.867 877.945 732.867C876.875 732.867 876.012 733.293 875.355 734.145C874.699 734.996 874.371 736.215 874.371 737.801ZM885.879 737.543C885.879 736.301 886.121 735.184 886.605 734.191C887.098 733.199 887.777 732.434 888.645 731.895C889.52 731.355 890.516 731.086 891.633 731.086C893.359 731.086 894.754 731.684 895.816 732.879C896.887 734.074 897.422 735.664 897.422 737.648V737.801C897.422 739.035 897.184 740.145 896.707 741.129C896.238 742.105 895.562 742.867 894.68 743.414C893.805 743.961 892.797 744.234 891.656 744.234C889.938 744.234 888.543 743.637 887.473 742.441C886.41 741.246 885.879 739.664 885.879 737.695V737.543ZM888.059 737.801C888.059 739.207 888.383 740.336 889.031 741.188C889.688 742.039 890.562 742.465 891.656 742.465C892.758 742.465 893.633 742.035 894.281 741.176C894.93 740.309 895.254 739.098 895.254 737.543C895.254 736.152 894.922 735.027 894.258 734.168C893.602 733.301 892.727 732.867 891.633 732.867C890.562 732.867 889.699 733.293 889.043 734.145C888.387 734.996 888.059 736.215 888.059 737.801ZM902.18 731.32L902.238 732.727C903.168 731.633 904.422 731.086 906 731.086C907.773 731.086 908.98 731.766 909.621 733.125C910.043 732.516 910.59 732.023 911.262 731.648C911.941 731.273 912.742 731.086 913.664 731.086C916.445 731.086 917.859 732.559 917.906 735.504V744H915.738V735.633C915.738 734.727 915.531 734.051 915.117 733.605C914.703 733.152 914.008 732.926 913.031 732.926C912.227 732.926 911.559 733.168 911.027 733.652C910.496 734.129 910.188 734.773 910.102 735.586V744H907.922V735.691C907.922 733.848 907.02 732.926 905.215 732.926C903.793 732.926 902.82 733.531 902.297 734.742V744H900.129V731.32H902.18Z" fill="#565E76"/>
<path d="M838.069 783.125H823.45V780.225L830.35 772.871C831.297 771.836 831.995 770.933 832.444 770.161C832.903 769.39 833.133 768.657 833.133 767.964C833.133 767.017 832.894 766.274 832.415 765.737C831.937 765.19 831.253 764.917 830.364 764.917C829.407 764.917 828.65 765.249 828.094 765.913C827.547 766.567 827.273 767.432 827.273 768.506H823.025C823.025 767.207 823.333 766.021 823.948 764.946C824.573 763.872 825.452 763.032 826.585 762.427C827.718 761.812 829.002 761.504 830.438 761.504C832.635 761.504 834.339 762.031 835.55 763.086C836.771 764.141 837.381 765.63 837.381 767.554C837.381 768.608 837.107 769.683 836.561 770.776C836.014 771.87 835.076 773.145 833.748 774.6L828.899 779.712H838.069V783.125ZM850.96 783.125H846.727V766.807L841.673 768.374V764.932L850.506 761.768H850.96V783.125ZM858.299 781.045C858.299 780.371 858.523 779.824 858.973 779.404C859.432 778.984 860.003 778.774 860.687 778.774C861.38 778.774 861.951 778.984 862.4 779.404C862.859 779.824 863.089 780.371 863.089 781.045C863.089 781.709 862.864 782.251 862.415 782.671C861.966 783.081 861.39 783.286 860.687 783.286C859.993 783.286 859.422 783.081 858.973 782.671C858.523 782.251 858.299 781.709 858.299 781.045ZM879.158 775.098H881.575V778.511H879.158V783.125H874.925V778.511H866.18L865.989 775.845L874.881 761.797H879.158V775.098ZM870.208 775.098H874.925V767.568L874.646 768.052L870.208 775.098ZM895.477 767.275L895.608 769.048C896.731 767.671 898.25 766.982 900.164 766.982C902.205 766.982 903.606 767.788 904.368 769.399C905.481 767.788 907.068 766.982 909.129 766.982C910.848 766.982 912.127 767.485 912.967 768.491C913.807 769.487 914.227 770.991 914.227 773.003V783.125H909.979V773.018C909.979 772.119 909.803 771.465 909.451 771.055C909.1 770.635 908.479 770.425 907.591 770.425C906.321 770.425 905.442 771.03 904.954 772.241L904.969 783.125H900.735V773.032C900.735 772.114 900.555 771.45 900.193 771.04C899.832 770.63 899.217 770.425 898.348 770.425C897.146 770.425 896.277 770.923 895.74 771.919V783.125H891.507V767.275H895.477Z" fill="#565E76"/>
<path d="M923.499 766H916.677V764.646L919.896 761.215C920.339 760.732 920.664 760.31 920.874 759.95C921.088 759.59 921.195 759.248 921.195 758.925C921.195 758.483 921.084 758.136 920.86 757.886C920.637 757.631 920.318 757.503 919.903 757.503C919.457 757.503 919.104 757.658 918.844 757.968C918.589 758.273 918.461 758.676 918.461 759.178H916.479C916.479 758.572 916.622 758.018 916.909 757.517C917.201 757.015 917.611 756.623 918.14 756.341C918.668 756.054 919.268 755.91 919.938 755.91C920.963 755.91 921.758 756.156 922.323 756.648C922.893 757.141 923.178 757.836 923.178 758.733C923.178 759.226 923.05 759.727 922.795 760.237C922.54 760.748 922.102 761.342 921.482 762.021L919.22 764.407H923.499V766Z" fill="#565E76"/>
<path d="M342.98 800V782.938H348.559C350.41 782.938 351.801 783.32 352.73 784.086C353.668 784.852 354.137 785.984 354.137 787.484C354.137 788.281 353.91 788.988 353.457 789.605C353.004 790.215 352.387 790.688 351.605 791.023C352.527 791.281 353.254 791.773 353.785 792.5C354.324 793.219 354.594 794.078 354.594 795.078C354.594 796.609 354.098 797.812 353.105 798.688C352.113 799.562 350.711 800 348.898 800H342.98ZM345.23 792.02V798.16H348.945C349.992 798.16 350.816 797.891 351.418 797.352C352.027 796.805 352.332 796.055 352.332 795.102C352.332 793.047 351.215 792.02 348.98 792.02H345.23ZM345.23 790.215H348.629C349.613 790.215 350.398 789.969 350.984 789.477C351.578 788.984 351.875 788.316 351.875 787.473C351.875 786.535 351.602 785.855 351.055 785.434C350.508 785.004 349.676 784.789 348.559 784.789H345.23V790.215ZM362.855 800.234C361.137 800.234 359.738 799.672 358.66 798.547C357.582 797.414 357.043 795.902 357.043 794.012V793.613C357.043 792.355 357.281 791.234 357.758 790.25C358.242 789.258 358.914 788.484 359.773 787.93C360.641 787.367 361.578 787.086 362.586 787.086C364.234 787.086 365.516 787.629 366.43 788.715C367.344 789.801 367.801 791.355 367.801 793.379V794.281H359.211C359.242 795.531 359.605 796.543 360.301 797.316C361.004 798.082 361.895 798.465 362.973 798.465C363.738 798.465 364.387 798.309 364.918 797.996C365.449 797.684 365.914 797.27 366.312 796.754L367.637 797.785C366.574 799.418 364.98 800.234 362.855 800.234ZM362.586 788.867C361.711 788.867 360.977 789.188 360.383 789.828C359.789 790.461 359.422 791.352 359.281 792.5H365.633V792.336C365.57 791.234 365.273 790.383 364.742 789.781C364.211 789.172 363.492 788.867 362.586 788.867ZM369.793 793.555C369.793 791.609 370.254 790.047 371.176 788.867C372.098 787.68 373.305 787.086 374.797 787.086C376.281 787.086 377.457 787.594 378.324 788.609V782H380.492V800H378.5L378.395 798.641C377.527 799.703 376.32 800.234 374.773 800.234C373.305 800.234 372.105 799.633 371.176 798.43C370.254 797.227 369.793 795.656 369.793 793.719V793.555ZM371.961 793.801C371.961 795.238 372.258 796.363 372.852 797.176C373.445 797.988 374.266 798.395 375.312 798.395C376.688 798.395 377.691 797.777 378.324 796.543V790.719C377.676 789.523 376.68 788.926 375.336 788.926C374.273 788.926 373.445 789.336 372.852 790.156C372.258 790.977 371.961 792.191 371.961 793.801ZM389.996 789.266C389.668 789.211 389.312 789.184 388.93 789.184C387.508 789.184 386.543 789.789 386.035 791V800H383.867V787.32H385.977L386.012 788.785C386.723 787.652 387.73 787.086 389.035 787.086C389.457 787.086 389.777 787.141 389.996 787.25V789.266ZM391.191 793.543C391.191 792.301 391.434 791.184 391.918 790.191C392.41 789.199 393.09 788.434 393.957 787.895C394.832 787.355 395.828 787.086 396.945 787.086C398.672 787.086 400.066 787.684 401.129 788.879C402.199 790.074 402.734 791.664 402.734 793.648V793.801C402.734 795.035 402.496 796.145 402.02 797.129C401.551 798.105 400.875 798.867 399.992 799.414C399.117 799.961 398.109 800.234 396.969 800.234C395.25 800.234 393.855 799.637 392.785 798.441C391.723 797.246 391.191 795.664 391.191 793.695V793.543ZM393.371 793.801C393.371 795.207 393.695 796.336 394.344 797.188C395 798.039 395.875 798.465 396.969 798.465C398.07 798.465 398.945 798.035 399.594 797.176C400.242 796.309 400.566 795.098 400.566 793.543C400.566 792.152 400.234 791.027 399.57 790.168C398.914 789.301 398.039 788.867 396.945 788.867C395.875 788.867 395.012 789.293 394.355 790.145C393.699 790.996 393.371 792.215 393.371 793.801ZM404.879 793.543C404.879 792.301 405.121 791.184 405.605 790.191C406.098 789.199 406.777 788.434 407.645 787.895C408.52 787.355 409.516 787.086 410.633 787.086C412.359 787.086 413.754 787.684 414.816 788.879C415.887 790.074 416.422 791.664 416.422 793.648V793.801C416.422 795.035 416.184 796.145 415.707 797.129C415.238 798.105 414.562 798.867 413.68 799.414C412.805 799.961 411.797 800.234 410.656 800.234C408.938 800.234 407.543 799.637 406.473 798.441C405.41 797.246 404.879 795.664 404.879 793.695V793.543ZM407.059 793.801C407.059 795.207 407.383 796.336 408.031 797.188C408.688 798.039 409.562 798.465 410.656 798.465C411.758 798.465 412.633 798.035 413.281 797.176C413.93 796.309 414.254 795.098 414.254 793.543C414.254 792.152 413.922 791.027 413.258 790.168C412.602 789.301 411.727 788.867 410.633 788.867C409.562 788.867 408.699 789.293 408.043 790.145C407.387 790.996 407.059 792.215 407.059 793.801ZM421.18 787.32L421.238 788.727C422.168 787.633 423.422 787.086 425 787.086C426.773 787.086 427.98 787.766 428.621 789.125C429.043 788.516 429.59 788.023 430.262 787.648C430.941 787.273 431.742 787.086 432.664 787.086C435.445 787.086 436.859 788.559 436.906 791.504V800H434.738V791.633C434.738 790.727 434.531 790.051 434.117 789.605C433.703 789.152 433.008 788.926 432.031 788.926C431.227 788.926 430.559 789.168 430.027 789.652C429.496 790.129 429.188 790.773 429.102 791.586V800H426.922V791.691C426.922 789.848 426.02 788.926 424.215 788.926C422.793 788.926 421.82 789.531 421.297 790.742V800H419.129V787.32H421.18Z" fill="#565E76"/>
<path d="M357.069 839.125H342.45V836.225L349.35 828.871C350.297 827.836 350.995 826.933 351.444 826.161C351.903 825.39 352.133 824.657 352.133 823.964C352.133 823.017 351.894 822.274 351.415 821.737C350.937 821.19 350.253 820.917 349.364 820.917C348.407 820.917 347.65 821.249 347.094 821.913C346.547 822.567 346.273 823.432 346.273 824.506H342.025C342.025 823.207 342.333 822.021 342.948 820.946C343.573 819.872 344.452 819.032 345.585 818.427C346.718 817.812 348.002 817.504 349.438 817.504C351.635 817.504 353.339 818.031 354.55 819.086C355.771 820.141 356.381 821.63 356.381 823.554C356.381 824.608 356.107 825.683 355.561 826.776C355.014 827.87 354.076 829.145 352.748 830.6L347.899 835.712H357.069V839.125ZM374.032 830.307C374.032 833.256 373.422 835.512 372.201 837.074C370.98 838.637 369.193 839.418 366.84 839.418C364.516 839.418 362.738 838.651 361.508 837.118C360.277 835.585 359.647 833.388 359.618 830.526V826.601C359.618 823.622 360.233 821.361 361.464 819.818C362.704 818.275 364.486 817.504 366.811 817.504C369.135 817.504 370.912 818.271 372.143 819.804C373.373 821.327 374.003 823.52 374.032 826.381V830.307ZM369.799 826C369.799 824.232 369.555 822.948 369.066 822.147C368.588 821.337 367.836 820.932 366.811 820.932C365.814 820.932 365.077 821.317 364.599 822.089C364.13 822.851 363.881 824.047 363.852 825.678V830.863C363.852 832.602 364.086 833.896 364.555 834.745C365.033 835.585 365.795 836.005 366.84 836.005C367.875 836.005 368.622 835.6 369.081 834.789C369.54 833.979 369.779 832.738 369.799 831.068V826ZM377.299 837.045C377.299 836.371 377.523 835.824 377.973 835.404C378.432 834.984 379.003 834.774 379.687 834.774C380.38 834.774 380.951 834.984 381.4 835.404C381.859 835.824 382.089 836.371 382.089 837.045C382.089 837.709 381.864 838.251 381.415 838.671C380.966 839.081 380.39 839.286 379.687 839.286C378.993 839.286 378.422 839.081 377.973 838.671C377.523 838.251 377.299 837.709 377.299 837.045ZM400.253 839.125H385.634V836.225L392.533 828.871C393.48 827.836 394.179 826.933 394.628 826.161C395.087 825.39 395.316 824.657 395.316 823.964C395.316 823.017 395.077 822.274 394.599 821.737C394.12 821.19 393.437 820.917 392.548 820.917C391.591 820.917 390.834 821.249 390.277 821.913C389.73 822.567 389.457 823.432 389.457 824.506H385.209C385.209 823.207 385.517 822.021 386.132 820.946C386.757 819.872 387.636 819.032 388.769 818.427C389.901 817.812 391.186 817.504 392.621 817.504C394.818 817.504 396.522 818.031 397.733 819.086C398.954 820.141 399.564 821.63 399.564 823.554C399.564 824.608 399.291 825.683 398.744 826.776C398.197 827.87 397.26 829.145 395.932 830.6L391.083 835.712H400.253V839.125ZM414.477 823.275L414.608 825.048C415.731 823.671 417.25 822.982 419.164 822.982C421.205 822.982 422.606 823.788 423.368 825.399C424.481 823.788 426.068 822.982 428.129 822.982C429.848 822.982 431.127 823.485 431.967 824.491C432.807 825.487 433.227 826.991 433.227 829.003V839.125H428.979V829.018C428.979 828.119 428.803 827.465 428.451 827.055C428.1 826.635 427.479 826.425 426.591 826.425C425.321 826.425 424.442 827.03 423.954 828.241L423.969 839.125H419.735V829.032C419.735 828.114 419.555 827.45 419.193 827.04C418.832 826.63 418.217 826.425 417.348 826.425C416.146 826.425 415.277 826.923 414.74 827.919V839.125H410.507V823.275H414.477Z" fill="#565E76"/>
<path d="M442.499 822H435.677V820.646L438.896 817.215C439.339 816.732 439.664 816.31 439.874 815.95C440.088 815.59 440.195 815.248 440.195 814.925C440.195 814.483 440.084 814.136 439.86 813.886C439.637 813.631 439.318 813.503 438.903 813.503C438.457 813.503 438.104 813.658 437.844 813.968C437.589 814.273 437.461 814.676 437.461 815.178H435.479C435.479 814.572 435.622 814.018 435.909 813.517C436.201 813.015 436.611 812.623 437.14 812.341C437.668 812.054 438.268 811.91 438.938 811.91C439.963 811.91 440.758 812.156 441.323 812.648C441.893 813.141 442.178 813.836 442.178 814.733C442.178 815.226 442.05 815.727 441.795 816.237C441.54 816.748 441.102 817.342 440.482 818.021L438.22 820.407H442.499V822Z" fill="#565E76"/>
<path d="M1053.97 96V70.4062H1061.2C1063.42 70.4062 1065.39 70.8984 1067.1 71.8828C1068.81 72.8672 1070.13 74.2676 1071.06 76.084C1071.99 77.9004 1072.47 79.9863 1072.48 82.3418V83.9766C1072.48 86.3906 1072.01 88.5059 1071.07 90.3223C1070.15 92.1387 1068.82 93.5332 1067.08 94.5059C1065.36 95.4785 1063.35 95.9766 1061.05 96H1053.97ZM1057.35 73.1836V93.2402H1060.9C1063.5 93.2402 1065.52 92.4316 1066.96 90.8145C1068.41 89.1973 1069.14 86.8945 1069.14 83.9062V82.4121C1069.14 79.5059 1068.46 77.25 1067.08 75.6445C1065.72 74.0273 1063.79 73.207 1061.28 73.1836H1057.35ZM1088.83 94.1191C1087.56 95.6074 1085.71 96.3516 1083.26 96.3516C1081.23 96.3516 1079.68 95.7656 1078.62 94.5938C1077.56 93.4102 1077.03 91.6641 1077.02 89.3555V76.9805H1080.27V89.2676C1080.27 92.1504 1081.44 93.5918 1083.78 93.5918C1086.27 93.5918 1087.92 92.666 1088.74 90.8145V76.9805H1091.99V96H1088.9L1088.83 94.1191ZM1100.48 96H1097.23V69H1100.48V96ZM1122.54 91.5176L1126.2 76.9805H1129.45L1123.91 96H1121.28L1116.65 81.5859L1112.15 96H1109.52L1104 76.9805H1107.23L1110.98 91.2188L1115.41 76.9805H1118.03L1122.54 91.5176ZM1136.31 96H1133.05V76.9805H1136.31V96ZM1132.79 71.9355C1132.79 71.4082 1132.95 70.9629 1133.27 70.5996C1133.59 70.2363 1134.07 70.0547 1134.71 70.0547C1135.34 70.0547 1135.82 70.2363 1136.15 70.5996C1136.48 70.9629 1136.64 71.4082 1136.64 71.9355C1136.64 72.4629 1136.48 72.9023 1136.15 73.2539C1135.82 73.6055 1135.34 73.7812 1134.71 73.7812C1134.07 73.7812 1133.59 73.6055 1133.27 73.2539C1132.95 72.9023 1132.79 72.4629 1132.79 71.9355ZM1149.16 93.6973C1150.32 93.6973 1151.33 93.3457 1152.2 92.6426C1153.06 91.9395 1153.54 91.0605 1153.64 90.0059H1156.71C1156.66 91.0957 1156.28 92.1328 1155.59 93.1172C1154.9 94.1016 1153.97 94.8867 1152.81 95.4727C1151.66 96.0586 1150.45 96.3516 1149.16 96.3516C1146.57 96.3516 1144.5 95.4902 1142.97 93.7676C1141.45 92.0332 1140.68 89.666 1140.68 86.666V86.1211C1140.68 84.2695 1141.02 82.623 1141.7 81.1816C1142.38 79.7402 1143.36 78.6211 1144.62 77.8242C1145.9 77.0273 1147.4 76.6289 1149.14 76.6289C1151.27 76.6289 1153.04 77.2676 1154.45 78.5449C1155.87 79.8223 1156.62 81.4805 1156.71 83.5195H1153.64C1153.54 82.2891 1153.08 81.2812 1152.23 80.4961C1151.4 79.6992 1150.37 79.3008 1149.14 79.3008C1147.49 79.3008 1146.2 79.8984 1145.29 81.0938C1144.39 82.2773 1143.94 83.9941 1143.94 86.2441V86.8594C1143.94 89.0508 1144.39 90.7383 1145.29 91.9219C1146.19 93.1055 1147.48 93.6973 1149.16 93.6973ZM1163.62 79.2832C1165.06 77.5137 1166.94 76.6289 1169.25 76.6289C1173.27 76.6289 1175.29 78.8965 1175.33 83.4316V96H1172.08V83.4141C1172.07 82.043 1171.75 81.0293 1171.13 80.373C1170.52 79.7168 1169.56 79.3887 1168.26 79.3887C1167.21 79.3887 1166.28 79.6699 1165.49 80.2324C1164.69 80.7949 1164.07 81.5332 1163.62 82.4473V96H1160.37V69H1163.62V79.2832ZM1199.03 85.6465H1193.01V96H1189.62V70.4062H1198.09C1200.98 70.4062 1203.19 71.0625 1204.74 72.375C1206.3 73.6875 1207.08 75.5977 1207.08 78.1055C1207.08 79.6992 1206.64 81.0879 1205.78 82.2715C1204.92 83.4551 1203.72 84.3398 1202.19 84.9258L1208.2 95.7891V96H1204.58L1199.03 85.6465ZM1193.01 82.8867H1198.2C1199.88 82.8867 1201.21 82.4531 1202.19 81.5859C1203.19 80.7188 1203.68 79.5586 1203.68 78.1055C1203.68 76.5234 1203.21 75.3105 1202.26 74.4668C1201.32 73.623 1199.96 73.1953 1198.18 73.1836H1193.01V82.8867ZM1210.52 86.332C1210.52 83.4141 1211.21 81.0703 1212.6 79.3008C1213.98 77.5195 1215.79 76.6289 1218.03 76.6289C1220.25 76.6289 1222.02 77.3906 1223.32 78.9141V69H1226.57V96H1223.58L1223.42 93.9609C1222.12 95.5547 1220.31 96.3516 1217.99 96.3516C1215.79 96.3516 1213.99 95.4492 1212.6 93.6445C1211.21 91.8398 1210.52 89.4844 1210.52 86.5781V86.332ZM1213.77 86.7012C1213.77 88.8574 1214.22 90.5449 1215.11 91.7637C1216 92.9824 1217.23 93.5918 1218.8 93.5918C1220.86 93.5918 1222.37 92.666 1223.32 90.8145V82.0781C1222.35 80.2852 1220.85 79.3887 1218.84 79.3887C1217.24 79.3887 1216 80.0039 1215.11 81.2344C1214.22 82.4648 1213.77 84.2871 1213.77 86.7012Z" fill="#565E76"/>
<path d="M113.98 768.654L124 768.654L124 772.029L98.4062 772.029L98.4062 762.59C98.4062 759.789 99.1211 757.598 100.551 756.016C101.98 754.422 103.873 753.625 106.229 753.625C108.713 753.625 110.629 754.404 111.977 755.963C113.312 757.51 113.98 759.73 113.98 762.625L113.98 768.654ZM111.221 768.654L111.221 762.59C111.221 760.785 110.799 759.402 109.955 758.441C109.1 757.48 107.869 757 106.264 757C104.74 757 103.521 757.48 102.607 758.441C101.693 759.402 101.219 760.721 101.184 762.396L101.184 768.654L111.221 768.654ZM124 746.295L124 749.547L97 749.547L97 746.295L124 746.295ZM122.119 729.332C123.607 730.598 124.352 732.455 124.352 734.904C124.352 736.932 123.766 738.479 122.594 739.545C121.41 740.6 119.664 741.133 117.355 741.145L104.98 741.145L104.98 737.893L117.268 737.893C120.15 737.893 121.592 736.721 121.592 734.377C121.592 731.893 120.666 730.24 118.814 729.42L104.98 729.42L104.98 726.168L124 726.168L124 729.262L122.119 729.332ZM104.98 718.152L107.09 718.064C105.449 716.67 104.629 714.789 104.629 712.422C104.629 709.762 105.648 707.951 107.687 706.99C106.773 706.357 106.035 705.537 105.473 704.529C104.91 703.51 104.629 702.309 104.629 700.926C104.629 696.754 106.838 694.633 111.256 694.562L124 694.562L124 697.814L111.449 697.814C110.09 697.814 109.076 698.125 108.408 698.746C107.729 699.367 107.389 700.41 107.389 701.875C107.389 703.082 107.752 704.084 108.479 704.881C109.193 705.678 110.16 706.141 111.379 706.27L124 706.27L124 709.539L111.537 709.539C108.771 709.539 107.389 710.893 107.389 713.6C107.389 715.732 108.297 717.191 110.113 717.977L124 717.977L124 721.229L104.98 721.229L104.98 718.152ZM118.955 678.566C118.076 678.566 117.396 678.9 116.916 679.568C116.424 680.225 116.002 681.379 115.65 683.031C115.299 684.672 114.877 685.979 114.385 686.951C113.893 687.912 113.307 688.627 112.627 689.096C111.947 689.553 111.139 689.781 110.201 689.781C108.643 689.781 107.324 689.125 106.246 687.812C105.168 686.488 104.629 684.801 104.629 682.75C104.629 680.594 105.186 678.848 106.299 677.512C107.412 676.164 108.836 675.49 110.57 675.49L110.57 678.76C109.68 678.76 108.912 679.141 108.268 679.902C107.623 680.652 107.301 681.602 107.301 682.75C107.301 683.934 107.559 684.859 108.074 685.527C108.59 686.195 109.264 686.529 110.096 686.529C110.881 686.529 111.473 686.219 111.871 685.598C112.27 684.977 112.65 683.857 113.014 682.24C113.377 680.611 113.811 679.293 114.314 678.285C114.818 677.277 115.428 676.533 116.143 676.053C116.846 675.561 117.707 675.314 118.727 675.314C120.426 675.314 121.791 675.994 122.822 677.354C123.842 678.713 124.352 680.477 124.352 682.645C124.352 684.168 124.082 685.516 123.543 686.687C123.004 687.859 122.254 688.779 121.293 689.447C120.32 690.104 119.271 690.432 118.146 690.432L118.146 687.18C119.236 687.121 120.104 686.687 120.748 685.879C121.381 685.059 121.697 683.98 121.697 682.645C121.697 681.414 121.451 680.43 120.959 679.691C120.455 678.941 119.787 678.566 118.955 678.566ZM100.375 666.666L104.98 666.666L104.98 663.115L107.494 663.115L107.494 666.666L119.289 666.666C120.051 666.666 120.625 666.508 121.012 666.191C121.387 665.875 121.574 665.336 121.574 664.574C121.574 664.199 121.504 663.684 121.363 663.027L124 663.027C124.234 663.883 124.352 664.715 124.352 665.523C124.352 666.977 123.912 668.072 123.033 668.811C122.154 669.549 120.906 669.918 119.289 669.918L107.494 669.918L107.494 673.381L104.98 673.381L104.98 669.918L100.375 669.918L100.375 666.666ZM124.352 651.408C124.352 653.986 123.508 656.084 121.82 657.701C120.121 659.318 117.854 660.127 115.018 660.127L114.42 660.127C112.533 660.127 110.852 659.77 109.375 659.055C107.887 658.328 106.727 657.32 105.895 656.031C105.051 654.73 104.629 653.324 104.629 651.812C104.629 649.34 105.443 647.418 107.072 646.047C108.701 644.676 111.033 643.99 114.068 643.99L115.422 643.99L115.422 656.875C117.297 656.828 118.814 656.283 119.975 655.24C121.123 654.186 121.697 652.85 121.697 651.232C121.697 650.084 121.463 649.111 120.994 648.314C120.525 647.518 119.904 646.82 119.131 646.223L120.678 644.236C123.127 645.83 124.352 648.221 124.352 651.408ZM107.301 651.812C107.301 653.125 107.781 654.227 108.742 655.117C109.691 656.008 111.027 656.559 112.75 656.77L112.75 647.242L112.504 647.242C110.852 647.336 109.574 647.781 108.672 648.578C107.758 649.375 107.301 650.453 107.301 651.812ZM124 628.469C123.625 628.656 122.957 628.809 121.996 628.926C123.566 630.437 124.352 632.242 124.352 634.34C124.352 636.215 123.824 637.756 122.77 638.963C121.703 640.158 120.355 640.756 118.727 640.756C116.746 640.756 115.211 640.006 114.121 638.506C113.02 636.994 112.469 634.873 112.469 632.143L112.469 628.979L110.975 628.979C109.838 628.979 108.936 629.318 108.268 629.998C107.588 630.678 107.248 631.68 107.248 633.004C107.248 634.164 107.541 635.137 108.127 635.922C108.713 636.707 109.422 637.1 110.254 637.1L110.254 640.369C109.305 640.369 108.391 640.035 107.512 639.367C106.621 638.687 105.918 637.773 105.402 636.625C104.887 635.465 104.629 634.193 104.629 632.811C104.629 630.619 105.18 628.902 106.281 627.66C107.371 626.418 108.877 625.773 110.799 625.727L119.553 625.727C121.299 625.727 122.687 625.504 123.719 625.059L124 625.059L124 628.469ZM121.521 633.865C121.521 632.846 121.258 631.879 120.73 630.965C120.203 630.051 119.518 629.389 118.674 628.979L114.771 628.979L114.771 631.527C114.771 635.512 115.937 637.504 118.27 637.504C119.289 637.504 120.086 637.164 120.66 636.484C121.234 635.805 121.521 634.932 121.521 633.865ZM114.332 621.42C111.414 621.42 109.07 620.729 107.301 619.346C105.52 617.963 104.629 616.152 104.629 613.914C104.629 611.687 105.391 609.924 106.914 608.623L97 608.623L97 605.371L124 605.371L124 608.359L121.961 608.518C123.555 609.818 124.352 611.629 124.352 613.949C124.352 616.152 123.449 617.951 121.645 619.346C119.84 620.729 117.484 621.42 114.578 621.42L114.332 621.42ZM114.701 618.168C116.857 618.168 118.545 617.723 119.764 616.832C120.982 615.941 121.592 614.711 121.592 613.141C121.592 611.078 120.666 609.572 118.814 608.623L110.078 608.623C108.285 609.596 107.389 611.09 107.389 613.105C107.389 614.699 108.004 615.941 109.234 616.832C110.465 617.723 112.287 618.168 114.701 618.168ZM113.646 581.482L113.646 587.494L124 587.494L124 590.887L98.4062 590.887L98.4062 582.414C98.4062 579.531 99.0625 577.316 100.375 575.77C101.687 574.211 103.598 573.432 106.105 573.432C107.699 573.432 109.088 573.865 110.271 574.732C111.455 575.588 112.34 576.783 112.926 578.318L123.789 572.307L124 572.307L124 575.928L113.646 581.482ZM110.887 587.494L110.887 582.309C110.887 580.633 110.453 579.303 109.586 578.318C108.719 577.322 107.559 576.824 106.105 576.824C104.523 576.824 103.311 577.299 102.467 578.248C101.623 579.186 101.195 580.545 101.184 582.326L101.184 587.494L110.887 587.494ZM114.332 569.986C111.414 569.986 109.07 569.295 107.301 567.912C105.52 566.529 104.629 564.719 104.629 562.48C104.629 560.254 105.391 558.49 106.914 557.189L97 557.189L97 553.937L124 553.937L124 556.926L121.961 557.084C123.555 558.385 124.352 560.195 124.352 562.516C124.352 564.719 123.449 566.518 121.645 567.912C119.84 569.295 117.484 569.986 114.578 569.986L114.332 569.986ZM114.701 566.734C116.857 566.734 118.545 566.289 119.764 565.398C120.982 564.508 121.592 563.277 121.592 561.707C121.592 559.645 120.666 558.139 118.814 557.189L110.078 557.189C108.285 558.162 107.389 559.656 107.389 561.672C107.389 563.266 108.004 564.508 109.234 565.398C110.465 566.289 112.287 566.734 114.701 566.734Z" fill="#565E76"/>
</svg>
