<svg width="1778" height="1270" viewBox="0 0 1778 1270" fill="none" xmlns="http://www.w3.org/2000/svg">
<path d="M0 1270H1778V0H0V1270Z" fill="white"/>
<path d="M72.5669 195H1593V1178.47H72.5669V195Z" fill="#F4F4F5"/>
<path d="M1217.48 1164.06V1165.33H1218.75H1231.83V1198.67H1011.96V1165.33H1017.86H1019.13V1164.06V1136.64H1089.61H1090.88V1135.37V532.711V531.441H1089.61H1040.66V512.457H1109.86V956.004V957.274H1111.13H1138.56V1135.37V1136.64H1139.83H1217.48V1164.06ZM1472.07 1164.8V1136.85H1555.95H1557.22V1135.58V611.629V610.359H1555.95H1263.07V532.711V531.441H1261.8H1227.2V512.457H1261.8H1263.07V511.187V462.236H1282.05V590.105V591.375H1283.32H1555.95H1557.22V590.105V229.757V228.487H1555.95H1283.32H1282.05V229.757V337.73H1263.07V229.757V228.487H1261.8H891.837V189.285H1598.93V228.487H1597.73V229.757V1135.58V1136.85H1598.93V1196.93H1463.72V1166.07H1470.8H1472.07V1164.8ZM84.9224 189.605H751.139V230.11H644.792H643.522V231.38V366.427H624.538V231.38V230.11H623.268H84.9224H83.6524V231.38V956.004V957.274H84.9224H162.832V993.657V994.927H164.102H175.489V1025.78H105.793H104.523V1027.05V1196.93H44.45V189.285H83.6524V189.605H84.9224ZM765.487 1198.67H603.016L603.014 1027.75V1026.48H601.744H409.303V957.274H623.268H624.538V956.004V512.457H923.326V531.441H666.316H665.046V532.711V1135.37V1136.64H666.316H758.314V1164.06V1165.33H759.584H765.487V1198.67Z" fill="white" stroke="#565E76"/>
<path d="M1229.96 1196.93H1465.35V1166.07H1229.96V1196.93Z" fill="white" stroke="#565E76"/>
<path d="M762.433 1196.93H1014.53V1166.07H762.433V1196.93Z" fill="white" stroke="#565E76"/>
<path d="M102.891 1196.93H605.442V1166.07H102.891V1196.93Z" fill="white" stroke="#565E76"/>
<path d="M286.561 1025.78H409.25V999.102H286.561V1025.78Z" fill="white" stroke="#565E76"/>
<path d="M286.561 1000.74H409.25V957.36H286.561V1000.74Z" fill="white" stroke="#565E76"/>
<path d="M160.515 991.878L271.719 916.547" stroke="#565E76"/>
<path d="M1200.82 446.616L1272.56 335.412" stroke="#565E76"/>
<path d="M1111.13 521.95L1215.16 586.52" stroke="#565E76"/>
<path d="M946.12 590.108L1042.98 521.95" stroke="#565E76"/>
<path d="M770.347 123.764L895.899 209.86" stroke="#565E76"/>
<path d="M634.03 364.111L695.013 471.729" stroke="#565E76"/>
<path d="M1217.43 1167.71H1473.7V1136.85H1217.43V1167.71Z" fill="white" stroke="#565E76"/>
<path d="M758.259 1167.71H1018.7V1136.85H758.259V1167.71Z" fill="white" stroke="#565E76"/>
<path d="M1280.05 278.579H1473.7V226.853H1280.05V278.579Z" stroke="#565E76"/>
<path d="M904.358 270.23H972.782V226.853H904.358V270.23Z" stroke="#565E76"/>
<path d="M553.716 362.066H626.313V231.028H553.716V362.066Z" stroke="#565E76"/>
<path d="M290.216 658.759C290.414 658.826 290.48 658.958 290.414 659.156L290.051 660.179C289.985 660.344 289.853 660.41 289.688 660.344L288.763 660.08C288.07 659.849 287.277 659.684 286.419 659.684C285.032 659.684 284.108 660.377 284.108 661.401C284.108 662.028 284.537 662.59 285.296 663.118L288.235 665.033C289.853 666.09 290.546 667.576 290.546 669.656V670.449C290.546 670.647 290.447 670.746 290.249 670.746H282.754C282.556 670.746 282.456 670.647 282.456 670.449V669.392C282.456 669.194 282.556 669.095 282.754 669.095H288.73C288.73 668.005 288.367 667.147 287.343 666.486L284.372 664.538C282.952 663.613 282.291 662.623 282.291 661.401C282.291 659.255 283.876 658 286.419 658C287.443 658 288.367 658.165 289.325 658.462L290.216 658.759Z" fill="white"/>
<path d="M266.7 581.658H419.1V734.058H266.7V581.658Z" fill="#565E76"/>
<path d="M311.673 611.374V615.979H315.224V618.493H311.673V630.288C311.673 631.05 311.832 631.624 312.148 632.011C312.464 632.386 313.003 632.573 313.765 632.573C314.14 632.573 314.656 632.503 315.312 632.362V634.999C314.457 635.233 313.625 635.351 312.816 635.351C311.363 635.351 310.267 634.911 309.529 634.032C308.791 633.153 308.421 631.905 308.421 630.288V618.493H304.958V615.979H308.421V611.374H311.673ZM317.826 625.313C317.826 623.45 318.189 621.774 318.916 620.286C319.654 618.798 320.673 617.649 321.974 616.841C323.287 616.032 324.781 615.628 326.457 615.628C329.046 615.628 331.138 616.524 332.732 618.317C334.337 620.11 335.14 622.495 335.14 625.472V625.7C335.14 627.552 334.783 629.216 334.068 630.692C333.365 632.157 332.351 633.3 331.027 634.12C329.714 634.94 328.203 635.351 326.492 635.351C323.914 635.351 321.822 634.454 320.216 632.661C318.623 630.868 317.826 628.495 317.826 625.542V625.313ZM321.095 625.7C321.095 627.81 321.582 629.503 322.554 630.78C323.539 632.058 324.851 632.696 326.492 632.696C328.144 632.696 329.457 632.052 330.429 630.763C331.402 629.462 331.888 627.646 331.888 625.313C331.888 623.228 331.39 621.54 330.394 620.251C329.41 618.95 328.097 618.3 326.457 618.3C324.851 618.3 323.556 618.938 322.572 620.216C321.587 621.493 321.095 623.321 321.095 625.7ZM343.63 611.374V615.979H347.181V618.493H343.63V630.288C343.63 631.05 343.789 631.624 344.105 632.011C344.421 632.386 344.96 632.573 345.722 632.573C346.097 632.573 346.613 632.503 347.269 632.362V634.999C346.414 635.233 345.582 635.351 344.773 635.351C343.32 635.351 342.224 634.911 341.486 634.032C340.748 633.153 340.378 631.905 340.378 630.288V618.493H336.916V615.979H340.378V611.374H343.63ZM362.738 634.999C362.55 634.624 362.398 633.956 362.281 632.995C360.769 634.565 358.964 635.351 356.867 635.351C354.992 635.351 353.451 634.823 352.244 633.769C351.048 632.702 350.451 631.354 350.451 629.726C350.451 627.745 351.201 626.21 352.701 625.12C354.212 624.019 356.333 623.468 359.064 623.468H362.228V621.974C362.228 620.837 361.888 619.935 361.208 619.267C360.529 618.587 359.527 618.247 358.203 618.247C357.042 618.247 356.07 618.54 355.285 619.126C354.5 619.712 354.107 620.421 354.107 621.253H350.837C350.837 620.304 351.171 619.39 351.839 618.511C352.519 617.62 353.433 616.917 354.582 616.401C355.742 615.886 357.013 615.628 358.396 615.628C360.587 615.628 362.304 616.179 363.546 617.28C364.789 618.37 365.433 619.876 365.48 621.798V630.552C365.48 632.298 365.703 633.687 366.148 634.718V634.999H362.738ZM357.341 632.521C358.361 632.521 359.328 632.257 360.242 631.729C361.156 631.202 361.818 630.517 362.228 629.673V625.771H359.679C355.695 625.771 353.703 626.937 353.703 629.269C353.703 630.288 354.042 631.085 354.722 631.659C355.402 632.233 356.275 632.521 357.341 632.521ZM374.111 634.999H370.859V607.999H374.111V634.999Z" fill="white"/>
<path d="M310.697 686.999H293.927V684.661L302.787 674.817C304.099 673.329 305.001 672.122 305.494 671.196C305.998 670.259 306.25 669.292 306.25 668.296C306.25 666.96 305.845 665.864 305.037 665.009C304.228 664.153 303.15 663.726 301.802 663.726C300.185 663.726 298.925 664.188 298.023 665.114C297.132 666.028 296.687 667.306 296.687 668.946H293.435C293.435 666.591 294.191 664.687 295.703 663.233C297.226 661.78 299.259 661.054 301.802 661.054C304.181 661.054 306.062 661.681 307.445 662.935C308.828 664.177 309.519 665.835 309.519 667.909C309.519 670.429 307.914 673.429 304.703 676.909L297.847 684.345H310.697V686.999ZM327.871 678.403H331.421V681.058H327.871V686.999H324.601V681.058H312.947V679.142L324.408 661.405H327.871V678.403ZM316.638 678.403H324.601V665.853L324.214 666.556L316.638 678.403ZM350.406 676.083C350.406 679.892 349.755 682.722 348.455 684.573C347.154 686.425 345.121 687.351 342.355 687.351C339.625 687.351 337.603 686.448 336.291 684.644C334.978 682.827 334.298 680.12 334.251 676.522V672.181C334.251 668.419 334.902 665.624 336.203 663.796C337.503 661.968 339.542 661.054 342.32 661.054C345.074 661.054 347.101 661.938 348.402 663.708C349.703 665.466 350.371 668.185 350.406 671.864V676.083ZM347.154 671.636C347.154 668.882 346.767 666.878 345.994 665.624C345.22 664.358 343.996 663.726 342.32 663.726C340.656 663.726 339.443 664.353 338.681 665.606C337.919 666.86 337.527 668.788 337.503 671.39V676.593C337.503 679.358 337.902 681.403 338.699 682.728C339.507 684.04 340.726 684.696 342.355 684.696C343.96 684.696 345.15 684.075 345.923 682.833C346.708 681.591 347.119 679.634 347.154 676.962V671.636ZM366.894 667.979L366.982 670.089C368.376 668.448 370.257 667.628 372.625 667.628C375.285 667.628 377.095 668.647 378.056 670.687C378.689 669.772 379.509 669.034 380.517 668.472C381.537 667.909 382.738 667.628 384.121 667.628C388.292 667.628 390.414 669.837 390.484 674.255V686.999H387.232V674.448C387.232 673.089 386.921 672.075 386.3 671.407C385.679 670.728 384.636 670.388 383.171 670.388C381.964 670.388 380.962 670.751 380.166 671.478C379.369 672.192 378.906 673.159 378.777 674.378V686.999H375.507V674.536C375.507 671.771 374.154 670.388 371.447 670.388C369.314 670.388 367.855 671.296 367.07 673.112V686.999H363.818V667.979H366.894Z" fill="white"/>
<path d="M397.874 667H390.886V666.026L394.578 661.924C395.125 661.304 395.5 660.801 395.706 660.416C395.916 660.025 396.021 659.622 396.021 659.207C396.021 658.65 395.852 658.194 395.515 657.837C395.178 657.481 394.729 657.303 394.167 657.303C393.494 657.303 392.969 657.496 392.593 657.881C392.222 658.262 392.036 658.794 392.036 659.478H390.681C390.681 658.497 390.996 657.703 391.626 657.098C392.261 656.492 393.108 656.189 394.167 656.189C395.159 656.189 395.942 656.451 396.519 656.973C397.095 657.491 397.383 658.182 397.383 659.046C397.383 660.096 396.714 661.346 395.376 662.796L392.52 665.894H397.874V667Z" fill="white"/>
<path d="M1378.98 416V398.938H1384.56C1386.41 398.938 1387.8 399.32 1388.73 400.086C1389.67 400.852 1390.14 401.984 1390.14 403.484C1390.14 404.281 1389.91 404.988 1389.46 405.605C1389 406.215 1388.39 406.688 1387.61 407.023C1388.53 407.281 1389.25 407.773 1389.79 408.5C1390.32 409.219 1390.59 410.078 1390.59 411.078C1390.59 412.609 1390.1 413.812 1389.11 414.688C1388.11 415.562 1386.71 416 1384.9 416H1378.98ZM1381.23 408.02V414.16H1384.95C1385.99 414.16 1386.82 413.891 1387.42 413.352C1388.03 412.805 1388.33 412.055 1388.33 411.102C1388.33 409.047 1387.21 408.02 1384.98 408.02H1381.23ZM1381.23 406.215H1384.63C1385.61 406.215 1386.4 405.969 1386.98 405.477C1387.58 404.984 1387.88 404.316 1387.88 403.473C1387.88 402.535 1387.6 401.855 1387.05 401.434C1386.51 401.004 1385.68 400.789 1384.56 400.789H1381.23V406.215ZM1401.42 416C1401.3 415.75 1401.2 415.305 1401.12 414.664C1400.11 415.711 1398.91 416.234 1397.51 416.234C1396.26 416.234 1395.23 415.883 1394.43 415.18C1393.63 414.469 1393.23 413.57 1393.23 412.484C1393.23 411.164 1393.73 410.141 1394.73 409.414C1395.74 408.68 1397.15 408.312 1398.97 408.312H1401.08V407.316C1401.08 406.559 1400.86 405.957 1400.4 405.512C1399.95 405.059 1399.28 404.832 1398.4 404.832C1397.62 404.832 1396.98 405.027 1396.45 405.418C1395.93 405.809 1395.67 406.281 1395.67 406.836H1393.49C1393.49 406.203 1393.71 405.594 1394.16 405.008C1394.61 404.414 1395.22 403.945 1395.98 403.602C1396.76 403.258 1397.61 403.086 1398.53 403.086C1399.99 403.086 1401.13 403.453 1401.96 404.188C1402.79 404.914 1403.22 405.918 1403.25 407.199V413.035C1403.25 414.199 1403.4 415.125 1403.7 415.812V416H1401.42ZM1397.82 414.348C1398.5 414.348 1399.15 414.172 1399.76 413.82C1400.37 413.469 1400.81 413.012 1401.08 412.449V409.848H1399.38C1396.73 409.848 1395.4 410.625 1395.4 412.18C1395.4 412.859 1395.62 413.391 1396.08 413.773C1396.53 414.156 1397.11 414.348 1397.82 414.348ZM1409.59 400.25V403.32H1411.96V404.996H1409.59V412.859C1409.59 413.367 1409.7 413.75 1409.91 414.008C1410.12 414.258 1410.48 414.383 1410.98 414.383C1411.23 414.383 1411.58 414.336 1412.02 414.242V416C1411.45 416.156 1410.89 416.234 1410.35 416.234C1409.38 416.234 1408.65 415.941 1408.16 415.355C1407.67 414.77 1407.42 413.938 1407.42 412.859V404.996H1405.11V403.32H1407.42V400.25H1409.59ZM1416.67 404.855C1417.63 403.676 1418.88 403.086 1420.42 403.086C1423.1 403.086 1424.45 404.598 1424.47 407.621V416H1422.3V407.609C1422.3 406.695 1422.09 406.02 1421.67 405.582C1421.27 405.145 1420.63 404.926 1419.76 404.926C1419.06 404.926 1418.44 405.113 1417.91 405.488C1417.38 405.863 1416.96 406.355 1416.67 406.965V416H1414.5V398H1416.67V404.855ZM1433.85 405.266C1433.52 405.211 1433.16 405.184 1432.78 405.184C1431.36 405.184 1430.39 405.789 1429.89 407V416H1427.72V403.32H1429.83L1429.86 404.785C1430.57 403.652 1431.58 403.086 1432.89 403.086C1433.31 403.086 1433.63 403.141 1433.85 403.25V405.266ZM1435.04 409.543C1435.04 408.301 1435.29 407.184 1435.77 406.191C1436.26 405.199 1436.94 404.434 1437.81 403.895C1438.68 403.355 1439.68 403.086 1440.8 403.086C1442.52 403.086 1443.92 403.684 1444.98 404.879C1446.05 406.074 1446.59 407.664 1446.59 409.648V409.801C1446.59 411.035 1446.35 412.145 1445.87 413.129C1445.4 414.105 1444.73 414.867 1443.84 415.414C1442.97 415.961 1441.96 416.234 1440.82 416.234C1439.1 416.234 1437.71 415.637 1436.64 414.441C1435.57 413.246 1435.04 411.664 1435.04 409.695V409.543ZM1437.22 409.801C1437.22 411.207 1437.55 412.336 1438.2 413.188C1438.85 414.039 1439.73 414.465 1440.82 414.465C1441.92 414.465 1442.8 414.035 1443.45 413.176C1444.09 412.309 1444.42 411.098 1444.42 409.543C1444.42 408.152 1444.09 407.027 1443.42 406.168C1442.77 405.301 1441.89 404.867 1440.8 404.867C1439.73 404.867 1438.86 405.293 1438.21 406.145C1437.55 406.996 1437.22 408.215 1437.22 409.801ZM1448.73 409.543C1448.73 408.301 1448.97 407.184 1449.46 406.191C1449.95 405.199 1450.63 404.434 1451.5 403.895C1452.37 403.355 1453.37 403.086 1454.48 403.086C1456.21 403.086 1457.61 403.684 1458.67 404.879C1459.74 406.074 1460.27 407.664 1460.27 409.648V409.801C1460.27 411.035 1460.04 412.145 1459.56 413.129C1459.09 414.105 1458.41 414.867 1457.53 415.414C1456.66 415.961 1455.65 416.234 1454.51 416.234C1452.79 416.234 1451.39 415.637 1450.32 414.441C1449.26 413.246 1448.73 411.664 1448.73 409.695V409.543ZM1450.91 409.801C1450.91 411.207 1451.23 412.336 1451.88 413.188C1452.54 414.039 1453.41 414.465 1454.51 414.465C1455.61 414.465 1456.48 414.035 1457.13 413.176C1457.78 412.309 1458.11 411.098 1458.11 409.543C1458.11 408.152 1457.77 407.027 1457.11 406.168C1456.45 405.301 1455.58 404.867 1454.48 404.867C1453.41 404.867 1452.55 405.293 1451.89 406.145C1451.24 406.996 1450.91 408.215 1450.91 409.801ZM1465.03 403.32L1465.09 404.727C1466.02 403.633 1467.27 403.086 1468.85 403.086C1470.62 403.086 1471.83 403.766 1472.47 405.125C1472.89 404.516 1473.44 404.023 1474.11 403.648C1474.79 403.273 1475.59 403.086 1476.52 403.086C1479.3 403.086 1480.71 404.559 1480.76 407.504V416H1478.59V407.633C1478.59 406.727 1478.38 406.051 1477.97 405.605C1477.55 405.152 1476.86 404.926 1475.88 404.926C1475.08 404.926 1474.41 405.168 1473.88 405.652C1473.35 406.129 1473.04 406.773 1472.95 407.586V416H1470.77V407.691C1470.77 405.848 1469.87 404.926 1468.07 404.926C1466.64 404.926 1465.67 405.531 1465.15 406.742V416H1462.98V403.32H1465.03Z" fill="#565E76"/>
<path d="M1388.73 460H1384.5V443.682L1379.45 445.249V441.807L1388.28 438.643H1388.73V460ZM1410.3 460H1395.68V457.1L1402.58 449.746C1403.52 448.711 1404.22 447.808 1404.67 447.036C1405.13 446.265 1405.36 445.532 1405.36 444.839C1405.36 443.892 1405.12 443.149 1404.64 442.612C1404.16 442.065 1403.48 441.792 1402.59 441.792C1401.63 441.792 1400.88 442.124 1400.32 442.788C1399.77 443.442 1399.5 444.307 1399.5 445.381H1395.25C1395.25 444.082 1395.56 442.896 1396.17 441.821C1396.8 440.747 1397.68 439.907 1398.81 439.302C1399.94 438.687 1401.23 438.379 1402.66 438.379C1404.86 438.379 1406.57 438.906 1407.78 439.961C1409 441.016 1409.61 442.505 1409.61 444.429C1409.61 445.483 1409.33 446.558 1408.79 447.651C1408.24 448.745 1407.3 450.02 1405.97 451.475L1401.13 456.587H1410.3V460ZM1413.3 457.92C1413.3 457.246 1413.52 456.699 1413.97 456.279C1414.43 455.859 1415 455.649 1415.69 455.649C1416.38 455.649 1416.95 455.859 1417.4 456.279C1417.86 456.699 1418.09 457.246 1418.09 457.92C1418.09 458.584 1417.86 459.126 1417.42 459.546C1416.97 459.956 1416.39 460.161 1415.69 460.161C1414.99 460.161 1414.42 459.956 1413.97 459.546C1413.52 459.126 1413.3 458.584 1413.3 457.92ZM1422.26 449.512L1423.49 438.672H1435.45V442.202H1426.97L1426.44 446.787C1427.44 446.25 1428.51 445.981 1429.65 445.981C1431.68 445.981 1433.27 446.611 1434.42 447.871C1435.57 449.131 1436.15 450.894 1436.15 453.159C1436.15 454.536 1435.86 455.771 1435.27 456.865C1434.7 457.949 1433.87 458.794 1432.78 459.399C1431.7 459.995 1430.42 460.293 1428.94 460.293C1427.65 460.293 1426.46 460.034 1425.35 459.517C1424.25 458.989 1423.38 458.252 1422.73 457.305C1422.1 456.357 1421.76 455.278 1421.72 454.067H1425.91C1426 454.956 1426.31 455.649 1426.83 456.147C1427.37 456.636 1428.07 456.88 1428.93 456.88C1429.89 456.88 1430.62 456.538 1431.14 455.854C1431.66 455.161 1431.92 454.185 1431.92 452.925C1431.92 451.714 1431.62 450.786 1431.02 450.142C1430.43 449.497 1429.58 449.175 1428.49 449.175C1427.48 449.175 1426.67 449.438 1426.04 449.966L1425.63 450.347L1422.26 449.512ZM1450.48 444.15L1450.61 445.923C1451.73 444.546 1453.25 443.857 1455.16 443.857C1457.21 443.857 1458.61 444.663 1459.37 446.274C1460.48 444.663 1462.07 443.857 1464.13 443.857C1465.85 443.857 1467.13 444.36 1467.97 445.366C1468.81 446.362 1469.23 447.866 1469.23 449.878V460H1464.98V449.893C1464.98 448.994 1464.8 448.34 1464.45 447.93C1464.1 447.51 1463.48 447.3 1462.59 447.3C1461.32 447.3 1460.44 447.905 1459.95 449.116L1459.97 460H1455.74V449.907C1455.74 448.989 1455.55 448.325 1455.19 447.915C1454.83 447.505 1454.22 447.3 1453.35 447.3C1452.15 447.3 1451.28 447.798 1450.74 448.794V460H1446.51V444.15H1450.48Z" fill="#565E76"/>
<path d="M1477.5 441H1470.68V439.646L1473.9 436.215C1474.34 435.732 1474.66 435.31 1474.87 434.95C1475.09 434.59 1475.2 434.248 1475.2 433.925C1475.2 433.483 1475.08 433.136 1474.86 432.886C1474.64 432.631 1474.32 432.503 1473.9 432.503C1473.46 432.503 1473.1 432.658 1472.84 432.968C1472.59 433.273 1472.46 433.676 1472.46 434.178H1470.48C1470.48 433.572 1470.62 433.018 1470.91 432.517C1471.2 432.015 1471.61 431.623 1472.14 431.341C1472.67 431.054 1473.27 430.91 1473.94 430.91C1474.96 430.91 1475.76 431.156 1476.32 431.648C1476.89 432.141 1477.18 432.836 1477.18 433.733C1477.18 434.226 1477.05 434.727 1476.79 435.237C1476.54 435.748 1476.1 436.342 1475.48 437.021L1473.22 439.407H1477.5V441Z" fill="#565E76"/>
<path d="M911.094 350H908.832V342.113H900.23V350H897.98V332.938H900.23V340.273H908.832V332.938H911.094V350ZM922.578 350C922.453 349.75 922.352 349.305 922.273 348.664C921.266 349.711 920.062 350.234 918.664 350.234C917.414 350.234 916.387 349.883 915.582 349.18C914.785 348.469 914.387 347.57 914.387 346.484C914.387 345.164 914.887 344.141 915.887 343.414C916.895 342.68 918.309 342.312 920.129 342.312H922.238V341.316C922.238 340.559 922.012 339.957 921.559 339.512C921.105 339.059 920.438 338.832 919.555 338.832C918.781 338.832 918.133 339.027 917.609 339.418C917.086 339.809 916.824 340.281 916.824 340.836H914.645C914.645 340.203 914.867 339.594 915.312 339.008C915.766 338.414 916.375 337.945 917.141 337.602C917.914 337.258 918.762 337.086 919.684 337.086C921.145 337.086 922.289 337.453 923.117 338.188C923.945 338.914 924.375 339.918 924.406 341.199V347.035C924.406 348.199 924.555 349.125 924.852 349.812V350H922.578ZM918.98 348.348C919.66 348.348 920.305 348.172 920.914 347.82C921.523 347.469 921.965 347.012 922.238 346.449V343.848H920.539C917.883 343.848 916.555 344.625 916.555 346.18C916.555 346.859 916.781 347.391 917.234 347.773C917.688 348.156 918.27 348.348 918.98 348.348ZM930.16 350H927.992V332H930.16V350ZM935.996 350H933.828V332H935.996V350ZM950.703 347.012L953.141 337.32H955.309L951.617 350H949.859L946.777 340.391L943.777 350H942.02L938.34 337.32H940.496L942.992 346.812L945.945 337.32H947.691L950.703 347.012ZM965.352 350C965.227 349.75 965.125 349.305 965.047 348.664C964.039 349.711 962.836 350.234 961.438 350.234C960.188 350.234 959.16 349.883 958.355 349.18C957.559 348.469 957.16 347.57 957.16 346.484C957.16 345.164 957.66 344.141 958.66 343.414C959.668 342.68 961.082 342.312 962.902 342.312H965.012V341.316C965.012 340.559 964.785 339.957 964.332 339.512C963.879 339.059 963.211 338.832 962.328 338.832C961.555 338.832 960.906 339.027 960.383 339.418C959.859 339.809 959.598 340.281 959.598 340.836H957.418C957.418 340.203 957.641 339.594 958.086 339.008C958.539 338.414 959.148 337.945 959.914 337.602C960.688 337.258 961.535 337.086 962.457 337.086C963.918 337.086 965.062 337.453 965.891 338.188C966.719 338.914 967.148 339.918 967.18 341.199V347.035C967.18 348.199 967.328 349.125 967.625 349.812V350H965.352ZM961.754 348.348C962.434 348.348 963.078 348.172 963.688 347.82C964.297 347.469 964.738 347.012 965.012 346.449V343.848H963.312C960.656 343.848 959.328 344.625 959.328 346.18C959.328 346.859 959.555 347.391 960.008 347.773C960.461 348.156 961.043 348.348 961.754 348.348ZM974.539 346.824L977.492 337.32H979.812L974.715 351.957C973.926 354.066 972.672 355.121 970.953 355.121L970.543 355.086L969.734 354.934V353.176L970.32 353.223C971.055 353.223 971.625 353.074 972.031 352.777C972.445 352.48 972.785 351.938 973.051 351.148L973.531 349.859L969.008 337.32H971.375L974.539 346.824Z" fill="#565E76"/>
<path d="M907.733 394H903.5V377.682L898.446 379.249V375.807L907.279 372.643H907.733V394ZM927.201 385.973H929.618V389.386H927.201V394H922.968V389.386H914.223L914.032 386.72L922.924 372.672H927.201V385.973ZM918.251 385.973H922.968V378.443L922.689 378.927L918.251 385.973ZM932.299 391.92C932.299 391.246 932.523 390.699 932.973 390.279C933.432 389.859 934.003 389.649 934.687 389.649C935.38 389.649 935.951 389.859 936.4 390.279C936.859 390.699 937.089 391.246 937.089 391.92C937.089 392.584 936.864 393.126 936.415 393.546C935.966 393.956 935.39 394.161 934.687 394.161C933.993 394.161 933.422 393.956 932.973 393.546C932.523 393.126 932.299 392.584 932.299 391.92ZM955.253 394H940.634V391.1L947.533 383.746C948.48 382.711 949.179 381.808 949.628 381.036C950.087 380.265 950.316 379.532 950.316 378.839C950.316 377.892 950.077 377.149 949.599 376.612C949.12 376.065 948.437 375.792 947.548 375.792C946.591 375.792 945.834 376.124 945.277 376.788C944.73 377.442 944.457 378.307 944.457 379.381H940.209C940.209 378.082 940.517 376.896 941.132 375.821C941.757 374.747 942.636 373.907 943.769 373.302C944.901 372.687 946.186 372.379 947.621 372.379C949.818 372.379 951.522 372.906 952.733 373.961C953.954 375.016 954.564 376.505 954.564 378.429C954.564 379.483 954.291 380.558 953.744 381.651C953.197 382.745 952.26 384.02 950.932 385.475L946.083 390.587H955.253V394ZM969.477 378.15L969.608 379.923C970.731 378.546 972.25 377.857 974.164 377.857C976.205 377.857 977.606 378.663 978.368 380.274C979.481 378.663 981.068 377.857 983.129 377.857C984.848 377.857 986.127 378.36 986.967 379.366C987.807 380.362 988.227 381.866 988.227 383.878V394H983.979V383.893C983.979 382.994 983.803 382.34 983.451 381.93C983.1 381.51 982.479 381.3 981.591 381.3C980.321 381.3 979.442 381.905 978.954 383.116L978.969 394H974.735V383.907C974.735 382.989 974.555 382.325 974.193 381.915C973.832 381.505 973.217 381.3 972.348 381.3C971.146 381.3 970.277 381.798 969.74 382.794V394H965.507V378.15H969.477Z" fill="#565E76"/>
<path d="M996.499 375H989.677V373.646L992.896 370.215C993.339 369.732 993.664 369.31 993.874 368.95C994.088 368.59 994.195 368.248 994.195 367.925C994.195 367.483 994.084 367.136 993.86 366.886C993.637 366.631 993.318 366.503 992.903 366.503C992.457 366.503 992.104 366.658 991.844 366.968C991.589 367.273 991.461 367.676 991.461 368.178H989.479C989.479 367.572 989.622 367.018 989.909 366.517C990.201 366.015 990.611 365.623 991.14 365.341C991.668 365.054 992.268 364.91 992.938 364.91C993.963 364.91 994.758 365.156 995.323 365.648C995.893 366.141 996.178 366.836 996.178 367.733C996.178 368.226 996.05 368.727 995.795 369.237C995.54 369.748 995.102 370.342 994.482 371.021L992.22 373.407H996.499V375Z" fill="#565E76"/>
<path d="M165.242 329.16H173.328V331H162.98V313.938H165.242V329.16ZM177.91 331H175.742V318.32H177.91V331ZM175.566 314.957C175.566 314.605 175.672 314.309 175.883 314.066C176.102 313.824 176.422 313.703 176.844 313.703C177.266 313.703 177.586 313.824 177.805 314.066C178.023 314.309 178.133 314.605 178.133 314.957C178.133 315.309 178.023 315.602 177.805 315.836C177.586 316.07 177.266 316.188 176.844 316.188C176.422 316.188 176.102 316.07 175.883 315.836C175.672 315.602 175.566 315.309 175.566 314.957ZM185.574 328.059L188.715 318.32H190.93L186.383 331H184.73L180.137 318.32H182.352L185.574 328.059ZM195.371 331H193.203V318.32H195.371V331ZM193.027 314.957C193.027 314.605 193.133 314.309 193.344 314.066C193.562 313.824 193.883 313.703 194.305 313.703C194.727 313.703 195.047 313.824 195.266 314.066C195.484 314.309 195.594 314.605 195.594 314.957C195.594 315.309 195.484 315.602 195.266 315.836C195.047 316.07 194.727 316.188 194.305 316.188C193.883 316.188 193.562 316.07 193.344 315.836C193.133 315.602 193.027 315.309 193.027 314.957ZM200.902 318.32L200.973 319.914C201.941 318.695 203.207 318.086 204.77 318.086C207.449 318.086 208.801 319.598 208.824 322.621V331H206.656V322.609C206.648 321.695 206.438 321.02 206.023 320.582C205.617 320.145 204.98 319.926 204.113 319.926C203.41 319.926 202.793 320.113 202.262 320.488C201.73 320.863 201.316 321.355 201.02 321.965V331H198.852V318.32H200.902ZM211.578 324.555C211.578 322.578 212.035 321.008 212.949 319.844C213.863 318.672 215.074 318.086 216.582 318.086C218.129 318.086 219.336 318.633 220.203 319.727L220.309 318.32H222.289V330.695C222.289 332.336 221.801 333.629 220.824 334.574C219.855 335.52 218.551 335.992 216.91 335.992C215.996 335.992 215.102 335.797 214.227 335.406C213.352 335.016 212.684 334.48 212.223 333.801L213.348 332.5C214.277 333.648 215.414 334.223 216.758 334.223C217.812 334.223 218.633 333.926 219.219 333.332C219.812 332.738 220.109 331.902 220.109 330.824V329.734C219.242 330.734 218.059 331.234 216.559 331.234C215.074 331.234 213.871 330.637 212.949 329.441C212.035 328.246 211.578 326.617 211.578 324.555ZM213.758 324.801C213.758 326.23 214.051 327.355 214.637 328.176C215.223 328.988 216.043 329.395 217.098 329.395C218.465 329.395 219.469 328.773 220.109 327.531V321.742C219.445 320.531 218.449 319.926 217.121 319.926C216.066 319.926 215.242 320.336 214.648 321.156C214.055 321.977 213.758 323.191 213.758 324.801ZM237.652 320.266C237.324 320.211 236.969 320.184 236.586 320.184C235.164 320.184 234.199 320.789 233.691 322V331H231.523V318.32H233.633L233.668 319.785C234.379 318.652 235.387 318.086 236.691 318.086C237.113 318.086 237.434 318.141 237.652 318.25V320.266ZM238.848 324.543C238.848 323.301 239.09 322.184 239.574 321.191C240.066 320.199 240.746 319.434 241.613 318.895C242.488 318.355 243.484 318.086 244.602 318.086C246.328 318.086 247.723 318.684 248.785 319.879C249.855 321.074 250.391 322.664 250.391 324.648V324.801C250.391 326.035 250.152 327.145 249.676 328.129C249.207 329.105 248.531 329.867 247.648 330.414C246.773 330.961 245.766 331.234 244.625 331.234C242.906 331.234 241.512 330.637 240.441 329.441C239.379 328.246 238.848 326.664 238.848 324.695V324.543ZM241.027 324.801C241.027 326.207 241.352 327.336 242 328.188C242.656 329.039 243.531 329.465 244.625 329.465C245.727 329.465 246.602 329.035 247.25 328.176C247.898 327.309 248.223 326.098 248.223 324.543C248.223 323.152 247.891 322.027 247.227 321.168C246.57 320.301 245.695 319.867 244.602 319.867C243.531 319.867 242.668 320.293 242.012 321.145C241.355 321.996 241.027 323.215 241.027 324.801ZM252.535 324.543C252.535 323.301 252.777 322.184 253.262 321.191C253.754 320.199 254.434 319.434 255.301 318.895C256.176 318.355 257.172 318.086 258.289 318.086C260.016 318.086 261.41 318.684 262.473 319.879C263.543 321.074 264.078 322.664 264.078 324.648V324.801C264.078 326.035 263.84 327.145 263.363 328.129C262.895 329.105 262.219 329.867 261.336 330.414C260.461 330.961 259.453 331.234 258.312 331.234C256.594 331.234 255.199 330.637 254.129 329.441C253.066 328.246 252.535 326.664 252.535 324.695V324.543ZM254.715 324.801C254.715 326.207 255.039 327.336 255.688 328.188C256.344 329.039 257.219 329.465 258.312 329.465C259.414 329.465 260.289 329.035 260.938 328.176C261.586 327.309 261.91 326.098 261.91 324.543C261.91 323.152 261.578 322.027 260.914 321.168C260.258 320.301 259.383 319.867 258.289 319.867C257.219 319.867 256.355 320.293 255.699 321.145C255.043 321.996 254.715 323.215 254.715 324.801ZM268.836 318.32L268.895 319.727C269.824 318.633 271.078 318.086 272.656 318.086C274.43 318.086 275.637 318.766 276.277 320.125C276.699 319.516 277.246 319.023 277.918 318.648C278.598 318.273 279.398 318.086 280.32 318.086C283.102 318.086 284.516 319.559 284.562 322.504V331H282.395V322.633C282.395 321.727 282.188 321.051 281.773 320.605C281.359 320.152 280.664 319.926 279.688 319.926C278.883 319.926 278.215 320.168 277.684 320.652C277.152 321.129 276.844 321.773 276.758 322.586V331H274.578V322.691C274.578 320.848 273.676 319.926 271.871 319.926C270.449 319.926 269.477 320.531 268.953 321.742V331H266.785V318.32H268.836Z" fill="#565E76"/>
<path d="M172.733 370.125H168.5V353.807L163.446 355.374V351.932L172.279 348.768H172.733V370.125ZM192.201 362.098H194.618V365.511H192.201V370.125H187.968V365.511H179.223L179.032 362.845L187.924 348.797H192.201V362.098ZM183.251 362.098H187.968V354.568L187.689 355.052L183.251 362.098ZM197.299 368.045C197.299 367.371 197.523 366.824 197.973 366.404C198.432 365.984 199.003 365.774 199.687 365.774C200.38 365.774 200.951 365.984 201.4 366.404C201.859 366.824 202.089 367.371 202.089 368.045C202.089 368.709 201.864 369.251 201.415 369.671C200.966 370.081 200.39 370.286 199.687 370.286C198.993 370.286 198.422 370.081 197.973 369.671C197.523 369.251 197.299 368.709 197.299 368.045ZM220.253 370.125H205.634V367.225L212.533 359.871C213.48 358.836 214.179 357.933 214.628 357.161C215.087 356.39 215.316 355.657 215.316 354.964C215.316 354.017 215.077 353.274 214.599 352.737C214.12 352.19 213.437 351.917 212.548 351.917C211.591 351.917 210.834 352.249 210.277 352.913C209.73 353.567 209.457 354.432 209.457 355.506H205.209C205.209 354.207 205.517 353.021 206.132 351.946C206.757 350.872 207.636 350.032 208.769 349.427C209.901 348.812 211.186 348.504 212.621 348.504C214.818 348.504 216.522 349.031 217.733 350.086C218.954 351.141 219.564 352.63 219.564 354.554C219.564 355.608 219.291 356.683 218.744 357.776C218.197 358.87 217.26 360.145 215.932 361.6L211.083 366.712H220.253V370.125ZM234.477 354.275L234.608 356.048C235.731 354.671 237.25 353.982 239.164 353.982C241.205 353.982 242.606 354.788 243.368 356.399C244.481 354.788 246.068 353.982 248.129 353.982C249.848 353.982 251.127 354.485 251.967 355.491C252.807 356.487 253.227 357.991 253.227 360.003V370.125H248.979V360.018C248.979 359.119 248.803 358.465 248.451 358.055C248.1 357.635 247.479 357.425 246.591 357.425C245.321 357.425 244.442 358.03 243.954 359.241L243.969 370.125H239.735V360.032C239.735 359.114 239.555 358.45 239.193 358.04C238.832 357.63 238.217 357.425 237.348 357.425C236.146 357.425 235.277 357.923 234.74 358.919V370.125H230.507V354.275H234.477Z" fill="#565E76"/>
<path d="M262.499 353H255.677V351.646L258.896 348.215C259.339 347.732 259.664 347.31 259.874 346.95C260.088 346.59 260.195 346.248 260.195 345.925C260.195 345.483 260.084 345.136 259.86 344.886C259.637 344.631 259.318 344.503 258.903 344.503C258.457 344.503 258.104 344.658 257.844 344.968C257.589 345.273 257.461 345.676 257.461 346.178H255.479C255.479 345.572 255.622 345.018 255.909 344.517C256.201 344.015 256.611 343.623 257.14 343.341C257.668 343.054 258.268 342.91 258.938 342.91C259.963 342.91 260.758 343.156 261.323 343.648C261.893 344.141 262.178 344.836 262.178 345.733C262.178 346.226 262.05 346.727 261.795 347.237C261.54 347.748 261.102 348.342 260.482 349.021L258.22 351.407H262.499V353Z" fill="#565E76"/>
<path d="M807.98 744V726.938H813.559C815.41 726.938 816.801 727.32 817.73 728.086C818.668 728.852 819.137 729.984 819.137 731.484C819.137 732.281 818.91 732.988 818.457 733.605C818.004 734.215 817.387 734.688 816.605 735.023C817.527 735.281 818.254 735.773 818.785 736.5C819.324 737.219 819.594 738.078 819.594 739.078C819.594 740.609 819.098 741.812 818.105 742.688C817.113 743.562 815.711 744 813.898 744H807.98ZM810.23 736.02V742.16H813.945C814.992 742.16 815.816 741.891 816.418 741.352C817.027 740.805 817.332 740.055 817.332 739.102C817.332 737.047 816.215 736.02 813.98 736.02H810.23ZM810.23 734.215H813.629C814.613 734.215 815.398 733.969 815.984 733.477C816.578 732.984 816.875 732.316 816.875 731.473C816.875 730.535 816.602 729.855 816.055 729.434C815.508 729.004 814.676 728.789 813.559 728.789H810.23V734.215ZM827.855 744.234C826.137 744.234 824.738 743.672 823.66 742.547C822.582 741.414 822.043 739.902 822.043 738.012V737.613C822.043 736.355 822.281 735.234 822.758 734.25C823.242 733.258 823.914 732.484 824.773 731.93C825.641 731.367 826.578 731.086 827.586 731.086C829.234 731.086 830.516 731.629 831.43 732.715C832.344 733.801 832.801 735.355 832.801 737.379V738.281H824.211C824.242 739.531 824.605 740.543 825.301 741.316C826.004 742.082 826.895 742.465 827.973 742.465C828.738 742.465 829.387 742.309 829.918 741.996C830.449 741.684 830.914 741.27 831.312 740.754L832.637 741.785C831.574 743.418 829.98 744.234 827.855 744.234ZM827.586 732.867C826.711 732.867 825.977 733.188 825.383 733.828C824.789 734.461 824.422 735.352 824.281 736.5H830.633V736.336C830.57 735.234 830.273 734.383 829.742 733.781C829.211 733.172 828.492 732.867 827.586 732.867ZM834.793 737.555C834.793 735.609 835.254 734.047 836.176 732.867C837.098 731.68 838.305 731.086 839.797 731.086C841.281 731.086 842.457 731.594 843.324 732.609V726H845.492V744H843.5L843.395 742.641C842.527 743.703 841.32 744.234 839.773 744.234C838.305 744.234 837.105 743.633 836.176 742.43C835.254 741.227 834.793 739.656 834.793 737.719V737.555ZM836.961 737.801C836.961 739.238 837.258 740.363 837.852 741.176C838.445 741.988 839.266 742.395 840.312 742.395C841.688 742.395 842.691 741.777 843.324 740.543V734.719C842.676 733.523 841.68 732.926 840.336 732.926C839.273 732.926 838.445 733.336 837.852 734.156C837.258 734.977 836.961 736.191 836.961 737.801ZM854.996 733.266C854.668 733.211 854.312 733.184 853.93 733.184C852.508 733.184 851.543 733.789 851.035 735V744H848.867V731.32H850.977L851.012 732.785C851.723 731.652 852.73 731.086 854.035 731.086C854.457 731.086 854.777 731.141 854.996 731.25V733.266ZM856.191 737.543C856.191 736.301 856.434 735.184 856.918 734.191C857.41 733.199 858.09 732.434 858.957 731.895C859.832 731.355 860.828 731.086 861.945 731.086C863.672 731.086 865.066 731.684 866.129 732.879C867.199 734.074 867.734 735.664 867.734 737.648V737.801C867.734 739.035 867.496 740.145 867.02 741.129C866.551 742.105 865.875 742.867 864.992 743.414C864.117 743.961 863.109 744.234 861.969 744.234C860.25 744.234 858.855 743.637 857.785 742.441C856.723 741.246 856.191 739.664 856.191 737.695V737.543ZM858.371 737.801C858.371 739.207 858.695 740.336 859.344 741.188C860 742.039 860.875 742.465 861.969 742.465C863.07 742.465 863.945 742.035 864.594 741.176C865.242 740.309 865.566 739.098 865.566 737.543C865.566 736.152 865.234 735.027 864.57 734.168C863.914 733.301 863.039 732.867 861.945 732.867C860.875 732.867 860.012 733.293 859.355 734.145C858.699 734.996 858.371 736.215 858.371 737.801ZM869.879 737.543C869.879 736.301 870.121 735.184 870.605 734.191C871.098 733.199 871.777 732.434 872.645 731.895C873.52 731.355 874.516 731.086 875.633 731.086C877.359 731.086 878.754 731.684 879.816 732.879C880.887 734.074 881.422 735.664 881.422 737.648V737.801C881.422 739.035 881.184 740.145 880.707 741.129C880.238 742.105 879.562 742.867 878.68 743.414C877.805 743.961 876.797 744.234 875.656 744.234C873.938 744.234 872.543 743.637 871.473 742.441C870.41 741.246 869.879 739.664 869.879 737.695V737.543ZM872.059 737.801C872.059 739.207 872.383 740.336 873.031 741.188C873.688 742.039 874.562 742.465 875.656 742.465C876.758 742.465 877.633 742.035 878.281 741.176C878.93 740.309 879.254 739.098 879.254 737.543C879.254 736.152 878.922 735.027 878.258 734.168C877.602 733.301 876.727 732.867 875.633 732.867C874.562 732.867 873.699 733.293 873.043 734.145C872.387 734.996 872.059 736.215 872.059 737.801ZM886.18 731.32L886.238 732.727C887.168 731.633 888.422 731.086 890 731.086C891.773 731.086 892.98 731.766 893.621 733.125C894.043 732.516 894.59 732.023 895.262 731.648C895.941 731.273 896.742 731.086 897.664 731.086C900.445 731.086 901.859 732.559 901.906 735.504V744H899.738V735.633C899.738 734.727 899.531 734.051 899.117 733.605C898.703 733.152 898.008 732.926 897.031 732.926C896.227 732.926 895.559 733.168 895.027 733.652C894.496 734.129 894.188 734.773 894.102 735.586V744H891.922V735.691C891.922 733.848 891.02 732.926 889.215 732.926C887.793 732.926 886.82 733.531 886.297 734.742V744H884.129V731.32H886.18Z" fill="#565E76"/>
<path d="M822.069 783.125H807.45V780.225L814.35 772.871C815.297 771.836 815.995 770.933 816.444 770.161C816.903 769.39 817.133 768.657 817.133 767.964C817.133 767.017 816.894 766.274 816.415 765.737C815.937 765.19 815.253 764.917 814.364 764.917C813.407 764.917 812.65 765.249 812.094 765.913C811.547 766.567 811.273 767.432 811.273 768.506H807.025C807.025 767.207 807.333 766.021 807.948 764.946C808.573 763.872 809.452 763.032 810.585 762.427C811.718 761.812 813.002 761.504 814.438 761.504C816.635 761.504 818.339 762.031 819.55 763.086C820.771 764.141 821.381 765.63 821.381 767.554C821.381 768.608 821.107 769.683 820.561 770.776C820.014 771.87 819.076 773.145 817.748 774.6L812.899 779.712H822.069V783.125ZM834.96 783.125H830.727V766.807L825.673 768.374V764.932L834.506 761.768H834.96V783.125ZM842.299 781.045C842.299 780.371 842.523 779.824 842.973 779.404C843.432 778.984 844.003 778.774 844.687 778.774C845.38 778.774 845.951 778.984 846.4 779.404C846.859 779.824 847.089 780.371 847.089 781.045C847.089 781.709 846.864 782.251 846.415 782.671C845.966 783.081 845.39 783.286 844.687 783.286C843.993 783.286 843.422 783.081 842.973 782.671C842.523 782.251 842.299 781.709 842.299 781.045ZM863.158 775.098H865.575V778.511H863.158V783.125H858.925V778.511H850.18L849.989 775.845L858.881 761.797H863.158V775.098ZM854.208 775.098H858.925V767.568L858.646 768.052L854.208 775.098ZM879.477 767.275L879.608 769.048C880.731 767.671 882.25 766.982 884.164 766.982C886.205 766.982 887.606 767.788 888.368 769.399C889.481 767.788 891.068 766.982 893.129 766.982C894.848 766.982 896.127 767.485 896.967 768.491C897.807 769.487 898.227 770.991 898.227 773.003V783.125H893.979V773.018C893.979 772.119 893.803 771.465 893.451 771.055C893.1 770.635 892.479 770.425 891.591 770.425C890.321 770.425 889.442 771.03 888.954 772.241L888.969 783.125H884.735V773.032C884.735 772.114 884.555 771.45 884.193 771.04C883.832 770.63 883.217 770.425 882.348 770.425C881.146 770.425 880.277 770.923 879.74 771.919V783.125H875.507V767.275H879.477Z" fill="#565E76"/>
<path d="M907.499 766H900.677V764.646L903.896 761.215C904.339 760.732 904.664 760.31 904.874 759.95C905.088 759.59 905.195 759.248 905.195 758.925C905.195 758.483 905.084 758.136 904.86 757.886C904.637 757.631 904.318 757.503 903.903 757.503C903.457 757.503 903.104 757.658 902.844 757.968C902.589 758.273 902.461 758.676 902.461 759.178H900.479C900.479 758.572 900.622 758.018 900.909 757.517C901.201 757.015 901.611 756.623 902.14 756.341C902.668 756.054 903.268 755.91 903.938 755.91C904.963 755.91 905.758 756.156 906.323 756.648C906.893 757.141 907.178 757.836 907.178 758.733C907.178 759.226 907.05 759.727 906.795 760.237C906.54 760.748 906.102 761.342 905.482 762.021L903.22 764.407H907.499V766Z" fill="#565E76"/>
<path d="M1288.98 800V782.938H1294.56C1296.41 782.938 1297.8 783.32 1298.73 784.086C1299.67 784.852 1300.14 785.984 1300.14 787.484C1300.14 788.281 1299.91 788.988 1299.46 789.605C1299 790.215 1298.39 790.688 1297.61 791.023C1298.53 791.281 1299.25 791.773 1299.79 792.5C1300.32 793.219 1300.59 794.078 1300.59 795.078C1300.59 796.609 1300.1 797.812 1299.11 798.688C1298.11 799.562 1296.71 800 1294.9 800H1288.98ZM1291.23 792.02V798.16H1294.95C1295.99 798.16 1296.82 797.891 1297.42 797.352C1298.03 796.805 1298.33 796.055 1298.33 795.102C1298.33 793.047 1297.21 792.02 1294.98 792.02H1291.23ZM1291.23 790.215H1294.63C1295.61 790.215 1296.4 789.969 1296.98 789.477C1297.58 788.984 1297.88 788.316 1297.88 787.473C1297.88 786.535 1297.6 785.855 1297.05 785.434C1296.51 785.004 1295.68 784.789 1294.56 784.789H1291.23V790.215ZM1308.86 800.234C1307.14 800.234 1305.74 799.672 1304.66 798.547C1303.58 797.414 1303.04 795.902 1303.04 794.012V793.613C1303.04 792.355 1303.28 791.234 1303.76 790.25C1304.24 789.258 1304.91 788.484 1305.77 787.93C1306.64 787.367 1307.58 787.086 1308.59 787.086C1310.23 787.086 1311.52 787.629 1312.43 788.715C1313.34 789.801 1313.8 791.355 1313.8 793.379V794.281H1305.21C1305.24 795.531 1305.61 796.543 1306.3 797.316C1307 798.082 1307.89 798.465 1308.97 798.465C1309.74 798.465 1310.39 798.309 1310.92 797.996C1311.45 797.684 1311.91 797.27 1312.31 796.754L1313.64 797.785C1312.57 799.418 1310.98 800.234 1308.86 800.234ZM1308.59 788.867C1307.71 788.867 1306.98 789.188 1306.38 789.828C1305.79 790.461 1305.42 791.352 1305.28 792.5H1311.63V792.336C1311.57 791.234 1311.27 790.383 1310.74 789.781C1310.21 789.172 1309.49 788.867 1308.59 788.867ZM1315.79 793.555C1315.79 791.609 1316.25 790.047 1317.18 788.867C1318.1 787.68 1319.3 787.086 1320.8 787.086C1322.28 787.086 1323.46 787.594 1324.32 788.609V782H1326.49V800H1324.5L1324.39 798.641C1323.53 799.703 1322.32 800.234 1320.77 800.234C1319.3 800.234 1318.11 799.633 1317.18 798.43C1316.25 797.227 1315.79 795.656 1315.79 793.719V793.555ZM1317.96 793.801C1317.96 795.238 1318.26 796.363 1318.85 797.176C1319.45 797.988 1320.27 798.395 1321.31 798.395C1322.69 798.395 1323.69 797.777 1324.32 796.543V790.719C1323.68 789.523 1322.68 788.926 1321.34 788.926C1320.27 788.926 1319.45 789.336 1318.85 790.156C1318.26 790.977 1317.96 792.191 1317.96 793.801ZM1336 789.266C1335.67 789.211 1335.31 789.184 1334.93 789.184C1333.51 789.184 1332.54 789.789 1332.04 791V800H1329.87V787.32H1331.98L1332.01 788.785C1332.72 787.652 1333.73 787.086 1335.04 787.086C1335.46 787.086 1335.78 787.141 1336 787.25V789.266ZM1337.19 793.543C1337.19 792.301 1337.43 791.184 1337.92 790.191C1338.41 789.199 1339.09 788.434 1339.96 787.895C1340.83 787.355 1341.83 787.086 1342.95 787.086C1344.67 787.086 1346.07 787.684 1347.13 788.879C1348.2 790.074 1348.73 791.664 1348.73 793.648V793.801C1348.73 795.035 1348.5 796.145 1348.02 797.129C1347.55 798.105 1346.88 798.867 1345.99 799.414C1345.12 799.961 1344.11 800.234 1342.97 800.234C1341.25 800.234 1339.86 799.637 1338.79 798.441C1337.72 797.246 1337.19 795.664 1337.19 793.695V793.543ZM1339.37 793.801C1339.37 795.207 1339.7 796.336 1340.34 797.188C1341 798.039 1341.88 798.465 1342.97 798.465C1344.07 798.465 1344.95 798.035 1345.59 797.176C1346.24 796.309 1346.57 795.098 1346.57 793.543C1346.57 792.152 1346.23 791.027 1345.57 790.168C1344.91 789.301 1344.04 788.867 1342.95 788.867C1341.88 788.867 1341.01 789.293 1340.36 790.145C1339.7 790.996 1339.37 792.215 1339.37 793.801ZM1350.88 793.543C1350.88 792.301 1351.12 791.184 1351.61 790.191C1352.1 789.199 1352.78 788.434 1353.64 787.895C1354.52 787.355 1355.52 787.086 1356.63 787.086C1358.36 787.086 1359.75 787.684 1360.82 788.879C1361.89 790.074 1362.42 791.664 1362.42 793.648V793.801C1362.42 795.035 1362.18 796.145 1361.71 797.129C1361.24 798.105 1360.56 798.867 1359.68 799.414C1358.8 799.961 1357.8 800.234 1356.66 800.234C1354.94 800.234 1353.54 799.637 1352.47 798.441C1351.41 797.246 1350.88 795.664 1350.88 793.695V793.543ZM1353.06 793.801C1353.06 795.207 1353.38 796.336 1354.03 797.188C1354.69 798.039 1355.56 798.465 1356.66 798.465C1357.76 798.465 1358.63 798.035 1359.28 797.176C1359.93 796.309 1360.25 795.098 1360.25 793.543C1360.25 792.152 1359.92 791.027 1359.26 790.168C1358.6 789.301 1357.73 788.867 1356.63 788.867C1355.56 788.867 1354.7 789.293 1354.04 790.145C1353.39 790.996 1353.06 792.215 1353.06 793.801ZM1367.18 787.32L1367.24 788.727C1368.17 787.633 1369.42 787.086 1371 787.086C1372.77 787.086 1373.98 787.766 1374.62 789.125C1375.04 788.516 1375.59 788.023 1376.26 787.648C1376.94 787.273 1377.74 787.086 1378.66 787.086C1381.45 787.086 1382.86 788.559 1382.91 791.504V800H1380.74V791.633C1380.74 790.727 1380.53 790.051 1380.12 789.605C1379.7 789.152 1379.01 788.926 1378.03 788.926C1377.23 788.926 1376.56 789.168 1376.03 789.652C1375.5 790.129 1375.19 790.773 1375.1 791.586V800H1372.92V791.691C1372.92 789.848 1372.02 788.926 1370.21 788.926C1368.79 788.926 1367.82 789.531 1367.3 790.742V800H1365.13V787.32H1367.18Z" fill="#565E76"/>
<path d="M1303.07 839.125H1288.45V836.225L1295.35 828.871C1296.3 827.836 1297 826.933 1297.44 826.161C1297.9 825.39 1298.13 824.657 1298.13 823.964C1298.13 823.017 1297.89 822.274 1297.42 821.737C1296.94 821.19 1296.25 820.917 1295.36 820.917C1294.41 820.917 1293.65 821.249 1293.09 821.913C1292.55 822.567 1292.27 823.432 1292.27 824.506H1288.03C1288.03 823.207 1288.33 822.021 1288.95 820.946C1289.57 819.872 1290.45 819.032 1291.58 818.427C1292.72 817.812 1294 817.504 1295.44 817.504C1297.63 817.504 1299.34 818.031 1300.55 819.086C1301.77 820.141 1302.38 821.63 1302.38 823.554C1302.38 824.608 1302.11 825.683 1301.56 826.776C1301.01 827.87 1300.08 829.145 1298.75 830.6L1293.9 835.712H1303.07V839.125ZM1320.03 830.307C1320.03 833.256 1319.42 835.512 1318.2 837.074C1316.98 838.637 1315.19 839.418 1312.84 839.418C1310.52 839.418 1308.74 838.651 1307.51 837.118C1306.28 835.585 1305.65 833.388 1305.62 830.526V826.601C1305.62 823.622 1306.23 821.361 1307.46 819.818C1308.7 818.275 1310.49 817.504 1312.81 817.504C1315.13 817.504 1316.91 818.271 1318.14 819.804C1319.37 821.327 1320 823.52 1320.03 826.381V830.307ZM1315.8 826C1315.8 824.232 1315.55 822.948 1315.07 822.147C1314.59 821.337 1313.84 820.932 1312.81 820.932C1311.81 820.932 1311.08 821.317 1310.6 822.089C1310.13 822.851 1309.88 824.047 1309.85 825.678V830.863C1309.85 832.602 1310.09 833.896 1310.55 834.745C1311.03 835.585 1311.79 836.005 1312.84 836.005C1313.88 836.005 1314.62 835.6 1315.08 834.789C1315.54 833.979 1315.78 832.738 1315.8 831.068V826ZM1323.3 837.045C1323.3 836.371 1323.52 835.824 1323.97 835.404C1324.43 834.984 1325 834.774 1325.69 834.774C1326.38 834.774 1326.95 834.984 1327.4 835.404C1327.86 835.824 1328.09 836.371 1328.09 837.045C1328.09 837.709 1327.86 838.251 1327.42 838.671C1326.97 839.081 1326.39 839.286 1325.69 839.286C1324.99 839.286 1324.42 839.081 1323.97 838.671C1323.52 838.251 1323.3 837.709 1323.3 837.045ZM1346.25 839.125H1331.63V836.225L1338.53 828.871C1339.48 827.836 1340.18 826.933 1340.63 826.161C1341.09 825.39 1341.32 824.657 1341.32 823.964C1341.32 823.017 1341.08 822.274 1340.6 821.737C1340.12 821.19 1339.44 820.917 1338.55 820.917C1337.59 820.917 1336.83 821.249 1336.28 821.913C1335.73 822.567 1335.46 823.432 1335.46 824.506H1331.21C1331.21 823.207 1331.52 822.021 1332.13 820.946C1332.76 819.872 1333.64 819.032 1334.77 818.427C1335.9 817.812 1337.19 817.504 1338.62 817.504C1340.82 817.504 1342.52 818.031 1343.73 819.086C1344.95 820.141 1345.56 821.63 1345.56 823.554C1345.56 824.608 1345.29 825.683 1344.74 826.776C1344.2 827.87 1343.26 829.145 1341.93 830.6L1337.08 835.712H1346.25V839.125ZM1360.48 823.275L1360.61 825.048C1361.73 823.671 1363.25 822.982 1365.16 822.982C1367.21 822.982 1368.61 823.788 1369.37 825.399C1370.48 823.788 1372.07 822.982 1374.13 822.982C1375.85 822.982 1377.13 823.485 1377.97 824.491C1378.81 825.487 1379.23 826.991 1379.23 829.003V839.125H1374.98V829.018C1374.98 828.119 1374.8 827.465 1374.45 827.055C1374.1 826.635 1373.48 826.425 1372.59 826.425C1371.32 826.425 1370.44 827.03 1369.95 828.241L1369.97 839.125H1365.74V829.032C1365.74 828.114 1365.55 827.45 1365.19 827.04C1364.83 826.63 1364.22 826.425 1363.35 826.425C1362.15 826.425 1361.28 826.923 1360.74 827.919V839.125H1356.51V823.275H1360.48Z" fill="#565E76"/>
<path d="M1388.5 822H1381.68V820.646L1384.9 817.215C1385.34 816.732 1385.66 816.31 1385.87 815.95C1386.09 815.59 1386.2 815.248 1386.2 814.925C1386.2 814.483 1386.08 814.136 1385.86 813.886C1385.64 813.631 1385.32 813.503 1384.9 813.503C1384.46 813.503 1384.1 813.658 1383.84 813.968C1383.59 814.273 1383.46 814.676 1383.46 815.178H1381.48C1381.48 814.572 1381.62 814.018 1381.91 813.517C1382.2 813.015 1382.61 812.623 1383.14 812.341C1383.67 812.054 1384.27 811.91 1384.94 811.91C1385.96 811.91 1386.76 812.156 1387.32 812.648C1387.89 813.141 1388.18 813.836 1388.18 814.733C1388.18 815.226 1388.05 815.727 1387.79 816.237C1387.54 816.748 1387.1 817.342 1386.48 818.021L1384.22 820.407H1388.5V822Z" fill="#565E76"/>
<path d="M906.971 114V88.4062H914.195C916.422 88.4062 918.391 88.8984 920.102 89.8828C921.812 90.8672 923.131 92.2676 924.057 94.084C924.994 95.9004 925.469 97.9863 925.48 100.342V101.977C925.48 104.391 925.012 106.506 924.074 108.322C923.148 110.139 921.818 111.533 920.084 112.506C918.361 113.479 916.352 113.977 914.055 114H906.971ZM910.346 91.1836V111.24H913.896C916.498 111.24 918.52 110.432 919.961 108.814C921.414 107.197 922.141 104.895 922.141 101.906V100.412C922.141 97.5059 921.455 95.25 920.084 93.6445C918.725 92.0273 916.791 91.207 914.283 91.1836H910.346ZM941.828 112.119C940.562 113.607 938.705 114.352 936.256 114.352C934.229 114.352 932.682 113.766 931.615 112.594C930.561 111.41 930.027 109.664 930.016 107.355V94.9805H933.268V107.268C933.268 110.15 934.439 111.592 936.783 111.592C939.268 111.592 940.92 110.666 941.74 108.814V94.9805H944.992V114H941.898L941.828 112.119ZM953.482 114H950.23V87H953.482V114ZM975.543 109.518L979.199 94.9805H982.451L976.914 114H974.277L969.654 99.5859L965.154 114H962.518L956.998 94.9805H960.232L963.977 109.219L968.406 94.9805H971.025L975.543 109.518ZM989.307 114H986.055V94.9805H989.307V114ZM985.791 89.9355C985.791 89.4082 985.949 88.9629 986.266 88.5996C986.594 88.2363 987.074 88.0547 987.707 88.0547C988.34 88.0547 988.82 88.2363 989.148 88.5996C989.477 88.9629 989.641 89.4082 989.641 89.9355C989.641 90.4629 989.477 90.9023 989.148 91.2539C988.82 91.6055 988.34 91.7812 987.707 91.7812C987.074 91.7812 986.594 91.6055 986.266 91.2539C985.949 90.9023 985.791 90.4629 985.791 89.9355ZM1002.16 111.697C1003.32 111.697 1004.33 111.346 1005.2 110.643C1006.06 109.939 1006.54 109.061 1006.64 108.006H1009.71C1009.66 109.096 1009.28 110.133 1008.59 111.117C1007.9 112.102 1006.97 112.887 1005.81 113.473C1004.66 114.059 1003.45 114.352 1002.16 114.352C999.566 114.352 997.504 113.49 995.969 111.768C994.445 110.033 993.684 107.666 993.684 104.666V104.121C993.684 102.27 994.023 100.623 994.703 99.1816C995.383 97.7402 996.355 96.6211 997.621 95.8242C998.898 95.0273 1000.4 94.6289 1002.14 94.6289C1004.27 94.6289 1006.04 95.2676 1007.45 96.5449C1008.87 97.8223 1009.62 99.4805 1009.71 101.52H1006.64C1006.54 100.289 1006.08 99.2812 1005.23 98.4961C1004.4 97.6992 1003.37 97.3008 1002.14 97.3008C1000.49 97.3008 999.203 97.8984 998.289 99.0938C997.387 100.277 996.936 101.994 996.936 104.244V104.859C996.936 107.051 997.387 108.738 998.289 109.922C999.191 111.105 1000.48 111.697 1002.16 111.697ZM1016.62 97.2832C1018.06 95.5137 1019.94 94.6289 1022.25 94.6289C1026.27 94.6289 1028.29 96.8965 1028.33 101.432V114H1025.08V101.414C1025.07 100.043 1024.75 99.0293 1024.13 98.373C1023.52 97.7168 1022.56 97.3887 1021.26 97.3887C1020.21 97.3887 1019.28 97.6699 1018.49 98.2324C1017.69 98.7949 1017.07 99.5332 1016.62 100.447V114H1013.37V87H1016.62V97.2832ZM1052.03 103.646H1046.01V114H1042.62V88.4062H1051.09C1053.98 88.4062 1056.19 89.0625 1057.74 90.375C1059.3 91.6875 1060.08 93.5977 1060.08 96.1055C1060.08 97.6992 1059.64 99.0879 1058.78 100.271C1057.92 101.455 1056.72 102.34 1055.19 102.926L1061.2 113.789V114H1057.58L1052.03 103.646ZM1046.01 100.887H1051.2C1052.88 100.887 1054.21 100.453 1055.19 99.5859C1056.19 98.7188 1056.68 97.5586 1056.68 96.1055C1056.68 94.5234 1056.21 93.3105 1055.26 92.4668C1054.32 91.623 1052.96 91.1953 1051.18 91.1836H1046.01V100.887ZM1063.52 104.332C1063.52 101.414 1064.21 99.0703 1065.6 97.3008C1066.98 95.5195 1068.79 94.6289 1071.03 94.6289C1073.25 94.6289 1075.02 95.3906 1076.32 96.9141V87H1079.57V114H1076.58L1076.42 111.961C1075.12 113.555 1073.31 114.352 1070.99 114.352C1068.79 114.352 1066.99 113.449 1065.6 111.645C1064.21 109.84 1063.52 107.484 1063.52 104.578V104.332ZM1066.77 104.701C1066.77 106.857 1067.22 108.545 1068.11 109.764C1069 110.982 1070.23 111.592 1071.8 111.592C1073.86 111.592 1075.37 110.666 1076.32 108.814V100.078C1075.35 98.2852 1073.85 97.3887 1071.84 97.3887C1070.24 97.3887 1069 98.0039 1068.11 99.2344C1067.22 100.465 1066.77 102.287 1066.77 104.701Z" fill="#565E76"/>
</svg>
