<svg width="1565" height="1087" viewBox="0 0 1565 1087" fill="none" xmlns="http://www.w3.org/2000/svg">
<g clip-path="url(#clip0)">
<path d="M-41 1151H1737V-119H-41V1151Z" fill="white"/>
<path d="M31.5669 76H1552V1059.47H31.5669V76Z" fill="#F4F4F5"/>
<path d="M1176.48 1045.06V1046.33H1177.75H1190.83V1079.67H970.961V1046.33H976.864H978.134V1045.06V1017.64H1048.61H1049.88V1016.37V413.711V412.441H1048.61H999.658V393.457H1068.86V837.004V838.274H1070.13H1097.56V1016.37V1017.64H1098.83H1176.48V1045.06ZM1431.07 1045.8V1017.85H1514.95H1516.22V1016.58V492.629V491.359H1514.95H1222.07V413.711V412.441H1220.8H1186.2V393.457H1220.8H1222.07V392.187V343.236H1241.05V471.105V472.375H1242.32H1514.95H1516.22V471.105V110.757V109.487H1514.95H1242.32H1241.05V110.757V218.73H1222.07V110.757V109.487H1220.8H850.837V70.285H1557.93V109.487H1556.73V110.757V1016.58V1017.85H1557.93V1077.93H1422.72V1047.07H1429.8H1431.07V1045.8ZM43.9224 70.605H710.139V111.11H603.792H602.522V112.38V247.427H583.538V112.38V111.11H582.268H43.9224H42.6524V112.38V837.004V838.274H43.9224H121.832V874.657V875.927H123.102H134.489V906.781H64.7935H63.5235V908.051V1077.93H3.44995V70.285H42.6524V70.605H43.9224ZM724.487 1079.67H562.016L562.014 908.749V907.479H560.744H368.303V838.274H582.268H583.538V837.004V393.457H882.326V412.441H625.316H624.046V413.711V1016.37V1017.64H625.316H717.314V1045.06V1046.33H718.584H724.487V1079.67Z" fill="white" stroke="#565E76"/>
<path d="M1188.96 1077.93H1424.35V1047.07H1188.96V1077.93Z" fill="white" stroke="#565E76"/>
<path d="M721.433 1077.93H973.527V1047.07H721.433V1077.93Z" fill="white" stroke="#565E76"/>
<path d="M61.8906 1077.93H564.442V1047.07H61.8906V1077.93Z" fill="white" stroke="#565E76"/>
<path d="M245.561 906.782H368.25V880.102H245.561V906.782Z" fill="white" stroke="#565E76"/>
<path d="M245.561 881.737H368.25V838.36H245.561V881.737Z" fill="white" stroke="#565E76"/>
<path d="M119.515 872.878L230.719 797.547" stroke="#565E76"/>
<path d="M1159.82 327.616L1231.56 216.412" stroke="#565E76"/>
<path d="M1070.13 402.95L1174.16 467.52" stroke="#565E76"/>
<path d="M905.12 471.108L1001.98 402.95" stroke="#565E76"/>
<path d="M729.347 4.7644L854.899 90.8604" stroke="#565E76"/>
<path d="M593.03 245.111L654.013 352.729" stroke="#565E76"/>
<path d="M1176.43 1048.71H1432.7V1017.85H1176.43V1048.71Z" fill="white" stroke="#565E76"/>
<path d="M717.259 1048.71H977.7V1017.85H717.259V1048.71Z" fill="white" stroke="#565E76"/>
<path d="M1239.05 159.579H1432.7V107.853H1239.05V159.579Z" stroke="#565E76"/>
<path d="M863.358 151.23H931.782V107.853H863.358V151.23Z" stroke="#565E76"/>
<path d="M512.716 243.066H585.313V112.028H512.716V243.066Z" stroke="#565E76"/>
<path d="M249.216 539.759C249.414 539.826 249.48 539.958 249.414 540.156L249.051 541.179C248.985 541.344 248.853 541.41 248.688 541.344L247.763 541.08C247.07 540.849 246.277 540.684 245.419 540.684C244.032 540.684 243.108 541.377 243.108 542.401C243.108 543.028 243.537 543.59 244.296 544.118L247.235 546.033C248.853 547.09 249.546 548.576 249.546 550.656V551.449C249.546 551.647 249.447 551.746 249.249 551.746H241.754C241.556 551.746 241.456 551.647 241.456 551.449V550.392C241.456 550.194 241.556 550.095 241.754 550.095H247.73C247.73 549.005 247.367 548.147 246.343 547.486L243.372 545.538C241.952 544.613 241.291 543.623 241.291 542.401C241.291 540.255 242.876 539 245.419 539C246.443 539 247.367 539.165 248.325 539.462L249.216 539.759Z" fill="white"/>
<path d="M225.7 462.658H378.1V615.058H225.7V462.658Z" fill="#565E76"/>
<path d="M270.673 492.374V496.979H274.224V499.493H270.673V511.288C270.673 512.05 270.832 512.624 271.148 513.011C271.464 513.386 272.003 513.573 272.765 513.573C273.14 513.573 273.656 513.503 274.312 513.362V515.999C273.457 516.233 272.625 516.351 271.816 516.351C270.363 516.351 269.267 515.911 268.529 515.032C267.791 514.153 267.421 512.905 267.421 511.288V499.493H263.958V496.979H267.421V492.374H270.673ZM276.826 506.313C276.826 504.45 277.189 502.774 277.916 501.286C278.654 499.798 279.673 498.649 280.974 497.841C282.287 497.032 283.781 496.628 285.457 496.628C288.046 496.628 290.138 497.524 291.732 499.317C293.337 501.11 294.14 503.495 294.14 506.472V506.7C294.14 508.552 293.783 510.216 293.068 511.692C292.365 513.157 291.351 514.3 290.027 515.12C288.714 515.94 287.203 516.351 285.492 516.351C282.914 516.351 280.822 515.454 279.216 513.661C277.623 511.868 276.826 509.495 276.826 506.542V506.313ZM280.095 506.7C280.095 508.81 280.582 510.503 281.554 511.78C282.539 513.058 283.851 513.696 285.492 513.696C287.144 513.696 288.457 513.052 289.429 511.763C290.402 510.462 290.888 508.646 290.888 506.313C290.888 504.228 290.39 502.54 289.394 501.251C288.41 499.95 287.097 499.3 285.457 499.3C283.851 499.3 282.556 499.938 281.572 501.216C280.587 502.493 280.095 504.321 280.095 506.7ZM302.63 492.374V496.979H306.181V499.493H302.63V511.288C302.63 512.05 302.789 512.624 303.105 513.011C303.421 513.386 303.96 513.573 304.722 513.573C305.097 513.573 305.613 513.503 306.269 513.362V515.999C305.414 516.233 304.582 516.351 303.773 516.351C302.32 516.351 301.224 515.911 300.486 515.032C299.748 514.153 299.378 512.905 299.378 511.288V499.493H295.916V496.979H299.378V492.374H302.63ZM321.738 515.999C321.55 515.624 321.398 514.956 321.281 513.995C319.769 515.565 317.964 516.351 315.867 516.351C313.992 516.351 312.451 515.823 311.244 514.769C310.048 513.702 309.451 512.354 309.451 510.726C309.451 508.745 310.201 507.21 311.701 506.12C313.212 505.019 315.333 504.468 318.064 504.468H321.228V502.974C321.228 501.837 320.888 500.935 320.208 500.267C319.529 499.587 318.527 499.247 317.203 499.247C316.042 499.247 315.07 499.54 314.285 500.126C313.5 500.712 313.107 501.421 313.107 502.253H309.837C309.837 501.304 310.171 500.39 310.839 499.511C311.519 498.62 312.433 497.917 313.582 497.401C314.742 496.886 316.013 496.628 317.396 496.628C319.587 496.628 321.304 497.179 322.546 498.28C323.789 499.37 324.433 500.876 324.48 502.798V511.552C324.48 513.298 324.703 514.687 325.148 515.718V515.999H321.738ZM316.341 513.521C317.361 513.521 318.328 513.257 319.242 512.729C320.156 512.202 320.818 511.517 321.228 510.673V506.771H318.679C314.695 506.771 312.703 507.937 312.703 510.269C312.703 511.288 313.042 512.085 313.722 512.659C314.402 513.233 315.275 513.521 316.341 513.521ZM333.111 515.999H329.859V488.999H333.111V515.999Z" fill="white"/>
<path d="M269.697 567.999H252.927V565.661L261.787 555.817C263.099 554.329 264.001 553.122 264.494 552.196C264.998 551.259 265.25 550.292 265.25 549.296C265.25 547.96 264.845 546.864 264.037 546.009C263.228 545.153 262.15 544.726 260.802 544.726C259.185 544.726 257.925 545.188 257.023 546.114C256.132 547.028 255.687 548.306 255.687 549.946H252.435C252.435 547.591 253.191 545.687 254.703 544.233C256.226 542.78 258.259 542.054 260.802 542.054C263.181 542.054 265.062 542.681 266.445 543.935C267.828 545.177 268.519 546.835 268.519 548.909C268.519 551.429 266.914 554.429 263.703 557.909L256.847 565.345H269.697V567.999ZM286.871 559.403H290.421V562.058H286.871V567.999H283.601V562.058H271.947V560.142L283.408 542.405H286.871V559.403ZM275.638 559.403H283.601V546.853L283.214 547.556L275.638 559.403ZM309.406 557.083C309.406 560.892 308.755 563.722 307.455 565.573C306.154 567.425 304.121 568.351 301.355 568.351C298.625 568.351 296.603 567.448 295.291 565.644C293.978 563.827 293.298 561.12 293.251 557.522V553.181C293.251 549.419 293.902 546.624 295.203 544.796C296.503 542.968 298.542 542.054 301.32 542.054C304.074 542.054 306.101 542.938 307.402 544.708C308.703 546.466 309.371 549.185 309.406 552.864V557.083ZM306.154 552.636C306.154 549.882 305.767 547.878 304.994 546.624C304.22 545.358 302.996 544.726 301.32 544.726C299.656 544.726 298.443 545.353 297.681 546.606C296.919 547.86 296.527 549.788 296.503 552.39V557.593C296.503 560.358 296.902 562.403 297.699 563.728C298.507 565.04 299.726 565.696 301.355 565.696C302.96 565.696 304.15 565.075 304.923 563.833C305.708 562.591 306.119 560.634 306.154 557.962V552.636ZM325.894 548.979L325.982 551.089C327.376 549.448 329.257 548.628 331.625 548.628C334.285 548.628 336.095 549.647 337.056 551.687C337.689 550.772 338.509 550.034 339.517 549.472C340.537 548.909 341.738 548.628 343.121 548.628C347.292 548.628 349.414 550.837 349.484 555.255V567.999H346.232V555.448C346.232 554.089 345.921 553.075 345.3 552.407C344.679 551.728 343.636 551.388 342.171 551.388C340.964 551.388 339.962 551.751 339.166 552.478C338.369 553.192 337.906 554.159 337.777 555.378V567.999H334.507V555.536C334.507 552.771 333.154 551.388 330.447 551.388C328.314 551.388 326.855 552.296 326.07 554.112V567.999H322.818V548.979H325.894Z" fill="white"/>
<path d="M356.874 548H349.886V547.026L353.578 542.924C354.125 542.304 354.5 541.801 354.706 541.416C354.916 541.025 355.021 540.622 355.021 540.207C355.021 539.65 354.852 539.194 354.515 538.837C354.178 538.481 353.729 538.303 353.167 538.303C352.494 538.303 351.969 538.496 351.593 538.881C351.222 539.262 351.036 539.794 351.036 540.478H349.681C349.681 539.497 349.996 538.703 350.626 538.098C351.261 537.492 352.108 537.189 353.167 537.189C354.159 537.189 354.942 537.451 355.519 537.973C356.095 538.491 356.383 539.182 356.383 540.046C356.383 541.096 355.714 542.346 354.376 543.796L351.52 546.894H356.874V548Z" fill="white"/>
<path d="M1337.98 297V279.938H1343.56C1345.41 279.938 1346.8 280.32 1347.73 281.086C1348.67 281.852 1349.14 282.984 1349.14 284.484C1349.14 285.281 1348.91 285.988 1348.46 286.605C1348 287.215 1347.39 287.688 1346.61 288.023C1347.53 288.281 1348.25 288.773 1348.79 289.5C1349.32 290.219 1349.59 291.078 1349.59 292.078C1349.59 293.609 1349.1 294.812 1348.11 295.688C1347.11 296.562 1345.71 297 1343.9 297H1337.98ZM1340.23 289.02V295.16H1343.95C1344.99 295.16 1345.82 294.891 1346.42 294.352C1347.03 293.805 1347.33 293.055 1347.33 292.102C1347.33 290.047 1346.21 289.02 1343.98 289.02H1340.23ZM1340.23 287.215H1343.63C1344.61 287.215 1345.4 286.969 1345.98 286.477C1346.58 285.984 1346.88 285.316 1346.88 284.473C1346.88 283.535 1346.6 282.855 1346.05 282.434C1345.51 282.004 1344.68 281.789 1343.56 281.789H1340.23V287.215ZM1360.42 297C1360.3 296.75 1360.2 296.305 1360.12 295.664C1359.11 296.711 1357.91 297.234 1356.51 297.234C1355.26 297.234 1354.23 296.883 1353.43 296.18C1352.63 295.469 1352.23 294.57 1352.23 293.484C1352.23 292.164 1352.73 291.141 1353.73 290.414C1354.74 289.68 1356.15 289.312 1357.97 289.312H1360.08V288.316C1360.08 287.559 1359.86 286.957 1359.4 286.512C1358.95 286.059 1358.28 285.832 1357.4 285.832C1356.62 285.832 1355.98 286.027 1355.45 286.418C1354.93 286.809 1354.67 287.281 1354.67 287.836H1352.49C1352.49 287.203 1352.71 286.594 1353.16 286.008C1353.61 285.414 1354.22 284.945 1354.98 284.602C1355.76 284.258 1356.61 284.086 1357.53 284.086C1358.99 284.086 1360.13 284.453 1360.96 285.188C1361.79 285.914 1362.22 286.918 1362.25 288.199V294.035C1362.25 295.199 1362.4 296.125 1362.7 296.812V297H1360.42ZM1356.82 295.348C1357.5 295.348 1358.15 295.172 1358.76 294.82C1359.37 294.469 1359.81 294.012 1360.08 293.449V290.848H1358.38C1355.73 290.848 1354.4 291.625 1354.4 293.18C1354.4 293.859 1354.62 294.391 1355.08 294.773C1355.53 295.156 1356.11 295.348 1356.82 295.348ZM1368.59 281.25V284.32H1370.96V285.996H1368.59V293.859C1368.59 294.367 1368.7 294.75 1368.91 295.008C1369.12 295.258 1369.48 295.383 1369.98 295.383C1370.23 295.383 1370.58 295.336 1371.02 295.242V297C1370.45 297.156 1369.89 297.234 1369.35 297.234C1368.38 297.234 1367.65 296.941 1367.16 296.355C1366.67 295.77 1366.42 294.938 1366.42 293.859V285.996H1364.11V284.32H1366.42V281.25H1368.59ZM1375.67 285.855C1376.63 284.676 1377.88 284.086 1379.42 284.086C1382.1 284.086 1383.45 285.598 1383.47 288.621V297H1381.3V288.609C1381.3 287.695 1381.09 287.02 1380.67 286.582C1380.27 286.145 1379.63 285.926 1378.76 285.926C1378.06 285.926 1377.44 286.113 1376.91 286.488C1376.38 286.863 1375.96 287.355 1375.67 287.965V297H1373.5V279H1375.67V285.855ZM1392.85 286.266C1392.52 286.211 1392.16 286.184 1391.78 286.184C1390.36 286.184 1389.39 286.789 1388.89 288V297H1386.72V284.32H1388.83L1388.86 285.785C1389.57 284.652 1390.58 284.086 1391.89 284.086C1392.31 284.086 1392.63 284.141 1392.85 284.25V286.266ZM1394.04 290.543C1394.04 289.301 1394.29 288.184 1394.77 287.191C1395.26 286.199 1395.94 285.434 1396.81 284.895C1397.68 284.355 1398.68 284.086 1399.8 284.086C1401.52 284.086 1402.92 284.684 1403.98 285.879C1405.05 287.074 1405.59 288.664 1405.59 290.648V290.801C1405.59 292.035 1405.35 293.145 1404.87 294.129C1404.4 295.105 1403.73 295.867 1402.84 296.414C1401.97 296.961 1400.96 297.234 1399.82 297.234C1398.1 297.234 1396.71 296.637 1395.64 295.441C1394.57 294.246 1394.04 292.664 1394.04 290.695V290.543ZM1396.22 290.801C1396.22 292.207 1396.55 293.336 1397.2 294.188C1397.85 295.039 1398.73 295.465 1399.82 295.465C1400.92 295.465 1401.8 295.035 1402.45 294.176C1403.09 293.309 1403.42 292.098 1403.42 290.543C1403.42 289.152 1403.09 288.027 1402.42 287.168C1401.77 286.301 1400.89 285.867 1399.8 285.867C1398.73 285.867 1397.86 286.293 1397.21 287.145C1396.55 287.996 1396.22 289.215 1396.22 290.801ZM1407.73 290.543C1407.73 289.301 1407.97 288.184 1408.46 287.191C1408.95 286.199 1409.63 285.434 1410.5 284.895C1411.37 284.355 1412.37 284.086 1413.48 284.086C1415.21 284.086 1416.61 284.684 1417.67 285.879C1418.74 287.074 1419.27 288.664 1419.27 290.648V290.801C1419.27 292.035 1419.04 293.145 1418.56 294.129C1418.09 295.105 1417.41 295.867 1416.53 296.414C1415.66 296.961 1414.65 297.234 1413.51 297.234C1411.79 297.234 1410.39 296.637 1409.32 295.441C1408.26 294.246 1407.73 292.664 1407.73 290.695V290.543ZM1409.91 290.801C1409.91 292.207 1410.23 293.336 1410.88 294.188C1411.54 295.039 1412.41 295.465 1413.51 295.465C1414.61 295.465 1415.48 295.035 1416.13 294.176C1416.78 293.309 1417.11 292.098 1417.11 290.543C1417.11 289.152 1416.77 288.027 1416.11 287.168C1415.45 286.301 1414.58 285.867 1413.48 285.867C1412.41 285.867 1411.55 286.293 1410.89 287.145C1410.24 287.996 1409.91 289.215 1409.91 290.801ZM1424.03 284.32L1424.09 285.727C1425.02 284.633 1426.27 284.086 1427.85 284.086C1429.62 284.086 1430.83 284.766 1431.47 286.125C1431.89 285.516 1432.44 285.023 1433.11 284.648C1433.79 284.273 1434.59 284.086 1435.52 284.086C1438.3 284.086 1439.71 285.559 1439.76 288.504V297H1437.59V288.633C1437.59 287.727 1437.38 287.051 1436.97 286.605C1436.55 286.152 1435.86 285.926 1434.88 285.926C1434.08 285.926 1433.41 286.168 1432.88 286.652C1432.35 287.129 1432.04 287.773 1431.95 288.586V297H1429.77V288.691C1429.77 286.848 1428.87 285.926 1427.07 285.926C1425.64 285.926 1424.67 286.531 1424.15 287.742V297H1421.98V284.32H1424.03Z" fill="#565E76"/>
<path d="M1347.73 341H1343.5V324.682L1338.45 326.249V322.807L1347.28 319.643H1347.73V341ZM1369.3 341H1354.68V338.1L1361.58 330.746C1362.52 329.711 1363.22 328.808 1363.67 328.036C1364.13 327.265 1364.36 326.532 1364.36 325.839C1364.36 324.892 1364.12 324.149 1363.64 323.612C1363.16 323.065 1362.48 322.792 1361.59 322.792C1360.63 322.792 1359.88 323.124 1359.32 323.788C1358.77 324.442 1358.5 325.307 1358.5 326.381H1354.25C1354.25 325.082 1354.56 323.896 1355.17 322.821C1355.8 321.747 1356.68 320.907 1357.81 320.302C1358.94 319.687 1360.23 319.379 1361.66 319.379C1363.86 319.379 1365.57 319.906 1366.78 320.961C1368 322.016 1368.61 323.505 1368.61 325.429C1368.61 326.483 1368.33 327.558 1367.79 328.651C1367.24 329.745 1366.3 331.02 1364.97 332.475L1360.13 337.587H1369.3V341ZM1372.3 338.92C1372.3 338.246 1372.52 337.699 1372.97 337.279C1373.43 336.859 1374 336.649 1374.69 336.649C1375.38 336.649 1375.95 336.859 1376.4 337.279C1376.86 337.699 1377.09 338.246 1377.09 338.92C1377.09 339.584 1376.86 340.126 1376.42 340.546C1375.97 340.956 1375.39 341.161 1374.69 341.161C1373.99 341.161 1373.42 340.956 1372.97 340.546C1372.52 340.126 1372.3 339.584 1372.3 338.92ZM1381.26 330.512L1382.49 319.672H1394.45V323.202H1385.97L1385.44 327.787C1386.44 327.25 1387.51 326.981 1388.65 326.981C1390.68 326.981 1392.27 327.611 1393.42 328.871C1394.57 330.131 1395.15 331.894 1395.15 334.159C1395.15 335.536 1394.86 336.771 1394.27 337.865C1393.7 338.949 1392.87 339.794 1391.78 340.399C1390.7 340.995 1389.42 341.293 1387.94 341.293C1386.65 341.293 1385.46 341.034 1384.35 340.517C1383.25 339.989 1382.38 339.252 1381.73 338.305C1381.1 337.357 1380.76 336.278 1380.72 335.067H1384.91C1385 335.956 1385.31 336.649 1385.83 337.147C1386.37 337.636 1387.07 337.88 1387.93 337.88C1388.89 337.88 1389.62 337.538 1390.14 336.854C1390.66 336.161 1390.92 335.185 1390.92 333.925C1390.92 332.714 1390.62 331.786 1390.02 331.142C1389.43 330.497 1388.58 330.175 1387.49 330.175C1386.48 330.175 1385.67 330.438 1385.04 330.966L1384.63 331.347L1381.26 330.512ZM1409.48 325.15L1409.61 326.923C1410.73 325.546 1412.25 324.857 1414.16 324.857C1416.21 324.857 1417.61 325.663 1418.37 327.274C1419.48 325.663 1421.07 324.857 1423.13 324.857C1424.85 324.857 1426.13 325.36 1426.97 326.366C1427.81 327.362 1428.23 328.866 1428.23 330.878V341H1423.98V330.893C1423.98 329.994 1423.8 329.34 1423.45 328.93C1423.1 328.51 1422.48 328.3 1421.59 328.3C1420.32 328.3 1419.44 328.905 1418.95 330.116L1418.97 341H1414.74V330.907C1414.74 329.989 1414.55 329.325 1414.19 328.915C1413.83 328.505 1413.22 328.3 1412.35 328.3C1411.15 328.3 1410.28 328.798 1409.74 329.794V341H1405.51V325.15H1409.48Z" fill="#565E76"/>
<path d="M1436.5 322H1429.68V320.646L1432.9 317.215C1433.34 316.732 1433.66 316.31 1433.87 315.95C1434.09 315.59 1434.2 315.248 1434.2 314.925C1434.2 314.483 1434.08 314.136 1433.86 313.886C1433.64 313.631 1433.32 313.503 1432.9 313.503C1432.46 313.503 1432.1 313.658 1431.84 313.968C1431.59 314.273 1431.46 314.676 1431.46 315.178H1429.48C1429.48 314.572 1429.62 314.018 1429.91 313.517C1430.2 313.015 1430.61 312.623 1431.14 312.341C1431.67 312.054 1432.27 311.91 1432.94 311.91C1433.96 311.91 1434.76 312.156 1435.32 312.648C1435.89 313.141 1436.18 313.836 1436.18 314.733C1436.18 315.226 1436.05 315.727 1435.79 316.237C1435.54 316.748 1435.1 317.342 1434.48 318.021L1432.22 320.407H1436.5V322Z" fill="#565E76"/>
<path d="M870.094 231H867.832V223.113H859.23V231H856.98V213.938H859.23V221.273H867.832V213.938H870.094V231ZM881.578 231C881.453 230.75 881.352 230.305 881.273 229.664C880.266 230.711 879.062 231.234 877.664 231.234C876.414 231.234 875.387 230.883 874.582 230.18C873.785 229.469 873.387 228.57 873.387 227.484C873.387 226.164 873.887 225.141 874.887 224.414C875.895 223.68 877.309 223.312 879.129 223.312H881.238V222.316C881.238 221.559 881.012 220.957 880.559 220.512C880.105 220.059 879.438 219.832 878.555 219.832C877.781 219.832 877.133 220.027 876.609 220.418C876.086 220.809 875.824 221.281 875.824 221.836H873.645C873.645 221.203 873.867 220.594 874.312 220.008C874.766 219.414 875.375 218.945 876.141 218.602C876.914 218.258 877.762 218.086 878.684 218.086C880.145 218.086 881.289 218.453 882.117 219.188C882.945 219.914 883.375 220.918 883.406 222.199V228.035C883.406 229.199 883.555 230.125 883.852 230.812V231H881.578ZM877.98 229.348C878.66 229.348 879.305 229.172 879.914 228.82C880.523 228.469 880.965 228.012 881.238 227.449V224.848H879.539C876.883 224.848 875.555 225.625 875.555 227.18C875.555 227.859 875.781 228.391 876.234 228.773C876.688 229.156 877.27 229.348 877.98 229.348ZM889.16 231H886.992V213H889.16V231ZM894.996 231H892.828V213H894.996V231ZM909.703 228.012L912.141 218.32H914.309L910.617 231H908.859L905.777 221.391L902.777 231H901.02L897.34 218.32H899.496L901.992 227.812L904.945 218.32H906.691L909.703 228.012ZM924.352 231C924.227 230.75 924.125 230.305 924.047 229.664C923.039 230.711 921.836 231.234 920.438 231.234C919.188 231.234 918.16 230.883 917.355 230.18C916.559 229.469 916.16 228.57 916.16 227.484C916.16 226.164 916.66 225.141 917.66 224.414C918.668 223.68 920.082 223.312 921.902 223.312H924.012V222.316C924.012 221.559 923.785 220.957 923.332 220.512C922.879 220.059 922.211 219.832 921.328 219.832C920.555 219.832 919.906 220.027 919.383 220.418C918.859 220.809 918.598 221.281 918.598 221.836H916.418C916.418 221.203 916.641 220.594 917.086 220.008C917.539 219.414 918.148 218.945 918.914 218.602C919.688 218.258 920.535 218.086 921.457 218.086C922.918 218.086 924.062 218.453 924.891 219.188C925.719 219.914 926.148 220.918 926.18 222.199V228.035C926.18 229.199 926.328 230.125 926.625 230.812V231H924.352ZM920.754 229.348C921.434 229.348 922.078 229.172 922.688 228.82C923.297 228.469 923.738 228.012 924.012 227.449V224.848H922.312C919.656 224.848 918.328 225.625 918.328 227.18C918.328 227.859 918.555 228.391 919.008 228.773C919.461 229.156 920.043 229.348 920.754 229.348ZM933.539 227.824L936.492 218.32H938.812L933.715 232.957C932.926 235.066 931.672 236.121 929.953 236.121L929.543 236.086L928.734 235.934V234.176L929.32 234.223C930.055 234.223 930.625 234.074 931.031 233.777C931.445 233.48 931.785 232.938 932.051 232.148L932.531 230.859L928.008 218.32H930.375L933.539 227.824Z" fill="#565E76"/>
<path d="M866.733 275H862.5V258.682L857.446 260.249V256.807L866.279 253.643H866.733V275ZM886.201 266.973H888.618V270.386H886.201V275H881.968V270.386H873.223L873.032 267.72L881.924 253.672H886.201V266.973ZM877.251 266.973H881.968V259.443L881.689 259.927L877.251 266.973ZM891.299 272.92C891.299 272.246 891.523 271.699 891.973 271.279C892.432 270.859 893.003 270.649 893.687 270.649C894.38 270.649 894.951 270.859 895.4 271.279C895.859 271.699 896.089 272.246 896.089 272.92C896.089 273.584 895.864 274.126 895.415 274.546C894.966 274.956 894.39 275.161 893.687 275.161C892.993 275.161 892.422 274.956 891.973 274.546C891.523 274.126 891.299 273.584 891.299 272.92ZM914.253 275H899.634V272.1L906.533 264.746C907.48 263.711 908.179 262.808 908.628 262.036C909.087 261.265 909.316 260.532 909.316 259.839C909.316 258.892 909.077 258.149 908.599 257.612C908.12 257.065 907.437 256.792 906.548 256.792C905.591 256.792 904.834 257.124 904.277 257.788C903.73 258.442 903.457 259.307 903.457 260.381H899.209C899.209 259.082 899.517 257.896 900.132 256.821C900.757 255.747 901.636 254.907 902.769 254.302C903.901 253.687 905.186 253.379 906.621 253.379C908.818 253.379 910.522 253.906 911.733 254.961C912.954 256.016 913.564 257.505 913.564 259.429C913.564 260.483 913.291 261.558 912.744 262.651C912.197 263.745 911.26 265.02 909.932 266.475L905.083 271.587H914.253V275ZM928.477 259.15L928.608 260.923C929.731 259.546 931.25 258.857 933.164 258.857C935.205 258.857 936.606 259.663 937.368 261.274C938.481 259.663 940.068 258.857 942.129 258.857C943.848 258.857 945.127 259.36 945.967 260.366C946.807 261.362 947.227 262.866 947.227 264.878V275H942.979V264.893C942.979 263.994 942.803 263.34 942.451 262.93C942.1 262.51 941.479 262.3 940.591 262.3C939.321 262.3 938.442 262.905 937.954 264.116L937.969 275H933.735V264.907C933.735 263.989 933.555 263.325 933.193 262.915C932.832 262.505 932.217 262.3 931.348 262.3C930.146 262.3 929.277 262.798 928.74 263.794V275H924.507V259.15H928.477Z" fill="#565E76"/>
<path d="M955.499 256H948.677V254.646L951.896 251.215C952.339 250.732 952.664 250.31 952.874 249.95C953.088 249.59 953.195 249.248 953.195 248.925C953.195 248.483 953.084 248.136 952.86 247.886C952.637 247.631 952.318 247.503 951.903 247.503C951.457 247.503 951.104 247.658 950.844 247.968C950.589 248.273 950.461 248.676 950.461 249.178H948.479C948.479 248.572 948.622 248.018 948.909 247.517C949.201 247.015 949.611 246.623 950.14 246.341C950.668 246.054 951.268 245.91 951.938 245.91C952.963 245.91 953.758 246.156 954.323 246.648C954.893 247.141 955.178 247.836 955.178 248.733C955.178 249.226 955.05 249.727 954.795 250.237C954.54 250.748 954.102 251.342 953.482 252.021L951.22 254.407H955.499V256Z" fill="#565E76"/>
<path d="M124.242 210.16H132.328V212H121.98V194.938H124.242V210.16ZM136.91 212H134.742V199.32H136.91V212ZM134.566 195.957C134.566 195.605 134.672 195.309 134.883 195.066C135.102 194.824 135.422 194.703 135.844 194.703C136.266 194.703 136.586 194.824 136.805 195.066C137.023 195.309 137.133 195.605 137.133 195.957C137.133 196.309 137.023 196.602 136.805 196.836C136.586 197.07 136.266 197.188 135.844 197.188C135.422 197.188 135.102 197.07 134.883 196.836C134.672 196.602 134.566 196.309 134.566 195.957ZM144.574 209.059L147.715 199.32H149.93L145.383 212H143.73L139.137 199.32H141.352L144.574 209.059ZM154.371 212H152.203V199.32H154.371V212ZM152.027 195.957C152.027 195.605 152.133 195.309 152.344 195.066C152.562 194.824 152.883 194.703 153.305 194.703C153.727 194.703 154.047 194.824 154.266 195.066C154.484 195.309 154.594 195.605 154.594 195.957C154.594 196.309 154.484 196.602 154.266 196.836C154.047 197.07 153.727 197.188 153.305 197.188C152.883 197.188 152.562 197.07 152.344 196.836C152.133 196.602 152.027 196.309 152.027 195.957ZM159.902 199.32L159.973 200.914C160.941 199.695 162.207 199.086 163.77 199.086C166.449 199.086 167.801 200.598 167.824 203.621V212H165.656V203.609C165.648 202.695 165.438 202.02 165.023 201.582C164.617 201.145 163.98 200.926 163.113 200.926C162.41 200.926 161.793 201.113 161.262 201.488C160.73 201.863 160.316 202.355 160.02 202.965V212H157.852V199.32H159.902ZM170.578 205.555C170.578 203.578 171.035 202.008 171.949 200.844C172.863 199.672 174.074 199.086 175.582 199.086C177.129 199.086 178.336 199.633 179.203 200.727L179.309 199.32H181.289V211.695C181.289 213.336 180.801 214.629 179.824 215.574C178.855 216.52 177.551 216.992 175.91 216.992C174.996 216.992 174.102 216.797 173.227 216.406C172.352 216.016 171.684 215.48 171.223 214.801L172.348 213.5C173.277 214.648 174.414 215.223 175.758 215.223C176.812 215.223 177.633 214.926 178.219 214.332C178.812 213.738 179.109 212.902 179.109 211.824V210.734C178.242 211.734 177.059 212.234 175.559 212.234C174.074 212.234 172.871 211.637 171.949 210.441C171.035 209.246 170.578 207.617 170.578 205.555ZM172.758 205.801C172.758 207.23 173.051 208.355 173.637 209.176C174.223 209.988 175.043 210.395 176.098 210.395C177.465 210.395 178.469 209.773 179.109 208.531V202.742C178.445 201.531 177.449 200.926 176.121 200.926C175.066 200.926 174.242 201.336 173.648 202.156C173.055 202.977 172.758 204.191 172.758 205.801ZM196.652 201.266C196.324 201.211 195.969 201.184 195.586 201.184C194.164 201.184 193.199 201.789 192.691 203V212H190.523V199.32H192.633L192.668 200.785C193.379 199.652 194.387 199.086 195.691 199.086C196.113 199.086 196.434 199.141 196.652 199.25V201.266ZM197.848 205.543C197.848 204.301 198.09 203.184 198.574 202.191C199.066 201.199 199.746 200.434 200.613 199.895C201.488 199.355 202.484 199.086 203.602 199.086C205.328 199.086 206.723 199.684 207.785 200.879C208.855 202.074 209.391 203.664 209.391 205.648V205.801C209.391 207.035 209.152 208.145 208.676 209.129C208.207 210.105 207.531 210.867 206.648 211.414C205.773 211.961 204.766 212.234 203.625 212.234C201.906 212.234 200.512 211.637 199.441 210.441C198.379 209.246 197.848 207.664 197.848 205.695V205.543ZM200.027 205.801C200.027 207.207 200.352 208.336 201 209.188C201.656 210.039 202.531 210.465 203.625 210.465C204.727 210.465 205.602 210.035 206.25 209.176C206.898 208.309 207.223 207.098 207.223 205.543C207.223 204.152 206.891 203.027 206.227 202.168C205.57 201.301 204.695 200.867 203.602 200.867C202.531 200.867 201.668 201.293 201.012 202.145C200.355 202.996 200.027 204.215 200.027 205.801ZM211.535 205.543C211.535 204.301 211.777 203.184 212.262 202.191C212.754 201.199 213.434 200.434 214.301 199.895C215.176 199.355 216.172 199.086 217.289 199.086C219.016 199.086 220.41 199.684 221.473 200.879C222.543 202.074 223.078 203.664 223.078 205.648V205.801C223.078 207.035 222.84 208.145 222.363 209.129C221.895 210.105 221.219 210.867 220.336 211.414C219.461 211.961 218.453 212.234 217.312 212.234C215.594 212.234 214.199 211.637 213.129 210.441C212.066 209.246 211.535 207.664 211.535 205.695V205.543ZM213.715 205.801C213.715 207.207 214.039 208.336 214.688 209.188C215.344 210.039 216.219 210.465 217.312 210.465C218.414 210.465 219.289 210.035 219.938 209.176C220.586 208.309 220.91 207.098 220.91 205.543C220.91 204.152 220.578 203.027 219.914 202.168C219.258 201.301 218.383 200.867 217.289 200.867C216.219 200.867 215.355 201.293 214.699 202.145C214.043 202.996 213.715 204.215 213.715 205.801ZM227.836 199.32L227.895 200.727C228.824 199.633 230.078 199.086 231.656 199.086C233.43 199.086 234.637 199.766 235.277 201.125C235.699 200.516 236.246 200.023 236.918 199.648C237.598 199.273 238.398 199.086 239.32 199.086C242.102 199.086 243.516 200.559 243.562 203.504V212H241.395V203.633C241.395 202.727 241.188 202.051 240.773 201.605C240.359 201.152 239.664 200.926 238.688 200.926C237.883 200.926 237.215 201.168 236.684 201.652C236.152 202.129 235.844 202.773 235.758 203.586V212H233.578V203.691C233.578 201.848 232.676 200.926 230.871 200.926C229.449 200.926 228.477 201.531 227.953 202.742V212H225.785V199.32H227.836Z" fill="#565E76"/>
<path d="M131.733 251.125H127.5V234.807L122.446 236.374V232.932L131.279 229.768H131.733V251.125ZM151.201 243.098H153.618V246.511H151.201V251.125H146.968V246.511H138.223L138.032 243.845L146.924 229.797H151.201V243.098ZM142.251 243.098H146.968V235.568L146.689 236.052L142.251 243.098ZM156.299 249.045C156.299 248.371 156.523 247.824 156.973 247.404C157.432 246.984 158.003 246.774 158.687 246.774C159.38 246.774 159.951 246.984 160.4 247.404C160.859 247.824 161.089 248.371 161.089 249.045C161.089 249.709 160.864 250.251 160.415 250.671C159.966 251.081 159.39 251.286 158.687 251.286C157.993 251.286 157.422 251.081 156.973 250.671C156.523 250.251 156.299 249.709 156.299 249.045ZM179.253 251.125H164.634V248.225L171.533 240.871C172.48 239.836 173.179 238.933 173.628 238.161C174.087 237.39 174.316 236.657 174.316 235.964C174.316 235.017 174.077 234.274 173.599 233.737C173.12 233.19 172.437 232.917 171.548 232.917C170.591 232.917 169.834 233.249 169.277 233.913C168.73 234.567 168.457 235.432 168.457 236.506H164.209C164.209 235.207 164.517 234.021 165.132 232.946C165.757 231.872 166.636 231.032 167.769 230.427C168.901 229.812 170.186 229.504 171.621 229.504C173.818 229.504 175.522 230.031 176.733 231.086C177.954 232.141 178.564 233.63 178.564 235.554C178.564 236.608 178.291 237.683 177.744 238.776C177.197 239.87 176.26 241.145 174.932 242.6L170.083 247.712H179.253V251.125ZM193.477 235.275L193.608 237.048C194.731 235.671 196.25 234.982 198.164 234.982C200.205 234.982 201.606 235.788 202.368 237.399C203.481 235.788 205.068 234.982 207.129 234.982C208.848 234.982 210.127 235.485 210.967 236.491C211.807 237.487 212.227 238.991 212.227 241.003V251.125H207.979V241.018C207.979 240.119 207.803 239.465 207.451 239.055C207.1 238.635 206.479 238.425 205.591 238.425C204.321 238.425 203.442 239.03 202.954 240.241L202.969 251.125H198.735V241.032C198.735 240.114 198.555 239.45 198.193 239.04C197.832 238.63 197.217 238.425 196.348 238.425C195.146 238.425 194.277 238.923 193.74 239.919V251.125H189.507V235.275H193.477Z" fill="#565E76"/>
<path d="M221.499 234H214.677V232.646L217.896 229.215C218.339 228.732 218.664 228.31 218.874 227.95C219.088 227.59 219.195 227.248 219.195 226.925C219.195 226.483 219.084 226.136 218.86 225.886C218.637 225.631 218.318 225.503 217.903 225.503C217.457 225.503 217.104 225.658 216.844 225.968C216.589 226.273 216.461 226.676 216.461 227.178H214.479C214.479 226.572 214.622 226.018 214.909 225.517C215.201 225.015 215.611 224.623 216.14 224.341C216.668 224.054 217.268 223.91 217.938 223.91C218.963 223.91 219.758 224.156 220.323 224.648C220.893 225.141 221.178 225.836 221.178 226.733C221.178 227.226 221.05 227.727 220.795 228.237C220.54 228.748 220.102 229.342 219.482 230.021L217.22 232.407H221.499V234Z" fill="#565E76"/>
<path d="M766.98 625V607.938H772.559C774.41 607.938 775.801 608.32 776.73 609.086C777.668 609.852 778.137 610.984 778.137 612.484C778.137 613.281 777.91 613.988 777.457 614.605C777.004 615.215 776.387 615.688 775.605 616.023C776.527 616.281 777.254 616.773 777.785 617.5C778.324 618.219 778.594 619.078 778.594 620.078C778.594 621.609 778.098 622.812 777.105 623.688C776.113 624.562 774.711 625 772.898 625H766.98ZM769.23 617.02V623.16H772.945C773.992 623.16 774.816 622.891 775.418 622.352C776.027 621.805 776.332 621.055 776.332 620.102C776.332 618.047 775.215 617.02 772.98 617.02H769.23ZM769.23 615.215H772.629C773.613 615.215 774.398 614.969 774.984 614.477C775.578 613.984 775.875 613.316 775.875 612.473C775.875 611.535 775.602 610.855 775.055 610.434C774.508 610.004 773.676 609.789 772.559 609.789H769.23V615.215ZM786.855 625.234C785.137 625.234 783.738 624.672 782.66 623.547C781.582 622.414 781.043 620.902 781.043 619.012V618.613C781.043 617.355 781.281 616.234 781.758 615.25C782.242 614.258 782.914 613.484 783.773 612.93C784.641 612.367 785.578 612.086 786.586 612.086C788.234 612.086 789.516 612.629 790.43 613.715C791.344 614.801 791.801 616.355 791.801 618.379V619.281H783.211C783.242 620.531 783.605 621.543 784.301 622.316C785.004 623.082 785.895 623.465 786.973 623.465C787.738 623.465 788.387 623.309 788.918 622.996C789.449 622.684 789.914 622.27 790.312 621.754L791.637 622.785C790.574 624.418 788.98 625.234 786.855 625.234ZM786.586 613.867C785.711 613.867 784.977 614.188 784.383 614.828C783.789 615.461 783.422 616.352 783.281 617.5H789.633V617.336C789.57 616.234 789.273 615.383 788.742 614.781C788.211 614.172 787.492 613.867 786.586 613.867ZM793.793 618.555C793.793 616.609 794.254 615.047 795.176 613.867C796.098 612.68 797.305 612.086 798.797 612.086C800.281 612.086 801.457 612.594 802.324 613.609V607H804.492V625H802.5L802.395 623.641C801.527 624.703 800.32 625.234 798.773 625.234C797.305 625.234 796.105 624.633 795.176 623.43C794.254 622.227 793.793 620.656 793.793 618.719V618.555ZM795.961 618.801C795.961 620.238 796.258 621.363 796.852 622.176C797.445 622.988 798.266 623.395 799.312 623.395C800.688 623.395 801.691 622.777 802.324 621.543V615.719C801.676 614.523 800.68 613.926 799.336 613.926C798.273 613.926 797.445 614.336 796.852 615.156C796.258 615.977 795.961 617.191 795.961 618.801ZM813.996 614.266C813.668 614.211 813.312 614.184 812.93 614.184C811.508 614.184 810.543 614.789 810.035 616V625H807.867V612.32H809.977L810.012 613.785C810.723 612.652 811.73 612.086 813.035 612.086C813.457 612.086 813.777 612.141 813.996 612.25V614.266ZM815.191 618.543C815.191 617.301 815.434 616.184 815.918 615.191C816.41 614.199 817.09 613.434 817.957 612.895C818.832 612.355 819.828 612.086 820.945 612.086C822.672 612.086 824.066 612.684 825.129 613.879C826.199 615.074 826.734 616.664 826.734 618.648V618.801C826.734 620.035 826.496 621.145 826.02 622.129C825.551 623.105 824.875 623.867 823.992 624.414C823.117 624.961 822.109 625.234 820.969 625.234C819.25 625.234 817.855 624.637 816.785 623.441C815.723 622.246 815.191 620.664 815.191 618.695V618.543ZM817.371 618.801C817.371 620.207 817.695 621.336 818.344 622.188C819 623.039 819.875 623.465 820.969 623.465C822.07 623.465 822.945 623.035 823.594 622.176C824.242 621.309 824.566 620.098 824.566 618.543C824.566 617.152 824.234 616.027 823.57 615.168C822.914 614.301 822.039 613.867 820.945 613.867C819.875 613.867 819.012 614.293 818.355 615.145C817.699 615.996 817.371 617.215 817.371 618.801ZM828.879 618.543C828.879 617.301 829.121 616.184 829.605 615.191C830.098 614.199 830.777 613.434 831.645 612.895C832.52 612.355 833.516 612.086 834.633 612.086C836.359 612.086 837.754 612.684 838.816 613.879C839.887 615.074 840.422 616.664 840.422 618.648V618.801C840.422 620.035 840.184 621.145 839.707 622.129C839.238 623.105 838.562 623.867 837.68 624.414C836.805 624.961 835.797 625.234 834.656 625.234C832.938 625.234 831.543 624.637 830.473 623.441C829.41 622.246 828.879 620.664 828.879 618.695V618.543ZM831.059 618.801C831.059 620.207 831.383 621.336 832.031 622.188C832.688 623.039 833.562 623.465 834.656 623.465C835.758 623.465 836.633 623.035 837.281 622.176C837.93 621.309 838.254 620.098 838.254 618.543C838.254 617.152 837.922 616.027 837.258 615.168C836.602 614.301 835.727 613.867 834.633 613.867C833.562 613.867 832.699 614.293 832.043 615.145C831.387 615.996 831.059 617.215 831.059 618.801ZM845.18 612.32L845.238 613.727C846.168 612.633 847.422 612.086 849 612.086C850.773 612.086 851.98 612.766 852.621 614.125C853.043 613.516 853.59 613.023 854.262 612.648C854.941 612.273 855.742 612.086 856.664 612.086C859.445 612.086 860.859 613.559 860.906 616.504V625H858.738V616.633C858.738 615.727 858.531 615.051 858.117 614.605C857.703 614.152 857.008 613.926 856.031 613.926C855.227 613.926 854.559 614.168 854.027 614.652C853.496 615.129 853.188 615.773 853.102 616.586V625H850.922V616.691C850.922 614.848 850.02 613.926 848.215 613.926C846.793 613.926 845.82 614.531 845.297 615.742V625H843.129V612.32H845.18Z" fill="#565E76"/>
<path d="M781.069 664.125H766.45V661.225L773.35 653.871C774.297 652.836 774.995 651.933 775.444 651.161C775.903 650.39 776.133 649.657 776.133 648.964C776.133 648.017 775.894 647.274 775.415 646.737C774.937 646.19 774.253 645.917 773.364 645.917C772.407 645.917 771.65 646.249 771.094 646.913C770.547 647.567 770.273 648.432 770.273 649.506H766.025C766.025 648.207 766.333 647.021 766.948 645.946C767.573 644.872 768.452 644.032 769.585 643.427C770.718 642.812 772.002 642.504 773.438 642.504C775.635 642.504 777.339 643.031 778.55 644.086C779.771 645.141 780.381 646.63 780.381 648.554C780.381 649.608 780.107 650.683 779.561 651.776C779.014 652.87 778.076 654.145 776.748 655.6L771.899 660.712H781.069V664.125ZM793.96 664.125H789.727V647.807L784.673 649.374V645.932L793.506 642.768H793.96V664.125ZM801.299 662.045C801.299 661.371 801.523 660.824 801.973 660.404C802.432 659.984 803.003 659.774 803.687 659.774C804.38 659.774 804.951 659.984 805.4 660.404C805.859 660.824 806.089 661.371 806.089 662.045C806.089 662.709 805.864 663.251 805.415 663.671C804.966 664.081 804.39 664.286 803.687 664.286C802.993 664.286 802.422 664.081 801.973 663.671C801.523 663.251 801.299 662.709 801.299 662.045ZM822.158 656.098H824.575V659.511H822.158V664.125H817.925V659.511H809.18L808.989 656.845L817.881 642.797H822.158V656.098ZM813.208 656.098H817.925V648.568L817.646 649.052L813.208 656.098ZM838.477 648.275L838.608 650.048C839.731 648.671 841.25 647.982 843.164 647.982C845.205 647.982 846.606 648.788 847.368 650.399C848.481 648.788 850.068 647.982 852.129 647.982C853.848 647.982 855.127 648.485 855.967 649.491C856.807 650.487 857.227 651.991 857.227 654.003V664.125H852.979V654.018C852.979 653.119 852.803 652.465 852.451 652.055C852.1 651.635 851.479 651.425 850.591 651.425C849.321 651.425 848.442 652.03 847.954 653.241L847.969 664.125H843.735V654.032C843.735 653.114 843.555 652.45 843.193 652.04C842.832 651.63 842.217 651.425 841.348 651.425C840.146 651.425 839.277 651.923 838.74 652.919V664.125H834.507V648.275H838.477Z" fill="#565E76"/>
<path d="M866.499 647H859.677V645.646L862.896 642.215C863.339 641.732 863.664 641.31 863.874 640.95C864.088 640.59 864.195 640.248 864.195 639.925C864.195 639.483 864.084 639.136 863.86 638.886C863.637 638.631 863.318 638.503 862.903 638.503C862.457 638.503 862.104 638.658 861.844 638.968C861.589 639.273 861.461 639.676 861.461 640.178H859.479C859.479 639.572 859.622 639.018 859.909 638.517C860.201 638.015 860.611 637.623 861.14 637.341C861.668 637.054 862.268 636.91 862.938 636.91C863.963 636.91 864.758 637.156 865.323 637.648C865.893 638.141 866.178 638.836 866.178 639.733C866.178 640.226 866.05 640.727 865.795 641.237C865.54 641.748 865.102 642.342 864.482 643.021L862.22 645.407H866.499V647Z" fill="#565E76"/>
<path d="M1247.98 681V663.938H1253.56C1255.41 663.938 1256.8 664.32 1257.73 665.086C1258.67 665.852 1259.14 666.984 1259.14 668.484C1259.14 669.281 1258.91 669.988 1258.46 670.605C1258 671.215 1257.39 671.688 1256.61 672.023C1257.53 672.281 1258.25 672.773 1258.79 673.5C1259.32 674.219 1259.59 675.078 1259.59 676.078C1259.59 677.609 1259.1 678.812 1258.11 679.688C1257.11 680.562 1255.71 681 1253.9 681H1247.98ZM1250.23 673.02V679.16H1253.95C1254.99 679.16 1255.82 678.891 1256.42 678.352C1257.03 677.805 1257.33 677.055 1257.33 676.102C1257.33 674.047 1256.21 673.02 1253.98 673.02H1250.23ZM1250.23 671.215H1253.63C1254.61 671.215 1255.4 670.969 1255.98 670.477C1256.58 669.984 1256.88 669.316 1256.88 668.473C1256.88 667.535 1256.6 666.855 1256.05 666.434C1255.51 666.004 1254.68 665.789 1253.56 665.789H1250.23V671.215ZM1267.86 681.234C1266.14 681.234 1264.74 680.672 1263.66 679.547C1262.58 678.414 1262.04 676.902 1262.04 675.012V674.613C1262.04 673.355 1262.28 672.234 1262.76 671.25C1263.24 670.258 1263.91 669.484 1264.77 668.93C1265.64 668.367 1266.58 668.086 1267.59 668.086C1269.23 668.086 1270.52 668.629 1271.43 669.715C1272.34 670.801 1272.8 672.355 1272.8 674.379V675.281H1264.21C1264.24 676.531 1264.61 677.543 1265.3 678.316C1266 679.082 1266.89 679.465 1267.97 679.465C1268.74 679.465 1269.39 679.309 1269.92 678.996C1270.45 678.684 1270.91 678.27 1271.31 677.754L1272.64 678.785C1271.57 680.418 1269.98 681.234 1267.86 681.234ZM1267.59 669.867C1266.71 669.867 1265.98 670.188 1265.38 670.828C1264.79 671.461 1264.42 672.352 1264.28 673.5H1270.63V673.336C1270.57 672.234 1270.27 671.383 1269.74 670.781C1269.21 670.172 1268.49 669.867 1267.59 669.867ZM1274.79 674.555C1274.79 672.609 1275.25 671.047 1276.18 669.867C1277.1 668.68 1278.3 668.086 1279.8 668.086C1281.28 668.086 1282.46 668.594 1283.32 669.609V663H1285.49V681H1283.5L1283.39 679.641C1282.53 680.703 1281.32 681.234 1279.77 681.234C1278.3 681.234 1277.11 680.633 1276.18 679.43C1275.25 678.227 1274.79 676.656 1274.79 674.719V674.555ZM1276.96 674.801C1276.96 676.238 1277.26 677.363 1277.85 678.176C1278.45 678.988 1279.27 679.395 1280.31 679.395C1281.69 679.395 1282.69 678.777 1283.32 677.543V671.719C1282.68 670.523 1281.68 669.926 1280.34 669.926C1279.27 669.926 1278.45 670.336 1277.85 671.156C1277.26 671.977 1276.96 673.191 1276.96 674.801ZM1295 670.266C1294.67 670.211 1294.31 670.184 1293.93 670.184C1292.51 670.184 1291.54 670.789 1291.04 672V681H1288.87V668.32H1290.98L1291.01 669.785C1291.72 668.652 1292.73 668.086 1294.04 668.086C1294.46 668.086 1294.78 668.141 1295 668.25V670.266ZM1296.19 674.543C1296.19 673.301 1296.43 672.184 1296.92 671.191C1297.41 670.199 1298.09 669.434 1298.96 668.895C1299.83 668.355 1300.83 668.086 1301.95 668.086C1303.67 668.086 1305.07 668.684 1306.13 669.879C1307.2 671.074 1307.73 672.664 1307.73 674.648V674.801C1307.73 676.035 1307.5 677.145 1307.02 678.129C1306.55 679.105 1305.88 679.867 1304.99 680.414C1304.12 680.961 1303.11 681.234 1301.97 681.234C1300.25 681.234 1298.86 680.637 1297.79 679.441C1296.72 678.246 1296.19 676.664 1296.19 674.695V674.543ZM1298.37 674.801C1298.37 676.207 1298.7 677.336 1299.34 678.188C1300 679.039 1300.88 679.465 1301.97 679.465C1303.07 679.465 1303.95 679.035 1304.59 678.176C1305.24 677.309 1305.57 676.098 1305.57 674.543C1305.57 673.152 1305.23 672.027 1304.57 671.168C1303.91 670.301 1303.04 669.867 1301.95 669.867C1300.88 669.867 1300.01 670.293 1299.36 671.145C1298.7 671.996 1298.37 673.215 1298.37 674.801ZM1309.88 674.543C1309.88 673.301 1310.12 672.184 1310.61 671.191C1311.1 670.199 1311.78 669.434 1312.64 668.895C1313.52 668.355 1314.52 668.086 1315.63 668.086C1317.36 668.086 1318.75 668.684 1319.82 669.879C1320.89 671.074 1321.42 672.664 1321.42 674.648V674.801C1321.42 676.035 1321.18 677.145 1320.71 678.129C1320.24 679.105 1319.56 679.867 1318.68 680.414C1317.8 680.961 1316.8 681.234 1315.66 681.234C1313.94 681.234 1312.54 680.637 1311.47 679.441C1310.41 678.246 1309.88 676.664 1309.88 674.695V674.543ZM1312.06 674.801C1312.06 676.207 1312.38 677.336 1313.03 678.188C1313.69 679.039 1314.56 679.465 1315.66 679.465C1316.76 679.465 1317.63 679.035 1318.28 678.176C1318.93 677.309 1319.25 676.098 1319.25 674.543C1319.25 673.152 1318.92 672.027 1318.26 671.168C1317.6 670.301 1316.73 669.867 1315.63 669.867C1314.56 669.867 1313.7 670.293 1313.04 671.145C1312.39 671.996 1312.06 673.215 1312.06 674.801ZM1326.18 668.32L1326.24 669.727C1327.17 668.633 1328.42 668.086 1330 668.086C1331.77 668.086 1332.98 668.766 1333.62 670.125C1334.04 669.516 1334.59 669.023 1335.26 668.648C1335.94 668.273 1336.74 668.086 1337.66 668.086C1340.45 668.086 1341.86 669.559 1341.91 672.504V681H1339.74V672.633C1339.74 671.727 1339.53 671.051 1339.12 670.605C1338.7 670.152 1338.01 669.926 1337.03 669.926C1336.23 669.926 1335.56 670.168 1335.03 670.652C1334.5 671.129 1334.19 671.773 1334.1 672.586V681H1331.92V672.691C1331.92 670.848 1331.02 669.926 1329.21 669.926C1327.79 669.926 1326.82 670.531 1326.3 671.742V681H1324.13V668.32H1326.18Z" fill="#565E76"/>
<path d="M1262.07 720.125H1247.45V717.225L1254.35 709.871C1255.3 708.836 1256 707.933 1256.44 707.161C1256.9 706.39 1257.13 705.657 1257.13 704.964C1257.13 704.017 1256.89 703.274 1256.42 702.737C1255.94 702.19 1255.25 701.917 1254.36 701.917C1253.41 701.917 1252.65 702.249 1252.09 702.913C1251.55 703.567 1251.27 704.432 1251.27 705.506H1247.03C1247.03 704.207 1247.33 703.021 1247.95 701.946C1248.57 700.872 1249.45 700.032 1250.58 699.427C1251.72 698.812 1253 698.504 1254.44 698.504C1256.63 698.504 1258.34 699.031 1259.55 700.086C1260.77 701.141 1261.38 702.63 1261.38 704.554C1261.38 705.608 1261.11 706.683 1260.56 707.776C1260.01 708.87 1259.08 710.145 1257.75 711.6L1252.9 716.712H1262.07V720.125ZM1279.03 711.307C1279.03 714.256 1278.42 716.512 1277.2 718.074C1275.98 719.637 1274.19 720.418 1271.84 720.418C1269.52 720.418 1267.74 719.651 1266.51 718.118C1265.28 716.585 1264.65 714.388 1264.62 711.526V707.601C1264.62 704.622 1265.23 702.361 1266.46 700.818C1267.7 699.275 1269.49 698.504 1271.81 698.504C1274.13 698.504 1275.91 699.271 1277.14 700.804C1278.37 702.327 1279 704.52 1279.03 707.381V711.307ZM1274.8 707C1274.8 705.232 1274.55 703.948 1274.07 703.147C1273.59 702.337 1272.84 701.932 1271.81 701.932C1270.81 701.932 1270.08 702.317 1269.6 703.089C1269.13 703.851 1268.88 705.047 1268.85 706.678V711.863C1268.85 713.602 1269.09 714.896 1269.55 715.745C1270.03 716.585 1270.79 717.005 1271.84 717.005C1272.88 717.005 1273.62 716.6 1274.08 715.789C1274.54 714.979 1274.78 713.738 1274.8 712.068V707ZM1282.3 718.045C1282.3 717.371 1282.52 716.824 1282.97 716.404C1283.43 715.984 1284 715.774 1284.69 715.774C1285.38 715.774 1285.95 715.984 1286.4 716.404C1286.86 716.824 1287.09 717.371 1287.09 718.045C1287.09 718.709 1286.86 719.251 1286.42 719.671C1285.97 720.081 1285.39 720.286 1284.69 720.286C1283.99 720.286 1283.42 720.081 1282.97 719.671C1282.52 719.251 1282.3 718.709 1282.3 718.045ZM1305.25 720.125H1290.63V717.225L1297.53 709.871C1298.48 708.836 1299.18 707.933 1299.63 707.161C1300.09 706.39 1300.32 705.657 1300.32 704.964C1300.32 704.017 1300.08 703.274 1299.6 702.737C1299.12 702.19 1298.44 701.917 1297.55 701.917C1296.59 701.917 1295.83 702.249 1295.28 702.913C1294.73 703.567 1294.46 704.432 1294.46 705.506H1290.21C1290.21 704.207 1290.52 703.021 1291.13 701.946C1291.76 700.872 1292.64 700.032 1293.77 699.427C1294.9 698.812 1296.19 698.504 1297.62 698.504C1299.82 698.504 1301.52 699.031 1302.73 700.086C1303.95 701.141 1304.56 702.63 1304.56 704.554C1304.56 705.608 1304.29 706.683 1303.74 707.776C1303.2 708.87 1302.26 710.145 1300.93 711.6L1296.08 716.712H1305.25V720.125ZM1319.48 704.275L1319.61 706.048C1320.73 704.671 1322.25 703.982 1324.16 703.982C1326.21 703.982 1327.61 704.788 1328.37 706.399C1329.48 704.788 1331.07 703.982 1333.13 703.982C1334.85 703.982 1336.13 704.485 1336.97 705.491C1337.81 706.487 1338.23 707.991 1338.23 710.003V720.125H1333.98V710.018C1333.98 709.119 1333.8 708.465 1333.45 708.055C1333.1 707.635 1332.48 707.425 1331.59 707.425C1330.32 707.425 1329.44 708.03 1328.95 709.241L1328.97 720.125H1324.74V710.032C1324.74 709.114 1324.55 708.45 1324.19 708.04C1323.83 707.63 1323.22 707.425 1322.35 707.425C1321.15 707.425 1320.28 707.923 1319.74 708.919V720.125H1315.51V704.275H1319.48Z" fill="#565E76"/>
<path d="M1347.5 703H1340.68V701.646L1343.9 698.215C1344.34 697.732 1344.66 697.31 1344.87 696.95C1345.09 696.59 1345.2 696.248 1345.2 695.925C1345.2 695.483 1345.08 695.136 1344.86 694.886C1344.64 694.631 1344.32 694.503 1343.9 694.503C1343.46 694.503 1343.1 694.658 1342.84 694.968C1342.59 695.273 1342.46 695.676 1342.46 696.178H1340.48C1340.48 695.572 1340.62 695.018 1340.91 694.517C1341.2 694.015 1341.61 693.623 1342.14 693.341C1342.67 693.054 1343.27 692.91 1343.94 692.91C1344.96 692.91 1345.76 693.156 1346.32 693.648C1346.89 694.141 1347.18 694.836 1347.18 695.733C1347.18 696.226 1347.05 696.727 1346.79 697.237C1346.54 697.748 1346.1 698.342 1345.48 699.021L1343.22 701.407H1347.5V703Z" fill="#565E76"/>
</g>
<defs>
<clipPath id="clip0">
<rect width="1565" height="1087" fill="white" transform="translate(1565 1087) rotate(180)"/>
</clipPath>
</defs>
</svg>
