<svg width="1618" height="1016" viewBox="0 0 1618 1016" fill="none" xmlns="http://www.w3.org/2000/svg">
<g clip-path="url(#clip0)">
<path d="M1618 -65H-155V1201.11H1618V-65Z" fill="white"/>
<path d="M1576.65 770.372V11.2461H14.4446V992.459H665.365V770.372H1576.65Z" fill="#F4F4F5"/>
<path d="M1466.82 468.892H1298.15V300.224H1466.82V468.892Z" fill="#565E76"/>
<path d="M1347.08 341.588V346.193H1350.63V348.707H1347.08V360.502C1347.08 361.264 1347.24 361.838 1347.56 362.225C1347.87 362.6 1348.41 362.787 1349.17 362.787C1349.55 362.787 1350.06 362.717 1350.72 362.576V365.213C1349.86 365.447 1349.03 365.564 1348.22 365.564C1346.77 365.564 1345.67 365.125 1344.94 364.246C1344.2 363.367 1343.83 362.119 1343.83 360.502V348.707H1340.37V346.193H1343.83V341.588H1347.08ZM1353.23 355.527C1353.23 353.664 1353.6 351.988 1354.32 350.5C1355.06 349.012 1356.08 347.863 1357.38 347.055C1358.69 346.246 1360.19 345.842 1361.86 345.842C1364.45 345.842 1366.55 346.738 1368.14 348.531C1369.74 350.324 1370.55 352.709 1370.55 355.686V355.914C1370.55 357.766 1370.19 359.43 1369.48 360.906C1368.77 362.371 1367.76 363.514 1366.43 364.334C1365.12 365.154 1363.61 365.564 1361.9 365.564C1359.32 365.564 1357.23 364.668 1355.62 362.875C1354.03 361.082 1353.23 358.709 1353.23 355.756V355.527ZM1356.5 355.914C1356.5 358.023 1356.99 359.717 1357.96 360.994C1358.95 362.271 1360.26 362.91 1361.9 362.91C1363.55 362.91 1364.86 362.266 1365.84 360.977C1366.81 359.676 1367.3 357.859 1367.3 355.527C1367.3 353.441 1366.8 351.754 1365.8 350.465C1364.82 349.164 1363.5 348.514 1361.86 348.514C1360.26 348.514 1358.96 349.152 1357.98 350.43C1356.99 351.707 1356.5 353.535 1356.5 355.914ZM1379.04 341.588V346.193H1382.59V348.707H1379.04V360.502C1379.04 361.264 1379.2 361.838 1379.51 362.225C1379.83 362.6 1380.37 362.787 1381.13 362.787C1381.5 362.787 1382.02 362.717 1382.68 362.576V365.213C1381.82 365.447 1380.99 365.564 1380.18 365.564C1378.73 365.564 1377.63 365.125 1376.89 364.246C1376.16 363.367 1375.79 362.119 1375.79 360.502V348.707H1372.32V346.193H1375.79V341.588H1379.04ZM1398.15 365.213C1397.96 364.838 1397.81 364.17 1397.69 363.209C1396.18 364.779 1394.37 365.564 1392.27 365.564C1390.4 365.564 1388.86 365.037 1387.65 363.982C1386.46 362.916 1385.86 361.568 1385.86 359.939C1385.86 357.959 1386.61 356.424 1388.11 355.334C1389.62 354.232 1391.74 353.682 1394.47 353.682H1397.64V352.188C1397.64 351.051 1397.3 350.148 1396.62 349.48C1395.94 348.801 1394.93 348.461 1393.61 348.461C1392.45 348.461 1391.48 348.754 1390.69 349.34C1389.91 349.926 1389.51 350.635 1389.51 351.467H1386.24C1386.24 350.518 1386.58 349.604 1387.25 348.725C1387.93 347.834 1388.84 347.131 1389.99 346.615C1391.15 346.1 1392.42 345.842 1393.8 345.842C1395.99 345.842 1397.71 346.393 1398.95 347.494C1400.2 348.584 1400.84 350.09 1400.89 352.012V360.766C1400.89 362.512 1401.11 363.9 1401.56 364.932V365.213H1398.15ZM1392.75 362.734C1393.77 362.734 1394.74 362.471 1395.65 361.943C1396.56 361.416 1397.23 360.73 1397.64 359.887V355.984H1395.09C1391.1 355.984 1389.11 357.15 1389.11 359.482C1389.11 360.502 1389.45 361.299 1390.13 361.873C1390.81 362.447 1391.68 362.734 1392.75 362.734ZM1409.52 365.213H1406.27V338.213H1409.52V365.213Z" fill="white"/>
<path d="M1431.37 383.841C1431.15 383.914 1431.07 384.06 1431.15 384.279L1431.55 385.412C1431.62 385.595 1431.77 385.668 1431.95 385.595L1432.97 385.302C1433.74 385.046 1434.62 384.864 1435.57 384.864C1437.1 384.864 1438.13 385.631 1438.13 386.764C1438.13 387.458 1437.65 388.08 1436.81 388.664L1433.56 390.784C1431.77 391.953 1431 393.598 1431 395.9V396.777C1431 396.997 1431.11 397.106 1431.33 397.106H1439.62C1439.84 397.106 1439.95 396.997 1439.95 396.777V395.608C1439.95 395.389 1439.84 395.279 1439.62 395.279H1433.01C1433.01 394.073 1433.41 393.123 1434.54 392.392L1437.83 390.236C1439.41 389.213 1440.14 388.116 1440.14 386.764C1440.14 384.389 1438.38 383 1435.57 383C1434.44 383 1433.41 383.183 1432.35 383.512L1431.37 383.841Z" fill="white"/>
<path d="M1323.73 401.314H1326.15C1327.49 401.314 1328.67 401.08 1329.67 400.611C1330.67 400.13 1331.43 399.479 1331.95 398.658C1332.49 397.825 1332.75 396.868 1332.75 395.787C1332.75 393.964 1332.24 392.538 1331.21 391.51C1330.18 390.481 1328.7 389.967 1326.78 389.967C1324.95 389.967 1323.46 390.507 1322.29 391.588C1321.13 392.656 1320.55 394.068 1320.55 395.826H1318.2C1318.2 394.355 1318.57 393.014 1319.32 391.803C1320.06 390.579 1321.09 389.635 1322.4 388.971C1323.72 388.307 1325.18 387.975 1326.78 387.975C1329.36 387.975 1331.39 388.678 1332.87 390.084C1334.36 391.49 1335.1 393.417 1335.1 395.865C1335.1 397.232 1334.66 398.495 1333.79 399.654C1332.93 400.8 1331.74 401.66 1330.23 402.232C1332.01 402.727 1333.35 403.58 1334.26 404.791C1335.17 405.989 1335.63 407.421 1335.63 409.088C1335.63 411.523 1334.83 413.482 1333.24 414.967C1331.65 416.451 1329.53 417.193 1326.88 417.193C1325.18 417.193 1323.63 416.855 1322.21 416.178C1320.8 415.501 1319.71 414.557 1318.93 413.346C1318.16 412.122 1317.77 410.702 1317.77 409.088H1320.12C1320.12 410.898 1320.75 412.376 1322.01 413.521C1323.27 414.654 1324.9 415.221 1326.88 415.221C1328.89 415.221 1330.46 414.706 1331.58 413.678C1332.71 412.636 1333.28 411.132 1333.28 409.166C1333.28 407.265 1332.67 405.813 1331.45 404.811C1330.23 403.808 1328.44 403.307 1326.07 403.307H1323.73V401.314ZM1358.54 416.803H1340.72V415.006L1350.47 403.951C1352.08 402.089 1353.2 400.553 1353.83 399.342C1354.45 398.131 1354.77 396.952 1354.77 395.807C1354.77 394.01 1354.24 392.59 1353.18 391.549C1352.13 390.494 1350.68 389.967 1348.83 389.967C1346.91 389.967 1345.36 390.579 1344.18 391.803C1343.01 393.027 1342.42 394.615 1342.42 396.568H1340.1C1340.1 394.967 1340.46 393.508 1341.17 392.193C1341.9 390.878 1342.93 389.85 1344.26 389.107C1345.6 388.352 1347.12 387.975 1348.83 387.975C1351.43 387.975 1353.46 388.658 1354.92 390.025C1356.39 391.393 1357.13 393.255 1357.13 395.611C1357.13 396.939 1356.71 398.391 1355.88 399.967C1355.06 401.542 1353.61 403.508 1351.52 405.865L1343.59 414.83H1358.54V416.803ZM1380.06 404.947C1380.06 408.958 1379.32 412.005 1377.85 414.088C1376.38 416.158 1374.21 417.193 1371.35 417.193C1368.54 417.193 1366.38 416.178 1364.88 414.146C1363.39 412.102 1362.62 409.133 1362.58 405.24V400.143C1362.58 396.145 1363.32 393.118 1364.8 391.061C1366.29 389.003 1368.46 387.975 1371.31 387.975C1374.12 387.975 1376.27 388.971 1377.75 390.963C1379.24 392.942 1380.01 395.865 1380.06 399.732V404.947ZM1377.71 399.85C1377.71 396.594 1377.18 394.133 1376.11 392.467C1375.06 390.8 1373.46 389.967 1371.31 389.967C1369.2 389.967 1367.61 390.781 1366.54 392.408C1365.48 394.036 1364.93 396.438 1364.9 399.615V405.201C1364.9 408.443 1365.45 410.924 1366.54 412.643C1367.65 414.361 1369.25 415.221 1371.35 415.221C1373.43 415.221 1375.01 414.381 1376.07 412.701C1377.16 411.021 1377.7 408.561 1377.71 405.318V399.85ZM1397.32 395.67L1397.4 399.107C1398.18 397.831 1399.16 396.874 1400.33 396.236C1401.5 395.598 1402.81 395.279 1404.24 395.279C1407.57 395.279 1409.69 396.646 1410.59 399.381C1411.34 398.066 1412.35 397.057 1413.61 396.354C1414.88 395.637 1416.27 395.279 1417.79 395.279C1422.32 395.279 1424.64 397.753 1424.73 402.701V416.803H1422.38V402.877C1422.37 400.989 1421.96 399.589 1421.15 398.678C1420.36 397.766 1419.06 397.311 1417.25 397.311C1415.57 397.337 1414.15 397.883 1412.99 398.951C1411.83 400.006 1411.19 401.295 1411.05 402.818V416.803H1408.71V402.701C1408.7 400.891 1408.27 399.544 1407.42 398.658C1406.59 397.76 1405.3 397.311 1403.55 397.311C1402.08 397.311 1400.82 397.734 1399.77 398.58C1398.71 399.413 1397.93 400.657 1397.42 402.311V416.803H1395.08V395.67H1397.32Z" fill="white"/>
<path d="M149.03 361.774L146.944 363.942V369.708H144.694V352.646H146.944V361.083L154.526 352.646H157.245L150.53 360.181L157.772 369.708H155.077L149.03 361.774ZM161.756 369.708H159.588V357.028H161.756V369.708ZM159.413 353.665C159.413 353.313 159.518 353.017 159.729 352.774C159.948 352.532 160.268 352.411 160.69 352.411C161.112 352.411 161.432 352.532 161.651 352.774C161.87 353.017 161.979 353.313 161.979 353.665C161.979 354.017 161.87 354.31 161.651 354.544C161.432 354.778 161.112 354.896 160.69 354.896C160.268 354.896 159.948 354.778 159.729 354.544C159.518 354.31 159.413 354.017 159.413 353.665ZM168.178 353.958V357.028H170.545V358.704H168.178V366.567C168.178 367.075 168.284 367.458 168.495 367.716C168.706 367.966 169.065 368.091 169.573 368.091C169.823 368.091 170.167 368.044 170.604 367.95V369.708C170.034 369.864 169.479 369.942 168.94 369.942C167.971 369.942 167.241 369.649 166.749 369.063C166.256 368.478 166.01 367.646 166.01 366.567V358.704H163.702V357.028H166.01V353.958H168.178ZM178.174 368.173C178.948 368.173 179.624 367.938 180.202 367.47C180.78 367.001 181.1 366.415 181.163 365.712H183.213C183.174 366.438 182.924 367.13 182.463 367.786C182.002 368.442 181.385 368.966 180.612 369.356C179.846 369.747 179.034 369.942 178.174 369.942C176.448 369.942 175.073 369.368 174.049 368.22C173.034 367.063 172.526 365.485 172.526 363.485V363.122C172.526 361.888 172.752 360.79 173.206 359.829C173.659 358.868 174.307 358.122 175.151 357.591C176.002 357.06 177.006 356.794 178.163 356.794C179.584 356.794 180.764 357.22 181.702 358.071C182.647 358.923 183.151 360.028 183.213 361.388H181.163C181.1 360.567 180.788 359.896 180.225 359.372C179.67 358.841 178.983 358.575 178.163 358.575C177.061 358.575 176.206 358.974 175.596 359.771C174.995 360.56 174.694 361.704 174.694 363.204V363.614C174.694 365.075 174.995 366.2 175.596 366.989C176.198 367.778 177.057 368.173 178.174 368.173ZM187.819 358.563C188.78 357.384 190.03 356.794 191.569 356.794C194.249 356.794 195.6 358.306 195.624 361.329V369.708H193.456V361.317C193.448 360.403 193.237 359.728 192.823 359.29C192.417 358.853 191.78 358.634 190.913 358.634C190.209 358.634 189.592 358.821 189.061 359.196C188.53 359.571 188.116 360.063 187.819 360.673V369.708H185.651V351.708H187.819V358.563ZM204.131 369.942C202.413 369.942 201.014 369.38 199.936 368.255C198.858 367.122 198.319 365.61 198.319 363.72V363.321C198.319 362.063 198.557 360.942 199.034 359.958C199.518 358.966 200.19 358.192 201.049 357.638C201.917 357.075 202.854 356.794 203.862 356.794C205.51 356.794 206.792 357.337 207.706 358.423C208.62 359.509 209.077 361.063 209.077 363.087V363.989H200.487C200.518 365.239 200.881 366.251 201.577 367.024C202.28 367.79 203.17 368.173 204.249 368.173C205.014 368.173 205.663 368.017 206.194 367.704C206.725 367.392 207.19 366.978 207.588 366.462L208.913 367.493C207.85 369.126 206.256 369.942 204.131 369.942ZM203.862 358.575C202.987 358.575 202.252 358.896 201.659 359.536C201.065 360.169 200.698 361.06 200.557 362.208H206.909V362.044C206.846 360.942 206.549 360.091 206.018 359.489C205.487 358.88 204.768 358.575 203.862 358.575ZM213.647 357.028L213.717 358.622C214.686 357.403 215.952 356.794 217.514 356.794C220.194 356.794 221.545 358.306 221.569 361.329V369.708H219.401V361.317C219.393 360.403 219.182 359.728 218.768 359.29C218.362 358.853 217.725 358.634 216.858 358.634C216.155 358.634 215.538 358.821 215.006 359.196C214.475 359.571 214.061 360.063 213.764 360.673V369.708H211.596V357.028H213.647Z" fill="#565E76"/>
<path d="M158.651 414.551H144.31V412.104L151.415 404.355C152.44 403.213 153.167 402.261 153.597 401.499C154.037 400.728 154.256 399.956 154.256 399.185C154.256 398.169 153.968 397.349 153.392 396.724C152.826 396.099 152.059 395.786 151.092 395.786C149.94 395.786 149.046 396.138 148.412 396.841C147.777 397.544 147.459 398.506 147.459 399.727H143.9C143.9 398.428 144.193 397.261 144.779 396.226C145.375 395.181 146.219 394.37 147.313 393.794C148.417 393.218 149.686 392.93 151.122 392.93C153.192 392.93 154.823 393.452 156.014 394.497C157.215 395.532 157.816 396.968 157.816 398.804C157.816 399.868 157.513 400.986 156.908 402.158C156.312 403.32 155.331 404.644 153.963 406.128L148.749 411.709H158.651V414.551ZM171 414.551H167.455V397.427L162.225 399.214V396.211L170.545 393.149H171V414.551ZM180.858 410.801C181.522 410.801 182.035 410.991 182.396 411.372C182.757 411.743 182.938 412.212 182.938 412.778C182.938 413.335 182.757 413.799 182.396 414.17C182.035 414.531 181.522 414.712 180.858 414.712C180.223 414.712 179.72 414.531 179.349 414.17C178.978 413.809 178.792 413.345 178.792 412.778C178.792 412.212 178.973 411.743 179.334 411.372C179.696 410.991 180.204 410.801 180.858 410.801ZM187.743 403.975L188.9 393.223H200.355V396.299H191.859L191.273 401.396C192.259 400.83 193.373 400.547 194.613 400.547C196.644 400.547 198.221 401.196 199.344 402.495C200.477 403.794 201.043 405.542 201.043 407.739C201.043 409.907 200.418 411.636 199.168 412.925C197.918 414.204 196.205 414.844 194.027 414.844C192.074 414.844 190.453 414.292 189.164 413.188C187.884 412.075 187.191 410.61 187.083 408.794H190.526C190.663 409.829 191.034 410.625 191.639 411.182C192.245 411.729 193.036 412.002 194.012 412.002C195.106 412.002 195.956 411.611 196.561 410.83C197.176 410.049 197.484 408.984 197.484 407.637C197.484 406.338 197.147 405.312 196.473 404.561C195.799 403.799 194.872 403.418 193.69 403.418C193.045 403.418 192.499 403.506 192.049 403.682C191.6 403.848 191.112 404.18 190.584 404.678L187.743 403.975ZM214.886 398.701L214.989 400.356C216.102 399.058 217.625 398.408 219.559 398.408C221.678 398.408 223.128 399.219 223.91 400.84C225.062 399.219 226.683 398.408 228.773 398.408C230.521 398.408 231.82 398.892 232.669 399.858C233.529 400.825 233.968 402.251 233.988 404.136V414.551H230.428V404.238C230.428 403.232 230.208 402.495 229.769 402.026C229.33 401.558 228.602 401.323 227.586 401.323C226.776 401.323 226.112 401.543 225.594 401.982C225.086 402.412 224.73 402.979 224.525 403.682L224.54 414.551H220.98V404.121C220.931 402.256 219.979 401.323 218.124 401.323C216.698 401.323 215.687 401.904 215.091 403.066V414.551H211.532V398.701H214.886Z" fill="#565E76"/>
<path d="M244.906 399H238.692V397.94L241.771 394.582C242.215 394.087 242.53 393.674 242.716 393.344C242.907 393.01 243.002 392.676 243.002 392.341C243.002 391.901 242.877 391.546 242.627 391.275C242.382 391.004 242.05 390.869 241.631 390.869C241.132 390.869 240.744 391.021 240.469 391.326C240.194 391.63 240.057 392.047 240.057 392.576H238.514C238.514 392.013 238.641 391.508 238.895 391.059C239.153 390.606 239.519 390.255 239.993 390.005C240.471 389.756 241.021 389.631 241.644 389.631C242.541 389.631 243.247 389.857 243.764 390.31C244.284 390.759 244.544 391.381 244.544 392.176C244.544 392.638 244.413 393.122 244.151 393.63C243.893 394.133 243.467 394.707 242.875 395.35L240.615 397.769H244.906V399Z" fill="#565E76"/>
<path d="M527.626 281.169V264.106H533.205C535.056 264.106 536.447 264.489 537.376 265.255C538.314 266.021 538.783 267.153 538.783 268.653C538.783 269.45 538.556 270.157 538.103 270.774C537.65 271.384 537.033 271.856 536.251 272.192C537.173 272.45 537.9 272.942 538.431 273.669C538.97 274.388 539.24 275.247 539.24 276.247C539.24 277.778 538.744 278.981 537.751 279.856C536.759 280.731 535.357 281.169 533.544 281.169H527.626ZM529.876 273.188V279.329H533.591C534.638 279.329 535.462 279.06 536.064 278.521C536.673 277.974 536.978 277.224 536.978 276.271C536.978 274.216 535.861 273.188 533.626 273.188H529.876ZM529.876 271.384H533.275C534.259 271.384 535.044 271.138 535.63 270.646C536.224 270.153 536.521 269.485 536.521 268.642C536.521 267.704 536.248 267.024 535.701 266.603C535.154 266.173 534.322 265.958 533.205 265.958H529.876V271.384ZM547.501 281.403C545.783 281.403 544.384 280.841 543.306 279.716C542.228 278.583 541.689 277.071 541.689 275.181V274.782C541.689 273.524 541.927 272.403 542.404 271.419C542.888 270.427 543.56 269.653 544.419 269.099C545.287 268.536 546.224 268.255 547.232 268.255C548.88 268.255 550.162 268.798 551.076 269.884C551.99 270.97 552.447 272.524 552.447 274.548V275.45H543.857C543.888 276.7 544.251 277.712 544.947 278.485C545.65 279.251 546.541 279.634 547.619 279.634C548.384 279.634 549.033 279.478 549.564 279.165C550.095 278.853 550.56 278.438 550.958 277.923L552.283 278.954C551.22 280.587 549.626 281.403 547.501 281.403ZM547.232 270.036C546.357 270.036 545.623 270.356 545.029 270.997C544.435 271.63 544.068 272.521 543.927 273.669H550.279V273.505C550.216 272.403 549.919 271.552 549.388 270.95C548.857 270.341 548.138 270.036 547.232 270.036ZM554.439 274.724C554.439 272.778 554.9 271.216 555.822 270.036C556.744 268.849 557.951 268.255 559.443 268.255C560.927 268.255 562.103 268.763 562.97 269.778V263.169H565.138V281.169H563.146L563.041 279.81C562.173 280.872 560.966 281.403 559.419 281.403C557.951 281.403 556.751 280.802 555.822 279.599C554.9 278.396 554.439 276.825 554.439 274.888V274.724ZM556.607 274.97C556.607 276.407 556.904 277.532 557.498 278.345C558.091 279.157 558.912 279.563 559.958 279.563C561.333 279.563 562.337 278.946 562.97 277.712V271.888C562.322 270.692 561.326 270.095 559.982 270.095C558.919 270.095 558.091 270.505 557.498 271.325C556.904 272.146 556.607 273.36 556.607 274.97ZM574.642 270.435C574.314 270.38 573.958 270.353 573.576 270.353C572.154 270.353 571.189 270.958 570.681 272.169V281.169H568.513V268.489H570.623L570.658 269.954C571.369 268.821 572.376 268.255 573.681 268.255C574.103 268.255 574.423 268.31 574.642 268.419V270.435ZM575.837 274.712C575.837 273.47 576.08 272.353 576.564 271.36C577.056 270.368 577.736 269.603 578.603 269.063C579.478 268.524 580.474 268.255 581.591 268.255C583.318 268.255 584.712 268.853 585.775 270.048C586.845 271.243 587.38 272.833 587.38 274.817V274.97C587.38 276.204 587.142 277.313 586.666 278.298C586.197 279.274 585.521 280.036 584.638 280.583C583.763 281.13 582.755 281.403 581.615 281.403C579.896 281.403 578.501 280.806 577.431 279.61C576.369 278.415 575.837 276.833 575.837 274.864V274.712ZM578.017 274.97C578.017 276.376 578.341 277.505 578.99 278.356C579.646 279.208 580.521 279.634 581.615 279.634C582.716 279.634 583.591 279.204 584.24 278.345C584.888 277.478 585.212 276.267 585.212 274.712C585.212 273.321 584.88 272.196 584.216 271.337C583.56 270.47 582.685 270.036 581.591 270.036C580.521 270.036 579.658 270.462 579.001 271.313C578.345 272.165 578.017 273.384 578.017 274.97ZM589.525 274.712C589.525 273.47 589.767 272.353 590.251 271.36C590.744 270.368 591.423 269.603 592.291 269.063C593.166 268.524 594.162 268.255 595.279 268.255C597.005 268.255 598.4 268.853 599.462 270.048C600.533 271.243 601.068 272.833 601.068 274.817V274.97C601.068 276.204 600.83 277.313 600.353 278.298C599.884 279.274 599.208 280.036 598.326 280.583C597.451 281.13 596.443 281.403 595.302 281.403C593.583 281.403 592.189 280.806 591.119 279.61C590.056 278.415 589.525 276.833 589.525 274.864V274.712ZM591.705 274.97C591.705 276.376 592.029 277.505 592.677 278.356C593.333 279.208 594.208 279.634 595.302 279.634C596.404 279.634 597.279 279.204 597.927 278.345C598.576 277.478 598.9 276.267 598.9 274.712C598.9 273.321 598.568 272.196 597.904 271.337C597.248 270.47 596.373 270.036 595.279 270.036C594.208 270.036 593.345 270.462 592.689 271.313C592.033 272.165 591.705 273.384 591.705 274.97ZM605.826 268.489L605.884 269.896C606.814 268.802 608.068 268.255 609.646 268.255C611.419 268.255 612.626 268.935 613.267 270.294C613.689 269.685 614.236 269.192 614.908 268.817C615.587 268.442 616.388 268.255 617.31 268.255C620.091 268.255 621.505 269.728 621.552 272.673V281.169H619.384V272.802C619.384 271.896 619.177 271.22 618.763 270.774C618.349 270.321 617.654 270.095 616.677 270.095C615.873 270.095 615.205 270.337 614.673 270.821C614.142 271.298 613.833 271.942 613.748 272.755V281.169H611.568V272.86C611.568 271.017 610.666 270.095 608.861 270.095C607.439 270.095 606.466 270.7 605.943 271.911V281.169H603.775V268.489H605.826Z" fill="#565E76"/>
<path d="M531.359 313.722H533.527C534.621 313.712 535.485 313.429 536.12 312.872C536.764 312.315 537.086 311.51 537.086 310.455C537.086 309.439 536.818 308.653 536.281 308.097C535.753 307.53 534.943 307.247 533.849 307.247C532.892 307.247 532.106 307.525 531.491 308.082C530.875 308.629 530.568 309.347 530.568 310.235H527.008C527.008 309.142 527.296 308.146 527.873 307.247C528.458 306.349 529.269 305.65 530.304 305.152C531.349 304.645 532.516 304.391 533.805 304.391C535.934 304.391 537.604 304.928 538.815 306.002C540.036 307.066 540.646 308.551 540.646 310.455C540.646 311.412 540.338 312.315 539.723 313.165C539.118 314.005 538.332 314.64 537.365 315.069C538.537 315.47 539.425 316.1 540.031 316.959C540.646 317.818 540.954 318.844 540.954 320.035C540.954 321.949 540.294 323.473 538.976 324.605C537.667 325.738 535.944 326.305 533.805 326.305C531.754 326.305 530.075 325.758 528.766 324.664C527.458 323.57 526.803 322.115 526.803 320.299H530.363C530.363 321.236 530.675 321.998 531.3 322.584C531.935 323.17 532.785 323.463 533.849 323.463C534.953 323.463 535.822 323.17 536.457 322.584C537.091 321.998 537.409 321.148 537.409 320.035C537.409 318.912 537.077 318.048 536.413 317.442C535.749 316.837 534.762 316.534 533.454 316.534H531.359V313.722ZM558.195 317.032C558.195 320.099 557.619 322.413 556.466 323.976C555.324 325.528 553.581 326.305 551.237 326.305C548.932 326.305 547.194 325.548 546.022 324.034C544.86 322.511 544.264 320.26 544.235 317.281V313.59C544.235 310.523 544.806 308.224 545.949 306.69C547.101 305.157 548.854 304.391 551.208 304.391C553.542 304.391 555.28 305.138 556.422 306.632C557.575 308.126 558.166 310.362 558.195 313.341V317.032ZM554.635 313.048C554.635 311.046 554.362 309.581 553.815 308.653C553.268 307.716 552.399 307.247 551.208 307.247C550.045 307.247 549.191 307.691 548.644 308.58C548.097 309.459 547.809 310.836 547.78 312.711V317.545C547.78 319.537 548.058 321.021 548.615 321.998C549.171 322.975 550.045 323.463 551.237 323.463C552.379 323.463 553.224 323.014 553.771 322.115C554.318 321.207 554.606 319.791 554.635 317.867V313.048ZM563.791 322.262C564.455 322.262 564.967 322.452 565.329 322.833C565.69 323.204 565.871 323.673 565.871 324.239C565.871 324.796 565.69 325.26 565.329 325.631C564.967 325.992 564.455 326.173 563.791 326.173C563.156 326.173 562.653 325.992 562.282 325.631C561.911 325.27 561.725 324.806 561.725 324.239C561.725 323.673 561.906 323.204 562.267 322.833C562.628 322.452 563.136 322.262 563.791 322.262ZM579.362 326.012H575.817V308.888L570.587 310.675V307.672L578.908 304.61H579.362V326.012ZM587.726 315.436L588.883 304.684H600.338V307.76H591.842L591.256 312.857C592.243 312.291 593.356 312.008 594.596 312.008C596.627 312.008 598.205 312.657 599.328 313.956C600.46 315.255 601.027 317.003 601.027 319.2C601.027 321.368 600.402 323.097 599.152 324.386C597.902 325.665 596.188 326.305 594.01 326.305C592.057 326.305 590.436 325.753 589.147 324.649C587.868 323.536 587.174 322.071 587.067 320.255H590.509C590.646 321.29 591.017 322.086 591.623 322.643C592.228 323.189 593.019 323.463 593.996 323.463C595.089 323.463 595.939 323.072 596.544 322.291C597.16 321.51 597.467 320.445 597.467 319.098C597.467 317.799 597.13 316.773 596.457 316.021C595.783 315.26 594.855 314.879 593.673 314.879C593.029 314.879 592.482 314.967 592.033 315.143C591.583 315.309 591.095 315.641 590.568 316.139L587.726 315.436ZM614.87 310.162L614.972 311.817C616.085 310.519 617.609 309.869 619.542 309.869C621.662 309.869 623.112 310.68 623.893 312.301C625.045 310.68 626.667 309.869 628.756 309.869C630.504 309.869 631.803 310.353 632.653 311.319C633.512 312.286 633.952 313.712 633.971 315.597V326.012H630.412V315.699C630.412 314.693 630.192 313.956 629.752 313.487C629.313 313.019 628.585 312.784 627.57 312.784C626.759 312.784 626.095 313.004 625.578 313.443C625.07 313.873 624.713 314.439 624.508 315.143L624.523 326.012H620.963V315.582C620.915 313.717 619.962 312.784 618.107 312.784C616.681 312.784 615.67 313.365 615.075 314.527V326.012H611.515V310.162H614.87Z" fill="#565E76"/>
<path d="M645.906 311H639.692V309.94L642.771 306.582C643.215 306.087 643.53 305.674 643.716 305.344C643.907 305.01 644.002 304.676 644.002 304.341C644.002 303.901 643.877 303.546 643.627 303.275C643.382 303.004 643.05 302.869 642.631 302.869C642.132 302.869 641.744 303.021 641.469 303.326C641.194 303.63 641.057 304.047 641.057 304.576H639.514C639.514 304.013 639.641 303.508 639.895 303.059C640.153 302.606 640.519 302.255 640.993 302.005C641.471 301.756 642.021 301.631 642.644 301.631C643.541 301.631 644.247 301.857 644.764 302.31C645.284 302.759 645.544 303.381 645.544 304.176C645.544 304.638 645.413 305.122 645.151 305.63C644.893 306.133 644.467 306.707 643.875 307.35L641.615 309.769H645.906V311Z" fill="#565E76"/>
<path d="M663.588 664.102H661.326V656.215H652.725V664.102H650.475V647.039H652.725V654.375H661.326V647.039H663.588V664.102ZM675.073 664.102C674.948 663.852 674.846 663.406 674.768 662.766C673.76 663.812 672.557 664.336 671.158 664.336C669.908 664.336 668.881 663.984 668.076 663.281C667.28 662.57 666.881 661.672 666.881 660.586C666.881 659.266 667.381 658.242 668.381 657.516C669.389 656.781 670.803 656.414 672.623 656.414H674.733V655.418C674.733 654.66 674.506 654.059 674.053 653.613C673.6 653.16 672.932 652.934 672.049 652.934C671.276 652.934 670.627 653.129 670.104 653.52C669.58 653.91 669.319 654.383 669.319 654.938H667.139C667.139 654.305 667.362 653.695 667.807 653.109C668.26 652.516 668.869 652.047 669.635 651.703C670.408 651.359 671.256 651.188 672.178 651.188C673.639 651.188 674.783 651.555 675.612 652.289C676.44 653.016 676.869 654.02 676.901 655.301V661.137C676.901 662.301 677.049 663.227 677.346 663.914V664.102H675.073ZM671.475 662.449C672.155 662.449 672.799 662.273 673.408 661.922C674.018 661.57 674.459 661.113 674.733 660.551V657.949H673.033C670.377 657.949 669.049 658.727 669.049 660.281C669.049 660.961 669.276 661.492 669.729 661.875C670.182 662.258 670.764 662.449 671.475 662.449ZM682.655 664.102H680.487V646.102H682.655V664.102ZM688.49 664.102H686.323V646.102H688.49V664.102ZM703.198 661.113L705.635 651.422H707.803L704.112 664.102H702.354L699.272 654.492L696.272 664.102H694.514L690.834 651.422H692.99L695.487 660.914L698.44 651.422H700.186L703.198 661.113ZM717.846 664.102C717.721 663.852 717.619 663.406 717.541 662.766C716.533 663.812 715.33 664.336 713.932 664.336C712.682 664.336 711.655 663.984 710.85 663.281C710.053 662.57 709.655 661.672 709.655 660.586C709.655 659.266 710.155 658.242 711.155 657.516C712.162 656.781 713.576 656.414 715.397 656.414H717.506V655.418C717.506 654.66 717.28 654.059 716.826 653.613C716.373 653.16 715.705 652.934 714.823 652.934C714.049 652.934 713.401 653.129 712.877 653.52C712.354 653.91 712.092 654.383 712.092 654.938H709.912C709.912 654.305 710.135 653.695 710.58 653.109C711.033 652.516 711.643 652.047 712.408 651.703C713.182 651.359 714.03 651.188 714.951 651.188C716.412 651.188 717.557 651.555 718.385 652.289C719.213 653.016 719.643 654.02 719.674 655.301V661.137C719.674 662.301 719.823 663.227 720.119 663.914V664.102H717.846ZM714.248 662.449C714.928 662.449 715.573 662.273 716.182 661.922C716.791 661.57 717.233 661.113 717.506 660.551V657.949H715.807C713.151 657.949 711.823 658.727 711.823 660.281C711.823 660.961 712.049 661.492 712.502 661.875C712.955 662.258 713.537 662.449 714.248 662.449ZM727.033 660.926L729.987 651.422H732.307L727.209 666.059C726.42 668.168 725.166 669.223 723.448 669.223L723.037 669.188L722.229 669.035V667.277L722.815 667.324C723.549 667.324 724.119 667.176 724.526 666.879C724.94 666.582 725.28 666.039 725.545 665.25L726.026 663.961L721.502 651.422H723.869L727.033 660.926Z" fill="#565E76"/>
<path d="M659.73 708.944H656.185V691.82L650.955 693.607V690.604L659.276 687.543H659.73V708.944ZM679.183 701.342H681.834V704.198H679.183V708.944H675.623V704.198H666.409L666.307 702.03L675.506 687.616H679.183V701.342ZM670.042 701.342H675.623V692.436L675.36 692.904L670.042 701.342ZM686.639 705.194C687.303 705.194 687.816 705.385 688.177 705.766C688.538 706.137 688.719 706.605 688.719 707.172C688.719 707.729 688.538 708.192 688.177 708.563C687.816 708.925 687.303 709.105 686.639 709.105C686.004 709.105 685.501 708.925 685.13 708.563C684.759 708.202 684.573 707.738 684.573 707.172C684.573 706.605 684.754 706.137 685.115 705.766C685.477 705.385 685.985 705.194 686.639 705.194ZM702.21 708.944H698.665V691.82L693.436 693.607V690.604L701.756 687.543H702.21V708.944ZM710.574 698.368L711.732 687.616H723.187V690.692H714.691L714.105 695.79C715.091 695.224 716.204 694.94 717.445 694.94C719.476 694.94 721.053 695.59 722.176 696.889C723.309 698.188 723.875 699.936 723.875 702.133C723.875 704.301 723.25 706.029 722 707.318C720.75 708.598 719.036 709.237 716.859 709.237C714.906 709.237 713.284 708.686 711.995 707.582C710.716 706.469 710.023 705.004 709.915 703.188H713.358C713.494 704.223 713.865 705.019 714.471 705.575C715.076 706.122 715.867 706.396 716.844 706.396C717.938 706.396 718.787 706.005 719.393 705.224C720.008 704.442 720.316 703.378 720.316 702.03C720.316 700.731 719.979 699.706 719.305 698.954C718.631 698.192 717.703 697.812 716.522 697.812C715.877 697.812 715.33 697.899 714.881 698.075C714.432 698.241 713.944 698.573 713.416 699.071L710.574 698.368ZM737.718 693.095L737.821 694.75C738.934 693.451 740.457 692.802 742.391 692.802C744.51 692.802 745.96 693.612 746.741 695.233C747.894 693.612 749.515 692.802 751.605 692.802C753.353 692.802 754.652 693.285 755.501 694.252C756.361 695.219 756.8 696.645 756.82 698.529V708.944H753.26V698.632C753.26 697.626 753.04 696.889 752.601 696.42C752.161 695.951 751.434 695.717 750.418 695.717C749.608 695.717 748.944 695.937 748.426 696.376C747.918 696.806 747.562 697.372 747.357 698.075L747.371 708.944H743.812V698.515C743.763 696.649 742.811 695.717 740.955 695.717C739.53 695.717 738.519 696.298 737.923 697.46V708.944H734.364V693.095H737.718Z" fill="#565E76"/>
<path d="M767.906 693H761.692V691.94L764.771 688.582C765.215 688.087 765.53 687.674 765.716 687.344C765.907 687.01 766.002 686.676 766.002 686.341C766.002 685.901 765.877 685.546 765.627 685.275C765.382 685.004 765.05 684.869 764.631 684.869C764.132 684.869 763.744 685.021 763.469 685.326C763.194 685.63 763.057 686.047 763.057 686.576H761.514C761.514 686.013 761.641 685.508 761.895 685.059C762.153 684.606 762.519 684.255 762.993 684.005C763.471 683.756 764.021 683.631 764.644 683.631C765.541 683.631 766.247 683.857 766.764 684.31C767.284 684.759 767.544 685.381 767.544 686.176C767.544 686.638 767.413 687.122 767.151 687.63C766.893 688.133 766.467 688.707 765.875 689.35L763.615 691.769H767.906V693Z" fill="#565E76"/>
<path d="M161.295 866.635V849.572H166.873C168.725 849.572 170.115 849.955 171.045 850.721C171.983 851.486 172.451 852.619 172.451 854.119C172.451 854.916 172.225 855.623 171.772 856.24C171.319 856.85 170.701 857.322 169.92 857.658C170.842 857.916 171.569 858.408 172.1 859.135C172.639 859.854 172.908 860.713 172.908 861.713C172.908 863.244 172.412 864.447 171.42 865.322C170.428 866.197 169.026 866.635 167.213 866.635H161.295ZM163.545 858.654V864.795H167.26C168.307 864.795 169.131 864.525 169.733 863.986C170.342 863.439 170.647 862.689 170.647 861.736C170.647 859.682 169.53 858.654 167.295 858.654H163.545ZM163.545 856.85H166.944C167.928 856.85 168.713 856.604 169.299 856.111C169.893 855.619 170.19 854.951 170.19 854.107C170.19 853.17 169.916 852.49 169.369 852.068C168.823 851.639 167.99 851.424 166.873 851.424H163.545V856.85ZM183.737 866.635C183.612 866.385 183.51 865.939 183.432 865.299C182.424 866.346 181.221 866.869 179.823 866.869C178.573 866.869 177.545 866.518 176.74 865.814C175.944 865.104 175.545 864.205 175.545 863.119C175.545 861.799 176.045 860.775 177.045 860.049C178.053 859.314 179.467 858.947 181.287 858.947H183.397V857.951C183.397 857.193 183.17 856.592 182.717 856.146C182.264 855.693 181.596 855.467 180.713 855.467C179.94 855.467 179.291 855.662 178.768 856.053C178.244 856.443 177.983 856.916 177.983 857.471H175.803C175.803 856.838 176.026 856.229 176.471 855.643C176.924 855.049 177.533 854.58 178.299 854.236C179.073 853.893 179.92 853.721 180.842 853.721C182.303 853.721 183.448 854.088 184.276 854.822C185.104 855.549 185.533 856.553 185.565 857.834V863.67C185.565 864.834 185.713 865.76 186.01 866.447V866.635H183.737ZM180.139 864.982C180.819 864.982 181.463 864.807 182.073 864.455C182.682 864.104 183.123 863.646 183.397 863.084V860.482H181.698C179.041 860.482 177.713 861.26 177.713 862.814C177.713 863.494 177.94 864.025 178.393 864.408C178.846 864.791 179.428 864.982 180.139 864.982ZM191.905 850.885V853.955H194.272V855.631H191.905V863.494C191.905 864.002 192.01 864.385 192.221 864.643C192.432 864.893 192.791 865.018 193.299 865.018C193.549 865.018 193.893 864.971 194.33 864.877V866.635C193.76 866.791 193.205 866.869 192.666 866.869C191.698 866.869 190.967 866.576 190.475 865.99C189.983 865.404 189.737 864.572 189.737 863.494V855.631H187.428V853.955H189.737V850.885H191.905ZM198.983 855.49C199.944 854.311 201.194 853.721 202.733 853.721C205.412 853.721 206.764 855.232 206.787 858.256V866.635H204.619V858.244C204.612 857.33 204.401 856.654 203.987 856.217C203.58 855.779 202.944 855.561 202.076 855.561C201.373 855.561 200.756 855.748 200.225 856.123C199.694 856.498 199.28 856.99 198.983 857.6V866.635H196.815V848.635H198.983V855.49ZM216.162 855.9C215.834 855.846 215.479 855.818 215.096 855.818C213.674 855.818 212.709 856.424 212.201 857.635V866.635H210.033V853.955H212.143L212.178 855.42C212.889 854.287 213.897 853.721 215.201 853.721C215.623 853.721 215.944 853.775 216.162 853.885V855.9ZM217.358 860.178C217.358 858.936 217.6 857.818 218.084 856.826C218.576 855.834 219.256 855.068 220.123 854.529C220.998 853.99 221.994 853.721 223.112 853.721C224.838 853.721 226.233 854.318 227.295 855.514C228.365 856.709 228.901 858.299 228.901 860.283V860.436C228.901 861.67 228.662 862.779 228.186 863.764C227.717 864.74 227.041 865.502 226.158 866.049C225.283 866.596 224.276 866.869 223.135 866.869C221.416 866.869 220.022 866.271 218.951 865.076C217.889 863.881 217.358 862.299 217.358 860.33V860.178ZM219.537 860.436C219.537 861.842 219.862 862.971 220.51 863.822C221.166 864.674 222.041 865.1 223.135 865.1C224.237 865.1 225.112 864.67 225.76 863.811C226.408 862.943 226.733 861.732 226.733 860.178C226.733 858.787 226.401 857.662 225.737 856.803C225.08 855.936 224.205 855.502 223.112 855.502C222.041 855.502 221.178 855.928 220.522 856.779C219.865 857.631 219.537 858.85 219.537 860.436ZM231.045 860.178C231.045 858.936 231.287 857.818 231.772 856.826C232.264 855.834 232.944 855.068 233.811 854.529C234.686 853.99 235.682 853.721 236.799 853.721C238.526 853.721 239.92 854.318 240.983 855.514C242.053 856.709 242.588 858.299 242.588 860.283V860.436C242.588 861.67 242.35 862.779 241.873 863.764C241.405 864.74 240.729 865.502 239.846 866.049C238.971 866.596 237.963 866.869 236.823 866.869C235.104 866.869 233.709 866.271 232.639 865.076C231.576 863.881 231.045 862.299 231.045 860.33V860.178ZM233.225 860.436C233.225 861.842 233.549 862.971 234.198 863.822C234.854 864.674 235.729 865.1 236.823 865.1C237.924 865.1 238.799 864.67 239.448 863.811C240.096 862.943 240.42 861.732 240.42 860.178C240.42 858.787 240.088 857.662 239.424 856.803C238.768 855.936 237.893 855.502 236.799 855.502C235.729 855.502 234.865 855.928 234.209 856.779C233.553 857.631 233.225 858.85 233.225 860.436ZM247.346 853.955L247.405 855.361C248.334 854.268 249.588 853.721 251.166 853.721C252.94 853.721 254.147 854.4 254.787 855.76C255.209 855.15 255.756 854.658 256.428 854.283C257.108 853.908 257.908 853.721 258.83 853.721C261.612 853.721 263.026 855.193 263.073 858.139V866.635H260.905V858.268C260.905 857.361 260.698 856.686 260.283 856.24C259.869 855.787 259.174 855.561 258.198 855.561C257.393 855.561 256.725 855.803 256.194 856.287C255.662 856.764 255.354 857.408 255.268 858.221V866.635H253.088V858.326C253.088 856.482 252.186 855.561 250.381 855.561C248.959 855.561 247.987 856.166 247.463 857.377V866.635H245.295V853.955H247.346Z" fill="#565E76"/>
<path d="M170.55 911.478H167.005V894.354L161.776 896.141V893.138L170.096 890.076H170.55V911.478ZM192.303 911.478H177.962V909.031L185.067 901.282C186.092 900.14 186.82 899.188 187.249 898.426C187.689 897.654 187.908 896.883 187.908 896.111C187.908 895.096 187.62 894.275 187.044 893.65C186.478 893.025 185.711 892.713 184.744 892.713C183.592 892.713 182.698 893.064 182.064 893.768C181.429 894.471 181.112 895.433 181.112 896.653H177.552C177.552 895.354 177.845 894.188 178.431 893.152C179.027 892.107 179.871 891.297 180.965 890.721C182.069 890.145 183.338 889.856 184.774 889.856C186.844 889.856 188.475 890.379 189.666 891.424C190.867 892.459 191.468 893.895 191.468 895.73C191.468 896.795 191.165 897.913 190.56 899.085C189.964 900.247 188.983 901.57 187.615 903.055L182.401 908.636H192.303V911.478ZM197.459 907.728C198.123 907.728 198.636 907.918 198.997 908.299C199.359 908.67 199.539 909.139 199.539 909.705C199.539 910.262 199.359 910.726 198.997 911.097C198.636 911.458 198.123 911.639 197.459 911.639C196.824 911.639 196.322 911.458 195.95 911.097C195.579 910.735 195.394 910.271 195.394 909.705C195.394 909.139 195.574 908.67 195.936 908.299C196.297 907.918 196.805 907.728 197.459 907.728ZM213.031 911.478H209.486V894.354L204.256 896.141V893.138L212.576 890.076H213.031V911.478ZM221.395 900.901L222.552 890.149H234.007V893.226H225.511L224.925 898.323C225.911 897.757 227.025 897.474 228.265 897.474C230.296 897.474 231.873 898.123 232.996 899.422C234.129 900.721 234.696 902.469 234.696 904.666C234.696 906.834 234.071 908.562 232.821 909.852C231.571 911.131 229.857 911.771 227.679 911.771C225.726 911.771 224.105 911.219 222.816 910.115C221.536 909.002 220.843 907.537 220.736 905.721H224.178C224.315 906.756 224.686 907.552 225.291 908.108C225.897 908.655 226.688 908.929 227.664 908.929C228.758 908.929 229.608 908.538 230.213 907.757C230.828 906.976 231.136 905.911 231.136 904.563C231.136 903.265 230.799 902.239 230.125 901.487C229.451 900.726 228.524 900.345 227.342 900.345C226.698 900.345 226.151 900.433 225.701 900.608C225.252 900.774 224.764 901.106 224.237 901.604L221.395 900.901ZM248.538 895.628L248.641 897.283C249.754 895.984 251.278 895.335 253.211 895.335C255.33 895.335 256.781 896.146 257.562 897.767C258.714 896.146 260.335 895.335 262.425 895.335C264.173 895.335 265.472 895.818 266.322 896.785C267.181 897.752 267.62 899.178 267.64 901.062V911.478H264.08V901.165C264.08 900.159 263.861 899.422 263.421 898.953C262.982 898.484 262.254 898.25 261.239 898.25C260.428 898.25 259.764 898.47 259.246 898.909C258.739 899.339 258.382 899.905 258.177 900.608L258.192 911.478H254.632V901.048C254.583 899.183 253.631 898.25 251.776 898.25C250.35 898.25 249.339 898.831 248.743 899.993V911.478H245.184V895.628H248.538Z" fill="#565E76"/>
<path d="M278.906 894H272.692V892.94L275.771 889.582C276.215 889.087 276.53 888.674 276.716 888.344C276.907 888.01 277.002 887.676 277.002 887.341C277.002 886.901 276.877 886.546 276.627 886.275C276.382 886.004 276.05 885.869 275.631 885.869C275.132 885.869 274.744 886.021 274.469 886.326C274.194 886.63 274.057 887.047 274.057 887.576H272.514C272.514 887.013 272.641 886.508 272.895 886.059C273.153 885.606 273.519 885.255 273.993 885.005C274.471 884.756 275.021 884.631 275.644 884.631C276.541 884.631 277.247 884.857 277.764 885.31C278.284 885.759 278.544 886.381 278.544 887.176C278.544 887.638 278.413 888.122 278.151 888.63C277.893 889.133 277.467 889.707 276.875 890.35L274.615 892.769H278.906V894Z" fill="#565E76"/>
<path d="M899.492 255.714V238.651H905.07C906.921 238.651 908.312 239.034 909.242 239.8C910.179 240.565 910.648 241.698 910.648 243.198C910.648 243.995 910.421 244.702 909.968 245.319C909.515 245.929 908.898 246.401 908.117 246.737C909.039 246.995 909.765 247.487 910.296 248.214C910.835 248.933 911.105 249.792 911.105 250.792C911.105 252.323 910.609 253.526 909.617 254.401C908.625 255.276 907.222 255.714 905.41 255.714H899.492ZM901.742 247.733V253.874H905.457C906.503 253.874 907.328 253.604 907.929 253.065C908.539 252.519 908.843 251.769 908.843 250.815C908.843 248.761 907.726 247.733 905.492 247.733H901.742ZM901.742 245.929H905.14C906.125 245.929 906.91 245.683 907.496 245.19C908.089 244.698 908.386 244.03 908.386 243.187C908.386 242.249 908.113 241.569 907.566 241.147C907.019 240.718 906.187 240.503 905.07 240.503H901.742V245.929ZM919.367 255.948C917.648 255.948 916.25 255.386 915.171 254.261C914.093 253.128 913.554 251.616 913.554 249.726V249.327C913.554 248.069 913.792 246.948 914.269 245.964C914.753 244.972 915.425 244.198 916.285 243.644C917.152 243.081 918.089 242.8 919.097 242.8C920.746 242.8 922.027 243.343 922.941 244.429C923.855 245.515 924.312 247.069 924.312 249.093V249.995H915.722C915.753 251.245 916.117 252.257 916.812 253.03C917.515 253.796 918.406 254.179 919.484 254.179C920.25 254.179 920.898 254.022 921.429 253.71C921.96 253.397 922.425 252.983 922.824 252.468L924.148 253.499C923.085 255.132 921.492 255.948 919.367 255.948ZM919.097 244.581C918.222 244.581 917.488 244.901 916.894 245.542C916.3 246.175 915.933 247.065 915.792 248.214H922.144V248.05C922.082 246.948 921.785 246.097 921.253 245.495C920.722 244.886 920.003 244.581 919.097 244.581ZM926.304 249.269C926.304 247.323 926.765 245.761 927.687 244.581C928.609 243.394 929.816 242.8 931.308 242.8C932.792 242.8 933.968 243.308 934.835 244.323V237.714H937.003V255.714H935.011L934.906 254.354C934.039 255.417 932.832 255.948 931.285 255.948C929.816 255.948 928.617 255.347 927.687 254.144C926.765 252.94 926.304 251.37 926.304 249.433V249.269ZM928.472 249.515C928.472 250.952 928.769 252.077 929.363 252.89C929.957 253.702 930.777 254.108 931.824 254.108C933.199 254.108 934.203 253.491 934.835 252.257V246.433C934.187 245.237 933.191 244.64 931.847 244.64C930.785 244.64 929.957 245.05 929.363 245.87C928.769 246.69 928.472 247.905 928.472 249.515ZM946.507 244.979C946.179 244.925 945.824 244.897 945.441 244.897C944.019 244.897 943.054 245.503 942.546 246.714V255.714H940.378V243.034H942.488L942.523 244.499C943.234 243.366 944.242 242.8 945.546 242.8C945.968 242.8 946.289 242.854 946.507 242.964V244.979ZM947.703 249.257C947.703 248.015 947.945 246.897 948.429 245.905C948.921 244.913 949.601 244.147 950.468 243.608C951.343 243.069 952.339 242.8 953.457 242.8C955.183 242.8 956.578 243.397 957.64 244.593C958.71 245.788 959.246 247.378 959.246 249.362V249.515C959.246 250.749 959.007 251.858 958.531 252.843C958.062 253.819 957.386 254.581 956.503 255.128C955.628 255.675 954.621 255.948 953.48 255.948C951.761 255.948 950.367 255.351 949.296 254.155C948.234 252.96 947.703 251.378 947.703 249.409V249.257ZM949.882 249.515C949.882 250.921 950.207 252.05 950.855 252.901C951.511 253.753 952.386 254.179 953.48 254.179C954.582 254.179 955.457 253.749 956.105 252.89C956.753 252.022 957.078 250.812 957.078 249.257C957.078 247.866 956.746 246.741 956.082 245.882C955.425 245.015 954.55 244.581 953.457 244.581C952.386 244.581 951.523 245.007 950.867 245.858C950.21 246.71 949.882 247.929 949.882 249.515ZM961.39 249.257C961.39 248.015 961.632 246.897 962.117 245.905C962.609 244.913 963.289 244.147 964.156 243.608C965.031 243.069 966.027 242.8 967.144 242.8C968.871 242.8 970.265 243.397 971.328 244.593C972.398 245.788 972.933 247.378 972.933 249.362V249.515C972.933 250.749 972.695 251.858 972.218 252.843C971.75 253.819 971.074 254.581 970.191 255.128C969.316 255.675 968.308 255.948 967.167 255.948C965.449 255.948 964.054 255.351 962.984 254.155C961.921 252.96 961.39 251.378 961.39 249.409V249.257ZM963.57 249.515C963.57 250.921 963.894 252.05 964.542 252.901C965.199 253.753 966.074 254.179 967.167 254.179C968.269 254.179 969.144 253.749 969.792 252.89C970.441 252.022 970.765 250.812 970.765 249.257C970.765 247.866 970.433 246.741 969.769 245.882C969.113 245.015 968.238 244.581 967.144 244.581C966.074 244.581 965.21 245.007 964.554 245.858C963.898 246.71 963.57 247.929 963.57 249.515ZM977.691 243.034L977.75 244.44C978.679 243.347 979.933 242.8 981.511 242.8C983.285 242.8 984.492 243.479 985.132 244.839C985.554 244.229 986.101 243.737 986.773 243.362C987.453 242.987 988.253 242.8 989.175 242.8C991.957 242.8 993.371 244.272 993.417 247.218V255.714H991.25V247.347C991.25 246.44 991.042 245.765 990.628 245.319C990.214 244.866 989.519 244.64 988.542 244.64C987.738 244.64 987.07 244.882 986.539 245.366C986.007 245.843 985.699 246.487 985.613 247.3V255.714H983.433V247.405C983.433 245.562 982.531 244.64 980.726 244.64C979.304 244.64 978.332 245.245 977.808 246.456V255.714H975.64V243.034H977.691Z" fill="#565E76"/>
<path d="M903.224 288.267H905.392C906.486 288.257 907.35 287.974 907.985 287.417C908.629 286.86 908.952 286.055 908.952 285C908.952 283.984 908.683 283.198 908.146 282.642C907.619 282.075 906.808 281.792 905.714 281.792C904.757 281.792 903.971 282.07 903.356 282.627C902.741 283.174 902.433 283.892 902.433 284.78H898.874C898.874 283.687 899.162 282.69 899.738 281.792C900.324 280.894 901.134 280.195 902.169 279.697C903.214 279.189 904.381 278.936 905.67 278.936C907.799 278.936 909.469 279.473 910.68 280.547C911.901 281.611 912.511 283.096 912.511 285C912.511 285.957 912.204 286.86 911.588 287.71C910.983 288.55 910.197 289.185 909.23 289.614C910.402 290.015 911.291 290.645 911.896 291.504C912.511 292.363 912.819 293.389 912.819 294.58C912.819 296.494 912.16 298.018 910.841 299.15C909.533 300.283 907.809 300.85 905.67 300.85C903.62 300.85 901.94 300.303 900.631 299.209C899.323 298.115 898.668 296.66 898.668 294.844H902.228C902.228 295.781 902.541 296.543 903.166 297.129C903.8 297.715 904.65 298.008 905.714 298.008C906.818 298.008 907.687 297.715 908.322 297.129C908.957 296.543 909.274 295.693 909.274 294.58C909.274 293.457 908.942 292.593 908.278 291.987C907.614 291.382 906.627 291.079 905.319 291.079H903.224V288.267ZM917.111 289.98L918.268 279.229H929.723V282.305H921.227L920.641 287.402C921.627 286.836 922.741 286.553 923.981 286.553C926.012 286.553 927.589 287.202 928.712 288.501C929.845 289.8 930.412 291.548 930.412 293.745C930.412 295.913 929.787 297.642 928.537 298.931C927.287 300.21 925.573 300.85 923.395 300.85C921.442 300.85 919.821 300.298 918.532 299.194C917.252 298.081 916.559 296.616 916.452 294.8H919.894C920.031 295.835 920.402 296.631 921.007 297.188C921.613 297.734 922.404 298.008 923.38 298.008C924.474 298.008 925.324 297.617 925.929 296.836C926.544 296.055 926.852 294.99 926.852 293.643C926.852 292.344 926.515 291.318 925.841 290.566C925.167 289.805 924.24 289.424 923.058 289.424C922.414 289.424 921.867 289.512 921.417 289.688C920.968 289.854 920.48 290.186 919.953 290.684L917.111 289.98ZM935.656 296.807C936.32 296.807 936.833 296.997 937.194 297.378C937.555 297.749 937.736 298.218 937.736 298.784C937.736 299.341 937.555 299.805 937.194 300.176C936.833 300.537 936.32 300.718 935.656 300.718C935.021 300.718 934.518 300.537 934.147 300.176C933.776 299.814 933.59 299.351 933.59 298.784C933.59 298.218 933.771 297.749 934.132 297.378C934.494 296.997 935.001 296.807 935.656 296.807ZM951.227 300.557H947.682V283.433L942.453 285.22V282.217L950.773 279.155H951.227V300.557ZM959.591 289.98L960.749 279.229H972.204V282.305H963.708L963.122 287.402C964.108 286.836 965.221 286.553 966.461 286.553C968.493 286.553 970.07 287.202 971.193 288.501C972.326 289.8 972.892 291.548 972.892 293.745C972.892 295.913 972.267 297.642 971.017 298.931C969.767 300.21 968.053 300.85 965.875 300.85C963.922 300.85 962.301 300.298 961.012 299.194C959.733 298.081 959.04 296.616 958.932 294.8H962.375C962.511 295.835 962.882 296.631 963.488 297.188C964.093 297.734 964.884 298.008 965.861 298.008C966.955 298.008 967.804 297.617 968.41 296.836C969.025 296.055 969.333 294.99 969.333 293.643C969.333 292.344 968.996 291.318 968.322 290.566C967.648 289.805 966.72 289.424 965.539 289.424C964.894 289.424 964.347 289.512 963.898 289.688C963.449 289.854 962.96 290.186 962.433 290.684L959.591 289.98ZM986.735 284.707L986.837 286.362C987.951 285.063 989.474 284.414 991.408 284.414C993.527 284.414 994.977 285.225 995.758 286.846C996.911 285.225 998.532 284.414 1000.62 284.414C1002.37 284.414 1003.67 284.897 1004.52 285.864C1005.38 286.831 1005.82 288.257 1005.84 290.142V300.557H1002.28V290.244C1002.28 289.238 1002.06 288.501 1001.62 288.032C1001.18 287.563 1000.45 287.329 999.435 287.329C998.625 287.329 997.96 287.549 997.443 287.988C996.935 288.418 996.579 288.984 996.374 289.688L996.388 300.557H992.829V290.127C992.78 288.262 991.828 287.329 989.972 287.329C988.546 287.329 987.536 287.91 986.94 289.072V300.557H983.38V284.707H986.735Z" fill="#565E76"/>
<path d="M1015.91 285H1009.69V283.94L1012.77 280.582C1013.21 280.087 1013.53 279.674 1013.72 279.344C1013.91 279.01 1014 278.676 1014 278.341C1014 277.901 1013.88 277.546 1013.63 277.275C1013.38 277.004 1013.05 276.869 1012.63 276.869C1012.13 276.869 1011.74 277.021 1011.47 277.326C1011.19 277.63 1011.06 278.047 1011.06 278.576H1009.51C1009.51 278.013 1009.64 277.508 1009.9 277.059C1010.15 276.606 1010.52 276.255 1010.99 276.005C1011.47 275.756 1012.02 275.631 1012.64 275.631C1013.54 275.631 1014.25 275.857 1014.76 276.31C1015.28 276.759 1015.54 277.381 1015.54 278.176C1015.54 278.638 1015.41 279.122 1015.15 279.63C1014.89 280.133 1014.47 280.707 1013.88 281.35L1011.62 283.769H1015.91V285Z" fill="#565E76"/>
<path d="M1317.89 609.138H1325.97V610.978H1315.63V593.915H1317.89V609.138ZM1330.56 610.978H1328.39V598.298H1330.56V610.978ZM1328.21 594.935C1328.21 594.583 1328.32 594.286 1328.53 594.044C1328.75 593.802 1329.07 593.681 1329.49 593.681C1329.91 593.681 1330.23 593.802 1330.45 594.044C1330.67 594.286 1330.78 594.583 1330.78 594.935C1330.78 595.286 1330.67 595.579 1330.45 595.813C1330.23 596.048 1329.91 596.165 1329.49 596.165C1329.07 596.165 1328.75 596.048 1328.53 595.813C1328.32 595.579 1328.21 595.286 1328.21 594.935ZM1338.22 608.036L1341.36 598.298H1343.58L1339.03 610.978H1337.38L1332.78 598.298H1335L1338.22 608.036ZM1348.02 610.978H1345.85V598.298H1348.02V610.978ZM1345.67 594.935C1345.67 594.583 1345.78 594.286 1345.99 594.044C1346.21 593.802 1346.53 593.681 1346.95 593.681C1347.37 593.681 1347.69 593.802 1347.91 594.044C1348.13 594.286 1348.24 594.583 1348.24 594.935C1348.24 595.286 1348.13 595.579 1347.91 595.813C1347.69 596.048 1347.37 596.165 1346.95 596.165C1346.53 596.165 1346.21 596.048 1345.99 595.813C1345.78 595.579 1345.67 595.286 1345.67 594.935ZM1353.55 598.298L1353.62 599.892C1354.59 598.673 1355.85 598.063 1357.42 598.063C1360.1 598.063 1361.45 599.575 1361.47 602.599V610.978H1359.3V602.587C1359.29 601.673 1359.08 600.997 1358.67 600.56C1358.26 600.122 1357.63 599.903 1356.76 599.903C1356.06 599.903 1355.44 600.091 1354.91 600.466C1354.38 600.841 1353.96 601.333 1353.67 601.942V610.978H1351.5V598.298H1353.55ZM1364.22 604.532C1364.22 602.556 1364.68 600.985 1365.6 599.821C1366.51 598.649 1367.72 598.063 1369.23 598.063C1370.78 598.063 1371.98 598.61 1372.85 599.704L1372.95 598.298H1374.94V610.673C1374.94 612.313 1374.45 613.606 1373.47 614.552C1372.5 615.497 1371.2 615.97 1369.56 615.97C1368.64 615.97 1367.75 615.774 1366.87 615.384C1366 614.993 1365.33 614.458 1364.87 613.778L1365.99 612.478C1366.92 613.626 1368.06 614.2 1369.4 614.2C1370.46 614.2 1371.28 613.903 1371.86 613.31C1372.46 612.716 1372.76 611.88 1372.76 610.802V609.712C1371.89 610.712 1370.7 611.212 1369.2 611.212C1367.72 611.212 1366.52 610.614 1365.6 609.419C1364.68 608.224 1364.22 606.595 1364.22 604.532ZM1366.4 604.778C1366.4 606.208 1366.7 607.333 1367.28 608.153C1367.87 608.966 1368.69 609.372 1369.74 609.372C1371.11 609.372 1372.11 608.751 1372.76 607.509V601.72C1372.09 600.509 1371.1 599.903 1369.77 599.903C1368.71 599.903 1367.89 600.313 1367.29 601.134C1366.7 601.954 1366.4 603.169 1366.4 604.778ZM1390.3 600.243C1389.97 600.188 1389.61 600.161 1389.23 600.161C1387.81 600.161 1386.85 600.767 1386.34 601.978V610.978H1384.17V598.298H1386.28L1386.31 599.763C1387.03 598.63 1388.03 598.063 1389.34 598.063C1389.76 598.063 1390.08 598.118 1390.3 598.228V600.243ZM1391.49 604.521C1391.49 603.278 1391.74 602.161 1392.22 601.169C1392.71 600.177 1393.39 599.411 1394.26 598.872C1395.13 598.333 1396.13 598.063 1397.25 598.063C1398.97 598.063 1400.37 598.661 1401.43 599.856C1402.5 601.052 1403.04 602.642 1403.04 604.626V604.778C1403.04 606.013 1402.8 607.122 1402.32 608.106C1401.85 609.083 1401.18 609.845 1400.29 610.392C1399.42 610.938 1398.41 611.212 1397.27 611.212C1395.55 611.212 1394.16 610.614 1393.09 609.419C1392.03 608.224 1391.49 606.642 1391.49 604.673V604.521ZM1393.67 604.778C1393.67 606.185 1394 607.313 1394.65 608.165C1395.3 609.017 1396.18 609.442 1397.27 609.442C1398.37 609.442 1399.25 609.013 1399.9 608.153C1400.54 607.286 1400.87 606.075 1400.87 604.521C1400.87 603.13 1400.54 602.005 1399.87 601.146C1399.22 600.278 1398.34 599.845 1397.25 599.845C1396.18 599.845 1395.31 600.271 1394.66 601.122C1394 601.974 1393.67 603.192 1393.67 604.778ZM1405.18 604.521C1405.18 603.278 1405.42 602.161 1405.91 601.169C1406.4 600.177 1407.08 599.411 1407.95 598.872C1408.82 598.333 1409.82 598.063 1410.94 598.063C1412.66 598.063 1414.06 598.661 1415.12 599.856C1416.19 601.052 1416.72 602.642 1416.72 604.626V604.778C1416.72 606.013 1416.49 607.122 1416.01 608.106C1415.54 609.083 1414.86 609.845 1413.98 610.392C1413.11 610.938 1412.1 611.212 1410.96 611.212C1409.24 611.212 1407.85 610.614 1406.78 609.419C1405.71 608.224 1405.18 606.642 1405.18 604.673V604.521ZM1407.36 604.778C1407.36 606.185 1407.69 607.313 1408.33 608.165C1408.99 609.017 1409.86 609.442 1410.96 609.442C1412.06 609.442 1412.94 609.013 1413.58 608.153C1414.23 607.286 1414.56 606.075 1414.56 604.521C1414.56 603.13 1414.22 602.005 1413.56 601.146C1412.9 600.278 1412.03 599.845 1410.94 599.845C1409.86 599.845 1409 600.271 1408.35 601.122C1407.69 601.974 1407.36 603.192 1407.36 604.778ZM1421.48 598.298L1421.54 599.704C1422.47 598.61 1423.72 598.063 1425.3 598.063C1427.08 598.063 1428.28 598.743 1428.92 600.103C1429.35 599.493 1429.89 599.001 1430.56 598.626C1431.24 598.251 1432.04 598.063 1432.97 598.063C1435.75 598.063 1437.16 599.536 1437.21 602.481V610.978H1435.04V602.61C1435.04 601.704 1434.83 601.028 1434.42 600.583C1434.01 600.13 1433.31 599.903 1432.33 599.903C1431.53 599.903 1430.86 600.146 1430.33 600.63C1429.8 601.106 1429.49 601.751 1429.4 602.563V610.978H1427.22V602.669C1427.22 600.825 1426.32 599.903 1424.52 599.903C1423.1 599.903 1422.12 600.509 1421.6 601.72V610.978H1419.43V598.298H1421.48Z" fill="#565E76"/>
<path d="M1319.36 643.53H1321.53C1322.62 643.521 1323.48 643.237 1324.12 642.681C1324.76 642.124 1325.09 641.318 1325.09 640.264C1325.09 639.248 1324.82 638.462 1324.28 637.905C1323.75 637.339 1322.94 637.056 1321.85 637.056C1320.89 637.056 1320.11 637.334 1319.49 637.891C1318.88 638.438 1318.57 639.155 1318.57 640.044H1315.01C1315.01 638.95 1315.3 637.954 1315.87 637.056C1316.46 636.157 1317.27 635.459 1318.3 634.961C1319.35 634.453 1320.52 634.199 1321.81 634.199C1323.93 634.199 1325.6 634.736 1326.82 635.811C1328.04 636.875 1328.65 638.359 1328.65 640.264C1328.65 641.221 1328.34 642.124 1327.72 642.974C1327.12 643.813 1326.33 644.448 1325.36 644.878C1326.54 645.278 1327.43 645.908 1328.03 646.768C1328.65 647.627 1328.95 648.652 1328.95 649.844C1328.95 651.758 1328.29 653.281 1326.98 654.414C1325.67 655.547 1323.94 656.113 1321.81 656.113C1319.75 656.113 1318.07 655.566 1316.77 654.473C1315.46 653.379 1314.8 651.924 1314.8 650.107H1318.36C1318.36 651.045 1318.68 651.807 1319.3 652.393C1319.94 652.979 1320.78 653.271 1321.85 653.271C1322.95 653.271 1323.82 652.979 1324.46 652.393C1325.09 651.807 1325.41 650.957 1325.41 649.844C1325.41 648.721 1325.08 647.856 1324.41 647.251C1323.75 646.646 1322.76 646.343 1321.45 646.343H1319.36V643.53ZM1346.19 646.841C1346.19 649.907 1345.62 652.222 1344.47 653.784C1343.32 655.337 1341.58 656.113 1339.24 656.113C1336.93 656.113 1335.19 655.356 1334.02 653.843C1332.86 652.319 1332.26 650.068 1332.23 647.09V643.398C1332.23 640.332 1332.81 638.032 1333.95 636.499C1335.1 634.966 1336.85 634.199 1339.21 634.199C1341.54 634.199 1343.28 634.946 1344.42 636.44C1345.57 637.935 1346.17 640.171 1346.19 643.149V646.841ZM1342.64 642.856C1342.64 640.854 1342.36 639.39 1341.82 638.462C1341.27 637.524 1340.4 637.056 1339.21 637.056C1338.05 637.056 1337.19 637.5 1336.64 638.389C1336.1 639.268 1335.81 640.645 1335.78 642.52V647.354C1335.78 649.346 1336.06 650.83 1336.61 651.807C1337.17 652.783 1338.05 653.271 1339.24 653.271C1340.38 653.271 1341.22 652.822 1341.77 651.924C1342.32 651.016 1342.61 649.6 1342.64 647.676V642.856ZM1351.79 652.07C1352.45 652.07 1352.97 652.261 1353.33 652.642C1353.69 653.013 1353.87 653.481 1353.87 654.048C1353.87 654.604 1353.69 655.068 1353.33 655.439C1352.97 655.801 1352.45 655.981 1351.79 655.981C1351.16 655.981 1350.65 655.801 1350.28 655.439C1349.91 655.078 1349.73 654.614 1349.73 654.048C1349.73 653.481 1349.91 653.013 1350.27 652.642C1350.63 652.261 1351.14 652.07 1351.79 652.07ZM1367.36 655.82H1363.82V638.696L1358.59 640.483V637.48L1366.91 634.419H1367.36V655.82ZM1375.73 645.244L1376.88 634.492H1388.34V637.568H1379.84L1379.26 642.666C1380.24 642.1 1381.36 641.816 1382.6 641.816C1384.63 641.816 1386.2 642.466 1387.33 643.765C1388.46 645.063 1389.03 646.812 1389.03 649.009C1389.03 651.177 1388.4 652.905 1387.15 654.194C1385.9 655.474 1384.19 656.113 1382.01 656.113C1380.06 656.113 1378.44 655.562 1377.15 654.458C1375.87 653.345 1375.17 651.88 1375.07 650.063H1378.51C1378.65 651.099 1379.02 651.895 1379.62 652.451C1380.23 652.998 1381.02 653.271 1382 653.271C1383.09 653.271 1383.94 652.881 1384.54 652.1C1385.16 651.318 1385.47 650.254 1385.47 648.906C1385.47 647.607 1385.13 646.582 1384.46 645.83C1383.78 645.068 1382.86 644.688 1381.67 644.688C1381.03 644.688 1380.48 644.775 1380.03 644.951C1379.58 645.117 1379.1 645.449 1378.57 645.947L1375.73 645.244ZM1402.87 639.971L1402.97 641.626C1404.09 640.327 1405.61 639.678 1407.54 639.678C1409.66 639.678 1411.11 640.488 1411.89 642.109C1413.05 640.488 1414.67 639.678 1416.76 639.678C1418.5 639.678 1419.8 640.161 1420.65 641.128C1421.51 642.095 1421.95 643.521 1421.97 645.405V655.82H1418.41V645.508C1418.41 644.502 1418.19 643.765 1417.75 643.296C1417.31 642.827 1416.59 642.593 1415.57 642.593C1414.76 642.593 1414.1 642.812 1413.58 643.252C1413.07 643.682 1412.71 644.248 1412.51 644.951L1412.52 655.82H1408.96V645.391C1408.91 643.525 1407.96 642.593 1406.11 642.593C1404.68 642.593 1403.67 643.174 1403.07 644.336V655.82H1399.52V639.971H1402.87Z" fill="#565E76"/>
<path d="M1431.91 639H1425.69V637.94L1428.77 634.582C1429.21 634.087 1429.53 633.674 1429.72 633.344C1429.91 633.01 1430 632.676 1430 632.341C1430 631.901 1429.88 631.546 1429.63 631.275C1429.38 631.004 1429.05 630.869 1428.63 630.869C1428.13 630.869 1427.74 631.021 1427.47 631.326C1427.19 631.63 1427.06 632.047 1427.06 632.576H1425.51C1425.51 632.013 1425.64 631.508 1425.9 631.059C1426.15 630.606 1426.52 630.255 1426.99 630.005C1427.47 629.756 1428.02 629.631 1428.64 629.631C1429.54 629.631 1430.25 629.857 1430.76 630.31C1431.28 630.759 1431.54 631.381 1431.54 632.176C1431.54 632.638 1431.41 633.122 1431.15 633.63C1430.89 634.133 1430.47 634.707 1429.88 635.35L1427.62 637.769H1431.91V639Z" fill="#565E76"/>
<path d="M392.8 11.1768H59.2351V30.6783H392.8V11.1768Z" fill="white" stroke="#565E76"/>
<path d="M695.841 11.1768H494.511V36.1867H695.841V11.1768Z" fill="white" stroke="#565E76"/>
<path d="M1065 11.1768H874.688V36.1867H1065V11.1768Z" fill="white" stroke="#565E76"/>
<path d="M1483.75 11.1768H1293.43V36.1867H1483.75V11.1768Z" fill="white" stroke="#565E76"/>
<path d="M289.382 216.478L369.274 164.148" stroke="#565E76"/>
<path d="M297.644 533.213L374.782 580.036" stroke="#565E76"/>
<path d="M473.959 577.281L545.588 533.213" stroke="#565E76"/>
<path d="M303.156 781.092L383.047 720.501" stroke="#565E76"/>
<path d="M542.833 723.254L622.724 778.34" stroke="#565E76"/>
<path d="M826.589 566.263L900.971 513.935" stroke="#565E76"/>
<path d="M1038.72 830.668L947.803 772.83" stroke="#565E76"/>
<path d="M1115.85 651.644L1168.2 569.018" stroke="#565E76"/>
<path d="M706.859 33.2129H488.999V58.2229H706.859V33.2129Z" fill="white" stroke="#565E76"/>
<path d="M1076.02 33.2129H869.179V58.2229H1076.02V33.2129Z" fill="white" stroke="#565E76"/>
<path d="M277.095 137.872H202.49V162.882H277.095V137.872Z" fill="white" stroke="#565E76"/>
<path d="M455.712 801.188H408.657V980.434H455.712V801.188Z" stroke="#565E76"/>
<path d="M929.557 729.579H882.501V754.589H929.557V729.579Z" stroke="#565E76"/>
<path d="M1160.97 713.054H1130.44V754.589H1160.97V713.054Z" stroke="#565E76"/>
<path d="M1563.19 674.493H1499.6V754.587H1563.19V674.493Z" stroke="#565E76"/>
<path d="M277.095 159.906H202.49V195.933H277.095V159.906Z" fill="white" stroke="#565E76"/>
<path d="M1494.76 33.2129H1287.92V58.2229H1494.76V33.2129Z" fill="white" stroke="#565E76"/>
<path d="M63.4787 9.91113H41.4393V11.2464H9.63574V1011.19H686.053V984.905H686.088V786.602H950.559V753.551H658.538V770.076H619.971V786.602H653.03V979.144H471.206V786.602H537.324V770.076H399.577V786.602H454.676V979.144H48.105V786.602H305.909V770.076H256.321V726.008H239.791V770.076H48.105V588.298H239.791V632.364H256.321V588.298H289.382V571.773H48.105V197.198H206.733V136.605H63.4787V9.91113Z" fill="white"/>
<path d="M388.559 9.91113L498.753 9.91138V37.4536H493.244V59.487H438.147V197.198H421.618V450.586H438.147V571.773H476.715V588.298H372.029V571.773H405.088V197.198H366.518V164.148H361.009V136.605H388.559V9.91113Z" fill="white"/>
<path d="M763.224 59.4887V571.775H559.362V588.3L796.283 588.297V571.775H829.342V555.249H796.283V59.4887H873.421V37.4553H878.93V9.91309H691.597V37.4553H702.618V59.4887H763.224Z" fill="white"/>
<path d="M1159.93 59.4887H1071.77V37.4553H1060.75V9.91309H1297.68V37.4553H1292.17V59.4887H1192.99V197.2H1176.46V571.774H911.989V555.249H1159.93V59.4887Z" fill="white"/>
<mask id="mask0" mask-type="alpha" maskUnits="userSpaceOnUse" x="9" y="9" width="1588" height="1003">
<path d="M63.4787 9.91113H41.4393V11.2464H9.63574V1011.19H686.053V984.905H686.088V786.602H950.559V753.551H658.538V770.076H619.971V786.602H653.03V979.144H471.206V786.602H537.324V770.076H399.577V786.602H454.676V979.144H48.105V786.602H305.909V770.076H256.321V726.008H239.791V770.076H48.105V588.298H239.791V632.364H256.321V588.298H289.382V571.773H48.105V197.198H206.733V136.605H63.4787V9.91113Z" fill="white"/>
<path d="M388.559 9.91113L498.753 9.91138V37.4536H493.244V59.487H438.147V197.198H421.618V450.586H438.147V571.773H476.715V588.298H372.029V571.773H405.088V197.198H366.518V164.148H361.009V136.605H388.559V9.91113Z" fill="white"/>
<path d="M763.224 59.4868V571.773H559.362V588.298L796.283 588.295V571.773H829.342V555.247H796.283V59.4868H873.421V37.4534H878.93V9.91113H691.597V37.4534H702.618V59.4868H763.224Z" fill="white"/>
<path d="M1159.93 59.4868H1071.77V37.4534H1060.75V9.91113H1297.68V37.4534H1292.17V59.4868H1192.99V197.198H1176.46V571.773H911.989V555.247H1159.93V59.4868Z" fill="white"/>
<path d="M1596.49 786.847H1067.54V754.797H1159.93V665.414H1176.46V754.797H1561.23V59.3204H1490.7V36.8856H1481.08V11.2461H1596.49V786.847Z" fill="white"/>
</mask>
<g mask="url(#mask0)">
<path d="M1596.49 786.847H1067.54V754.797H1159.93V665.414H1176.46V754.797H1561.23V59.3204H1490.7V36.8856H1481.08V11.2461H1596.49V786.847Z" fill="white"/>
<path d="M63.4787 9.91113H41.4393V11.2464H9.63574V1011.19H686.053V984.905H686.088V786.602H950.559V753.551H658.538V770.076H619.971V786.602H653.03V979.144H471.206V786.602H537.324V770.076H399.577V786.602H454.676V979.144H48.105V786.602H305.909V770.076H256.321V726.008H239.791V770.076H48.105V588.298H239.791V632.364H256.321V588.298H289.382V571.773H48.105V197.198H206.733V136.605H63.4787V9.91113Z" stroke="#565E76" stroke-width="2"/>
<path d="M388.559 9.91113L498.753 9.91138V37.4536H493.244V59.487H438.147V197.198H421.618V450.586H438.147V571.773H476.715V588.298H372.029V571.773H405.088V197.198H366.518V164.148H361.009V136.605H388.559V9.91113Z" stroke="#565E76" stroke-width="2"/>
<path d="M763.224 59.4887V571.775H559.362V588.3L796.283 588.297V571.775H829.342V555.249H796.283V59.4887H873.421V37.4553H878.93V9.91309H691.597V37.4553H702.618V59.4887H763.224Z" stroke="#565E76" stroke-width="2"/>
<path d="M1159.93 59.4887H1071.77V37.4553H1060.75V9.91309H1297.68V37.4553H1292.17V59.4887H1192.99V197.2H1176.46V571.774H911.989V555.249H1159.93V59.4887Z" stroke="#565E76" stroke-width="2"/>
<path d="M1596.49 786.847H1067.54V754.797H1159.93V665.414H1176.46V754.797H1561.23V59.3204H1490.7V36.8856H1481.08V11.2461H1596.49V786.847Z" stroke="#565E76" stroke-width="2"/>
</g>
</g>
<defs>
<clipPath id="clip0">
<rect width="1618" height="1016" fill="white"/>
</clipPath>
</defs>
</svg>
