<svg width="1600" height="1016" viewBox="0 0 1600 1016" fill="none" xmlns="http://www.w3.org/2000/svg">
<g clip-path="url(#clip0)">
<path d="M-17 1084.11H1756V-182H-17V1084.11Z" fill="white"/>
<path d="M24.3462 248.74V1007.87H1586.56V26.6536H935.635V248.74H24.3462Z" fill="#F4F4F5"/>
<path d="M302.848 718.888H134.181V550.22H302.848V718.888Z" fill="#565E76"/>
<path d="M183.11 591.584V596.189H186.661V598.703H183.11V610.498C183.11 611.26 183.268 611.834 183.584 612.221C183.901 612.596 184.44 612.783 185.202 612.783C185.577 612.783 186.092 612.713 186.749 612.572V615.209C185.893 615.443 185.061 615.561 184.252 615.561C182.799 615.561 181.704 615.121 180.965 614.242C180.227 613.363 179.858 612.115 179.858 610.498V598.703H176.395V596.189H179.858V591.584H183.11ZM189.262 605.523C189.262 603.66 189.625 601.984 190.352 600.496C191.09 599.008 192.11 597.859 193.411 597.051C194.723 596.242 196.217 595.838 197.893 595.838C200.483 595.838 202.575 596.734 204.168 598.527C205.774 600.32 206.577 602.705 206.577 605.682V605.91C206.577 607.762 206.219 609.426 205.504 610.902C204.801 612.367 203.788 613.51 202.463 614.33C201.151 615.15 199.639 615.561 197.928 615.561C195.35 615.561 193.258 614.664 191.653 612.871C190.059 611.078 189.262 608.705 189.262 605.752V605.523ZM192.532 605.91C192.532 608.02 193.018 609.713 193.991 610.99C194.975 612.268 196.288 612.906 197.928 612.906C199.581 612.906 200.893 612.262 201.866 610.973C202.838 609.672 203.325 607.855 203.325 605.523C203.325 603.438 202.827 601.75 201.831 600.461C200.846 599.16 199.534 598.51 197.893 598.51C196.288 598.51 194.993 599.148 194.008 600.426C193.024 601.703 192.532 603.531 192.532 605.91ZM215.067 591.584V596.189H218.618V598.703H215.067V610.498C215.067 611.26 215.225 611.834 215.542 612.221C215.858 612.596 216.397 612.783 217.159 612.783C217.534 612.783 218.049 612.713 218.706 612.572V615.209C217.85 615.443 217.018 615.561 216.209 615.561C214.756 615.561 213.661 615.121 212.922 614.242C212.184 613.363 211.815 612.115 211.815 610.498V598.703H208.352V596.189H211.815V591.584H215.067ZM234.174 615.209C233.987 614.834 233.834 614.166 233.717 613.205C232.206 614.775 230.401 615.561 228.303 615.561C226.428 615.561 224.887 615.033 223.68 613.979C222.485 612.912 221.887 611.564 221.887 609.936C221.887 607.955 222.637 606.42 224.137 605.33C225.649 604.229 227.77 603.678 230.5 603.678H233.665V602.184C233.665 601.047 233.325 600.145 232.645 599.477C231.965 598.797 230.963 598.457 229.639 598.457C228.479 598.457 227.506 598.75 226.721 599.336C225.936 599.922 225.543 600.631 225.543 601.463H222.274C222.274 600.514 222.608 599.6 223.276 598.721C223.956 597.83 224.87 597.127 226.018 596.611C227.178 596.096 228.45 595.838 229.833 595.838C232.024 595.838 233.741 596.389 234.983 597.49C236.225 598.58 236.87 600.086 236.917 602.008V610.762C236.917 612.508 237.139 613.896 237.584 614.928V615.209H234.174ZM228.778 612.73C229.797 612.73 230.764 612.467 231.678 611.939C232.592 611.412 233.254 610.727 233.665 609.883V605.98H231.116C227.131 605.98 225.139 607.146 225.139 609.479C225.139 610.498 225.479 611.295 226.159 611.869C226.838 612.443 227.711 612.73 228.778 612.73ZM245.547 615.209H242.295V588.209H245.547V615.209Z" fill="white"/>
<path d="M267.394 633.837C267.175 633.91 267.102 634.056 267.175 634.275L267.577 635.408C267.65 635.591 267.796 635.664 267.979 635.591L269.002 635.298C269.77 635.043 270.647 634.86 271.597 634.86C273.132 634.86 274.155 635.627 274.155 636.76C274.155 637.455 273.68 638.076 272.839 638.661L269.587 640.78C267.796 641.95 267.029 643.594 267.029 645.896V646.773C267.029 646.993 267.138 647.102 267.358 647.102H275.653C275.873 647.102 275.982 646.993 275.982 646.773V645.604C275.982 645.385 275.873 645.275 275.653 645.275H269.039C269.039 644.069 269.441 643.119 270.574 642.388L273.863 640.232C275.434 639.209 276.165 638.112 276.165 636.76C276.165 634.385 274.411 632.996 271.597 632.996C270.464 632.996 269.441 633.179 268.381 633.508L267.394 633.837Z" fill="white"/>
<path d="M159.76 651.311H162.181C163.523 651.311 164.694 651.076 165.697 650.607C166.7 650.126 167.461 649.475 167.982 648.654C168.516 647.821 168.783 646.864 168.783 645.783C168.783 643.96 168.269 642.535 167.24 641.506C166.211 640.477 164.733 639.963 162.806 639.963C160.983 639.963 159.486 640.503 158.314 641.584C157.155 642.652 156.576 644.064 156.576 645.822H154.232C154.232 644.351 154.603 643.01 155.345 641.799C156.088 640.575 157.116 639.631 158.431 638.967C159.747 638.303 161.205 637.971 162.806 637.971C165.385 637.971 167.416 638.674 168.9 640.08C170.385 641.486 171.127 643.413 171.127 645.861C171.127 647.229 170.691 648.492 169.818 649.65C168.959 650.796 167.774 651.656 166.263 652.229C168.034 652.723 169.375 653.576 170.287 654.787C171.198 655.985 171.654 657.417 171.654 659.084C171.654 661.519 170.86 663.479 169.271 664.963C167.683 666.447 165.56 667.189 162.904 667.189C161.211 667.189 159.655 666.851 158.236 666.174C156.83 665.497 155.736 664.553 154.955 663.342C154.187 662.118 153.802 660.699 153.802 659.084H156.146C156.146 660.894 156.778 662.372 158.041 663.518C159.304 664.65 160.925 665.217 162.904 665.217C164.922 665.217 166.491 664.702 167.611 663.674C168.744 662.632 169.31 661.128 169.31 659.162C169.31 657.261 168.698 655.809 167.474 654.807C166.263 653.804 164.473 653.303 162.103 653.303H159.76V651.311ZM194.564 666.799H176.752V665.002L186.498 653.947C188.112 652.085 189.232 650.549 189.857 649.338C190.482 648.127 190.795 646.949 190.795 645.803C190.795 644.006 190.267 642.587 189.213 641.545C188.158 640.49 186.706 639.963 184.857 639.963C182.943 639.963 181.394 640.575 180.209 641.799C179.037 643.023 178.451 644.611 178.451 646.564H176.127C176.127 644.963 176.485 643.505 177.201 642.189C177.93 640.874 178.959 639.846 180.287 639.104C181.628 638.348 183.151 637.971 184.857 637.971C187.461 637.971 189.493 638.654 190.951 640.021C192.422 641.389 193.158 643.251 193.158 645.607C193.158 646.936 192.741 648.387 191.908 649.963C191.088 651.538 189.636 653.505 187.552 655.861L179.623 664.826H194.564V666.799ZM216.088 654.943C216.088 658.954 215.352 662.001 213.881 664.084C212.409 666.154 210.241 667.189 207.377 667.189C204.564 667.189 202.409 666.174 200.912 664.143C199.414 662.098 198.646 659.13 198.607 655.236V650.139C198.607 646.141 199.349 643.114 200.834 641.057C202.318 638.999 204.486 637.971 207.338 637.971C210.15 637.971 212.299 638.967 213.783 640.959C215.267 642.938 216.036 645.861 216.088 649.729V654.943ZM213.744 649.846C213.744 646.59 213.21 644.13 212.142 642.463C211.088 640.796 209.486 639.963 207.338 639.963C205.228 639.963 203.64 640.777 202.572 642.404C201.504 644.032 200.957 646.434 200.931 649.611V655.197C200.931 658.439 201.478 660.92 202.572 662.639C203.679 664.357 205.28 665.217 207.377 665.217C209.46 665.217 211.036 664.377 212.103 662.697C213.184 661.018 213.731 658.557 213.744 655.314V649.846ZM233.353 645.666L233.431 649.104C234.213 647.827 235.189 646.87 236.361 646.232C237.533 645.594 238.835 645.275 240.267 645.275C243.601 645.275 245.717 646.643 246.615 649.377C247.37 648.062 248.379 647.053 249.642 646.35C250.905 645.633 252.299 645.275 253.822 645.275C258.353 645.275 260.664 647.749 260.756 652.697V666.799H258.412V652.873C258.399 650.985 257.989 649.585 257.181 648.674C256.387 647.762 255.085 647.307 253.275 647.307C251.595 647.333 250.176 647.88 249.017 648.947C247.858 650.002 247.214 651.291 247.084 652.814V666.799H244.74V652.697C244.727 650.887 244.297 649.54 243.451 648.654C242.618 647.756 241.329 647.307 239.584 647.307C238.112 647.307 236.849 647.73 235.795 648.576C234.74 649.41 233.959 650.653 233.451 652.307V666.799H231.107V645.666H233.353Z" fill="white"/>
<path d="M1331.79 619.959L1329.71 622.127V627.893H1327.46V610.83H1329.71V619.268L1337.29 610.83H1340.01L1333.29 618.365L1340.54 627.893H1337.84L1331.79 619.959ZM1344.52 627.893H1342.35V615.213H1344.52V627.893ZM1342.18 611.85C1342.18 611.498 1342.28 611.201 1342.49 610.959C1342.71 610.717 1343.03 610.596 1343.45 610.596C1343.88 610.596 1344.2 610.717 1344.42 610.959C1344.63 611.201 1344.74 611.498 1344.74 611.85C1344.74 612.201 1344.63 612.494 1344.42 612.729C1344.2 612.963 1343.88 613.08 1343.45 613.08C1343.03 613.08 1342.71 612.963 1342.49 612.729C1342.28 612.494 1342.18 612.201 1342.18 611.85ZM1350.94 612.143V615.213H1353.31V616.889H1350.94V624.752C1350.94 625.26 1351.05 625.643 1351.26 625.9C1351.47 626.15 1351.83 626.275 1352.34 626.275C1352.59 626.275 1352.93 626.229 1353.37 626.135V627.893C1352.8 628.049 1352.24 628.127 1351.7 628.127C1350.74 628.127 1350 627.834 1349.51 627.248C1349.02 626.662 1348.77 625.83 1348.77 624.752V616.889H1346.47V615.213H1348.77V612.143H1350.94ZM1360.94 626.357C1361.71 626.357 1362.39 626.123 1362.97 625.654C1363.54 625.186 1363.86 624.6 1363.93 623.896H1365.98C1365.94 624.623 1365.69 625.314 1365.23 625.971C1364.77 626.627 1364.15 627.15 1363.38 627.541C1362.61 627.932 1361.8 628.127 1360.94 628.127C1359.21 628.127 1357.84 627.553 1356.81 626.404C1355.8 625.248 1355.29 623.67 1355.29 621.67V621.307C1355.29 620.072 1355.52 618.975 1355.97 618.014C1356.42 617.053 1357.07 616.307 1357.92 615.775C1358.77 615.244 1359.77 614.979 1360.93 614.979C1362.35 614.979 1363.53 615.404 1364.47 616.256C1365.41 617.107 1365.92 618.213 1365.98 619.572H1363.93C1363.86 618.752 1363.55 618.08 1362.99 617.557C1362.43 617.025 1361.75 616.76 1360.93 616.76C1359.83 616.76 1358.97 617.158 1358.36 617.955C1357.76 618.744 1357.46 619.889 1357.46 621.389V621.799C1357.46 623.26 1357.76 624.385 1358.36 625.174C1358.96 625.963 1359.82 626.357 1360.94 626.357ZM1370.58 616.748C1371.54 615.568 1372.79 614.979 1374.33 614.979C1377.01 614.979 1378.36 616.49 1378.39 619.514V627.893H1376.22V619.502C1376.21 618.588 1376 617.912 1375.59 617.475C1375.18 617.037 1374.54 616.818 1373.68 616.818C1372.97 616.818 1372.36 617.006 1371.83 617.381C1371.29 617.756 1370.88 618.248 1370.58 618.857V627.893H1368.42V609.893H1370.58V616.748ZM1386.9 628.127C1385.18 628.127 1383.78 627.564 1382.7 626.439C1381.62 625.307 1381.08 623.795 1381.08 621.904V621.506C1381.08 620.248 1381.32 619.127 1381.8 618.143C1382.28 617.15 1382.95 616.377 1383.81 615.822C1384.68 615.26 1385.62 614.979 1386.63 614.979C1388.27 614.979 1389.56 615.521 1390.47 616.607C1391.38 617.693 1391.84 619.248 1391.84 621.271V622.174H1383.25C1383.28 623.424 1383.65 624.436 1384.34 625.209C1385.04 625.975 1385.93 626.357 1387.01 626.357C1387.78 626.357 1388.43 626.201 1388.96 625.889C1389.49 625.576 1389.95 625.162 1390.35 624.646L1391.68 625.678C1390.61 627.311 1389.02 628.127 1386.9 628.127ZM1386.63 616.76C1385.75 616.76 1385.02 617.08 1384.42 617.721C1383.83 618.354 1383.46 619.244 1383.32 620.393H1389.67V620.229C1389.61 619.127 1389.31 618.275 1388.78 617.674C1388.25 617.064 1387.53 616.76 1386.63 616.76ZM1396.41 615.213L1396.48 616.807C1397.45 615.588 1398.72 614.979 1400.28 614.979C1402.96 614.979 1404.31 616.49 1404.33 619.514V627.893H1402.17V619.502C1402.16 618.588 1401.95 617.912 1401.53 617.475C1401.13 617.037 1400.49 616.818 1399.62 616.818C1398.92 616.818 1398.3 617.006 1397.77 617.381C1397.24 617.756 1396.83 618.248 1396.53 618.857V627.893H1394.36V615.213H1396.41Z" fill="#565E76"/>
<path d="M1341.42 672.735H1327.07V670.289L1334.18 662.54C1335.2 661.397 1335.93 660.445 1336.36 659.684C1336.8 658.912 1337.02 658.141 1337.02 657.369C1337.02 656.354 1336.73 655.533 1336.16 654.908C1335.59 654.283 1334.82 653.971 1333.86 653.971C1332.7 653.971 1331.81 654.322 1331.18 655.025C1330.54 655.729 1330.22 656.69 1330.22 657.911H1326.66C1326.66 656.612 1326.96 655.445 1327.54 654.41C1328.14 653.365 1328.98 652.555 1330.08 651.979C1331.18 651.402 1332.45 651.114 1333.89 651.114C1335.96 651.114 1337.59 651.637 1338.78 652.682C1339.98 653.717 1340.58 655.152 1340.58 656.988C1340.58 658.053 1340.28 659.171 1339.67 660.343C1339.08 661.505 1338.09 662.828 1336.73 664.312L1331.51 669.894H1341.42V672.735ZM1353.76 672.735H1350.22V655.611L1344.99 657.398V654.396L1353.31 651.334H1353.76V672.735ZM1363.62 668.985C1364.29 668.985 1364.8 669.176 1365.16 669.557C1365.52 669.928 1365.7 670.396 1365.7 670.963C1365.7 671.52 1365.52 671.983 1365.16 672.354C1364.8 672.716 1364.29 672.896 1363.62 672.896C1362.99 672.896 1362.48 672.716 1362.11 672.354C1361.74 671.993 1361.56 671.529 1361.56 670.963C1361.56 670.396 1361.74 669.928 1362.1 669.557C1362.46 669.176 1362.97 668.985 1363.62 668.985ZM1370.51 662.159L1371.66 651.407H1383.12V654.483H1374.62L1374.04 659.581C1375.02 659.015 1376.14 658.731 1377.38 658.731C1379.41 658.731 1380.99 659.381 1382.11 660.68C1383.24 661.979 1383.81 663.727 1383.81 665.924C1383.81 668.092 1383.18 669.82 1381.93 671.109C1380.68 672.389 1378.97 673.028 1376.79 673.028C1374.84 673.028 1373.22 672.477 1371.93 671.373C1370.65 670.26 1369.96 668.795 1369.85 666.979H1373.29C1373.43 668.014 1373.8 668.81 1374.4 669.366C1375.01 669.913 1375.8 670.187 1376.78 670.187C1377.87 670.187 1378.72 669.796 1379.33 669.015C1379.94 668.233 1380.25 667.169 1380.25 665.821C1380.25 664.522 1379.91 663.497 1379.24 662.745C1378.56 661.983 1377.64 661.603 1376.45 661.603C1375.81 661.603 1375.26 661.69 1374.81 661.866C1374.36 662.032 1373.88 662.364 1373.35 662.862L1370.51 662.159ZM1397.65 656.886L1397.75 658.541C1398.87 657.242 1400.39 656.593 1402.32 656.593C1404.44 656.593 1405.89 657.403 1406.67 659.024C1407.83 657.403 1409.45 656.593 1411.54 656.593C1413.29 656.593 1414.58 657.076 1415.43 658.043C1416.29 659.01 1416.73 660.436 1416.75 662.32V672.735H1413.19V662.423C1413.19 661.417 1412.97 660.68 1412.53 660.211C1412.09 659.742 1411.37 659.508 1410.35 659.508C1409.54 659.508 1408.88 659.728 1408.36 660.167C1407.85 660.597 1407.49 661.163 1407.29 661.866L1407.3 672.735H1403.74V662.306C1403.7 660.44 1402.74 659.508 1400.89 659.508C1399.46 659.508 1398.45 660.089 1397.86 661.251V672.735H1394.3V656.886H1397.65Z" fill="#565E76"/>
<path d="M1427.67 657.185H1421.46V656.125L1424.53 652.767C1424.98 652.271 1425.29 651.859 1425.48 651.529C1425.67 651.194 1425.77 650.86 1425.77 650.526C1425.77 650.086 1425.64 649.73 1425.39 649.459C1425.15 649.189 1424.81 649.053 1424.4 649.053C1423.9 649.053 1423.51 649.206 1423.23 649.51C1422.96 649.815 1422.82 650.232 1422.82 650.761H1421.28C1421.28 650.198 1421.41 649.692 1421.66 649.244C1421.92 648.791 1422.28 648.44 1422.76 648.19C1423.24 647.94 1423.79 647.815 1424.41 647.815C1425.3 647.815 1426.01 648.042 1426.53 648.495C1427.05 648.943 1427.31 649.565 1427.31 650.361C1427.31 650.822 1427.18 651.307 1426.92 651.814C1426.66 652.318 1426.23 652.891 1425.64 653.535L1423.38 655.953H1427.67V657.185Z" fill="#565E76"/>
<path d="M944.525 716.434V699.371H950.103C951.955 699.371 953.346 699.754 954.275 700.52C955.213 701.285 955.682 702.418 955.682 703.918C955.682 704.715 955.455 705.422 955.002 706.039C954.549 706.648 953.932 707.121 953.15 707.457C954.072 707.715 954.799 708.207 955.33 708.934C955.869 709.652 956.139 710.512 956.139 711.512C956.139 713.043 955.642 714.246 954.65 715.121C953.658 715.996 952.256 716.434 950.443 716.434H944.525ZM946.775 708.453V714.594H950.49C951.537 714.594 952.361 714.324 952.963 713.785C953.572 713.238 953.877 712.488 953.877 711.535C953.877 709.48 952.76 708.453 950.525 708.453H946.775ZM946.775 706.648H950.174C951.158 706.648 951.943 706.402 952.529 705.91C953.123 705.418 953.42 704.75 953.42 703.906C953.42 702.969 953.146 702.289 952.599 701.867C952.053 701.438 951.221 701.223 950.103 701.223H946.775V706.648ZM964.4 716.668C962.682 716.668 961.283 716.105 960.205 714.98C959.127 713.848 958.588 712.336 958.588 710.445V710.047C958.588 708.789 958.826 707.668 959.303 706.684C959.787 705.691 960.459 704.918 961.318 704.363C962.185 703.801 963.123 703.52 964.131 703.52C965.779 703.52 967.06 704.062 967.974 705.148C968.889 706.234 969.346 707.789 969.346 709.812V710.715H960.756C960.787 711.965 961.15 712.977 961.846 713.75C962.549 714.516 963.439 714.898 964.517 714.898C965.283 714.898 965.932 714.742 966.463 714.43C966.994 714.117 967.459 713.703 967.857 713.188L969.182 714.219C968.119 715.852 966.525 716.668 964.4 716.668ZM964.131 705.301C963.256 705.301 962.521 705.621 961.928 706.262C961.334 706.895 960.967 707.785 960.826 708.934H967.178V708.77C967.115 707.668 966.818 706.816 966.287 706.215C965.756 705.605 965.037 705.301 964.131 705.301ZM971.338 709.988C971.338 708.043 971.799 706.48 972.721 705.301C973.642 704.113 974.849 703.52 976.342 703.52C977.826 703.52 979.002 704.027 979.869 705.043V698.434H982.037V716.434H980.045L979.939 715.074C979.072 716.137 977.865 716.668 976.318 716.668C974.849 716.668 973.65 716.066 972.721 714.863C971.799 713.66 971.338 712.09 971.338 710.152V709.988ZM973.506 710.234C973.506 711.672 973.803 712.797 974.396 713.609C974.99 714.422 975.81 714.828 976.857 714.828C978.232 714.828 979.236 714.211 979.869 712.977V707.152C979.221 705.957 978.224 705.359 976.881 705.359C975.818 705.359 974.99 705.77 974.396 706.59C973.803 707.41 973.506 708.625 973.506 710.234ZM991.541 705.699C991.213 705.645 990.857 705.617 990.474 705.617C989.053 705.617 988.088 706.223 987.58 707.434V716.434H985.412V703.754H987.521L987.557 705.219C988.267 704.086 989.275 703.52 990.58 703.52C991.002 703.52 991.322 703.574 991.541 703.684V705.699ZM992.736 709.977C992.736 708.734 992.978 707.617 993.463 706.625C993.955 705.633 994.635 704.867 995.502 704.328C996.377 703.789 997.373 703.52 998.49 703.52C1000.22 703.52 1001.61 704.117 1002.67 705.312C1003.74 706.508 1004.28 708.098 1004.28 710.082V710.234C1004.28 711.469 1004.04 712.578 1003.56 713.562C1003.1 714.539 1002.42 715.301 1001.54 715.848C1000.66 716.395 999.654 716.668 998.514 716.668C996.795 716.668 995.4 716.07 994.33 714.875C993.267 713.68 992.736 712.098 992.736 710.129V709.977ZM994.916 710.234C994.916 711.641 995.24 712.77 995.889 713.621C996.545 714.473 997.42 714.898 998.514 714.898C999.615 714.898 1000.49 714.469 1001.14 713.609C1001.79 712.742 1002.11 711.531 1002.11 709.977C1002.11 708.586 1001.78 707.461 1001.12 706.602C1000.46 705.734 999.584 705.301 998.49 705.301C997.42 705.301 996.557 705.727 995.9 706.578C995.244 707.43 994.916 708.648 994.916 710.234ZM1006.42 709.977C1006.42 708.734 1006.67 707.617 1007.15 706.625C1007.64 705.633 1008.32 704.867 1009.19 704.328C1010.06 703.789 1011.06 703.52 1012.18 703.52C1013.9 703.52 1015.3 704.117 1016.36 705.312C1017.43 706.508 1017.97 708.098 1017.97 710.082V710.234C1017.97 711.469 1017.73 712.578 1017.25 713.562C1016.78 714.539 1016.11 715.301 1015.22 715.848C1014.35 716.395 1013.34 716.668 1012.2 716.668C1010.48 716.668 1009.09 716.07 1008.02 714.875C1006.95 713.68 1006.42 712.098 1006.42 710.129V709.977ZM1008.6 710.234C1008.6 711.641 1008.93 712.77 1009.58 713.621C1010.23 714.473 1011.11 714.898 1012.2 714.898C1013.3 714.898 1014.18 714.469 1014.83 713.609C1015.47 712.742 1015.8 711.531 1015.8 709.977C1015.8 708.586 1015.47 707.461 1014.8 706.602C1014.15 705.734 1013.27 705.301 1012.18 705.301C1011.11 705.301 1010.24 705.727 1009.59 706.578C1008.93 707.43 1008.6 708.648 1008.6 710.234ZM1022.72 703.754L1022.78 705.16C1023.71 704.066 1024.97 703.52 1026.54 703.52C1028.32 703.52 1029.53 704.199 1030.17 705.559C1030.59 704.949 1031.13 704.457 1031.81 704.082C1032.49 703.707 1033.29 703.52 1034.21 703.52C1036.99 703.52 1038.4 704.992 1038.45 707.938V716.434H1036.28V708.066C1036.28 707.16 1036.08 706.484 1035.66 706.039C1035.25 705.586 1034.55 705.359 1033.58 705.359C1032.77 705.359 1032.1 705.602 1031.57 706.086C1031.04 706.562 1030.73 707.207 1030.65 708.02V716.434H1028.47V708.125C1028.47 706.281 1027.56 705.359 1025.76 705.359C1024.34 705.359 1023.37 705.965 1022.84 707.176V716.434H1020.67V703.754H1022.72Z" fill="#565E76"/>
<path d="M948.258 748.986H950.426C951.519 748.977 952.384 748.693 953.018 748.137C953.663 747.58 953.985 746.774 953.985 745.72C953.985 744.704 953.717 743.918 953.18 743.361C952.652 742.795 951.842 742.512 950.748 742.512C949.791 742.512 949.005 742.79 948.39 743.347C947.774 743.894 947.467 744.611 947.467 745.5H943.907C943.907 744.406 944.195 743.41 944.771 742.512C945.357 741.613 946.168 740.915 947.203 740.417C948.248 739.909 949.415 739.655 950.704 739.655C952.833 739.655 954.503 740.192 955.714 741.267C956.934 742.331 957.545 743.815 957.545 745.72C957.545 746.677 957.237 747.58 956.622 748.43C956.016 749.27 955.23 749.904 954.264 750.334C955.435 750.734 956.324 751.364 956.93 752.224C957.545 753.083 957.852 754.108 957.852 755.3C957.852 757.214 957.193 758.737 955.875 759.87C954.566 761.003 952.843 761.569 950.704 761.569C948.653 761.569 946.974 761.022 945.665 759.929C944.356 758.835 943.702 757.38 943.702 755.563H947.262C947.262 756.501 947.574 757.263 948.199 757.849C948.834 758.435 949.683 758.728 950.748 758.728C951.851 758.728 952.721 758.435 953.355 757.849C953.99 757.263 954.307 756.413 954.307 755.3C954.307 754.177 953.975 753.312 953.311 752.707C952.647 752.102 951.661 751.799 950.352 751.799H948.258V748.986ZM975.094 752.297C975.094 755.363 974.517 757.678 973.365 759.24C972.223 760.793 970.479 761.569 968.136 761.569C965.831 761.569 964.093 760.812 962.921 759.299C961.759 757.775 961.163 755.524 961.134 752.546V748.854C961.134 745.788 961.705 743.488 962.848 741.955C964 740.422 965.753 739.655 968.106 739.655C970.44 739.655 972.179 740.402 973.321 741.896C974.474 743.391 975.064 745.627 975.094 748.605V752.297ZM971.534 748.312C971.534 746.311 971.261 744.846 970.714 743.918C970.167 742.98 969.298 742.512 968.106 742.512C966.944 742.512 966.09 742.956 965.543 743.845C964.996 744.724 964.708 746.101 964.679 747.976V752.81C964.679 754.802 964.957 756.286 965.514 757.263C966.07 758.239 966.944 758.728 968.136 758.728C969.278 758.728 970.123 758.278 970.67 757.38C971.217 756.472 971.505 755.056 971.534 753.132V748.312ZM980.689 757.526C981.353 757.526 981.866 757.717 982.227 758.098C982.589 758.469 982.769 758.938 982.769 759.504C982.769 760.061 982.589 760.524 982.227 760.896C981.866 761.257 981.353 761.438 980.689 761.438C980.055 761.438 979.552 761.257 979.181 760.896C978.809 760.534 978.624 760.07 978.624 759.504C978.624 758.938 978.805 758.469 979.166 758.098C979.527 757.717 980.035 757.526 980.689 757.526ZM996.261 761.276H992.716V744.152L987.486 745.939V742.937L995.807 739.875H996.261V761.276ZM1004.62 750.7L1005.78 739.948H1017.24V743.024H1008.74L1008.16 748.122C1009.14 747.556 1010.25 747.272 1011.49 747.272C1013.53 747.272 1015.1 747.922 1016.23 749.221C1017.36 750.52 1017.93 752.268 1017.93 754.465C1017.93 756.633 1017.3 758.361 1016.05 759.65C1014.8 760.93 1013.09 761.569 1010.91 761.569C1008.96 761.569 1007.33 761.018 1006.05 759.914C1004.77 758.801 1004.07 757.336 1003.97 755.52H1007.41C1007.54 756.555 1007.92 757.351 1008.52 757.907C1009.13 758.454 1009.92 758.728 1010.89 758.728C1011.99 758.728 1012.84 758.337 1013.44 757.556C1014.06 756.774 1014.37 755.71 1014.37 754.362C1014.37 753.063 1014.03 752.038 1013.36 751.286C1012.68 750.524 1011.75 750.144 1010.57 750.144C1009.93 750.144 1009.38 750.231 1008.93 750.407C1008.48 750.573 1007.99 750.905 1007.47 751.403L1004.62 750.7ZM1031.77 745.427L1031.87 747.082C1032.98 745.783 1034.51 745.134 1036.44 745.134C1038.56 745.134 1040.01 745.944 1040.79 747.565C1041.94 745.944 1043.57 745.134 1045.66 745.134C1047.4 745.134 1048.7 745.617 1049.55 746.584C1050.41 747.551 1050.85 748.977 1050.87 750.861V761.276H1047.31V750.964C1047.31 749.958 1047.09 749.221 1046.65 748.752C1046.21 748.283 1045.48 748.049 1044.47 748.049C1043.66 748.049 1042.99 748.269 1042.48 748.708C1041.97 749.138 1041.61 749.704 1041.41 750.407L1041.42 761.276H1037.86V750.847C1037.81 748.981 1036.86 748.049 1035.01 748.049C1033.58 748.049 1032.57 748.63 1031.97 749.792V761.276H1028.41V745.427H1031.77Z" fill="#565E76"/>
<path d="M1062.81 746.265H1056.59V745.205L1059.67 741.847C1060.11 741.352 1060.43 740.939 1060.62 740.609C1060.81 740.275 1060.9 739.94 1060.9 739.606C1060.9 739.166 1060.78 738.81 1060.53 738.54C1060.28 738.269 1059.95 738.133 1059.53 738.133C1059.03 738.133 1058.64 738.286 1058.37 738.59C1058.09 738.895 1057.96 739.312 1057.96 739.841H1056.41C1056.41 739.278 1056.54 738.772 1056.79 738.324C1057.05 737.871 1057.42 737.52 1057.89 737.27C1058.37 737.02 1058.92 736.896 1059.54 736.896C1060.44 736.896 1061.15 737.122 1061.66 737.575C1062.18 738.023 1062.44 738.645 1062.44 739.441C1062.44 739.902 1062.31 740.387 1062.05 740.895C1061.79 741.398 1061.37 741.972 1060.77 742.615L1058.51 745.033H1062.81V746.265Z" fill="#565E76"/>
<path d="M834.791 321.325H832.529V313.438H823.927V321.325H821.677V304.263H823.927V311.599H832.529V304.263H834.791V321.325ZM846.275 321.325C846.15 321.075 846.048 320.63 845.97 319.989C844.963 321.036 843.759 321.56 842.361 321.56C841.111 321.56 840.084 321.208 839.279 320.505C838.482 319.794 838.084 318.896 838.084 317.81C838.084 316.489 838.584 315.466 839.584 314.739C840.591 314.005 842.005 313.638 843.826 313.638H845.935V312.642C845.935 311.884 845.709 311.282 845.255 310.837C844.802 310.384 844.134 310.157 843.252 310.157C842.478 310.157 841.83 310.353 841.306 310.743C840.783 311.134 840.521 311.606 840.521 312.161H838.341C838.341 311.528 838.564 310.919 839.009 310.333C839.463 309.739 840.072 309.271 840.838 308.927C841.611 308.583 842.459 308.411 843.38 308.411C844.841 308.411 845.986 308.778 846.814 309.513C847.642 310.239 848.072 311.243 848.103 312.524V318.36C848.103 319.524 848.252 320.45 848.548 321.138V321.325H846.275ZM842.677 319.673C843.357 319.673 844.002 319.497 844.611 319.146C845.22 318.794 845.662 318.337 845.935 317.774V315.173H844.236C841.58 315.173 840.252 315.95 840.252 317.505C840.252 318.185 840.478 318.716 840.931 319.099C841.384 319.481 841.966 319.673 842.677 319.673ZM853.857 321.325H851.689V303.325H853.857V321.325ZM859.693 321.325H857.525V303.325H859.693V321.325ZM874.4 318.337L876.838 308.646H879.005L875.314 321.325H873.556L870.474 311.716L867.474 321.325H865.716L862.037 308.646H864.193L866.689 318.138L869.642 308.646H871.388L874.4 318.337ZM889.048 321.325C888.923 321.075 888.822 320.63 888.744 319.989C887.736 321.036 886.533 321.56 885.134 321.56C883.884 321.56 882.857 321.208 882.052 320.505C881.255 319.794 880.857 318.896 880.857 317.81C880.857 316.489 881.357 315.466 882.357 314.739C883.365 314.005 884.779 313.638 886.599 313.638H888.709V312.642C888.709 311.884 888.482 311.282 888.029 310.837C887.576 310.384 886.908 310.157 886.025 310.157C885.252 310.157 884.603 310.353 884.08 310.743C883.556 311.134 883.295 311.606 883.295 312.161H881.115C881.115 311.528 881.338 310.919 881.783 310.333C882.236 309.739 882.845 309.271 883.611 308.927C884.384 308.583 885.232 308.411 886.154 308.411C887.615 308.411 888.759 308.778 889.588 309.513C890.416 310.239 890.845 311.243 890.877 312.524V318.36C890.877 319.524 891.025 320.45 891.322 321.138V321.325H889.048ZM885.451 319.673C886.13 319.673 886.775 319.497 887.384 319.146C887.994 318.794 888.435 318.337 888.709 317.774V315.173H887.009C884.353 315.173 883.025 315.95 883.025 317.505C883.025 318.185 883.252 318.716 883.705 319.099C884.158 319.481 884.74 319.673 885.451 319.673ZM898.236 318.149L901.189 308.646H903.509L898.412 323.282C897.623 325.392 896.369 326.446 894.65 326.446L894.24 326.411L893.431 326.259V324.501L894.017 324.548C894.752 324.548 895.322 324.399 895.728 324.103C896.142 323.806 896.482 323.263 896.748 322.474L897.228 321.185L892.705 308.646H895.072L898.236 318.149Z" fill="#565E76"/>
<path d="M830.932 366.168H827.387V349.044L822.158 350.831V347.828L830.478 344.767H830.932V366.168ZM850.385 358.565H853.037V361.422H850.385V366.168H846.826V361.422H837.612L837.509 359.254L846.709 344.84H850.385V358.565ZM841.245 358.565H846.826V349.659L846.562 350.128L841.245 358.565ZM857.841 362.418C858.505 362.418 859.018 362.608 859.38 362.989C859.741 363.36 859.922 363.829 859.922 364.396C859.922 364.952 859.741 365.416 859.38 365.787C859.018 366.148 858.505 366.329 857.841 366.329C857.207 366.329 856.704 366.148 856.333 365.787C855.962 365.426 855.776 364.962 855.776 364.396C855.776 363.829 855.957 363.36 856.318 362.989C856.679 362.608 857.187 362.418 857.841 362.418ZM873.413 366.168H869.868V349.044L864.638 350.831V347.828L872.959 344.767H873.413V366.168ZM881.777 355.592L882.934 344.84H894.389V347.916H885.893L885.307 353.014C886.294 352.447 887.407 352.164 888.647 352.164C890.678 352.164 892.255 352.813 893.379 354.112C894.511 355.411 895.078 357.159 895.078 359.356C895.078 361.524 894.453 363.253 893.203 364.542C891.953 365.821 890.239 366.461 888.061 366.461C886.108 366.461 884.487 365.909 883.198 364.806C881.919 363.692 881.225 362.228 881.118 360.411H884.56C884.697 361.446 885.068 362.242 885.673 362.799C886.279 363.346 887.07 363.619 888.047 363.619C889.14 363.619 889.99 363.229 890.595 362.447C891.211 361.666 891.518 360.602 891.518 359.254C891.518 357.955 891.181 356.93 890.507 356.178C889.834 355.416 888.906 355.035 887.724 355.035C887.08 355.035 886.533 355.123 886.084 355.299C885.634 355.465 885.146 355.797 884.619 356.295L881.777 355.592ZM908.921 350.318L909.023 351.974C910.136 350.675 911.66 350.025 913.593 350.025C915.713 350.025 917.163 350.836 917.944 352.457C919.096 350.836 920.717 350.025 922.807 350.025C924.555 350.025 925.854 350.509 926.704 351.476C927.563 352.442 928.003 353.868 928.022 355.753V366.168H924.463V355.855C924.463 354.85 924.243 354.112 923.803 353.644C923.364 353.175 922.636 352.94 921.621 352.94C920.81 352.94 920.146 353.16 919.629 353.6C919.121 354.029 918.764 354.596 918.559 355.299L918.574 366.168H915.014V355.738C914.965 353.873 914.013 352.94 912.158 352.94C910.732 352.94 909.721 353.521 909.126 354.684V366.168H905.566V350.318H908.921Z" fill="#565E76"/>
<path d="M939.109 350.224H932.894V349.164L935.973 345.806C936.417 345.311 936.733 344.898 936.919 344.568C937.109 344.234 937.204 343.899 937.204 343.565C937.204 343.125 937.08 342.769 936.83 342.499C936.585 342.228 936.252 342.092 935.833 342.092C935.334 342.092 934.947 342.245 934.672 342.549C934.397 342.854 934.259 343.271 934.259 343.8H932.717C932.717 343.237 932.844 342.731 933.098 342.283C933.356 341.83 933.722 341.479 934.196 341.229C934.674 340.979 935.224 340.854 935.846 340.854C936.743 340.854 937.45 341.081 937.966 341.534C938.487 341.982 938.747 342.604 938.747 343.4C938.747 343.861 938.616 344.346 938.353 344.854C938.095 345.357 937.67 345.931 937.078 346.574L934.818 348.992H939.109V350.224Z" fill="#565E76"/>
<path d="M1310.86 130.966V113.903H1316.44C1318.29 113.903 1319.68 114.286 1320.61 115.052C1321.54 115.817 1322.01 116.95 1322.01 118.45C1322.01 119.247 1321.79 119.954 1321.33 120.571C1320.88 121.181 1320.26 121.653 1319.48 121.989C1320.4 122.247 1321.13 122.739 1321.66 123.466C1322.2 124.185 1322.47 125.044 1322.47 126.044C1322.47 127.575 1321.97 128.778 1320.98 129.653C1319.99 130.528 1318.59 130.966 1316.77 130.966H1310.86ZM1313.11 122.985V129.126H1316.82C1317.87 129.126 1318.69 128.856 1319.29 128.317C1319.9 127.771 1320.21 127.021 1320.21 126.067C1320.21 124.013 1319.09 122.985 1316.86 122.985H1313.11ZM1313.11 121.181H1316.51C1317.49 121.181 1318.27 120.935 1318.86 120.442C1319.45 119.95 1319.75 119.282 1319.75 118.438C1319.75 117.501 1319.48 116.821 1318.93 116.399C1318.38 115.97 1317.55 115.755 1316.44 115.755H1313.11V121.181ZM1333.3 130.966C1333.17 130.716 1333.07 130.271 1332.99 129.63C1331.99 130.677 1330.78 131.2 1329.38 131.2C1328.13 131.2 1327.11 130.849 1326.3 130.146C1325.51 129.435 1325.11 128.536 1325.11 127.45C1325.11 126.13 1325.61 125.106 1326.61 124.38C1327.61 123.646 1329.03 123.278 1330.85 123.278H1332.96V122.282C1332.96 121.524 1332.73 120.923 1332.28 120.478C1331.83 120.024 1331.16 119.798 1330.27 119.798C1329.5 119.798 1328.85 119.993 1328.33 120.384C1327.81 120.774 1327.54 121.247 1327.54 121.802H1325.36C1325.36 121.169 1325.59 120.56 1326.03 119.974C1326.49 119.38 1327.1 118.911 1327.86 118.567C1328.63 118.224 1329.48 118.052 1330.4 118.052C1331.86 118.052 1333.01 118.419 1333.84 119.153C1334.67 119.88 1335.1 120.884 1335.13 122.165V128.001C1335.13 129.165 1335.27 130.091 1335.57 130.778V130.966H1333.3ZM1329.7 129.313C1330.38 129.313 1331.02 129.138 1331.63 128.786C1332.24 128.435 1332.69 127.978 1332.96 127.415V124.813H1331.26C1328.6 124.813 1327.27 125.591 1327.27 127.146C1327.27 127.825 1327.5 128.356 1327.95 128.739C1328.41 129.122 1328.99 129.313 1329.7 129.313ZM1341.47 115.216V118.286H1343.83V119.962H1341.47V127.825C1341.47 128.333 1341.57 128.716 1341.78 128.974C1341.99 129.224 1342.35 129.349 1342.86 129.349C1343.11 129.349 1343.45 129.302 1343.89 129.208V130.966C1343.32 131.122 1342.77 131.2 1342.23 131.2C1341.26 131.2 1340.53 130.907 1340.04 130.321C1339.54 129.735 1339.3 128.903 1339.3 127.825V119.962H1336.99V118.286H1339.3V115.216H1341.47ZM1348.54 119.821C1349.51 118.642 1350.76 118.052 1352.29 118.052C1354.97 118.052 1356.33 119.563 1356.35 122.587V130.966H1354.18V122.575C1354.17 121.661 1353.96 120.985 1353.55 120.548C1353.14 120.11 1352.51 119.892 1351.64 119.892C1350.94 119.892 1350.32 120.079 1349.79 120.454C1349.26 120.829 1348.84 121.321 1348.54 121.931V130.966H1346.38V112.966H1348.54V119.821ZM1365.72 120.231C1365.4 120.177 1365.04 120.149 1364.66 120.149C1363.24 120.149 1362.27 120.755 1361.76 121.966V130.966H1359.6V118.286H1361.7L1361.74 119.751C1362.45 118.618 1363.46 118.052 1364.76 118.052C1365.19 118.052 1365.51 118.106 1365.72 118.216V120.231ZM1366.92 124.509C1366.92 123.267 1367.16 122.149 1367.65 121.157C1368.14 120.165 1368.82 119.399 1369.69 118.86C1370.56 118.321 1371.56 118.052 1372.67 118.052C1374.4 118.052 1375.79 118.649 1376.86 119.845C1377.93 121.04 1378.46 122.63 1378.46 124.614V124.767C1378.46 126.001 1378.22 127.11 1377.75 128.095C1377.28 129.071 1376.6 129.833 1375.72 130.38C1374.85 130.927 1373.84 131.2 1372.7 131.2C1370.98 131.2 1369.58 130.603 1368.51 129.407C1367.45 128.212 1366.92 126.63 1366.92 124.661V124.509ZM1369.1 124.767C1369.1 126.173 1369.42 127.302 1370.07 128.153C1370.73 129.005 1371.6 129.431 1372.7 129.431C1373.8 129.431 1374.67 129.001 1375.32 128.142C1375.97 127.274 1376.29 126.063 1376.29 124.509C1376.29 123.118 1375.96 121.993 1375.3 121.134C1374.64 120.267 1373.77 119.833 1372.67 119.833C1371.6 119.833 1370.74 120.259 1370.08 121.11C1369.43 121.962 1369.1 123.181 1369.1 124.767ZM1380.61 124.509C1380.61 123.267 1380.85 122.149 1381.33 121.157C1381.83 120.165 1382.51 119.399 1383.37 118.86C1384.25 118.321 1385.24 118.052 1386.36 118.052C1388.09 118.052 1389.48 118.649 1390.54 119.845C1391.61 121.04 1392.15 122.63 1392.15 124.614V124.767C1392.15 126.001 1391.91 127.11 1391.44 128.095C1390.97 129.071 1390.29 129.833 1389.41 130.38C1388.53 130.927 1387.52 131.2 1386.38 131.2C1384.67 131.2 1383.27 130.603 1382.2 129.407C1381.14 128.212 1380.61 126.63 1380.61 124.661V124.509ZM1382.79 124.767C1382.79 126.173 1383.11 127.302 1383.76 128.153C1384.42 129.005 1385.29 129.431 1386.38 129.431C1387.49 129.431 1388.36 129.001 1389.01 128.142C1389.66 127.274 1389.98 126.063 1389.98 124.509C1389.98 123.118 1389.65 121.993 1388.99 121.134C1388.33 120.267 1387.45 119.833 1386.36 119.833C1385.29 119.833 1384.43 120.259 1383.77 121.11C1383.11 121.962 1382.79 123.181 1382.79 124.767ZM1396.91 118.286L1396.97 119.692C1397.9 118.599 1399.15 118.052 1400.73 118.052C1402.5 118.052 1403.71 118.731 1404.35 120.091C1404.77 119.481 1405.32 118.989 1405.99 118.614C1406.67 118.239 1407.47 118.052 1408.39 118.052C1411.17 118.052 1412.59 119.524 1412.63 122.47V130.966H1410.47V122.599C1410.47 121.692 1410.26 121.017 1409.85 120.571C1409.43 120.118 1408.74 119.892 1407.76 119.892C1406.95 119.892 1406.29 120.134 1405.76 120.618C1405.22 121.095 1404.92 121.739 1404.83 122.552V130.966H1402.65V122.657C1402.65 120.813 1401.75 119.892 1399.94 119.892C1398.52 119.892 1397.55 120.497 1397.02 121.708V130.966H1394.86V118.286H1396.91Z" fill="#565E76"/>
<path d="M1320.11 175.809H1316.57V158.685L1311.34 160.472V157.469L1319.66 154.407H1320.11V175.809ZM1341.86 175.809H1327.52V173.362L1334.63 165.613C1335.65 164.471 1336.38 163.519 1336.81 162.757C1337.25 161.985 1337.47 161.214 1337.47 160.442C1337.47 159.427 1337.18 158.606 1336.61 157.981C1336.04 157.356 1335.27 157.044 1334.31 157.044C1333.15 157.044 1332.26 157.396 1331.63 158.099C1330.99 158.802 1330.67 159.764 1330.67 160.984H1327.11C1327.11 159.686 1327.41 158.519 1327.99 157.483C1328.59 156.438 1329.43 155.628 1330.53 155.052C1331.63 154.476 1332.9 154.188 1334.34 154.188C1336.41 154.188 1338.04 154.71 1339.23 155.755C1340.43 156.79 1341.03 158.226 1341.03 160.062C1341.03 161.126 1340.73 162.244 1340.12 163.416C1339.53 164.578 1338.54 165.901 1337.18 167.386L1331.96 172.967H1341.86V175.809ZM1347.02 172.059C1347.69 172.059 1348.2 172.249 1348.56 172.63C1348.92 173.001 1349.1 173.47 1349.1 174.036C1349.1 174.593 1348.92 175.057 1348.56 175.428C1348.2 175.789 1347.69 175.97 1347.02 175.97C1346.39 175.97 1345.88 175.789 1345.51 175.428C1345.14 175.066 1344.96 174.603 1344.96 174.036C1344.96 173.47 1345.14 173.001 1345.5 172.63C1345.86 172.249 1346.37 172.059 1347.02 172.059ZM1362.59 175.809H1359.05V158.685L1353.82 160.472V157.469L1362.14 154.407H1362.59V175.809ZM1370.96 165.232L1372.11 154.48H1383.57V157.557H1375.07L1374.49 162.654C1375.47 162.088 1376.59 161.805 1377.83 161.805C1379.86 161.805 1381.44 162.454 1382.56 163.753C1383.69 165.052 1384.26 166.8 1384.26 168.997C1384.26 171.165 1383.63 172.894 1382.38 174.183C1381.13 175.462 1379.42 176.102 1377.24 176.102C1375.29 176.102 1373.67 175.55 1372.38 174.446C1371.1 173.333 1370.4 171.868 1370.3 170.052H1373.74C1373.88 171.087 1374.25 171.883 1374.85 172.439C1375.46 172.986 1376.25 173.26 1377.23 173.26C1378.32 173.26 1379.17 172.869 1379.77 172.088C1380.39 171.307 1380.7 170.242 1380.7 168.895C1380.7 167.596 1380.36 166.57 1379.69 165.818C1379.01 165.057 1378.09 164.676 1376.9 164.676C1376.26 164.676 1375.71 164.764 1375.26 164.939C1374.81 165.105 1374.33 165.438 1373.8 165.936L1370.96 165.232ZM1398.1 159.959L1398.2 161.614C1399.32 160.315 1400.84 159.666 1402.77 159.666C1404.89 159.666 1406.34 160.477 1407.12 162.098C1408.28 160.477 1409.9 159.666 1411.99 159.666C1413.73 159.666 1415.03 160.149 1415.88 161.116C1416.74 162.083 1417.18 163.509 1417.2 165.394V175.809H1413.64V165.496C1413.64 164.49 1413.42 163.753 1412.98 163.284C1412.54 162.815 1411.82 162.581 1410.8 162.581C1409.99 162.581 1409.33 162.801 1408.81 163.24C1408.3 163.67 1407.94 164.236 1407.74 164.939L1407.75 175.809H1404.19V165.379C1404.15 163.514 1403.19 162.581 1401.34 162.581C1399.91 162.581 1398.9 163.162 1398.31 164.324V175.809H1394.75V159.959H1398.1Z" fill="#565E76"/>
<path d="M1428.47 158.331H1422.25V157.271L1425.33 153.913C1425.78 153.418 1426.09 153.005 1426.28 152.675C1426.47 152.341 1426.56 152.007 1426.56 151.672C1426.56 151.232 1426.44 150.877 1426.19 150.606C1425.94 150.335 1425.61 150.2 1425.19 150.2C1424.69 150.2 1424.31 150.352 1424.03 150.657C1423.76 150.961 1423.62 151.378 1423.62 151.907H1422.08C1422.08 151.344 1422.2 150.839 1422.46 150.39C1422.71 149.937 1423.08 149.586 1423.55 149.336C1424.03 149.087 1424.58 148.962 1425.21 148.962C1426.1 148.962 1426.81 149.188 1427.33 149.641C1427.85 150.09 1428.11 150.712 1428.11 151.507C1428.11 151.969 1427.98 152.453 1427.71 152.961C1427.45 153.465 1427.03 154.038 1426.44 154.681L1424.18 157.1H1428.47V158.331Z" fill="#565E76"/>
<path d="M572.66 741.887V724.824H578.238C580.09 724.824 581.48 725.207 582.41 725.973C583.348 726.738 583.816 727.871 583.816 729.371C583.816 730.168 583.59 730.875 583.137 731.492C582.684 732.102 582.066 732.574 581.285 732.91C582.207 733.168 582.934 733.66 583.465 734.387C584.004 735.105 584.273 735.965 584.273 736.965C584.273 738.496 583.777 739.699 582.785 740.574C581.793 741.449 580.391 741.887 578.578 741.887H572.66ZM574.91 733.906V740.047H578.625C579.672 740.047 580.496 739.777 581.098 739.238C581.707 738.691 582.012 737.941 582.012 736.988C582.012 734.934 580.895 733.906 578.66 733.906H574.91ZM574.91 732.102H578.309C579.293 732.102 580.078 731.855 580.664 731.363C581.258 730.871 581.555 730.203 581.555 729.359C581.555 728.422 581.281 727.742 580.734 727.32C580.188 726.891 579.355 726.676 578.238 726.676H574.91V732.102ZM592.535 742.121C590.816 742.121 589.418 741.559 588.34 740.434C587.262 739.301 586.723 737.789 586.723 735.898V735.5C586.723 734.242 586.961 733.121 587.438 732.137C587.922 731.145 588.594 730.371 589.453 729.816C590.32 729.254 591.258 728.973 592.266 728.973C593.914 728.973 595.195 729.516 596.109 730.602C597.023 731.688 597.48 733.242 597.48 735.266V736.168H588.891C588.922 737.418 589.285 738.43 589.98 739.203C590.684 739.969 591.574 740.352 592.652 740.352C593.418 740.352 594.066 740.195 594.598 739.883C595.129 739.57 595.594 739.156 595.992 738.641L597.316 739.672C596.254 741.305 594.66 742.121 592.535 742.121ZM592.266 730.754C591.391 730.754 590.656 731.074 590.062 731.715C589.469 732.348 589.102 733.238 588.961 734.387H595.312V734.223C595.25 733.121 594.953 732.27 594.422 731.668C593.891 731.059 593.172 730.754 592.266 730.754ZM599.473 735.441C599.473 733.496 599.934 731.934 600.855 730.754C601.777 729.566 602.984 728.973 604.477 728.973C605.961 728.973 607.137 729.48 608.004 730.496V723.887H610.172V741.887H608.18L608.074 740.527C607.207 741.59 606 742.121 604.453 742.121C602.984 742.121 601.785 741.52 600.855 740.316C599.934 739.113 599.473 737.543 599.473 735.605V735.441ZM601.641 735.688C601.641 737.125 601.938 738.25 602.531 739.062C603.125 739.875 603.945 740.281 604.992 740.281C606.367 740.281 607.371 739.664 608.004 738.43V732.605C607.355 731.41 606.359 730.812 605.016 730.812C603.953 730.812 603.125 731.223 602.531 732.043C601.938 732.863 601.641 734.078 601.641 735.688ZM619.676 731.152C619.348 731.098 618.992 731.07 618.609 731.07C617.188 731.07 616.223 731.676 615.715 732.887V741.887H613.547V729.207H615.656L615.691 730.672C616.402 729.539 617.41 728.973 618.715 728.973C619.137 728.973 619.457 729.027 619.676 729.137V731.152ZM620.871 735.43C620.871 734.188 621.113 733.07 621.598 732.078C622.09 731.086 622.77 730.32 623.637 729.781C624.512 729.242 625.508 728.973 626.625 728.973C628.352 728.973 629.746 729.57 630.809 730.766C631.879 731.961 632.414 733.551 632.414 735.535V735.688C632.414 736.922 632.176 738.031 631.699 739.016C631.23 739.992 630.555 740.754 629.672 741.301C628.797 741.848 627.789 742.121 626.648 742.121C624.93 742.121 623.535 741.523 622.465 740.328C621.402 739.133 620.871 737.551 620.871 735.582V735.43ZM623.051 735.688C623.051 737.094 623.375 738.223 624.023 739.074C624.68 739.926 625.555 740.352 626.648 740.352C627.75 740.352 628.625 739.922 629.273 739.062C629.922 738.195 630.246 736.984 630.246 735.43C630.246 734.039 629.914 732.914 629.25 732.055C628.594 731.188 627.719 730.754 626.625 730.754C625.555 730.754 624.691 731.18 624.035 732.031C623.379 732.883 623.051 734.102 623.051 735.688ZM634.559 735.43C634.559 734.188 634.801 733.07 635.285 732.078C635.777 731.086 636.457 730.32 637.324 729.781C638.199 729.242 639.195 728.973 640.312 728.973C642.039 728.973 643.434 729.57 644.496 730.766C645.566 731.961 646.102 733.551 646.102 735.535V735.688C646.102 736.922 645.863 738.031 645.387 739.016C644.918 739.992 644.242 740.754 643.359 741.301C642.484 741.848 641.477 742.121 640.336 742.121C638.617 742.121 637.223 741.523 636.152 740.328C635.09 739.133 634.559 737.551 634.559 735.582V735.43ZM636.738 735.688C636.738 737.094 637.062 738.223 637.711 739.074C638.367 739.926 639.242 740.352 640.336 740.352C641.438 740.352 642.312 739.922 642.961 739.062C643.609 738.195 643.934 736.984 643.934 735.43C643.934 734.039 643.602 732.914 642.938 732.055C642.281 731.188 641.406 730.754 640.312 730.754C639.242 730.754 638.379 731.18 637.723 732.031C637.066 732.883 636.738 734.102 636.738 735.688ZM650.859 729.207L650.918 730.613C651.848 729.52 653.102 728.973 654.68 728.973C656.453 728.973 657.66 729.652 658.301 731.012C658.723 730.402 659.27 729.91 659.941 729.535C660.621 729.16 661.422 728.973 662.344 728.973C665.125 728.973 666.539 730.445 666.586 733.391V741.887H664.418V733.52C664.418 732.613 664.211 731.938 663.797 731.492C663.383 731.039 662.688 730.812 661.711 730.812C660.906 730.812 660.238 731.055 659.707 731.539C659.176 732.016 658.867 732.66 658.781 733.473V741.887H656.602V733.578C656.602 731.734 655.699 730.812 653.895 730.812C652.473 730.812 651.5 731.418 650.977 732.629V741.887H648.809V729.207H650.859Z" fill="#565E76"/>
<path d="M576.393 774.439H578.561C579.654 774.43 580.519 774.146 581.153 773.59C581.798 773.033 582.12 772.228 582.12 771.173C582.12 770.157 581.852 769.371 581.314 768.814C580.787 768.248 579.977 767.965 578.883 767.965C577.926 767.965 577.14 768.243 576.524 768.8C575.909 769.347 575.602 770.064 575.602 770.953H572.042C572.042 769.859 572.33 768.863 572.906 767.965C573.492 767.066 574.303 766.368 575.338 765.87C576.383 765.362 577.55 765.108 578.839 765.108C580.968 765.108 582.638 765.646 583.849 766.72C585.069 767.784 585.68 769.269 585.68 771.173C585.68 772.13 585.372 773.033 584.757 773.883C584.151 774.723 583.365 775.357 582.398 775.787C583.57 776.188 584.459 776.817 585.064 777.677C585.68 778.536 585.987 779.562 585.987 780.753C585.987 782.667 585.328 784.19 584.01 785.323C582.701 786.456 580.978 787.022 578.839 787.022C576.788 787.022 575.108 786.476 573.8 785.382C572.491 784.288 571.837 782.833 571.837 781.017H575.396C575.396 781.954 575.709 782.716 576.334 783.302C576.969 783.888 577.818 784.181 578.883 784.181C579.986 784.181 580.855 783.888 581.49 783.302C582.125 782.716 582.442 781.866 582.442 780.753C582.442 779.63 582.11 778.766 581.446 778.16C580.782 777.555 579.796 777.252 578.487 777.252H576.393V774.439ZM590.279 776.153L591.437 765.401H602.892V768.478H594.396L593.81 773.575C594.796 773.009 595.909 772.726 597.149 772.726C599.181 772.726 600.758 773.375 601.881 774.674C603.014 775.973 603.58 777.721 603.58 779.918C603.58 782.086 602.955 783.814 601.705 785.104C600.455 786.383 598.741 787.022 596.563 787.022C594.61 787.022 592.989 786.471 591.7 785.367C590.421 784.254 589.728 782.789 589.62 780.973H593.062C593.199 782.008 593.57 782.804 594.176 783.36C594.781 783.907 595.572 784.181 596.549 784.181C597.643 784.181 598.492 783.79 599.098 783.009C599.713 782.228 600.021 781.163 600.021 779.815C600.021 778.517 599.684 777.491 599.01 776.739C598.336 775.978 597.408 775.597 596.227 775.597C595.582 775.597 595.035 775.685 594.586 775.86C594.137 776.026 593.648 776.358 593.121 776.856L590.279 776.153ZM608.824 782.979C609.488 782.979 610.001 783.17 610.362 783.551C610.724 783.922 610.904 784.391 610.904 784.957C610.904 785.514 610.724 785.978 610.362 786.349C610.001 786.71 609.488 786.891 608.824 786.891C608.189 786.891 607.687 786.71 607.315 786.349C606.944 785.987 606.759 785.523 606.759 784.957C606.759 784.391 606.939 783.922 607.301 783.551C607.662 783.17 608.17 782.979 608.824 782.979ZM624.396 786.729H620.851V769.605L615.621 771.393V768.39L623.941 765.328H624.396V786.729ZM632.76 776.153L633.917 765.401H645.372V768.478H636.876L636.29 773.575C637.276 773.009 638.39 772.726 639.63 772.726C641.661 772.726 643.238 773.375 644.361 774.674C645.494 775.973 646.061 777.721 646.061 779.918C646.061 782.086 645.436 783.814 644.186 785.104C642.936 786.383 641.222 787.022 639.044 787.022C637.091 787.022 635.47 786.471 634.181 785.367C632.901 784.254 632.208 782.789 632.101 780.973H635.543C635.68 782.008 636.051 782.804 636.656 783.36C637.262 783.907 638.053 784.181 639.029 784.181C640.123 784.181 640.973 783.79 641.578 783.009C642.193 782.228 642.501 781.163 642.501 779.815C642.501 778.517 642.164 777.491 641.49 776.739C640.816 775.978 639.889 775.597 638.707 775.597C638.062 775.597 637.516 775.685 637.066 775.86C636.617 776.026 636.129 776.358 635.602 776.856L632.76 776.153ZM659.903 770.88L660.006 772.535C661.119 771.236 662.643 770.587 664.576 770.587C666.695 770.587 668.146 771.397 668.927 773.019C670.079 771.397 671.7 770.587 673.79 770.587C675.538 770.587 676.837 771.07 677.687 772.037C678.546 773.004 678.985 774.43 679.005 776.314V786.729H675.445V776.417C675.445 775.411 675.226 774.674 674.786 774.205C674.347 773.736 673.619 773.502 672.604 773.502C671.793 773.502 671.129 773.722 670.611 774.161C670.104 774.591 669.747 775.157 669.542 775.86L669.557 786.729H665.997V776.3C665.948 774.435 664.996 773.502 663.141 773.502C661.715 773.502 660.704 774.083 660.108 775.245V786.729H656.549V770.88H659.903Z" fill="#565E76"/>
<path d="M689.075 771.173H682.86V770.113L685.939 766.755C686.383 766.26 686.699 765.847 686.885 765.517C687.075 765.183 687.17 764.848 687.17 764.514C687.17 764.074 687.046 763.719 686.796 763.448C686.55 763.177 686.218 763.042 685.799 763.042C685.3 763.042 684.913 763.194 684.638 763.499C684.363 763.803 684.225 764.22 684.225 764.749H682.683C682.683 764.186 682.81 763.681 683.063 763.232C683.322 762.779 683.688 762.428 684.162 762.178C684.64 761.929 685.19 761.804 685.812 761.804C686.709 761.804 687.416 762.03 687.932 762.483C688.453 762.931 688.713 763.554 688.713 764.349C688.713 764.81 688.582 765.295 688.319 765.803C688.061 766.306 687.636 766.88 687.043 767.523L684.784 769.941H689.075V771.173Z" fill="#565E76"/>
<path d="M143.293 384.783H151.379V386.623H141.031V369.561H143.293V384.783ZM155.961 386.623H153.793V373.943H155.961V386.623ZM153.617 370.58C153.617 370.229 153.723 369.932 153.934 369.689C154.152 369.447 154.473 369.326 154.895 369.326C155.316 369.326 155.637 369.447 155.855 369.689C156.074 369.932 156.184 370.229 156.184 370.58C156.184 370.932 156.074 371.225 155.855 371.459C155.637 371.693 155.316 371.811 154.895 371.811C154.473 371.811 154.152 371.693 153.934 371.459C153.723 371.225 153.617 370.932 153.617 370.58ZM163.625 383.682L166.766 373.943H168.98L164.434 386.623H162.781L158.188 373.943H160.402L163.625 383.682ZM173.422 386.623H171.254V373.943H173.422V386.623ZM171.078 370.58C171.078 370.229 171.184 369.932 171.395 369.689C171.613 369.447 171.934 369.326 172.355 369.326C172.777 369.326 173.098 369.447 173.316 369.689C173.535 369.932 173.645 370.229 173.645 370.58C173.645 370.932 173.535 371.225 173.316 371.459C173.098 371.693 172.777 371.811 172.355 371.811C171.934 371.811 171.613 371.693 171.395 371.459C171.184 371.225 171.078 370.932 171.078 370.58ZM178.953 373.943L179.023 375.537C179.992 374.318 181.258 373.709 182.82 373.709C185.5 373.709 186.852 375.221 186.875 378.244V386.623H184.707V378.232C184.699 377.318 184.488 376.643 184.074 376.205C183.668 375.768 183.031 375.549 182.164 375.549C181.461 375.549 180.844 375.736 180.312 376.111C179.781 376.486 179.367 376.979 179.07 377.588V386.623H176.902V373.943H178.953ZM189.629 380.178C189.629 378.201 190.086 376.631 191 375.467C191.914 374.295 193.125 373.709 194.633 373.709C196.18 373.709 197.387 374.256 198.254 375.35L198.359 373.943H200.34V386.318C200.34 387.959 199.852 389.252 198.875 390.197C197.906 391.143 196.602 391.615 194.961 391.615C194.047 391.615 193.152 391.42 192.277 391.029C191.402 390.639 190.734 390.104 190.273 389.424L191.398 388.123C192.328 389.271 193.465 389.846 194.809 389.846C195.863 389.846 196.684 389.549 197.27 388.955C197.863 388.361 198.16 387.525 198.16 386.447V385.357C197.293 386.357 196.109 386.857 194.609 386.857C193.125 386.857 191.922 386.26 191 385.064C190.086 383.869 189.629 382.24 189.629 380.178ZM191.809 380.424C191.809 381.854 192.102 382.979 192.688 383.799C193.273 384.611 194.094 385.018 195.148 385.018C196.516 385.018 197.52 384.396 198.16 383.154V377.365C197.496 376.154 196.5 375.549 195.172 375.549C194.117 375.549 193.293 375.959 192.699 376.779C192.105 377.6 191.809 378.814 191.809 380.424ZM215.703 375.889C215.375 375.834 215.02 375.807 214.637 375.807C213.215 375.807 212.25 376.412 211.742 377.623V386.623H209.574V373.943H211.684L211.719 375.408C212.43 374.275 213.438 373.709 214.742 373.709C215.164 373.709 215.484 373.764 215.703 373.873V375.889ZM216.898 380.166C216.898 378.924 217.141 377.807 217.625 376.814C218.117 375.822 218.797 375.057 219.664 374.518C220.539 373.979 221.535 373.709 222.652 373.709C224.379 373.709 225.773 374.307 226.836 375.502C227.906 376.697 228.441 378.287 228.441 380.271V380.424C228.441 381.658 228.203 382.768 227.727 383.752C227.258 384.729 226.582 385.49 225.699 386.037C224.824 386.584 223.816 386.857 222.676 386.857C220.957 386.857 219.562 386.26 218.492 385.064C217.43 383.869 216.898 382.287 216.898 380.318V380.166ZM219.078 380.424C219.078 381.83 219.402 382.959 220.051 383.811C220.707 384.662 221.582 385.088 222.676 385.088C223.777 385.088 224.652 384.658 225.301 383.799C225.949 382.932 226.273 381.721 226.273 380.166C226.273 378.775 225.941 377.65 225.277 376.791C224.621 375.924 223.746 375.49 222.652 375.49C221.582 375.49 220.719 375.916 220.062 376.768C219.406 377.619 219.078 378.838 219.078 380.424ZM230.586 380.166C230.586 378.924 230.828 377.807 231.312 376.814C231.805 375.822 232.484 375.057 233.352 374.518C234.227 373.979 235.223 373.709 236.34 373.709C238.066 373.709 239.461 374.307 240.523 375.502C241.594 376.697 242.129 378.287 242.129 380.271V380.424C242.129 381.658 241.891 382.768 241.414 383.752C240.945 384.729 240.27 385.49 239.387 386.037C238.512 386.584 237.504 386.857 236.363 386.857C234.645 386.857 233.25 386.26 232.18 385.064C231.117 383.869 230.586 382.287 230.586 380.318V380.166ZM232.766 380.424C232.766 381.83 233.09 382.959 233.738 383.811C234.395 384.662 235.27 385.088 236.363 385.088C237.465 385.088 238.34 384.658 238.988 383.799C239.637 382.932 239.961 381.721 239.961 380.166C239.961 378.775 239.629 377.65 238.965 376.791C238.309 375.924 237.434 375.49 236.34 375.49C235.27 375.49 234.406 375.916 233.75 376.768C233.094 377.619 232.766 378.838 232.766 380.424ZM246.887 373.943L246.945 375.35C247.875 374.256 249.129 373.709 250.707 373.709C252.48 373.709 253.688 374.389 254.328 375.748C254.75 375.139 255.297 374.646 255.969 374.271C256.648 373.896 257.449 373.709 258.371 373.709C261.152 373.709 262.566 375.182 262.613 378.127V386.623H260.445V378.256C260.445 377.35 260.238 376.674 259.824 376.229C259.41 375.775 258.715 375.549 257.738 375.549C256.934 375.549 256.266 375.791 255.734 376.275C255.203 376.752 254.895 377.396 254.809 378.209V386.623H252.629V378.314C252.629 376.471 251.727 375.549 249.922 375.549C248.5 375.549 247.527 376.154 247.004 377.365V386.623H244.836V373.943H246.887Z" fill="#565E76"/>
<path d="M144.764 419.176H146.932C148.025 419.166 148.89 418.883 149.524 418.326C150.169 417.77 150.491 416.964 150.491 415.909C150.491 414.894 150.223 414.107 149.686 413.551C149.158 412.984 148.348 412.701 147.254 412.701C146.297 412.701 145.511 412.979 144.896 413.536C144.28 414.083 143.973 414.801 143.973 415.689H140.413C140.413 414.596 140.701 413.6 141.277 412.701C141.863 411.803 142.674 411.104 143.709 410.606C144.754 410.099 145.921 409.845 147.21 409.845C149.339 409.845 151.009 410.382 152.22 411.456C153.44 412.521 154.051 414.005 154.051 415.909C154.051 416.866 153.743 417.77 153.128 418.619C152.522 419.459 151.736 420.094 150.77 420.523C151.941 420.924 152.83 421.554 153.436 422.413C154.051 423.272 154.358 424.298 154.358 425.489C154.358 427.403 153.699 428.927 152.381 430.06C151.072 431.192 149.349 431.759 147.21 431.759C145.159 431.759 143.479 431.212 142.171 430.118C140.862 429.024 140.208 427.569 140.208 425.753H143.768C143.768 426.69 144.08 427.452 144.705 428.038C145.34 428.624 146.189 428.917 147.254 428.917C148.357 428.917 149.227 428.624 149.861 428.038C150.496 427.452 150.813 426.603 150.813 425.489C150.813 424.366 150.481 423.502 149.817 422.896C149.153 422.291 148.167 421.988 146.858 421.988H144.764V419.176ZM171.6 422.486C171.6 425.553 171.023 427.867 169.871 429.43C168.729 430.982 166.985 431.759 164.642 431.759C162.337 431.759 160.599 431.002 159.427 429.488C158.265 427.965 157.669 425.714 157.64 422.735V419.044C157.64 415.978 158.211 413.678 159.354 412.145C160.506 410.611 162.259 409.845 164.612 409.845C166.946 409.845 168.685 410.592 169.827 412.086C170.979 413.58 171.57 415.816 171.6 418.795V422.486ZM168.04 418.502C168.04 416.5 167.767 415.035 167.22 414.107C166.673 413.17 165.804 412.701 164.612 412.701C163.45 412.701 162.596 413.146 162.049 414.034C161.502 414.913 161.214 416.29 161.185 418.165V422.999C161.185 424.991 161.463 426.476 162.02 427.452C162.576 428.429 163.45 428.917 164.642 428.917C165.784 428.917 166.629 428.468 167.176 427.569C167.723 426.661 168.011 425.245 168.04 423.321V418.502ZM177.195 427.716C177.859 427.716 178.372 427.906 178.733 428.287C179.095 428.658 179.275 429.127 179.275 429.693C179.275 430.25 179.095 430.714 178.733 431.085C178.372 431.446 177.859 431.627 177.195 431.627C176.561 431.627 176.058 431.446 175.687 431.085C175.315 430.724 175.13 430.26 175.13 429.693C175.13 429.127 175.311 428.658 175.672 428.287C176.033 427.906 176.541 427.716 177.195 427.716ZM192.767 431.466H189.222V414.342L183.992 416.129V413.126L192.312 410.064H192.767V431.466ZM201.131 420.89L202.288 410.138H213.743V413.214H205.247L204.661 418.312C205.647 417.745 206.761 417.462 208.001 417.462C210.032 417.462 211.609 418.111 212.732 419.41C213.865 420.709 214.432 422.457 214.432 424.654C214.432 426.822 213.807 428.551 212.557 429.84C211.307 431.119 209.593 431.759 207.415 431.759C205.462 431.759 203.841 431.207 202.552 430.104C201.272 428.99 200.579 427.525 200.472 425.709H203.914C204.051 426.744 204.422 427.54 205.027 428.097C205.633 428.644 206.424 428.917 207.4 428.917C208.494 428.917 209.344 428.526 209.949 427.745C210.564 426.964 210.872 425.899 210.872 424.552C210.872 423.253 210.535 422.228 209.861 421.476C209.188 420.714 208.26 420.333 207.078 420.333C206.434 420.333 205.887 420.421 205.438 420.597C204.988 420.763 204.5 421.095 203.973 421.593L201.131 420.89ZM228.274 415.616L228.377 417.271C229.49 415.973 231.014 415.323 232.947 415.323C235.066 415.323 236.517 416.134 237.298 417.755C238.45 416.134 240.071 415.323 242.161 415.323C243.909 415.323 245.208 415.807 246.058 416.773C246.917 417.74 247.356 419.166 247.376 421.051V431.466H243.816V421.153C243.816 420.147 243.597 419.41 243.157 418.941C242.718 418.473 241.99 418.238 240.975 418.238C240.164 418.238 239.5 418.458 238.982 418.897C238.475 419.327 238.118 419.894 237.913 420.597L237.928 431.466H234.368V421.036C234.319 419.171 233.367 418.238 231.512 418.238C230.086 418.238 229.075 418.819 228.479 419.981V431.466H224.92V415.616H228.274Z" fill="#565E76"/>
<path d="M257.311 414.646H251.097V413.585L254.175 410.228C254.62 409.732 254.935 409.32 255.121 408.99C255.312 408.655 255.407 408.321 255.407 407.987C255.407 407.547 255.282 407.191 255.032 406.92C254.787 406.65 254.455 406.514 254.036 406.514C253.536 406.514 253.149 406.667 252.874 406.971C252.599 407.276 252.461 407.693 252.461 408.222H250.919C250.919 407.659 251.046 407.153 251.3 406.705C251.558 406.252 251.924 405.901 252.398 405.651C252.876 405.401 253.426 405.276 254.048 405.276C254.945 405.276 255.652 405.503 256.168 405.956C256.689 406.404 256.949 407.026 256.949 407.822C256.949 408.283 256.818 408.768 256.556 409.275C256.298 409.779 255.872 410.352 255.28 410.996L253.02 413.414H257.311V414.646Z" fill="#565E76"/>
<path d="M1208.2 1007.94H1541.76V988.434H1208.2V1007.94Z" fill="white" stroke="#565E76"/>
<path d="M905.159 1007.94H1106.49V982.926H905.159V1007.94Z" fill="white" stroke="#565E76"/>
<path d="M536.002 1007.94H726.312V982.926H536.002V1007.94Z" fill="white" stroke="#565E76"/>
<path d="M117.255 1007.94H307.565V982.926H117.255V1007.94Z" fill="white" stroke="#565E76"/>
<path d="M1311.62 802.635L1231.73 854.964" stroke="#565E76"/>
<path d="M1303.36 485.899L1226.22 439.076" stroke="#565E76"/>
<path d="M1127.04 441.831L1055.41 485.899" stroke="#565E76"/>
<path d="M1297.84 238.02L1217.95 298.611" stroke="#565E76"/>
<path d="M1058.17 295.858L978.276 240.772" stroke="#565E76"/>
<path d="M774.411 452.849L700.029 505.178" stroke="#565E76"/>
<path d="M562.285 188.444L653.197 246.282" stroke="#565E76"/>
<path d="M485.146 367.467L432.802 450.094" stroke="#565E76"/>
<path d="M894.141 985.899H1112V960.889H894.141V985.899Z" fill="white" stroke="#565E76"/>
<path d="M524.981 985.899H731.821V960.889H524.981V985.899Z" fill="white" stroke="#565E76"/>
<path d="M1323.91 881.24H1398.51V856.23H1323.91V881.24Z" fill="white" stroke="#565E76"/>
<path d="M1145.29 217.924H1192.34V38.678H1145.29V217.924Z" stroke="#565E76"/>
<path d="M671.443 289.533H718.499V264.523H671.443V289.533Z" stroke="#565E76"/>
<path d="M440.031 306.059H470.557V264.523H440.031V306.059Z" stroke="#565E76"/>
<path d="M37.8135 344.619H101.398V264.525H37.8135V344.619Z" stroke="#565E76"/>
<path d="M1323.91 859.206H1398.51V823.179H1323.91V859.206Z" fill="white" stroke="#565E76"/>
<path d="M106.236 985.899H313.077V960.889H106.236V985.899Z" fill="white" stroke="#565E76"/>
<path d="M1537.52 1009.2H1559.56V1007.87H1591.36V7.91761H914.947V34.2071H914.912V232.511H650.441V265.561H942.462V249.036H981.029V232.511H947.97V39.968H1129.79V232.511H1063.68V249.036H1201.42V232.511H1146.32V39.968H1552.89V232.511H1295.09V249.036H1344.68V293.104H1361.21V249.036H1552.89V430.814H1361.21V386.749H1344.68V430.814H1311.62V447.34H1552.89V821.914H1394.27V882.507H1537.52V1009.2Z" fill="white"/>
<path d="M1212.44 1009.2L1102.25 1009.2V981.659H1107.76V959.625H1162.85V821.914H1179.38V568.527H1162.85V447.34H1124.29V430.814H1228.97V447.34H1195.91V821.914H1234.48V854.965H1239.99V882.507H1212.44V1009.2Z" fill="white"/>
<path d="M837.776 959.624V447.338H1041.64V430.812L804.717 430.815V447.338H771.658V463.863H804.717V959.624H727.579V981.657H722.07V1009.2H909.403V981.657H898.382V959.624H837.776Z" fill="white"/>
<path d="M441.07 959.624H529.226V981.657H540.246V1009.2H303.323V981.657H308.834V959.624H408.011V821.912H424.54V447.338H689.011V463.863H441.07V959.624Z" fill="white"/>
<mask id="mask0" mask-type="alpha" maskUnits="userSpaceOnUse" x="4" y="7" width="1588" height="1003">
<path d="M1537.52 1009.2H1559.56V1007.87H1591.36V7.91761H914.947V34.2071H914.912V232.511H650.441V265.561H942.462V249.036H981.029V232.511H947.971V39.968H1129.79V232.511H1063.68V249.036H1201.42V232.511H1146.32V39.968H1552.9V232.511H1295.09V249.036H1344.68V293.104H1361.21V249.036H1552.9V430.814H1361.21V386.749H1344.68V430.814H1311.62V447.34H1552.9V821.914H1394.27V882.507H1537.52V1009.2Z" fill="white"/>
<path d="M1212.44 1009.2L1102.25 1009.2V981.659H1107.76V959.625H1162.85V821.914H1179.38V568.527H1162.85V447.34H1124.29V430.814H1228.97V447.34H1195.91V821.914H1234.48V854.965H1239.99V882.507H1212.44V1009.2Z" fill="white"/>
<path d="M837.776 959.626V447.34H1041.64V430.814L804.717 430.817V447.34H771.659V463.865H804.717V959.626H727.579V981.659H722.07V1009.2H909.403V981.659H898.382V959.626H837.776Z" fill="white"/>
<path d="M441.07 959.626H529.226V981.659H540.246V1009.2H303.323V981.659H308.834V959.626H408.011V821.914H424.54V447.34H689.011V463.865H441.07V959.626Z" fill="white"/>
<path d="M4.51149 232.265H533.463V264.316H441.07V353.698H424.54V264.316H39.7739V959.792H110.301V982.227H119.919V1007.87H4.51149V232.265Z" fill="white"/>
</mask>
<g mask="url(#mask0)">
<path d="M4.51159 232.265H533.463V264.316H441.07V353.698H424.54V264.316H39.774V959.792H110.302V982.227H119.919V1007.87H4.51159V232.265Z" fill="white"/>
<path d="M1537.52 1009.2H1559.56V1007.87H1591.36V7.91761H914.947V34.2071H914.912V232.511H650.441V265.561H942.462V249.036H981.029V232.511H947.97V39.968H1129.79V232.511H1063.68V249.036H1201.42V232.511H1146.32V39.968H1552.89V232.511H1295.09V249.036H1344.68V293.104H1361.21V249.036H1552.89V430.814H1361.21V386.749H1344.68V430.814H1311.62V447.34H1552.89V821.914H1394.27V882.507H1537.52V1009.2Z" stroke="#565E76" stroke-width="2"/>
<path d="M1212.44 1009.2L1102.25 1009.2V981.659H1107.76V959.625H1162.85V821.914H1179.38V568.527H1162.85V447.34H1124.29V430.814H1228.97V447.34H1195.91V821.914H1234.48V854.965H1239.99V882.507H1212.44V1009.2Z" stroke="#565E76" stroke-width="2"/>
<path d="M837.776 959.624V447.338H1041.64V430.812L804.717 430.815V447.338H771.658V463.863H804.717V959.624H727.579V981.657H722.07V1009.2H909.403V981.657H898.382V959.624H837.776Z" stroke="#565E76" stroke-width="2"/>
<path d="M441.07 959.624H529.226V981.657H540.246V1009.2H303.323V981.657H308.834V959.624H408.011V821.912H424.54V447.338H689.011V463.863H441.07V959.624Z" stroke="#565E76" stroke-width="2"/>
<path d="M4.51159 232.265H533.463V264.316H441.07V353.698H424.54V264.316H39.774V959.792H110.302V982.227H119.919V1007.87H4.51159V232.265Z" stroke="#565E76" stroke-width="2"/>
</g>
</g>
<defs>
<clipPath id="clip0">
<rect width="1600" height="1016" fill="white" transform="translate(1600 1016) rotate(-180)"/>
</clipPath>
</defs>
</svg>
