<svg width="1773" height="1267" viewBox="0 0 1773 1267" fill="none" xmlns="http://www.w3.org/2000/svg">
<g clip-path="url(#clip0)">
<path d="M0 1266.11H1773V0H0V1266.11Z" fill="white"/>
<path d="M41.3462 430.74V1189.87H1603.56V208.654H952.635V430.74H41.3462Z" fill="#F4F4F5"/>
<path d="M319.848 900.888H151.181V732.22H319.848V900.888Z" fill="#565E76"/>
<path d="M200.11 773.584V778.189H203.661V780.703H200.11V792.498C200.11 793.26 200.268 793.834 200.584 794.221C200.901 794.596 201.44 794.783 202.202 794.783C202.577 794.783 203.092 794.713 203.749 794.572V797.209C202.893 797.443 202.061 797.561 201.252 797.561C199.799 797.561 198.704 797.121 197.965 796.242C197.227 795.363 196.858 794.115 196.858 792.498V780.703H193.395V778.189H196.858V773.584H200.11ZM206.262 787.523C206.262 785.66 206.625 783.984 207.352 782.496C208.09 781.008 209.11 779.859 210.411 779.051C211.723 778.242 213.217 777.838 214.893 777.838C217.483 777.838 219.575 778.734 221.168 780.527C222.774 782.32 223.577 784.705 223.577 787.682V787.91C223.577 789.762 223.219 791.426 222.504 792.902C221.801 794.367 220.788 795.51 219.463 796.33C218.151 797.15 216.639 797.561 214.928 797.561C212.35 797.561 210.258 796.664 208.653 794.871C207.059 793.078 206.262 790.705 206.262 787.752V787.523ZM209.532 787.91C209.532 790.02 210.018 791.713 210.991 792.99C211.975 794.268 213.288 794.906 214.928 794.906C216.581 794.906 217.893 794.262 218.866 792.973C219.838 791.672 220.325 789.855 220.325 787.523C220.325 785.438 219.827 783.75 218.831 782.461C217.846 781.16 216.534 780.51 214.893 780.51C213.288 780.51 211.993 781.148 211.008 782.426C210.024 783.703 209.532 785.531 209.532 787.91ZM232.067 773.584V778.189H235.618V780.703H232.067V792.498C232.067 793.26 232.225 793.834 232.542 794.221C232.858 794.596 233.397 794.783 234.159 794.783C234.534 794.783 235.049 794.713 235.706 794.572V797.209C234.85 797.443 234.018 797.561 233.209 797.561C231.756 797.561 230.661 797.121 229.922 796.242C229.184 795.363 228.815 794.115 228.815 792.498V780.703H225.352V778.189H228.815V773.584H232.067ZM251.174 797.209C250.987 796.834 250.834 796.166 250.717 795.205C249.206 796.775 247.401 797.561 245.303 797.561C243.428 797.561 241.887 797.033 240.68 795.979C239.485 794.912 238.887 793.564 238.887 791.936C238.887 789.955 239.637 788.42 241.137 787.33C242.649 786.229 244.77 785.678 247.5 785.678H250.665V784.184C250.665 783.047 250.325 782.145 249.645 781.477C248.965 780.797 247.963 780.457 246.639 780.457C245.479 780.457 244.506 780.75 243.721 781.336C242.936 781.922 242.543 782.631 242.543 783.463H239.274C239.274 782.514 239.608 781.6 240.276 780.721C240.956 779.83 241.87 779.127 243.018 778.611C244.178 778.096 245.45 777.838 246.833 777.838C249.024 777.838 250.741 778.389 251.983 779.49C253.225 780.58 253.87 782.086 253.917 784.008V792.762C253.917 794.508 254.139 795.896 254.584 796.928V797.209H251.174ZM245.778 794.73C246.797 794.73 247.764 794.467 248.678 793.939C249.592 793.412 250.254 792.727 250.665 791.883V787.98H248.116C244.131 787.98 242.139 789.146 242.139 791.479C242.139 792.498 242.479 793.295 243.159 793.869C243.838 794.443 244.711 794.73 245.778 794.73ZM262.547 797.209H259.295V770.209H262.547V797.209Z" fill="white"/>
<path d="M284.394 815.837C284.175 815.91 284.102 816.056 284.175 816.275L284.577 817.408C284.65 817.591 284.796 817.664 284.979 817.591L286.002 817.298C286.77 817.043 287.647 816.86 288.597 816.86C290.132 816.86 291.155 817.627 291.155 818.76C291.155 819.455 290.68 820.076 289.839 820.661L286.587 822.78C284.796 823.95 284.029 825.594 284.029 827.896V828.773C284.029 828.993 284.138 829.102 284.358 829.102H292.653C292.873 829.102 292.982 828.993 292.982 828.773V827.604C292.982 827.385 292.873 827.275 292.653 827.275H286.039C286.039 826.069 286.441 825.119 287.574 824.388L290.863 822.232C292.434 821.209 293.165 820.112 293.165 818.76C293.165 816.385 291.411 814.996 288.597 814.996C287.464 814.996 286.441 815.179 285.381 815.508L284.394 815.837Z" fill="white"/>
<path d="M176.76 833.311H179.181C180.523 833.311 181.694 833.076 182.697 832.607C183.7 832.126 184.461 831.475 184.982 830.654C185.516 829.821 185.783 828.864 185.783 827.783C185.783 825.96 185.269 824.535 184.24 823.506C183.211 822.477 181.733 821.963 179.806 821.963C177.983 821.963 176.486 822.503 175.314 823.584C174.155 824.652 173.576 826.064 173.576 827.822H171.232C171.232 826.351 171.603 825.01 172.345 823.799C173.088 822.575 174.116 821.631 175.431 820.967C176.747 820.303 178.205 819.971 179.806 819.971C182.385 819.971 184.416 820.674 185.9 822.08C187.385 823.486 188.127 825.413 188.127 827.861C188.127 829.229 187.691 830.492 186.818 831.65C185.959 832.796 184.774 833.656 183.263 834.229C185.034 834.723 186.375 835.576 187.287 836.787C188.198 837.985 188.654 839.417 188.654 841.084C188.654 843.519 187.86 845.479 186.271 846.963C184.683 848.447 182.56 849.189 179.904 849.189C178.211 849.189 176.655 848.851 175.236 848.174C173.83 847.497 172.736 846.553 171.955 845.342C171.187 844.118 170.802 842.699 170.802 841.084H173.146C173.146 842.894 173.778 844.372 175.041 845.518C176.304 846.65 177.925 847.217 179.904 847.217C181.922 847.217 183.491 846.702 184.611 845.674C185.744 844.632 186.31 843.128 186.31 841.162C186.31 839.261 185.698 837.809 184.474 836.807C183.263 835.804 181.473 835.303 179.103 835.303H176.76V833.311ZM211.564 848.799H193.752V847.002L203.498 835.947C205.112 834.085 206.232 832.549 206.857 831.338C207.482 830.127 207.795 828.949 207.795 827.803C207.795 826.006 207.267 824.587 206.213 823.545C205.158 822.49 203.706 821.963 201.857 821.963C199.943 821.963 198.394 822.575 197.209 823.799C196.037 825.023 195.451 826.611 195.451 828.564H193.127C193.127 826.963 193.485 825.505 194.201 824.189C194.93 822.874 195.959 821.846 197.287 821.104C198.628 820.348 200.151 819.971 201.857 819.971C204.461 819.971 206.493 820.654 207.951 822.021C209.422 823.389 210.158 825.251 210.158 827.607C210.158 828.936 209.741 830.387 208.908 831.963C208.088 833.538 206.636 835.505 204.552 837.861L196.623 846.826H211.564V848.799ZM233.088 836.943C233.088 840.954 232.352 844.001 230.881 846.084C229.409 848.154 227.241 849.189 224.377 849.189C221.564 849.189 219.409 848.174 217.912 846.143C216.414 844.098 215.646 841.13 215.607 837.236V832.139C215.607 828.141 216.349 825.114 217.834 823.057C219.318 820.999 221.486 819.971 224.338 819.971C227.15 819.971 229.299 820.967 230.783 822.959C232.267 824.938 233.036 827.861 233.088 831.729V836.943ZM230.744 831.846C230.744 828.59 230.21 826.13 229.142 824.463C228.088 822.796 226.486 821.963 224.338 821.963C222.228 821.963 220.64 822.777 219.572 824.404C218.504 826.032 217.957 828.434 217.931 831.611V837.197C217.931 840.439 218.478 842.92 219.572 844.639C220.679 846.357 222.28 847.217 224.377 847.217C226.46 847.217 228.036 846.377 229.103 844.697C230.184 843.018 230.731 840.557 230.744 837.314V831.846ZM250.353 827.666L250.431 831.104C251.213 829.827 252.189 828.87 253.361 828.232C254.533 827.594 255.835 827.275 257.267 827.275C260.601 827.275 262.717 828.643 263.615 831.377C264.37 830.062 265.379 829.053 266.642 828.35C267.905 827.633 269.299 827.275 270.822 827.275C275.353 827.275 277.664 829.749 277.756 834.697V848.799H275.412V834.873C275.399 832.985 274.989 831.585 274.181 830.674C273.387 829.762 272.085 829.307 270.275 829.307C268.595 829.333 267.176 829.88 266.017 830.947C264.858 832.002 264.214 833.291 264.084 834.814V848.799H261.74V834.697C261.727 832.887 261.297 831.54 260.451 830.654C259.618 829.756 258.329 829.307 256.584 829.307C255.112 829.307 253.849 829.73 252.795 830.576C251.74 831.41 250.959 832.653 250.451 834.307V848.799H248.107V827.666H250.353Z" fill="white"/>
<path d="M1348.79 801.959L1346.71 804.127V809.893H1344.46V792.83H1346.71V801.268L1354.29 792.83H1357.01L1350.29 800.365L1357.54 809.893H1354.84L1348.79 801.959ZM1361.52 809.893H1359.35V797.213H1361.52V809.893ZM1359.18 793.85C1359.18 793.498 1359.28 793.201 1359.49 792.959C1359.71 792.717 1360.03 792.596 1360.45 792.596C1360.88 792.596 1361.2 792.717 1361.42 792.959C1361.63 793.201 1361.74 793.498 1361.74 793.85C1361.74 794.201 1361.63 794.494 1361.42 794.729C1361.2 794.963 1360.88 795.08 1360.45 795.08C1360.03 795.08 1359.71 794.963 1359.49 794.729C1359.28 794.494 1359.18 794.201 1359.18 793.85ZM1367.94 794.143V797.213H1370.31V798.889H1367.94V806.752C1367.94 807.26 1368.05 807.643 1368.26 807.9C1368.47 808.15 1368.83 808.275 1369.34 808.275C1369.59 808.275 1369.93 808.229 1370.37 808.135V809.893C1369.8 810.049 1369.24 810.127 1368.7 810.127C1367.74 810.127 1367 809.834 1366.51 809.248C1366.02 808.662 1365.77 807.83 1365.77 806.752V798.889H1363.47V797.213H1365.77V794.143H1367.94ZM1377.94 808.357C1378.71 808.357 1379.39 808.123 1379.97 807.654C1380.54 807.186 1380.86 806.6 1380.93 805.896H1382.98C1382.94 806.623 1382.69 807.314 1382.23 807.971C1381.77 808.627 1381.15 809.15 1380.38 809.541C1379.61 809.932 1378.8 810.127 1377.94 810.127C1376.21 810.127 1374.84 809.553 1373.81 808.404C1372.8 807.248 1372.29 805.67 1372.29 803.67V803.307C1372.29 802.072 1372.52 800.975 1372.97 800.014C1373.42 799.053 1374.07 798.307 1374.92 797.775C1375.77 797.244 1376.77 796.979 1377.93 796.979C1379.35 796.979 1380.53 797.404 1381.47 798.256C1382.41 799.107 1382.92 800.213 1382.98 801.572H1380.93C1380.86 800.752 1380.55 800.08 1379.99 799.557C1379.43 799.025 1378.75 798.76 1377.93 798.76C1376.83 798.76 1375.97 799.158 1375.36 799.955C1374.76 800.744 1374.46 801.889 1374.46 803.389V803.799C1374.46 805.26 1374.76 806.385 1375.36 807.174C1375.96 807.963 1376.82 808.357 1377.94 808.357ZM1387.58 798.748C1388.54 797.568 1389.79 796.979 1391.33 796.979C1394.01 796.979 1395.36 798.49 1395.39 801.514V809.893H1393.22V801.502C1393.21 800.588 1393 799.912 1392.59 799.475C1392.18 799.037 1391.54 798.818 1390.68 798.818C1389.97 798.818 1389.36 799.006 1388.83 799.381C1388.29 799.756 1387.88 800.248 1387.58 800.857V809.893H1385.42V791.893H1387.58V798.748ZM1403.9 810.127C1402.18 810.127 1400.78 809.564 1399.7 808.439C1398.62 807.307 1398.08 805.795 1398.08 803.904V803.506C1398.08 802.248 1398.32 801.127 1398.8 800.143C1399.28 799.15 1399.95 798.377 1400.81 797.822C1401.68 797.26 1402.62 796.979 1403.63 796.979C1405.27 796.979 1406.56 797.521 1407.47 798.607C1408.38 799.693 1408.84 801.248 1408.84 803.271V804.174H1400.25C1400.28 805.424 1400.65 806.436 1401.34 807.209C1402.04 807.975 1402.93 808.357 1404.01 808.357C1404.78 808.357 1405.43 808.201 1405.96 807.889C1406.49 807.576 1406.95 807.162 1407.35 806.646L1408.68 807.678C1407.61 809.311 1406.02 810.127 1403.9 810.127ZM1403.63 798.76C1402.75 798.76 1402.02 799.08 1401.42 799.721C1400.83 800.354 1400.46 801.244 1400.32 802.393H1406.67V802.229C1406.61 801.127 1406.31 800.275 1405.78 799.674C1405.25 799.064 1404.53 798.76 1403.63 798.76ZM1413.41 797.213L1413.48 798.807C1414.45 797.588 1415.72 796.979 1417.28 796.979C1419.96 796.979 1421.31 798.49 1421.33 801.514V809.893H1419.17V801.502C1419.16 800.588 1418.95 799.912 1418.53 799.475C1418.13 799.037 1417.49 798.818 1416.62 798.818C1415.92 798.818 1415.3 799.006 1414.77 799.381C1414.24 799.756 1413.83 800.248 1413.53 800.857V809.893H1411.36V797.213H1413.41Z" fill="#565E76"/>
<path d="M1358.42 854.735H1344.07V852.289L1351.18 844.54C1352.2 843.397 1352.93 842.445 1353.36 841.684C1353.8 840.912 1354.02 840.141 1354.02 839.369C1354.02 838.354 1353.73 837.533 1353.16 836.908C1352.59 836.283 1351.82 835.971 1350.86 835.971C1349.7 835.971 1348.81 836.322 1348.18 837.025C1347.54 837.729 1347.22 838.69 1347.22 839.911H1343.66C1343.66 838.612 1343.96 837.445 1344.54 836.41C1345.14 835.365 1345.98 834.555 1347.08 833.979C1348.18 833.402 1349.45 833.114 1350.89 833.114C1352.96 833.114 1354.59 833.637 1355.78 834.682C1356.98 835.717 1357.58 837.152 1357.58 838.988C1357.58 840.053 1357.28 841.171 1356.67 842.343C1356.08 843.505 1355.09 844.828 1353.73 846.312L1348.51 851.894H1358.42V854.735ZM1370.76 854.735H1367.22V837.611L1361.99 839.398V836.396L1370.31 833.334H1370.76V854.735ZM1380.62 850.985C1381.29 850.985 1381.8 851.176 1382.16 851.557C1382.52 851.928 1382.7 852.396 1382.7 852.963C1382.7 853.52 1382.52 853.983 1382.16 854.354C1381.8 854.716 1381.29 854.896 1380.62 854.896C1379.99 854.896 1379.48 854.716 1379.11 854.354C1378.74 853.993 1378.56 853.529 1378.56 852.963C1378.56 852.396 1378.74 851.928 1379.1 851.557C1379.46 851.176 1379.97 850.985 1380.62 850.985ZM1387.51 844.159L1388.66 833.407H1400.12V836.483H1391.62L1391.04 841.581C1392.02 841.015 1393.14 840.731 1394.38 840.731C1396.41 840.731 1397.99 841.381 1399.11 842.68C1400.24 843.979 1400.81 845.727 1400.81 847.924C1400.81 850.092 1400.18 851.82 1398.93 853.109C1397.68 854.389 1395.97 855.028 1393.79 855.028C1391.84 855.028 1390.22 854.477 1388.93 853.373C1387.65 852.26 1386.96 850.795 1386.85 848.979H1390.29C1390.43 850.014 1390.8 850.81 1391.4 851.366C1392.01 851.913 1392.8 852.187 1393.78 852.187C1394.87 852.187 1395.72 851.796 1396.33 851.015C1396.94 850.233 1397.25 849.169 1397.25 847.821C1397.25 846.522 1396.91 845.497 1396.24 844.745C1395.56 843.983 1394.64 843.603 1393.45 843.603C1392.81 843.603 1392.26 843.69 1391.81 843.866C1391.36 844.032 1390.88 844.364 1390.35 844.862L1387.51 844.159ZM1414.65 838.886L1414.75 840.541C1415.87 839.242 1417.39 838.593 1419.32 838.593C1421.44 838.593 1422.89 839.403 1423.67 841.024C1424.83 839.403 1426.45 838.593 1428.54 838.593C1430.29 838.593 1431.58 839.076 1432.43 840.043C1433.29 841.01 1433.73 842.436 1433.75 844.32V854.735H1430.19V844.423C1430.19 843.417 1429.97 842.68 1429.53 842.211C1429.09 841.742 1428.37 841.508 1427.35 841.508C1426.54 841.508 1425.88 841.728 1425.36 842.167C1424.85 842.597 1424.49 843.163 1424.29 843.866L1424.3 854.735H1420.74V844.306C1420.7 842.44 1419.74 841.508 1417.89 841.508C1416.46 841.508 1415.45 842.089 1414.86 843.251V854.735H1411.3V838.886H1414.65Z" fill="#565E76"/>
<path d="M1444.67 839.185H1438.46V838.125L1441.53 834.767C1441.98 834.271 1442.29 833.859 1442.48 833.529C1442.67 833.194 1442.77 832.86 1442.77 832.526C1442.77 832.086 1442.64 831.73 1442.39 831.459C1442.15 831.189 1441.81 831.053 1441.4 831.053C1440.9 831.053 1440.51 831.206 1440.23 831.51C1439.96 831.815 1439.82 832.232 1439.82 832.761H1438.28C1438.28 832.198 1438.41 831.692 1438.66 831.244C1438.92 830.791 1439.28 830.44 1439.76 830.19C1440.24 829.94 1440.79 829.815 1441.41 829.815C1442.3 829.815 1443.01 830.042 1443.53 830.495C1444.05 830.943 1444.31 831.565 1444.31 832.361C1444.31 832.822 1444.18 833.307 1443.92 833.814C1443.66 834.318 1443.23 834.891 1442.64 835.535L1440.38 837.953H1444.67V839.185Z" fill="#565E76"/>
<path d="M961.525 898.434V881.371H967.103C968.955 881.371 970.346 881.754 971.275 882.52C972.213 883.285 972.682 884.418 972.682 885.918C972.682 886.715 972.455 887.422 972.002 888.039C971.549 888.648 970.932 889.121 970.15 889.457C971.072 889.715 971.799 890.207 972.33 890.934C972.869 891.652 973.139 892.512 973.139 893.512C973.139 895.043 972.642 896.246 971.65 897.121C970.658 897.996 969.256 898.434 967.443 898.434H961.525ZM963.775 890.453V896.594H967.49C968.537 896.594 969.361 896.324 969.963 895.785C970.572 895.238 970.877 894.488 970.877 893.535C970.877 891.48 969.76 890.453 967.525 890.453H963.775ZM963.775 888.648H967.174C968.158 888.648 968.943 888.402 969.529 887.91C970.123 887.418 970.42 886.75 970.42 885.906C970.42 884.969 970.146 884.289 969.599 883.867C969.053 883.438 968.221 883.223 967.103 883.223H963.775V888.648ZM981.4 898.668C979.682 898.668 978.283 898.105 977.205 896.98C976.127 895.848 975.588 894.336 975.588 892.445V892.047C975.588 890.789 975.826 889.668 976.303 888.684C976.787 887.691 977.459 886.918 978.318 886.363C979.185 885.801 980.123 885.52 981.131 885.52C982.779 885.52 984.06 886.062 984.974 887.148C985.889 888.234 986.346 889.789 986.346 891.812V892.715H977.756C977.787 893.965 978.15 894.977 978.846 895.75C979.549 896.516 980.439 896.898 981.517 896.898C982.283 896.898 982.932 896.742 983.463 896.43C983.994 896.117 984.459 895.703 984.857 895.188L986.182 896.219C985.119 897.852 983.525 898.668 981.4 898.668ZM981.131 887.301C980.256 887.301 979.521 887.621 978.928 888.262C978.334 888.895 977.967 889.785 977.826 890.934H984.178V890.77C984.115 889.668 983.818 888.816 983.287 888.215C982.756 887.605 982.037 887.301 981.131 887.301ZM988.338 891.988C988.338 890.043 988.799 888.48 989.721 887.301C990.642 886.113 991.849 885.52 993.342 885.52C994.826 885.52 996.002 886.027 996.869 887.043V880.434H999.037V898.434H997.045L996.939 897.074C996.072 898.137 994.865 898.668 993.318 898.668C991.849 898.668 990.65 898.066 989.721 896.863C988.799 895.66 988.338 894.09 988.338 892.152V891.988ZM990.506 892.234C990.506 893.672 990.803 894.797 991.396 895.609C991.99 896.422 992.81 896.828 993.857 896.828C995.232 896.828 996.236 896.211 996.869 894.977V889.152C996.221 887.957 995.224 887.359 993.881 887.359C992.818 887.359 991.99 887.77 991.396 888.59C990.803 889.41 990.506 890.625 990.506 892.234ZM1008.54 887.699C1008.21 887.645 1007.86 887.617 1007.47 887.617C1006.05 887.617 1005.09 888.223 1004.58 889.434V898.434H1002.41V885.754H1004.52L1004.56 887.219C1005.27 886.086 1006.28 885.52 1007.58 885.52C1008 885.52 1008.32 885.574 1008.54 885.684V887.699ZM1009.74 891.977C1009.74 890.734 1009.98 889.617 1010.46 888.625C1010.95 887.633 1011.63 886.867 1012.5 886.328C1013.38 885.789 1014.37 885.52 1015.49 885.52C1017.22 885.52 1018.61 886.117 1019.67 887.312C1020.74 888.508 1021.28 890.098 1021.28 892.082V892.234C1021.28 893.469 1021.04 894.578 1020.56 895.562C1020.1 896.539 1019.42 897.301 1018.54 897.848C1017.66 898.395 1016.65 898.668 1015.51 898.668C1013.79 898.668 1012.4 898.07 1011.33 896.875C1010.27 895.68 1009.74 894.098 1009.74 892.129V891.977ZM1011.92 892.234C1011.92 893.641 1012.24 894.77 1012.89 895.621C1013.54 896.473 1014.42 896.898 1015.51 896.898C1016.62 896.898 1017.49 896.469 1018.14 895.609C1018.79 894.742 1019.11 893.531 1019.11 891.977C1019.11 890.586 1018.78 889.461 1018.12 888.602C1017.46 887.734 1016.58 887.301 1015.49 887.301C1014.42 887.301 1013.56 887.727 1012.9 888.578C1012.24 889.43 1011.92 890.648 1011.92 892.234ZM1023.42 891.977C1023.42 890.734 1023.67 889.617 1024.15 888.625C1024.64 887.633 1025.32 886.867 1026.19 886.328C1027.06 885.789 1028.06 885.52 1029.18 885.52C1030.9 885.52 1032.3 886.117 1033.36 887.312C1034.43 888.508 1034.97 890.098 1034.97 892.082V892.234C1034.97 893.469 1034.73 894.578 1034.25 895.562C1033.78 896.539 1033.11 897.301 1032.22 897.848C1031.35 898.395 1030.34 898.668 1029.2 898.668C1027.48 898.668 1026.09 898.07 1025.02 896.875C1023.95 895.68 1023.42 894.098 1023.42 892.129V891.977ZM1025.6 892.234C1025.6 893.641 1025.93 894.77 1026.58 895.621C1027.23 896.473 1028.11 896.898 1029.2 896.898C1030.3 896.898 1031.18 896.469 1031.83 895.609C1032.47 894.742 1032.8 893.531 1032.8 891.977C1032.8 890.586 1032.47 889.461 1031.8 888.602C1031.15 887.734 1030.27 887.301 1029.18 887.301C1028.11 887.301 1027.24 887.727 1026.59 888.578C1025.93 889.43 1025.6 890.648 1025.6 892.234ZM1039.72 885.754L1039.78 887.16C1040.71 886.066 1041.97 885.52 1043.54 885.52C1045.32 885.52 1046.53 886.199 1047.17 887.559C1047.59 886.949 1048.13 886.457 1048.81 886.082C1049.49 885.707 1050.29 885.52 1051.21 885.52C1053.99 885.52 1055.4 886.992 1055.45 889.938V898.434H1053.28V890.066C1053.28 889.16 1053.08 888.484 1052.66 888.039C1052.25 887.586 1051.55 887.359 1050.58 887.359C1049.77 887.359 1049.1 887.602 1048.57 888.086C1048.04 888.562 1047.73 889.207 1047.65 890.02V898.434H1045.47V890.125C1045.47 888.281 1044.56 887.359 1042.76 887.359C1041.34 887.359 1040.37 887.965 1039.84 889.176V898.434H1037.67V885.754H1039.72Z" fill="#565E76"/>
<path d="M965.258 930.986H967.426C968.519 930.977 969.384 930.693 970.018 930.137C970.663 929.58 970.985 928.774 970.985 927.72C970.985 926.704 970.717 925.918 970.18 925.361C969.652 924.795 968.842 924.512 967.748 924.512C966.791 924.512 966.005 924.79 965.39 925.347C964.774 925.894 964.467 926.611 964.467 927.5H960.907C960.907 926.406 961.195 925.41 961.771 924.512C962.357 923.613 963.168 922.915 964.203 922.417C965.248 921.909 966.415 921.655 967.704 921.655C969.833 921.655 971.503 922.192 972.714 923.267C973.934 924.331 974.545 925.815 974.545 927.72C974.545 928.677 974.237 929.58 973.622 930.43C973.016 931.27 972.23 931.904 971.264 932.334C972.435 932.734 973.324 933.364 973.93 934.224C974.545 935.083 974.852 936.108 974.852 937.3C974.852 939.214 974.193 940.737 972.875 941.87C971.566 943.003 969.843 943.569 967.704 943.569C965.653 943.569 963.974 943.022 962.665 941.929C961.356 940.835 960.702 939.38 960.702 937.563H964.262C964.262 938.501 964.574 939.263 965.199 939.849C965.834 940.435 966.683 940.728 967.748 940.728C968.851 940.728 969.721 940.435 970.355 939.849C970.99 939.263 971.307 938.413 971.307 937.3C971.307 936.177 970.975 935.312 970.311 934.707C969.647 934.102 968.661 933.799 967.352 933.799H965.258V930.986ZM992.094 934.297C992.094 937.363 991.517 939.678 990.365 941.24C989.223 942.793 987.479 943.569 985.136 943.569C982.831 943.569 981.093 942.812 979.921 941.299C978.759 939.775 978.163 937.524 978.134 934.546V930.854C978.134 927.788 978.705 925.488 979.848 923.955C981 922.422 982.753 921.655 985.106 921.655C987.44 921.655 989.179 922.402 990.321 923.896C991.474 925.391 992.064 927.627 992.094 930.605V934.297ZM988.534 930.312C988.534 928.311 988.261 926.846 987.714 925.918C987.167 924.98 986.298 924.512 985.106 924.512C983.944 924.512 983.09 924.956 982.543 925.845C981.996 926.724 981.708 928.101 981.679 929.976V934.81C981.679 936.802 981.957 938.286 982.514 939.263C983.07 940.239 983.944 940.728 985.136 940.728C986.278 940.728 987.123 940.278 987.67 939.38C988.217 938.472 988.505 937.056 988.534 935.132V930.312ZM997.689 939.526C998.353 939.526 998.866 939.717 999.227 940.098C999.589 940.469 999.769 940.938 999.769 941.504C999.769 942.061 999.589 942.524 999.227 942.896C998.866 943.257 998.353 943.438 997.689 943.438C997.055 943.438 996.552 943.257 996.181 942.896C995.809 942.534 995.624 942.07 995.624 941.504C995.624 940.938 995.805 940.469 996.166 940.098C996.527 939.717 997.035 939.526 997.689 939.526ZM1013.26 943.276H1009.72V926.152L1004.49 927.939V924.937L1012.81 921.875H1013.26V943.276ZM1021.62 932.7L1022.78 921.948H1034.24V925.024H1025.74L1025.16 930.122C1026.14 929.556 1027.25 929.272 1028.49 929.272C1030.53 929.272 1032.1 929.922 1033.23 931.221C1034.36 932.52 1034.93 934.268 1034.93 936.465C1034.93 938.633 1034.3 940.361 1033.05 941.65C1031.8 942.93 1030.09 943.569 1027.91 943.569C1025.96 943.569 1024.33 943.018 1023.05 941.914C1021.77 940.801 1021.07 939.336 1020.97 937.52H1024.41C1024.54 938.555 1024.92 939.351 1025.52 939.907C1026.13 940.454 1026.92 940.728 1027.89 940.728C1028.99 940.728 1029.84 940.337 1030.44 939.556C1031.06 938.774 1031.37 937.71 1031.37 936.362C1031.37 935.063 1031.03 934.038 1030.36 933.286C1029.68 932.524 1028.75 932.144 1027.57 932.144C1026.93 932.144 1026.38 932.231 1025.93 932.407C1025.48 932.573 1024.99 932.905 1024.47 933.403L1021.62 932.7ZM1048.77 927.427L1048.87 929.082C1049.98 927.783 1051.51 927.134 1053.44 927.134C1055.56 927.134 1057.01 927.944 1057.79 929.565C1058.94 927.944 1060.57 927.134 1062.66 927.134C1064.4 927.134 1065.7 927.617 1066.55 928.584C1067.41 929.551 1067.85 930.977 1067.87 932.861V943.276H1064.31V932.964C1064.31 931.958 1064.09 931.221 1063.65 930.752C1063.21 930.283 1062.48 930.049 1061.47 930.049C1060.66 930.049 1059.99 930.269 1059.48 930.708C1058.97 931.138 1058.61 931.704 1058.41 932.407L1058.42 943.276H1054.86V932.847C1054.81 930.981 1053.86 930.049 1052.01 930.049C1050.58 930.049 1049.57 930.63 1048.97 931.792V943.276H1045.41V927.427H1048.77Z" fill="#565E76"/>
<path d="M1079.81 928.265H1073.59V927.205L1076.67 923.847C1077.11 923.352 1077.43 922.939 1077.62 922.609C1077.81 922.275 1077.9 921.94 1077.9 921.606C1077.9 921.166 1077.78 920.81 1077.53 920.54C1077.28 920.269 1076.95 920.133 1076.53 920.133C1076.03 920.133 1075.64 920.286 1075.37 920.59C1075.09 920.895 1074.96 921.312 1074.96 921.841H1073.41C1073.41 921.278 1073.54 920.772 1073.79 920.324C1074.05 919.871 1074.42 919.52 1074.89 919.27C1075.37 919.02 1075.92 918.896 1076.54 918.896C1077.44 918.896 1078.15 919.122 1078.66 919.575C1079.18 920.023 1079.44 920.645 1079.44 921.441C1079.44 921.902 1079.31 922.387 1079.05 922.895C1078.79 923.398 1078.37 923.972 1077.77 924.615L1075.51 927.033H1079.81V928.265Z" fill="#565E76"/>
<path d="M851.791 503.325H849.529V495.438H840.927V503.325H838.677V486.263H840.927V493.599H849.529V486.263H851.791V503.325ZM863.275 503.325C863.15 503.075 863.048 502.63 862.97 501.989C861.963 503.036 860.759 503.56 859.361 503.56C858.111 503.56 857.084 503.208 856.279 502.505C855.482 501.794 855.084 500.896 855.084 499.81C855.084 498.489 855.584 497.466 856.584 496.739C857.591 496.005 859.005 495.638 860.826 495.638H862.935V494.642C862.935 493.884 862.709 493.282 862.255 492.837C861.802 492.384 861.134 492.157 860.252 492.157C859.478 492.157 858.83 492.353 858.306 492.743C857.783 493.134 857.521 493.606 857.521 494.161H855.341C855.341 493.528 855.564 492.919 856.009 492.333C856.463 491.739 857.072 491.271 857.838 490.927C858.611 490.583 859.459 490.411 860.38 490.411C861.841 490.411 862.986 490.778 863.814 491.513C864.642 492.239 865.072 493.243 865.103 494.524V500.36C865.103 501.524 865.252 502.45 865.548 503.138V503.325H863.275ZM859.677 501.673C860.357 501.673 861.002 501.497 861.611 501.146C862.22 500.794 862.662 500.337 862.935 499.774V497.173H861.236C858.58 497.173 857.252 497.95 857.252 499.505C857.252 500.185 857.478 500.716 857.931 501.099C858.384 501.481 858.966 501.673 859.677 501.673ZM870.857 503.325H868.689V485.325H870.857V503.325ZM876.693 503.325H874.525V485.325H876.693V503.325ZM891.4 500.337L893.838 490.646H896.005L892.314 503.325H890.556L887.474 493.716L884.474 503.325H882.716L879.037 490.646H881.193L883.689 500.138L886.642 490.646H888.388L891.4 500.337ZM906.048 503.325C905.923 503.075 905.822 502.63 905.744 501.989C904.736 503.036 903.533 503.56 902.134 503.56C900.884 503.56 899.857 503.208 899.052 502.505C898.255 501.794 897.857 500.896 897.857 499.81C897.857 498.489 898.357 497.466 899.357 496.739C900.365 496.005 901.779 495.638 903.599 495.638H905.709V494.642C905.709 493.884 905.482 493.282 905.029 492.837C904.576 492.384 903.908 492.157 903.025 492.157C902.252 492.157 901.603 492.353 901.08 492.743C900.556 493.134 900.295 493.606 900.295 494.161H898.115C898.115 493.528 898.338 492.919 898.783 492.333C899.236 491.739 899.845 491.271 900.611 490.927C901.384 490.583 902.232 490.411 903.154 490.411C904.615 490.411 905.759 490.778 906.588 491.513C907.416 492.239 907.845 493.243 907.877 494.524V500.36C907.877 501.524 908.025 502.45 908.322 503.138V503.325H906.048ZM902.451 501.673C903.13 501.673 903.775 501.497 904.384 501.146C904.994 500.794 905.435 500.337 905.709 499.774V497.173H904.009C901.353 497.173 900.025 497.95 900.025 499.505C900.025 500.185 900.252 500.716 900.705 501.099C901.158 501.481 901.74 501.673 902.451 501.673ZM915.236 500.149L918.189 490.646H920.509L915.412 505.282C914.623 507.392 913.369 508.446 911.65 508.446L911.24 508.411L910.431 508.259V506.501L911.017 506.548C911.752 506.548 912.322 506.399 912.728 506.103C913.142 505.806 913.482 505.263 913.748 504.474L914.228 503.185L909.705 490.646H912.072L915.236 500.149Z" fill="#565E76"/>
<path d="M847.932 548.168H844.387V531.044L839.158 532.831V529.828L847.478 526.767H847.932V548.168ZM867.385 540.565H870.037V543.422H867.385V548.168H863.826V543.422H854.612L854.509 541.254L863.709 526.84H867.385V540.565ZM858.245 540.565H863.826V531.659L863.562 532.128L858.245 540.565ZM874.841 544.418C875.505 544.418 876.018 544.608 876.38 544.989C876.741 545.36 876.922 545.829 876.922 546.396C876.922 546.952 876.741 547.416 876.38 547.787C876.018 548.148 875.505 548.329 874.841 548.329C874.207 548.329 873.704 548.148 873.333 547.787C872.962 547.426 872.776 546.962 872.776 546.396C872.776 545.829 872.957 545.36 873.318 544.989C873.679 544.608 874.187 544.418 874.841 544.418ZM890.413 548.168H886.868V531.044L881.638 532.831V529.828L889.959 526.767H890.413V548.168ZM898.777 537.592L899.934 526.84H911.389V529.916H902.893L902.307 535.014C903.294 534.447 904.407 534.164 905.647 534.164C907.678 534.164 909.255 534.813 910.379 536.112C911.511 537.411 912.078 539.159 912.078 541.356C912.078 543.524 911.453 545.253 910.203 546.542C908.953 547.821 907.239 548.461 905.061 548.461C903.108 548.461 901.487 547.909 900.198 546.806C898.919 545.692 898.225 544.228 898.118 542.411H901.56C901.697 543.446 902.068 544.242 902.673 544.799C903.279 545.346 904.07 545.619 905.047 545.619C906.14 545.619 906.99 545.229 907.595 544.447C908.211 543.666 908.518 542.602 908.518 541.254C908.518 539.955 908.181 538.93 907.507 538.178C906.834 537.416 905.906 537.035 904.724 537.035C904.08 537.035 903.533 537.123 903.084 537.299C902.634 537.465 902.146 537.797 901.619 538.295L898.777 537.592ZM925.921 532.318L926.023 533.974C927.136 532.675 928.66 532.025 930.593 532.025C932.713 532.025 934.163 532.836 934.944 534.457C936.096 532.836 937.717 532.025 939.807 532.025C941.555 532.025 942.854 532.509 943.704 533.476C944.563 534.442 945.003 535.868 945.022 537.753V548.168H941.463V537.855C941.463 536.85 941.243 536.112 940.803 535.644C940.364 535.175 939.636 534.94 938.621 534.94C937.81 534.94 937.146 535.16 936.629 535.6C936.121 536.029 935.764 536.596 935.559 537.299L935.574 548.168H932.014V537.738C931.965 535.873 931.013 534.94 929.158 534.94C927.732 534.94 926.721 535.521 926.126 536.684V548.168H922.566V532.318H925.921Z" fill="#565E76"/>
<path d="M956.109 532.224H949.894V531.164L952.973 527.806C953.417 527.311 953.733 526.898 953.919 526.568C954.109 526.234 954.204 525.899 954.204 525.565C954.204 525.125 954.08 524.769 953.83 524.499C953.585 524.228 953.252 524.092 952.833 524.092C952.334 524.092 951.947 524.245 951.672 524.549C951.397 524.854 951.259 525.271 951.259 525.8H949.717C949.717 525.237 949.844 524.731 950.098 524.283C950.356 523.83 950.722 523.479 951.196 523.229C951.674 522.979 952.224 522.854 952.846 522.854C953.743 522.854 954.45 523.081 954.966 523.534C955.487 523.982 955.747 524.604 955.747 525.4C955.747 525.861 955.616 526.346 955.353 526.854C955.095 527.357 954.67 527.931 954.078 528.574L951.818 530.992H956.109V532.224Z" fill="#565E76"/>
<path d="M1327.86 312.966V295.903H1333.44C1335.29 295.903 1336.68 296.286 1337.61 297.052C1338.54 297.817 1339.01 298.95 1339.01 300.45C1339.01 301.247 1338.79 301.954 1338.33 302.571C1337.88 303.181 1337.26 303.653 1336.48 303.989C1337.4 304.247 1338.13 304.739 1338.66 305.466C1339.2 306.185 1339.47 307.044 1339.47 308.044C1339.47 309.575 1338.97 310.778 1337.98 311.653C1336.99 312.528 1335.59 312.966 1333.77 312.966H1327.86ZM1330.11 304.985V311.126H1333.82C1334.87 311.126 1335.69 310.856 1336.29 310.317C1336.9 309.771 1337.21 309.021 1337.21 308.067C1337.21 306.013 1336.09 304.985 1333.86 304.985H1330.11ZM1330.11 303.181H1333.51C1334.49 303.181 1335.27 302.935 1335.86 302.442C1336.45 301.95 1336.75 301.282 1336.75 300.438C1336.75 299.501 1336.48 298.821 1335.93 298.399C1335.38 297.97 1334.55 297.755 1333.44 297.755H1330.11V303.181ZM1350.3 312.966C1350.17 312.716 1350.07 312.271 1349.99 311.63C1348.99 312.677 1347.78 313.2 1346.38 313.2C1345.13 313.2 1344.11 312.849 1343.3 312.146C1342.51 311.435 1342.11 310.536 1342.11 309.45C1342.11 308.13 1342.61 307.106 1343.61 306.38C1344.61 305.646 1346.03 305.278 1347.85 305.278H1349.96V304.282C1349.96 303.524 1349.73 302.923 1349.28 302.478C1348.83 302.024 1348.16 301.798 1347.27 301.798C1346.5 301.798 1345.85 301.993 1345.33 302.384C1344.81 302.774 1344.54 303.247 1344.54 303.802H1342.36C1342.36 303.169 1342.59 302.56 1343.03 301.974C1343.49 301.38 1344.1 300.911 1344.86 300.567C1345.63 300.224 1346.48 300.052 1347.4 300.052C1348.86 300.052 1350.01 300.419 1350.84 301.153C1351.67 301.88 1352.1 302.884 1352.13 304.165V310.001C1352.13 311.165 1352.27 312.091 1352.57 312.778V312.966H1350.3ZM1346.7 311.313C1347.38 311.313 1348.02 311.138 1348.63 310.786C1349.24 310.435 1349.69 309.978 1349.96 309.415V306.813H1348.26C1345.6 306.813 1344.27 307.591 1344.27 309.146C1344.27 309.825 1344.5 310.356 1344.95 310.739C1345.41 311.122 1345.99 311.313 1346.7 311.313ZM1358.47 297.216V300.286H1360.83V301.962H1358.47V309.825C1358.47 310.333 1358.57 310.716 1358.78 310.974C1358.99 311.224 1359.35 311.349 1359.86 311.349C1360.11 311.349 1360.45 311.302 1360.89 311.208V312.966C1360.32 313.122 1359.77 313.2 1359.23 313.2C1358.26 313.2 1357.53 312.907 1357.04 312.321C1356.54 311.735 1356.3 310.903 1356.3 309.825V301.962H1353.99V300.286H1356.3V297.216H1358.47ZM1365.54 301.821C1366.51 300.642 1367.76 300.052 1369.29 300.052C1371.97 300.052 1373.33 301.563 1373.35 304.587V312.966H1371.18V304.575C1371.17 303.661 1370.96 302.985 1370.55 302.548C1370.14 302.11 1369.51 301.892 1368.64 301.892C1367.94 301.892 1367.32 302.079 1366.79 302.454C1366.26 302.829 1365.84 303.321 1365.54 303.931V312.966H1363.38V294.966H1365.54V301.821ZM1382.72 302.231C1382.4 302.177 1382.04 302.149 1381.66 302.149C1380.24 302.149 1379.27 302.755 1378.76 303.966V312.966H1376.6V300.286H1378.7L1378.74 301.751C1379.45 300.618 1380.46 300.052 1381.76 300.052C1382.19 300.052 1382.51 300.106 1382.72 300.216V302.231ZM1383.92 306.509C1383.92 305.267 1384.16 304.149 1384.65 303.157C1385.14 302.165 1385.82 301.399 1386.69 300.86C1387.56 300.321 1388.56 300.052 1389.67 300.052C1391.4 300.052 1392.79 300.649 1393.86 301.845C1394.93 303.04 1395.46 304.63 1395.46 306.614V306.767C1395.46 308.001 1395.22 309.11 1394.75 310.095C1394.28 311.071 1393.6 311.833 1392.72 312.38C1391.85 312.927 1390.84 313.2 1389.7 313.2C1387.98 313.2 1386.58 312.603 1385.51 311.407C1384.45 310.212 1383.92 308.63 1383.92 306.661V306.509ZM1386.1 306.767C1386.1 308.173 1386.42 309.302 1387.07 310.153C1387.73 311.005 1388.6 311.431 1389.7 311.431C1390.8 311.431 1391.67 311.001 1392.32 310.142C1392.97 309.274 1393.29 308.063 1393.29 306.509C1393.29 305.118 1392.96 303.993 1392.3 303.134C1391.64 302.267 1390.77 301.833 1389.67 301.833C1388.6 301.833 1387.74 302.259 1387.08 303.11C1386.43 303.962 1386.1 305.181 1386.1 306.767ZM1397.61 306.509C1397.61 305.267 1397.85 304.149 1398.33 303.157C1398.83 302.165 1399.51 301.399 1400.37 300.86C1401.25 300.321 1402.24 300.052 1403.36 300.052C1405.09 300.052 1406.48 300.649 1407.54 301.845C1408.61 303.04 1409.15 304.63 1409.15 306.614V306.767C1409.15 308.001 1408.91 309.11 1408.44 310.095C1407.97 311.071 1407.29 311.833 1406.41 312.38C1405.53 312.927 1404.52 313.2 1403.38 313.2C1401.67 313.2 1400.27 312.603 1399.2 311.407C1398.14 310.212 1397.61 308.63 1397.61 306.661V306.509ZM1399.79 306.767C1399.79 308.173 1400.11 309.302 1400.76 310.153C1401.42 311.005 1402.29 311.431 1403.38 311.431C1404.49 311.431 1405.36 311.001 1406.01 310.142C1406.66 309.274 1406.98 308.063 1406.98 306.509C1406.98 305.118 1406.65 303.993 1405.99 303.134C1405.33 302.267 1404.45 301.833 1403.36 301.833C1402.29 301.833 1401.43 302.259 1400.77 303.11C1400.11 303.962 1399.79 305.181 1399.79 306.767ZM1413.91 300.286L1413.97 301.692C1414.9 300.599 1416.15 300.052 1417.73 300.052C1419.5 300.052 1420.71 300.731 1421.35 302.091C1421.77 301.481 1422.32 300.989 1422.99 300.614C1423.67 300.239 1424.47 300.052 1425.39 300.052C1428.17 300.052 1429.59 301.524 1429.63 304.47V312.966H1427.47V304.599C1427.47 303.692 1427.26 303.017 1426.85 302.571C1426.43 302.118 1425.74 301.892 1424.76 301.892C1423.95 301.892 1423.29 302.134 1422.76 302.618C1422.22 303.095 1421.92 303.739 1421.83 304.552V312.966H1419.65V304.657C1419.65 302.813 1418.75 301.892 1416.94 301.892C1415.52 301.892 1414.55 302.497 1414.02 303.708V312.966H1411.86V300.286H1413.91Z" fill="#565E76"/>
<path d="M1337.11 357.809H1333.57V340.685L1328.34 342.472V339.469L1336.66 336.407H1337.11V357.809ZM1358.86 357.809H1344.52V355.362L1351.63 347.613C1352.65 346.471 1353.38 345.519 1353.81 344.757C1354.25 343.985 1354.47 343.214 1354.47 342.442C1354.47 341.427 1354.18 340.606 1353.61 339.981C1353.04 339.356 1352.27 339.044 1351.31 339.044C1350.15 339.044 1349.26 339.396 1348.63 340.099C1347.99 340.802 1347.67 341.764 1347.67 342.984H1344.11C1344.11 341.686 1344.41 340.519 1344.99 339.483C1345.59 338.438 1346.43 337.628 1347.53 337.052C1348.63 336.476 1349.9 336.188 1351.34 336.188C1353.41 336.188 1355.04 336.71 1356.23 337.755C1357.43 338.79 1358.03 340.226 1358.03 342.062C1358.03 343.126 1357.73 344.244 1357.12 345.416C1356.53 346.578 1355.54 347.901 1354.18 349.386L1348.96 354.967H1358.86V357.809ZM1364.02 354.059C1364.69 354.059 1365.2 354.249 1365.56 354.63C1365.92 355.001 1366.1 355.47 1366.1 356.036C1366.1 356.593 1365.92 357.057 1365.56 357.428C1365.2 357.789 1364.69 357.97 1364.02 357.97C1363.39 357.97 1362.88 357.789 1362.51 357.428C1362.14 357.066 1361.96 356.603 1361.96 356.036C1361.96 355.47 1362.14 355.001 1362.5 354.63C1362.86 354.249 1363.37 354.059 1364.02 354.059ZM1379.59 357.809H1376.05V340.685L1370.82 342.472V339.469L1379.14 336.407H1379.59V357.809ZM1387.96 347.232L1389.11 336.48H1400.57V339.557H1392.07L1391.49 344.654C1392.47 344.088 1393.59 343.805 1394.83 343.805C1396.86 343.805 1398.44 344.454 1399.56 345.753C1400.69 347.052 1401.26 348.8 1401.26 350.997C1401.26 353.165 1400.63 354.894 1399.38 356.183C1398.13 357.462 1396.42 358.102 1394.24 358.102C1392.29 358.102 1390.67 357.55 1389.38 356.446C1388.1 355.333 1387.4 353.868 1387.3 352.052H1390.74C1390.88 353.087 1391.25 353.883 1391.85 354.439C1392.46 354.986 1393.25 355.26 1394.23 355.26C1395.32 355.26 1396.17 354.869 1396.77 354.088C1397.39 353.307 1397.7 352.242 1397.7 350.895C1397.7 349.596 1397.36 348.57 1396.69 347.818C1396.01 347.057 1395.09 346.676 1393.9 346.676C1393.26 346.676 1392.71 346.764 1392.26 346.939C1391.81 347.105 1391.33 347.438 1390.8 347.936L1387.96 347.232ZM1415.1 341.959L1415.2 343.614C1416.32 342.315 1417.84 341.666 1419.77 341.666C1421.89 341.666 1423.34 342.477 1424.12 344.098C1425.28 342.477 1426.9 341.666 1428.99 341.666C1430.73 341.666 1432.03 342.149 1432.88 343.116C1433.74 344.083 1434.18 345.509 1434.2 347.394V357.809H1430.64V347.496C1430.64 346.49 1430.42 345.753 1429.98 345.284C1429.54 344.815 1428.82 344.581 1427.8 344.581C1426.99 344.581 1426.33 344.801 1425.81 345.24C1425.3 345.67 1424.94 346.236 1424.74 346.939L1424.75 357.809H1421.19V347.379C1421.15 345.514 1420.19 344.581 1418.34 344.581C1416.91 344.581 1415.9 345.162 1415.31 346.324V357.809H1411.75V341.959H1415.1Z" fill="#565E76"/>
<path d="M1445.47 340.331H1439.25V339.271L1442.33 335.913C1442.78 335.418 1443.09 335.005 1443.28 334.675C1443.47 334.341 1443.56 334.007 1443.56 333.672C1443.56 333.232 1443.44 332.877 1443.19 332.606C1442.94 332.335 1442.61 332.2 1442.19 332.2C1441.69 332.2 1441.31 332.352 1441.03 332.657C1440.76 332.961 1440.62 333.378 1440.62 333.907H1439.08C1439.08 333.344 1439.2 332.839 1439.46 332.39C1439.71 331.937 1440.08 331.586 1440.55 331.336C1441.03 331.087 1441.58 330.962 1442.21 330.962C1443.1 330.962 1443.81 331.188 1444.33 331.641C1444.85 332.09 1445.11 332.712 1445.11 333.507C1445.11 333.969 1444.98 334.453 1444.71 334.961C1444.45 335.465 1444.03 336.038 1443.44 336.681L1441.18 339.1H1445.47V340.331Z" fill="#565E76"/>
<path d="M589.66 923.887V906.824H595.238C597.09 906.824 598.48 907.207 599.41 907.973C600.348 908.738 600.816 909.871 600.816 911.371C600.816 912.168 600.59 912.875 600.137 913.492C599.684 914.102 599.066 914.574 598.285 914.91C599.207 915.168 599.934 915.66 600.465 916.387C601.004 917.105 601.273 917.965 601.273 918.965C601.273 920.496 600.777 921.699 599.785 922.574C598.793 923.449 597.391 923.887 595.578 923.887H589.66ZM591.91 915.906V922.047H595.625C596.672 922.047 597.496 921.777 598.098 921.238C598.707 920.691 599.012 919.941 599.012 918.988C599.012 916.934 597.895 915.906 595.66 915.906H591.91ZM591.91 914.102H595.309C596.293 914.102 597.078 913.855 597.664 913.363C598.258 912.871 598.555 912.203 598.555 911.359C598.555 910.422 598.281 909.742 597.734 909.32C597.188 908.891 596.355 908.676 595.238 908.676H591.91V914.102ZM609.535 924.121C607.816 924.121 606.418 923.559 605.34 922.434C604.262 921.301 603.723 919.789 603.723 917.898V917.5C603.723 916.242 603.961 915.121 604.438 914.137C604.922 913.145 605.594 912.371 606.453 911.816C607.32 911.254 608.258 910.973 609.266 910.973C610.914 910.973 612.195 911.516 613.109 912.602C614.023 913.688 614.48 915.242 614.48 917.266V918.168H605.891C605.922 919.418 606.285 920.43 606.98 921.203C607.684 921.969 608.574 922.352 609.652 922.352C610.418 922.352 611.066 922.195 611.598 921.883C612.129 921.57 612.594 921.156 612.992 920.641L614.316 921.672C613.254 923.305 611.66 924.121 609.535 924.121ZM609.266 912.754C608.391 912.754 607.656 913.074 607.062 913.715C606.469 914.348 606.102 915.238 605.961 916.387H612.312V916.223C612.25 915.121 611.953 914.27 611.422 913.668C610.891 913.059 610.172 912.754 609.266 912.754ZM616.473 917.441C616.473 915.496 616.934 913.934 617.855 912.754C618.777 911.566 619.984 910.973 621.477 910.973C622.961 910.973 624.137 911.48 625.004 912.496V905.887H627.172V923.887H625.18L625.074 922.527C624.207 923.59 623 924.121 621.453 924.121C619.984 924.121 618.785 923.52 617.855 922.316C616.934 921.113 616.473 919.543 616.473 917.605V917.441ZM618.641 917.688C618.641 919.125 618.938 920.25 619.531 921.062C620.125 921.875 620.945 922.281 621.992 922.281C623.367 922.281 624.371 921.664 625.004 920.43V914.605C624.355 913.41 623.359 912.812 622.016 912.812C620.953 912.812 620.125 913.223 619.531 914.043C618.938 914.863 618.641 916.078 618.641 917.688ZM636.676 913.152C636.348 913.098 635.992 913.07 635.609 913.07C634.188 913.07 633.223 913.676 632.715 914.887V923.887H630.547V911.207H632.656L632.691 912.672C633.402 911.539 634.41 910.973 635.715 910.973C636.137 910.973 636.457 911.027 636.676 911.137V913.152ZM637.871 917.43C637.871 916.188 638.113 915.07 638.598 914.078C639.09 913.086 639.77 912.32 640.637 911.781C641.512 911.242 642.508 910.973 643.625 910.973C645.352 910.973 646.746 911.57 647.809 912.766C648.879 913.961 649.414 915.551 649.414 917.535V917.688C649.414 918.922 649.176 920.031 648.699 921.016C648.23 921.992 647.555 922.754 646.672 923.301C645.797 923.848 644.789 924.121 643.648 924.121C641.93 924.121 640.535 923.523 639.465 922.328C638.402 921.133 637.871 919.551 637.871 917.582V917.43ZM640.051 917.688C640.051 919.094 640.375 920.223 641.023 921.074C641.68 921.926 642.555 922.352 643.648 922.352C644.75 922.352 645.625 921.922 646.273 921.062C646.922 920.195 647.246 918.984 647.246 917.43C647.246 916.039 646.914 914.914 646.25 914.055C645.594 913.188 644.719 912.754 643.625 912.754C642.555 912.754 641.691 913.18 641.035 914.031C640.379 914.883 640.051 916.102 640.051 917.688ZM651.559 917.43C651.559 916.188 651.801 915.07 652.285 914.078C652.777 913.086 653.457 912.32 654.324 911.781C655.199 911.242 656.195 910.973 657.312 910.973C659.039 910.973 660.434 911.57 661.496 912.766C662.566 913.961 663.102 915.551 663.102 917.535V917.688C663.102 918.922 662.863 920.031 662.387 921.016C661.918 921.992 661.242 922.754 660.359 923.301C659.484 923.848 658.477 924.121 657.336 924.121C655.617 924.121 654.223 923.523 653.152 922.328C652.09 921.133 651.559 919.551 651.559 917.582V917.43ZM653.738 917.688C653.738 919.094 654.062 920.223 654.711 921.074C655.367 921.926 656.242 922.352 657.336 922.352C658.438 922.352 659.312 921.922 659.961 921.062C660.609 920.195 660.934 918.984 660.934 917.43C660.934 916.039 660.602 914.914 659.938 914.055C659.281 913.188 658.406 912.754 657.312 912.754C656.242 912.754 655.379 913.18 654.723 914.031C654.066 914.883 653.738 916.102 653.738 917.688ZM667.859 911.207L667.918 912.613C668.848 911.52 670.102 910.973 671.68 910.973C673.453 910.973 674.66 911.652 675.301 913.012C675.723 912.402 676.27 911.91 676.941 911.535C677.621 911.16 678.422 910.973 679.344 910.973C682.125 910.973 683.539 912.445 683.586 915.391V923.887H681.418V915.52C681.418 914.613 681.211 913.938 680.797 913.492C680.383 913.039 679.688 912.812 678.711 912.812C677.906 912.812 677.238 913.055 676.707 913.539C676.176 914.016 675.867 914.66 675.781 915.473V923.887H673.602V915.578C673.602 913.734 672.699 912.812 670.895 912.812C669.473 912.812 668.5 913.418 667.977 914.629V923.887H665.809V911.207H667.859Z" fill="#565E76"/>
<path d="M593.393 956.439H595.561C596.654 956.43 597.519 956.146 598.153 955.59C598.798 955.033 599.12 954.228 599.12 953.173C599.12 952.157 598.852 951.371 598.314 950.814C597.787 950.248 596.977 949.965 595.883 949.965C594.926 949.965 594.14 950.243 593.524 950.8C592.909 951.347 592.602 952.064 592.602 952.953H589.042C589.042 951.859 589.33 950.863 589.906 949.965C590.492 949.066 591.303 948.368 592.338 947.87C593.383 947.362 594.55 947.108 595.839 947.108C597.968 947.108 599.638 947.646 600.849 948.72C602.069 949.784 602.68 951.269 602.68 953.173C602.68 954.13 602.372 955.033 601.757 955.883C601.151 956.723 600.365 957.357 599.398 957.787C600.57 958.188 601.459 958.817 602.064 959.677C602.68 960.536 602.987 961.562 602.987 962.753C602.987 964.667 602.328 966.19 601.01 967.323C599.701 968.456 597.978 969.022 595.839 969.022C593.788 969.022 592.108 968.476 590.8 967.382C589.491 966.288 588.837 964.833 588.837 963.017H592.396C592.396 963.954 592.709 964.716 593.334 965.302C593.969 965.888 594.818 966.181 595.883 966.181C596.986 966.181 597.855 965.888 598.49 965.302C599.125 964.716 599.442 963.866 599.442 962.753C599.442 961.63 599.11 960.766 598.446 960.16C597.782 959.555 596.796 959.252 595.487 959.252H593.393V956.439ZM607.279 958.153L608.437 947.401H619.892V950.478H611.396L610.81 955.575C611.796 955.009 612.909 954.726 614.149 954.726C616.181 954.726 617.758 955.375 618.881 956.674C620.014 957.973 620.58 959.721 620.58 961.918C620.58 964.086 619.955 965.814 618.705 967.104C617.455 968.383 615.741 969.022 613.563 969.022C611.61 969.022 609.989 968.471 608.7 967.367C607.421 966.254 606.728 964.789 606.62 962.973H610.062C610.199 964.008 610.57 964.804 611.176 965.36C611.781 965.907 612.572 966.181 613.549 966.181C614.643 966.181 615.492 965.79 616.098 965.009C616.713 964.228 617.021 963.163 617.021 961.815C617.021 960.517 616.684 959.491 616.01 958.739C615.336 957.978 614.408 957.597 613.227 957.597C612.582 957.597 612.035 957.685 611.586 957.86C611.137 958.026 610.648 958.358 610.121 958.856L607.279 958.153ZM625.824 964.979C626.488 964.979 627.001 965.17 627.362 965.551C627.724 965.922 627.904 966.391 627.904 966.957C627.904 967.514 627.724 967.978 627.362 968.349C627.001 968.71 626.488 968.891 625.824 968.891C625.189 968.891 624.687 968.71 624.315 968.349C623.944 967.987 623.759 967.523 623.759 966.957C623.759 966.391 623.939 965.922 624.301 965.551C624.662 965.17 625.17 964.979 625.824 964.979ZM641.396 968.729H637.851V951.605L632.621 953.393V950.39L640.941 947.328H641.396V968.729ZM649.76 958.153L650.917 947.401H662.372V950.478H653.876L653.29 955.575C654.276 955.009 655.39 954.726 656.63 954.726C658.661 954.726 660.238 955.375 661.361 956.674C662.494 957.973 663.061 959.721 663.061 961.918C663.061 964.086 662.436 965.814 661.186 967.104C659.936 968.383 658.222 969.022 656.044 969.022C654.091 969.022 652.47 968.471 651.181 967.367C649.901 966.254 649.208 964.789 649.101 962.973H652.543C652.68 964.008 653.051 964.804 653.656 965.36C654.262 965.907 655.053 966.181 656.029 966.181C657.123 966.181 657.973 965.79 658.578 965.009C659.193 964.228 659.501 963.163 659.501 961.815C659.501 960.517 659.164 959.491 658.49 958.739C657.816 957.978 656.889 957.597 655.707 957.597C655.062 957.597 654.516 957.685 654.066 957.86C653.617 958.026 653.129 958.358 652.602 958.856L649.76 958.153ZM676.903 952.88L677.006 954.535C678.119 953.236 679.643 952.587 681.576 952.587C683.695 952.587 685.146 953.397 685.927 955.019C687.079 953.397 688.7 952.587 690.79 952.587C692.538 952.587 693.837 953.07 694.687 954.037C695.546 955.004 695.985 956.43 696.005 958.314V968.729H692.445V958.417C692.445 957.411 692.226 956.674 691.786 956.205C691.347 955.736 690.619 955.502 689.604 955.502C688.793 955.502 688.129 955.722 687.611 956.161C687.104 956.591 686.747 957.157 686.542 957.86L686.557 968.729H682.997V958.3C682.948 956.435 681.996 955.502 680.141 955.502C678.715 955.502 677.704 956.083 677.108 957.245V968.729H673.549V952.88H676.903Z" fill="#565E76"/>
<path d="M706.075 953.173H699.86V952.113L702.939 948.755C703.383 948.26 703.699 947.847 703.885 947.517C704.075 947.183 704.17 946.848 704.17 946.514C704.17 946.074 704.046 945.719 703.796 945.448C703.55 945.177 703.218 945.042 702.799 945.042C702.3 945.042 701.913 945.194 701.638 945.499C701.363 945.803 701.225 946.22 701.225 946.749H699.683C699.683 946.186 699.81 945.681 700.063 945.232C700.322 944.779 700.688 944.428 701.162 944.178C701.64 943.929 702.19 943.804 702.812 943.804C703.709 943.804 704.416 944.03 704.932 944.483C705.453 944.931 705.713 945.554 705.713 946.349C705.713 946.81 705.582 947.295 705.319 947.803C705.061 948.306 704.636 948.88 704.043 949.523L701.784 951.941H706.075V953.173Z" fill="#565E76"/>
<path d="M160.293 566.783H168.379V568.623H158.031V551.561H160.293V566.783ZM172.961 568.623H170.793V555.943H172.961V568.623ZM170.617 552.58C170.617 552.229 170.723 551.932 170.934 551.689C171.152 551.447 171.473 551.326 171.895 551.326C172.316 551.326 172.637 551.447 172.855 551.689C173.074 551.932 173.184 552.229 173.184 552.58C173.184 552.932 173.074 553.225 172.855 553.459C172.637 553.693 172.316 553.811 171.895 553.811C171.473 553.811 171.152 553.693 170.934 553.459C170.723 553.225 170.617 552.932 170.617 552.58ZM180.625 565.682L183.766 555.943H185.98L181.434 568.623H179.781L175.188 555.943H177.402L180.625 565.682ZM190.422 568.623H188.254V555.943H190.422V568.623ZM188.078 552.58C188.078 552.229 188.184 551.932 188.395 551.689C188.613 551.447 188.934 551.326 189.355 551.326C189.777 551.326 190.098 551.447 190.316 551.689C190.535 551.932 190.645 552.229 190.645 552.58C190.645 552.932 190.535 553.225 190.316 553.459C190.098 553.693 189.777 553.811 189.355 553.811C188.934 553.811 188.613 553.693 188.395 553.459C188.184 553.225 188.078 552.932 188.078 552.58ZM195.953 555.943L196.023 557.537C196.992 556.318 198.258 555.709 199.82 555.709C202.5 555.709 203.852 557.221 203.875 560.244V568.623H201.707V560.232C201.699 559.318 201.488 558.643 201.074 558.205C200.668 557.768 200.031 557.549 199.164 557.549C198.461 557.549 197.844 557.736 197.312 558.111C196.781 558.486 196.367 558.979 196.07 559.588V568.623H193.902V555.943H195.953ZM206.629 562.178C206.629 560.201 207.086 558.631 208 557.467C208.914 556.295 210.125 555.709 211.633 555.709C213.18 555.709 214.387 556.256 215.254 557.35L215.359 555.943H217.34V568.318C217.34 569.959 216.852 571.252 215.875 572.197C214.906 573.143 213.602 573.615 211.961 573.615C211.047 573.615 210.152 573.42 209.277 573.029C208.402 572.639 207.734 572.104 207.273 571.424L208.398 570.123C209.328 571.271 210.465 571.846 211.809 571.846C212.863 571.846 213.684 571.549 214.27 570.955C214.863 570.361 215.16 569.525 215.16 568.447V567.357C214.293 568.357 213.109 568.857 211.609 568.857C210.125 568.857 208.922 568.26 208 567.064C207.086 565.869 206.629 564.24 206.629 562.178ZM208.809 562.424C208.809 563.854 209.102 564.979 209.688 565.799C210.273 566.611 211.094 567.018 212.148 567.018C213.516 567.018 214.52 566.396 215.16 565.154V559.365C214.496 558.154 213.5 557.549 212.172 557.549C211.117 557.549 210.293 557.959 209.699 558.779C209.105 559.6 208.809 560.814 208.809 562.424ZM232.703 557.889C232.375 557.834 232.02 557.807 231.637 557.807C230.215 557.807 229.25 558.412 228.742 559.623V568.623H226.574V555.943H228.684L228.719 557.408C229.43 556.275 230.438 555.709 231.742 555.709C232.164 555.709 232.484 555.764 232.703 555.873V557.889ZM233.898 562.166C233.898 560.924 234.141 559.807 234.625 558.814C235.117 557.822 235.797 557.057 236.664 556.518C237.539 555.979 238.535 555.709 239.652 555.709C241.379 555.709 242.773 556.307 243.836 557.502C244.906 558.697 245.441 560.287 245.441 562.271V562.424C245.441 563.658 245.203 564.768 244.727 565.752C244.258 566.729 243.582 567.49 242.699 568.037C241.824 568.584 240.816 568.857 239.676 568.857C237.957 568.857 236.562 568.26 235.492 567.064C234.43 565.869 233.898 564.287 233.898 562.318V562.166ZM236.078 562.424C236.078 563.83 236.402 564.959 237.051 565.811C237.707 566.662 238.582 567.088 239.676 567.088C240.777 567.088 241.652 566.658 242.301 565.799C242.949 564.932 243.273 563.721 243.273 562.166C243.273 560.775 242.941 559.65 242.277 558.791C241.621 557.924 240.746 557.49 239.652 557.49C238.582 557.49 237.719 557.916 237.062 558.768C236.406 559.619 236.078 560.838 236.078 562.424ZM247.586 562.166C247.586 560.924 247.828 559.807 248.312 558.814C248.805 557.822 249.484 557.057 250.352 556.518C251.227 555.979 252.223 555.709 253.34 555.709C255.066 555.709 256.461 556.307 257.523 557.502C258.594 558.697 259.129 560.287 259.129 562.271V562.424C259.129 563.658 258.891 564.768 258.414 565.752C257.945 566.729 257.27 567.49 256.387 568.037C255.512 568.584 254.504 568.857 253.363 568.857C251.645 568.857 250.25 568.26 249.18 567.064C248.117 565.869 247.586 564.287 247.586 562.318V562.166ZM249.766 562.424C249.766 563.83 250.09 564.959 250.738 565.811C251.395 566.662 252.27 567.088 253.363 567.088C254.465 567.088 255.34 566.658 255.988 565.799C256.637 564.932 256.961 563.721 256.961 562.166C256.961 560.775 256.629 559.65 255.965 558.791C255.309 557.924 254.434 557.49 253.34 557.49C252.27 557.49 251.406 557.916 250.75 558.768C250.094 559.619 249.766 560.838 249.766 562.424ZM263.887 555.943L263.945 557.35C264.875 556.256 266.129 555.709 267.707 555.709C269.48 555.709 270.688 556.389 271.328 557.748C271.75 557.139 272.297 556.646 272.969 556.271C273.648 555.896 274.449 555.709 275.371 555.709C278.152 555.709 279.566 557.182 279.613 560.127V568.623H277.445V560.256C277.445 559.35 277.238 558.674 276.824 558.229C276.41 557.775 275.715 557.549 274.738 557.549C273.934 557.549 273.266 557.791 272.734 558.275C272.203 558.752 271.895 559.396 271.809 560.209V568.623H269.629V560.314C269.629 558.471 268.727 557.549 266.922 557.549C265.5 557.549 264.527 558.154 264.004 559.365V568.623H261.836V555.943H263.887Z" fill="#565E76"/>
<path d="M161.764 601.176H163.932C165.025 601.166 165.89 600.883 166.524 600.326C167.169 599.77 167.491 598.964 167.491 597.909C167.491 596.894 167.223 596.107 166.686 595.551C166.158 594.984 165.348 594.701 164.254 594.701C163.297 594.701 162.511 594.979 161.896 595.536C161.28 596.083 160.973 596.801 160.973 597.689H157.413C157.413 596.596 157.701 595.6 158.277 594.701C158.863 593.803 159.674 593.104 160.709 592.606C161.754 592.099 162.921 591.845 164.21 591.845C166.339 591.845 168.009 592.382 169.22 593.456C170.44 594.521 171.051 596.005 171.051 597.909C171.051 598.866 170.743 599.77 170.128 600.619C169.522 601.459 168.736 602.094 167.77 602.523C168.941 602.924 169.83 603.554 170.436 604.413C171.051 605.272 171.358 606.298 171.358 607.489C171.358 609.403 170.699 610.927 169.381 612.06C168.072 613.192 166.349 613.759 164.21 613.759C162.159 613.759 160.479 613.212 159.171 612.118C157.862 611.024 157.208 609.569 157.208 607.753H160.768C160.768 608.69 161.08 609.452 161.705 610.038C162.34 610.624 163.189 610.917 164.254 610.917C165.357 610.917 166.227 610.624 166.861 610.038C167.496 609.452 167.813 608.603 167.813 607.489C167.813 606.366 167.481 605.502 166.817 604.896C166.153 604.291 165.167 603.988 163.858 603.988H161.764V601.176ZM188.6 604.486C188.6 607.553 188.023 609.867 186.871 611.43C185.729 612.982 183.985 613.759 181.642 613.759C179.337 613.759 177.599 613.002 176.427 611.488C175.265 609.965 174.669 607.714 174.64 604.735V601.044C174.64 597.978 175.211 595.678 176.354 594.145C177.506 592.611 179.259 591.845 181.612 591.845C183.946 591.845 185.685 592.592 186.827 594.086C187.979 595.58 188.57 597.816 188.6 600.795V604.486ZM185.04 600.502C185.04 598.5 184.767 597.035 184.22 596.107C183.673 595.17 182.804 594.701 181.612 594.701C180.45 594.701 179.596 595.146 179.049 596.034C178.502 596.913 178.214 598.29 178.185 600.165V604.999C178.185 606.991 178.463 608.476 179.02 609.452C179.576 610.429 180.45 610.917 181.642 610.917C182.784 610.917 183.629 610.468 184.176 609.569C184.723 608.661 185.011 607.245 185.04 605.321V600.502ZM194.195 609.716C194.859 609.716 195.372 609.906 195.733 610.287C196.095 610.658 196.275 611.127 196.275 611.693C196.275 612.25 196.095 612.714 195.733 613.085C195.372 613.446 194.859 613.627 194.195 613.627C193.561 613.627 193.058 613.446 192.687 613.085C192.315 612.724 192.13 612.26 192.13 611.693C192.13 611.127 192.311 610.658 192.672 610.287C193.033 609.906 193.541 609.716 194.195 609.716ZM209.767 613.466H206.222V596.342L200.992 598.129V595.126L209.312 592.064H209.767V613.466ZM218.131 602.89L219.288 592.138H230.743V595.214H222.247L221.661 600.312C222.647 599.745 223.761 599.462 225.001 599.462C227.032 599.462 228.609 600.111 229.732 601.41C230.865 602.709 231.432 604.457 231.432 606.654C231.432 608.822 230.807 610.551 229.557 611.84C228.307 613.119 226.593 613.759 224.415 613.759C222.462 613.759 220.841 613.207 219.552 612.104C218.272 610.99 217.579 609.525 217.472 607.709H220.914C221.051 608.744 221.422 609.54 222.027 610.097C222.633 610.644 223.424 610.917 224.4 610.917C225.494 610.917 226.344 610.526 226.949 609.745C227.564 608.964 227.872 607.899 227.872 606.552C227.872 605.253 227.535 604.228 226.861 603.476C226.188 602.714 225.26 602.333 224.078 602.333C223.434 602.333 222.887 602.421 222.438 602.597C221.988 602.763 221.5 603.095 220.973 603.593L218.131 602.89ZM245.274 597.616L245.377 599.271C246.49 597.973 248.014 597.323 249.947 597.323C252.066 597.323 253.517 598.134 254.298 599.755C255.45 598.134 257.071 597.323 259.161 597.323C260.909 597.323 262.208 597.807 263.058 598.773C263.917 599.74 264.356 601.166 264.376 603.051V613.466H260.816V603.153C260.816 602.147 260.597 601.41 260.157 600.941C259.718 600.473 258.99 600.238 257.975 600.238C257.164 600.238 256.5 600.458 255.982 600.897C255.475 601.327 255.118 601.894 254.913 602.597L254.928 613.466H251.368V603.036C251.319 601.171 250.367 600.238 248.512 600.238C247.086 600.238 246.075 600.819 245.479 601.981V613.466H241.92V597.616H245.274Z" fill="#565E76"/>
<path d="M274.311 596.646H268.097V595.585L271.175 592.228C271.62 591.732 271.935 591.32 272.121 590.99C272.312 590.655 272.407 590.321 272.407 589.987C272.407 589.547 272.282 589.191 272.032 588.92C271.787 588.65 271.455 588.514 271.036 588.514C270.536 588.514 270.149 588.667 269.874 588.971C269.599 589.276 269.461 589.693 269.461 590.222H267.919C267.919 589.659 268.046 589.153 268.3 588.705C268.558 588.252 268.924 587.901 269.398 587.651C269.876 587.401 270.426 587.276 271.048 587.276C271.945 587.276 272.652 587.503 273.168 587.956C273.689 588.404 273.949 589.026 273.949 589.822C273.949 590.283 273.818 590.768 273.556 591.275C273.298 591.779 272.872 592.352 272.28 592.996L270.02 595.414H274.311V596.646Z" fill="#565E76"/>
<path d="M1225.2 1189.94H1558.76V1170.43H1225.2V1189.94Z" fill="white" stroke="#565E76"/>
<path d="M922.159 1189.94H1123.49V1164.93H922.159V1189.94Z" fill="white" stroke="#565E76"/>
<path d="M553.002 1189.94H743.312V1164.93H553.002V1189.94Z" fill="white" stroke="#565E76"/>
<path d="M134.255 1189.94H324.565V1164.93H134.255V1189.94Z" fill="white" stroke="#565E76"/>
<path d="M1328.62 984.635L1248.73 1036.96" stroke="#565E76"/>
<path d="M1320.36 667.899L1243.22 621.076" stroke="#565E76"/>
<path d="M1144.04 623.831L1072.41 667.899" stroke="#565E76"/>
<path d="M1314.84 420.02L1234.95 480.611" stroke="#565E76"/>
<path d="M1075.17 477.858L995.276 422.772" stroke="#565E76"/>
<path d="M791.411 634.849L717.029 687.178" stroke="#565E76"/>
<path d="M579.285 370.444L670.197 428.282" stroke="#565E76"/>
<path d="M502.146 549.467L449.802 632.094" stroke="#565E76"/>
<path d="M911.141 1167.9H1129V1142.89H911.141V1167.9Z" fill="white" stroke="#565E76"/>
<path d="M541.981 1167.9H748.821V1142.89H541.981V1167.9Z" fill="white" stroke="#565E76"/>
<path d="M1340.91 1063.24H1415.51V1038.23H1340.91V1063.24Z" fill="white" stroke="#565E76"/>
<path d="M1162.29 399.924H1209.34V220.678H1162.29V399.924Z" stroke="#565E76"/>
<path d="M688.443 471.533H735.499V446.523H688.443V471.533Z" stroke="#565E76"/>
<path d="M457.031 488.059H487.557V446.523H457.031V488.059Z" stroke="#565E76"/>
<path d="M54.8135 526.619H118.398V446.525H54.8135V526.619Z" stroke="#565E76"/>
<path d="M1340.91 1041.21H1415.51V1005.18H1340.91V1041.21Z" fill="white" stroke="#565E76"/>
<path d="M123.236 1167.9H330.077V1142.89H123.236V1167.9Z" fill="white" stroke="#565E76"/>
<path d="M1554.52 1191.2H1576.56V1189.87H1608.36V189.918H931.947V216.207H931.912V414.511H667.441V447.561H959.462V431.036H998.029V414.511H964.97V221.968H1146.79V414.511H1080.68V431.036H1218.42V414.511H1163.32V221.968H1569.89V414.511H1312.09V431.036H1361.68V475.104H1378.21V431.036H1569.89V612.814H1378.21V568.749H1361.68V612.814H1328.62V629.34H1569.89V1003.91H1411.27V1064.51H1554.52V1191.2Z" fill="white"/>
<path d="M1229.44 1191.2L1119.25 1191.2V1163.66H1124.76V1141.63H1179.85V1003.91H1196.38V750.527H1179.85V629.34H1141.29V612.814H1245.97V629.34H1212.91V1003.91H1251.48V1036.96H1256.99V1064.51H1229.44V1191.2Z" fill="white"/>
<path d="M854.776 1141.62V629.338H1058.64V612.812L821.717 612.815V629.338H788.658V645.863H821.717V1141.62H744.579V1163.66H739.07V1191.2H926.403V1163.66H915.382V1141.62H854.776Z" fill="white"/>
<path d="M458.07 1141.62H546.226V1163.66H557.246V1191.2H320.323V1163.66H325.834V1141.62H425.011V1003.91H441.54V629.338H706.011V645.863H458.07V1141.62Z" fill="white"/>
<path d="M747.971 122.443V96.8496H755.195C757.422 96.8496 759.391 97.3418 761.102 98.3262C762.812 99.3105 764.131 100.711 765.057 102.527C765.994 104.344 766.469 106.43 766.48 108.785V110.42C766.48 112.834 766.012 114.949 765.074 116.766C764.148 118.582 762.818 119.977 761.084 120.949C759.361 121.922 757.352 122.42 755.055 122.443H747.971ZM751.346 99.627V119.684H754.896C757.498 119.684 759.52 118.875 760.961 117.258C762.414 115.641 763.141 113.338 763.141 110.35V108.855C763.141 105.949 762.455 103.693 761.084 102.088C759.725 100.471 757.791 99.6504 755.283 99.627H751.346ZM782.828 120.562C781.562 122.051 779.705 122.795 777.256 122.795C775.229 122.795 773.682 122.209 772.615 121.037C771.561 119.854 771.027 118.107 771.016 115.799V103.424H774.268V115.711C774.268 118.594 775.439 120.035 777.783 120.035C780.268 120.035 781.92 119.109 782.74 117.258V103.424H785.992V122.443H782.898L782.828 120.562ZM794.482 122.443H791.23V95.4434H794.482V122.443ZM816.543 117.961L820.199 103.424H823.451L817.914 122.443H815.277L810.654 108.029L806.154 122.443H803.518L797.998 103.424H801.232L804.977 117.662L809.406 103.424H812.025L816.543 117.961ZM830.307 122.443H827.055V103.424H830.307V122.443ZM826.791 98.3789C826.791 97.8516 826.949 97.4062 827.266 97.043C827.594 96.6797 828.074 96.498 828.707 96.498C829.34 96.498 829.82 96.6797 830.148 97.043C830.477 97.4062 830.641 97.8516 830.641 98.3789C830.641 98.9062 830.477 99.3457 830.148 99.6973C829.82 100.049 829.34 100.225 828.707 100.225C828.074 100.225 827.594 100.049 827.266 99.6973C826.949 99.3457 826.791 98.9062 826.791 98.3789ZM843.156 120.141C844.316 120.141 845.33 119.789 846.197 119.086C847.064 118.383 847.545 117.504 847.639 116.449H850.715C850.656 117.539 850.281 118.576 849.59 119.561C848.898 120.545 847.973 121.33 846.812 121.916C845.664 122.502 844.445 122.795 843.156 122.795C840.566 122.795 838.504 121.934 836.969 120.211C835.445 118.477 834.684 116.109 834.684 113.109V112.564C834.684 110.713 835.023 109.066 835.703 107.625C836.383 106.184 837.355 105.064 838.621 104.268C839.898 103.471 841.404 103.072 843.139 103.072C845.271 103.072 847.041 103.711 848.447 104.988C849.865 106.266 850.621 107.924 850.715 109.963H847.639C847.545 108.732 847.076 107.725 846.232 106.939C845.4 106.143 844.369 105.744 843.139 105.744C841.486 105.744 840.203 106.342 839.289 107.537C838.387 108.721 837.936 110.438 837.936 112.688V113.303C837.936 115.494 838.387 117.182 839.289 118.365C840.191 119.549 841.48 120.141 843.156 120.141ZM857.623 105.727C859.064 103.957 860.939 103.072 863.248 103.072C867.268 103.072 869.295 105.34 869.33 109.875V122.443H866.078V109.857C866.066 108.486 865.75 107.473 865.129 106.816C864.52 106.16 863.564 105.832 862.264 105.832C861.209 105.832 860.283 106.113 859.486 106.676C858.689 107.238 858.068 107.977 857.623 108.891V122.443H854.371V95.4434H857.623V105.727ZM893.025 112.09H887.014V122.443H883.621V96.8496H892.094C894.977 96.8496 897.191 97.5059 898.738 98.8184C900.297 100.131 901.076 102.041 901.076 104.549C901.076 106.143 900.643 107.531 899.775 108.715C898.92 109.898 897.725 110.783 896.189 111.369L902.201 122.232V122.443H898.58L893.025 112.09ZM887.014 109.33H892.199C893.875 109.33 895.205 108.896 896.189 108.029C897.186 107.162 897.684 106.002 897.684 104.549C897.684 102.967 897.209 101.754 896.26 100.91C895.322 100.066 893.963 99.6387 892.182 99.627H887.014V109.33ZM904.521 112.775C904.521 109.857 905.213 107.514 906.596 105.744C907.979 103.963 909.789 103.072 912.027 103.072C914.254 103.072 916.018 103.834 917.318 105.357V95.4434H920.57V122.443H917.582L917.424 120.404C916.123 121.998 914.312 122.795 911.992 122.795C909.789 122.795 907.99 121.893 906.596 120.088C905.213 118.283 904.521 115.928 904.521 113.021V112.775ZM907.773 113.145C907.773 115.301 908.219 116.988 909.109 118.207C910 119.426 911.23 120.035 912.801 120.035C914.863 120.035 916.369 119.109 917.318 117.258V108.521C916.346 106.729 914.852 105.832 912.836 105.832C911.242 105.832 910 106.447 909.109 107.678C908.219 108.908 907.773 110.73 907.773 113.145Z" fill="#565E76"/>
<mask id="mask0" mask-type="alpha" maskUnits="userSpaceOnUse" x="21" y="189" width="1588" height="1003">
<path d="M1554.52 1191.2H1576.56V1189.87H1608.36V189.918H931.947V216.207H931.912V414.511H667.441V447.561H959.462V431.036H998.029V414.511H964.971V221.968H1146.79V414.511H1080.68V431.036H1218.42V414.511H1163.32V221.968H1569.9V414.511H1312.09V431.036H1361.68V475.104H1378.21V431.036H1569.9V612.814H1378.21V568.749H1361.68V612.814H1328.62V629.34H1569.9V1003.91H1411.27V1064.51H1554.52V1191.2Z" fill="white"/>
<path d="M1229.44 1191.2L1119.25 1191.2V1163.66H1124.76V1141.63H1179.85V1003.91H1196.38V750.527H1179.85V629.34H1141.29V612.814H1245.97V629.34H1212.91V1003.91H1251.48V1036.96H1256.99V1064.51H1229.44V1191.2Z" fill="white"/>
<path d="M854.776 1141.63V629.34H1058.64V612.814L821.717 612.817V629.34H788.659V645.865H821.717V1141.63H744.579V1163.66H739.07V1191.2H926.403V1163.66H915.382V1141.63H854.776Z" fill="white"/>
<path d="M458.07 1141.63H546.226V1163.66H557.246V1191.2H320.323V1163.66H325.834V1141.63H425.011V1003.91H441.54V629.34H706.011V645.865H458.07V1141.63Z" fill="white"/>
<path d="M21.5115 414.265H550.463V446.316H458.07V535.698H441.54V446.316H56.7739V1141.79H127.301V1164.23H136.919V1189.87H21.5115V414.265Z" fill="white"/>
</mask>
<g mask="url(#mask0)">
<path d="M21.5116 414.265H550.463V446.316H458.07V535.698H441.54V446.316H56.774V1141.79H127.302V1164.23H136.919V1189.87H21.5116V414.265Z" fill="white"/>
<path d="M1554.52 1191.2H1576.56V1189.87H1608.36V189.918H931.947V216.207H931.912V414.511H667.441V447.561H959.462V431.036H998.029V414.511H964.97V221.968H1146.79V414.511H1080.68V431.036H1218.42V414.511H1163.32V221.968H1569.89V414.511H1312.09V431.036H1361.68V475.104H1378.21V431.036H1569.89V612.814H1378.21V568.749H1361.68V612.814H1328.62V629.34H1569.89V1003.91H1411.27V1064.51H1554.52V1191.2Z" stroke="#565E76" stroke-width="2"/>
<path d="M1229.44 1191.2L1119.25 1191.2V1163.66H1124.76V1141.63H1179.85V1003.91H1196.38V750.527H1179.85V629.34H1141.29V612.814H1245.97V629.34H1212.91V1003.91H1251.48V1036.96H1256.99V1064.51H1229.44V1191.2Z" stroke="#565E76" stroke-width="2"/>
<path d="M854.776 1141.62V629.338H1058.64V612.812L821.717 612.815V629.338H788.658V645.863H821.717V1141.62H744.579V1163.66H739.07V1191.2H926.403V1163.66H915.382V1141.62H854.776Z" stroke="#565E76" stroke-width="2"/>
<path d="M458.07 1141.62H546.226V1163.66H557.246V1191.2H320.323V1163.66H325.834V1141.62H425.011V1003.91H441.54V629.338H706.011V645.863H458.07V1141.62Z" stroke="#565E76" stroke-width="2"/>
<path d="M21.5116 414.265H550.463V446.316H458.07V535.698H441.54V446.316H56.774V1141.79H127.302V1164.23H136.919V1189.87H21.5116V414.265Z" stroke="#565E76" stroke-width="2"/>
</g>
</g>
<path d="M1672.02 456.419L1662 456.419L1662 453.044L1687.59 453.044L1687.59 462.483C1687.59 465.284 1686.88 467.476 1685.45 469.058C1684.02 470.651 1682.13 471.448 1679.77 471.448C1677.29 471.448 1675.37 470.669 1674.02 469.11C1672.69 467.563 1672.02 465.343 1672.02 462.448L1672.02 456.419ZM1674.78 456.419L1674.78 462.483C1674.78 464.288 1675.2 465.671 1676.04 466.632C1676.9 467.593 1678.13 468.073 1679.74 468.073C1681.26 468.073 1682.48 467.593 1683.39 466.632C1684.31 465.671 1684.78 464.353 1684.82 462.677L1684.82 456.419L1674.78 456.419ZM1662 478.778L1662 475.526L1689 475.526L1689 478.778L1662 478.778ZM1663.88 495.741C1662.39 494.476 1661.65 492.618 1661.65 490.169C1661.65 488.142 1662.23 486.595 1663.41 485.528C1664.59 484.474 1666.34 483.94 1668.64 483.929L1681.02 483.929L1681.02 487.181L1668.73 487.181C1665.85 487.181 1664.41 488.353 1664.41 490.696C1664.41 493.181 1665.33 494.833 1667.19 495.653L1681.02 495.653L1681.02 498.905L1662 498.905L1662 495.812L1663.88 495.741ZM1681.02 506.921L1678.91 507.009C1680.55 508.403 1681.37 510.284 1681.37 512.651C1681.37 515.312 1680.35 517.122 1678.31 518.083C1679.23 518.716 1679.96 519.536 1680.53 520.544C1681.09 521.563 1681.37 522.765 1681.37 524.147C1681.37 528.319 1679.16 530.44 1674.74 530.511L1662 530.511L1662 527.259L1674.55 527.259C1675.91 527.259 1676.92 526.948 1677.59 526.327C1678.27 525.706 1678.61 524.663 1678.61 523.198C1678.61 521.991 1678.25 520.989 1677.52 520.192C1676.81 519.396 1675.84 518.933 1674.62 518.804L1662 518.804L1662 515.534L1674.46 515.534C1677.23 515.534 1678.61 514.181 1678.61 511.474C1678.61 509.341 1677.7 507.882 1675.89 507.097L1662 507.097L1662 503.845L1681.02 503.845L1681.02 506.921ZM1667.04 546.507C1667.92 546.507 1668.6 546.173 1669.08 545.505C1669.58 544.849 1670 543.694 1670.35 542.042C1670.7 540.401 1671.12 539.095 1671.62 538.122C1672.11 537.161 1672.69 536.446 1673.37 535.978C1674.05 535.521 1674.86 535.292 1675.8 535.292C1677.36 535.292 1678.68 535.948 1679.75 537.261C1680.83 538.585 1681.37 540.272 1681.37 542.323C1681.37 544.479 1680.81 546.226 1679.7 547.562C1678.59 548.909 1677.16 549.583 1675.43 549.583L1675.43 546.313C1676.32 546.313 1677.09 545.933 1677.73 545.171C1678.38 544.421 1678.7 543.472 1678.7 542.323C1678.7 541.14 1678.44 540.214 1677.93 539.546C1677.41 538.878 1676.74 538.544 1675.9 538.544C1675.12 538.544 1674.53 538.854 1674.13 539.476C1673.73 540.097 1673.35 541.216 1672.99 542.833C1672.62 544.462 1672.19 545.78 1671.69 546.788C1671.18 547.796 1670.57 548.54 1669.86 549.021C1669.15 549.513 1668.29 549.759 1667.27 549.759C1665.57 549.759 1664.21 549.079 1663.18 547.72C1662.16 546.36 1661.65 544.597 1661.65 542.429C1661.65 540.905 1661.92 539.558 1662.46 538.386C1663 537.214 1663.75 536.294 1664.71 535.626C1665.68 534.97 1666.73 534.642 1667.85 534.642L1667.85 537.894C1666.76 537.952 1665.9 538.386 1665.25 539.194C1664.62 540.015 1664.3 541.093 1664.3 542.429C1664.3 543.659 1664.55 544.644 1665.04 545.382C1665.54 546.132 1666.21 546.507 1667.04 546.507ZM1685.63 558.407L1681.02 558.407L1681.02 561.958L1678.51 561.958L1678.51 558.407L1666.71 558.407C1665.95 558.407 1665.38 558.565 1664.99 558.882C1664.61 559.198 1664.43 559.737 1664.43 560.499C1664.43 560.874 1664.5 561.39 1664.64 562.046L1662 562.046C1661.77 561.19 1661.65 560.358 1661.65 559.55C1661.65 558.097 1662.09 557.001 1662.97 556.263C1663.85 555.524 1665.09 555.155 1666.71 555.155L1678.51 555.155L1678.51 551.692L1681.02 551.692L1681.02 555.155L1685.63 555.155L1685.63 558.407ZM1661.65 573.665C1661.65 571.087 1662.49 568.989 1664.18 567.372C1665.88 565.755 1668.15 564.946 1670.98 564.946L1671.58 564.946C1673.47 564.946 1675.15 565.304 1676.63 566.019C1678.11 566.745 1679.27 567.753 1680.11 569.042C1680.95 570.343 1681.37 571.749 1681.37 573.261C1681.37 575.733 1680.56 577.655 1678.93 579.026C1677.3 580.397 1674.97 581.083 1671.93 581.083L1670.58 581.083L1670.58 568.198C1668.7 568.245 1667.19 568.79 1666.03 569.833C1664.88 570.888 1664.3 572.224 1664.3 573.841C1664.3 574.989 1664.54 575.962 1665.01 576.759C1665.47 577.556 1666.1 578.253 1666.87 578.851L1665.32 580.837C1662.87 579.243 1661.65 576.853 1661.65 573.665ZM1678.7 573.261C1678.7 571.948 1678.22 570.847 1677.26 569.956C1676.31 569.065 1674.97 568.515 1673.25 568.304L1673.25 577.831L1673.5 577.831C1675.15 577.737 1676.43 577.292 1677.33 576.495C1678.24 575.698 1678.7 574.62 1678.7 573.261ZM1662 596.604C1662.38 596.417 1663.04 596.265 1664 596.147C1662.43 594.636 1661.65 592.831 1661.65 590.733C1661.65 588.858 1662.18 587.317 1663.23 586.11C1664.3 584.915 1665.64 584.317 1667.27 584.317C1669.25 584.317 1670.79 585.067 1671.88 586.567C1672.98 588.079 1673.53 590.2 1673.53 592.931L1673.53 596.095L1675.03 596.095C1676.16 596.095 1677.06 595.755 1677.73 595.075C1678.41 594.396 1678.75 593.394 1678.75 592.069C1678.75 590.909 1678.46 589.937 1677.87 589.151C1677.29 588.366 1676.58 587.974 1675.75 587.974L1675.75 584.704C1676.7 584.704 1677.61 585.038 1678.49 585.706C1679.38 586.386 1680.08 587.3 1680.6 588.448C1681.11 589.608 1681.37 590.88 1681.37 592.263C1681.37 594.454 1680.82 596.171 1679.72 597.413C1678.63 598.655 1677.12 599.3 1675.2 599.347L1666.45 599.347C1664.7 599.347 1663.31 599.569 1662.28 600.015L1662 600.015L1662 596.604ZM1664.48 591.208C1664.48 592.228 1664.74 593.194 1665.27 594.108C1665.8 595.022 1666.48 595.685 1667.33 596.095L1671.23 596.095L1671.23 593.546C1671.23 589.562 1670.06 587.569 1667.73 587.569C1666.71 587.569 1665.91 587.909 1665.34 588.589C1664.77 589.269 1664.48 590.142 1664.48 591.208ZM1671.67 603.653C1674.59 603.653 1676.93 604.345 1678.7 605.728C1680.48 607.11 1681.37 608.921 1681.37 611.159C1681.37 613.386 1680.61 615.149 1679.09 616.45L1689 616.45L1689 619.702L1662 619.702L1662 616.714L1664.04 616.556C1662.45 615.255 1661.65 613.444 1661.65 611.124C1661.65 608.921 1662.55 607.122 1664.36 605.728C1666.16 604.345 1668.52 603.653 1671.42 603.653L1671.67 603.653ZM1671.3 606.905C1669.14 606.905 1667.46 607.351 1666.24 608.241C1665.02 609.132 1664.41 610.362 1664.41 611.933C1664.41 613.995 1665.33 615.501 1667.19 616.45L1675.92 616.45C1677.71 615.478 1678.61 613.983 1678.61 611.968C1678.61 610.374 1678 609.132 1676.77 608.241C1675.54 607.351 1673.71 606.905 1671.3 606.905ZM1672.35 643.591L1672.35 637.579L1662 637.579L1662 634.187L1687.59 634.187L1687.59 642.659C1687.59 645.542 1686.94 647.757 1685.63 649.304C1684.31 650.862 1682.4 651.642 1679.89 651.642C1678.3 651.642 1676.91 651.208 1675.73 650.341C1674.54 649.485 1673.66 648.29 1673.07 646.755L1662.21 652.767L1662 652.767L1662 649.146L1672.35 643.591ZM1675.11 637.579L1675.11 642.765C1675.11 644.44 1675.55 645.771 1676.41 646.755C1677.28 647.751 1678.44 648.249 1679.89 648.249C1681.48 648.249 1682.69 647.774 1683.53 646.825C1684.38 645.888 1684.8 644.528 1684.82 642.747L1684.82 637.579L1675.11 637.579ZM1671.67 655.087C1674.59 655.087 1676.93 655.778 1678.7 657.161C1680.48 658.544 1681.37 660.354 1681.37 662.593C1681.37 664.819 1680.61 666.583 1679.09 667.884L1689 667.884L1689 671.136L1662 671.136L1662 668.147L1664.04 667.989C1662.45 666.688 1661.65 664.878 1661.65 662.558C1661.65 660.354 1662.55 658.556 1664.36 657.161C1666.16 655.778 1668.52 655.087 1671.42 655.087L1671.67 655.087ZM1671.3 658.339C1669.14 658.339 1667.46 658.784 1666.24 659.675C1665.02 660.565 1664.41 661.796 1664.41 663.366C1664.41 665.429 1665.33 666.935 1667.19 667.884L1675.92 667.884C1677.71 666.911 1678.61 665.417 1678.61 663.401C1678.61 661.808 1678 660.565 1676.77 659.675C1675.54 658.784 1673.71 658.339 1671.3 658.339Z" fill="#565E76"/>
<defs>
<clipPath id="clip0">
<rect width="1773" height="1266.11" fill="white" transform="translate(1773 1266.11) rotate(-180)"/>
</clipPath>
</defs>
</svg>
