<svg width="1773" height="1267" viewBox="0 0 1773 1267" fill="none" xmlns="http://www.w3.org/2000/svg">
<g clip-path="url(#clip0)">
<path d="M1773 0H0V1266.11H1773V0Z" fill="white"/>
<path d="M1731.65 835.372V76.2461H169.445V1057.46H820.365V835.372H1731.65Z" fill="#F4F4F5"/>
<path d="M1621.82 533.892H1453.15V365.224H1621.82V533.892Z" fill="#565E76"/>
<path d="M1502.08 406.588V411.193H1505.63V413.707H1502.08V425.502C1502.08 426.264 1502.24 426.838 1502.56 427.225C1502.87 427.6 1503.41 427.787 1504.17 427.787C1504.55 427.787 1505.06 427.717 1505.72 427.576V430.213C1504.86 430.447 1504.03 430.564 1503.22 430.564C1501.77 430.564 1500.67 430.125 1499.94 429.246C1499.2 428.367 1498.83 427.119 1498.83 425.502V413.707H1495.37V411.193H1498.83V406.588H1502.08ZM1508.23 420.527C1508.23 418.664 1508.6 416.988 1509.32 415.5C1510.06 414.012 1511.08 412.863 1512.38 412.055C1513.69 411.246 1515.19 410.842 1516.86 410.842C1519.45 410.842 1521.55 411.738 1523.14 413.531C1524.74 415.324 1525.55 417.709 1525.55 420.686V420.914C1525.55 422.766 1525.19 424.43 1524.48 425.906C1523.77 427.371 1522.76 428.514 1521.43 429.334C1520.12 430.154 1518.61 430.564 1516.9 430.564C1514.32 430.564 1512.23 429.668 1510.62 427.875C1509.03 426.082 1508.23 423.709 1508.23 420.756V420.527ZM1511.5 420.914C1511.5 423.023 1511.99 424.717 1512.96 425.994C1513.95 427.271 1515.26 427.91 1516.9 427.91C1518.55 427.91 1519.86 427.266 1520.84 425.977C1521.81 424.676 1522.3 422.859 1522.3 420.527C1522.3 418.441 1521.8 416.754 1520.8 415.465C1519.82 414.164 1518.5 413.514 1516.86 413.514C1515.26 413.514 1513.96 414.152 1512.98 415.43C1511.99 416.707 1511.5 418.535 1511.5 420.914ZM1534.04 406.588V411.193H1537.59V413.707H1534.04V425.502C1534.04 426.264 1534.2 426.838 1534.51 427.225C1534.83 427.6 1535.37 427.787 1536.13 427.787C1536.5 427.787 1537.02 427.717 1537.68 427.576V430.213C1536.82 430.447 1535.99 430.564 1535.18 430.564C1533.73 430.564 1532.63 430.125 1531.89 429.246C1531.16 428.367 1530.79 427.119 1530.79 425.502V413.707H1527.32V411.193H1530.79V406.588H1534.04ZM1553.15 430.213C1552.96 429.838 1552.81 429.17 1552.69 428.209C1551.18 429.779 1549.37 430.564 1547.27 430.564C1545.4 430.564 1543.86 430.037 1542.65 428.982C1541.46 427.916 1540.86 426.568 1540.86 424.939C1540.86 422.959 1541.61 421.424 1543.11 420.334C1544.62 419.232 1546.74 418.682 1549.47 418.682H1552.64V417.188C1552.64 416.051 1552.3 415.148 1551.62 414.48C1550.94 413.801 1549.93 413.461 1548.61 413.461C1547.45 413.461 1546.48 413.754 1545.69 414.34C1544.91 414.926 1544.51 415.635 1544.51 416.467H1541.24C1541.24 415.518 1541.58 414.604 1542.25 413.725C1542.93 412.834 1543.84 412.131 1544.99 411.615C1546.15 411.1 1547.42 410.842 1548.8 410.842C1550.99 410.842 1552.71 411.393 1553.95 412.494C1555.2 413.584 1555.84 415.09 1555.89 417.012V425.766C1555.89 427.512 1556.11 428.9 1556.56 429.932V430.213H1553.15ZM1547.75 427.734C1548.77 427.734 1549.74 427.471 1550.65 426.943C1551.56 426.416 1552.23 425.73 1552.64 424.887V420.984H1550.09C1546.1 420.984 1544.11 422.15 1544.11 424.482C1544.11 425.502 1544.45 426.299 1545.13 426.873C1545.81 427.447 1546.68 427.734 1547.75 427.734ZM1564.52 430.213H1561.27V403.213H1564.52V430.213Z" fill="white"/>
<path d="M1586.37 448.841C1586.15 448.914 1586.07 449.06 1586.15 449.279L1586.55 450.412C1586.62 450.595 1586.77 450.668 1586.95 450.595L1587.97 450.302C1588.74 450.046 1589.62 449.864 1590.57 449.864C1592.1 449.864 1593.13 450.631 1593.13 451.764C1593.13 452.458 1592.65 453.08 1591.81 453.664L1588.56 455.784C1586.77 456.953 1586 458.598 1586 460.9V461.777C1586 461.997 1586.11 462.106 1586.33 462.106H1594.62C1594.84 462.106 1594.95 461.997 1594.95 461.777V460.608C1594.95 460.389 1594.84 460.279 1594.62 460.279H1588.01C1588.01 459.073 1588.41 458.123 1589.54 457.392L1592.83 455.236C1594.41 454.213 1595.14 453.116 1595.14 451.764C1595.14 449.389 1593.38 448 1590.57 448C1589.44 448 1588.41 448.183 1587.35 448.512L1586.37 448.841Z" fill="white"/>
<path d="M1478.73 466.314H1481.15C1482.49 466.314 1483.67 466.08 1484.67 465.611C1485.67 465.13 1486.43 464.479 1486.95 463.658C1487.49 462.825 1487.75 461.868 1487.75 460.787C1487.75 458.964 1487.24 457.538 1486.21 456.51C1485.18 455.481 1483.7 454.967 1481.78 454.967C1479.95 454.967 1478.46 455.507 1477.29 456.588C1476.13 457.656 1475.55 459.068 1475.55 460.826H1473.2C1473.2 459.355 1473.57 458.014 1474.32 456.803C1475.06 455.579 1476.09 454.635 1477.4 453.971C1478.72 453.307 1480.18 452.975 1481.78 452.975C1484.36 452.975 1486.39 453.678 1487.87 455.084C1489.36 456.49 1490.1 458.417 1490.1 460.865C1490.1 462.232 1489.66 463.495 1488.79 464.654C1487.93 465.8 1486.74 466.66 1485.23 467.232C1487.01 467.727 1488.35 468.58 1489.26 469.791C1490.17 470.989 1490.63 472.421 1490.63 474.088C1490.63 476.523 1489.83 478.482 1488.24 479.967C1486.65 481.451 1484.53 482.193 1481.88 482.193C1480.18 482.193 1478.63 481.855 1477.21 481.178C1475.8 480.501 1474.71 479.557 1473.93 478.346C1473.16 477.122 1472.77 475.702 1472.77 474.088H1475.12C1475.12 475.898 1475.75 477.376 1477.01 478.521C1478.27 479.654 1479.9 480.221 1481.88 480.221C1483.89 480.221 1485.46 479.706 1486.58 478.678C1487.71 477.636 1488.28 476.132 1488.28 474.166C1488.28 472.265 1487.67 470.813 1486.45 469.811C1485.23 468.808 1483.44 468.307 1481.07 468.307H1478.73V466.314ZM1513.54 481.803H1495.72V480.006L1505.47 468.951C1507.08 467.089 1508.2 465.553 1508.83 464.342C1509.45 463.131 1509.77 461.952 1509.77 460.807C1509.77 459.01 1509.24 457.59 1508.18 456.549C1507.13 455.494 1505.68 454.967 1503.83 454.967C1501.91 454.967 1500.36 455.579 1499.18 456.803C1498.01 458.027 1497.42 459.615 1497.42 461.568H1495.1C1495.1 459.967 1495.46 458.508 1496.17 457.193C1496.9 455.878 1497.93 454.85 1499.26 454.107C1500.6 453.352 1502.12 452.975 1503.83 452.975C1506.43 452.975 1508.46 453.658 1509.92 455.025C1511.39 456.393 1512.13 458.255 1512.13 460.611C1512.13 461.939 1511.71 463.391 1510.88 464.967C1510.06 466.542 1508.61 468.508 1506.52 470.865L1498.59 479.83H1513.54V481.803ZM1535.06 469.947C1535.06 473.958 1534.32 477.005 1532.85 479.088C1531.38 481.158 1529.21 482.193 1526.35 482.193C1523.54 482.193 1521.38 481.178 1519.88 479.146C1518.39 477.102 1517.62 474.133 1517.58 470.24V465.143C1517.58 461.145 1518.32 458.118 1519.8 456.061C1521.29 454.003 1523.46 452.975 1526.31 452.975C1529.12 452.975 1531.27 453.971 1532.75 455.963C1534.24 457.942 1535.01 460.865 1535.06 464.732V469.947ZM1532.71 464.85C1532.71 461.594 1532.18 459.133 1531.11 457.467C1530.06 455.8 1528.46 454.967 1526.31 454.967C1524.2 454.967 1522.61 455.781 1521.54 457.408C1520.48 459.036 1519.93 461.438 1519.9 464.615V470.201C1519.9 473.443 1520.45 475.924 1521.54 477.643C1522.65 479.361 1524.25 480.221 1526.35 480.221C1528.43 480.221 1530.01 479.381 1531.07 477.701C1532.16 476.021 1532.7 473.561 1532.71 470.318V464.85ZM1552.32 460.67L1552.4 464.107C1553.18 462.831 1554.16 461.874 1555.33 461.236C1556.5 460.598 1557.81 460.279 1559.24 460.279C1562.57 460.279 1564.69 461.646 1565.59 464.381C1566.34 463.066 1567.35 462.057 1568.61 461.354C1569.88 460.637 1571.27 460.279 1572.79 460.279C1577.32 460.279 1579.64 462.753 1579.73 467.701V481.803H1577.38V467.877C1577.37 465.989 1576.96 464.589 1576.15 463.678C1575.36 462.766 1574.06 462.311 1572.25 462.311C1570.57 462.337 1569.15 462.883 1567.99 463.951C1566.83 465.006 1566.19 466.295 1566.05 467.818V481.803H1563.71V467.701C1563.7 465.891 1563.27 464.544 1562.42 463.658C1561.59 462.76 1560.3 462.311 1558.55 462.311C1557.08 462.311 1555.82 462.734 1554.77 463.58C1553.71 464.413 1552.93 465.657 1552.42 467.311V481.803H1550.08V460.67H1552.32Z" fill="white"/>
<path d="M304.03 426.774L301.944 428.942V434.708H299.694V417.646H301.944V426.083L309.526 417.646H312.245L305.53 425.181L312.772 434.708H310.077L304.03 426.774ZM316.756 434.708H314.588V422.028H316.756V434.708ZM314.413 418.665C314.413 418.313 314.518 418.017 314.729 417.774C314.948 417.532 315.268 417.411 315.69 417.411C316.112 417.411 316.432 417.532 316.651 417.774C316.87 418.017 316.979 418.313 316.979 418.665C316.979 419.017 316.87 419.31 316.651 419.544C316.432 419.778 316.112 419.896 315.69 419.896C315.268 419.896 314.948 419.778 314.729 419.544C314.518 419.31 314.413 419.017 314.413 418.665ZM323.178 418.958V422.028H325.545V423.704H323.178V431.567C323.178 432.075 323.284 432.458 323.495 432.716C323.706 432.966 324.065 433.091 324.573 433.091C324.823 433.091 325.167 433.044 325.604 432.95V434.708C325.034 434.864 324.479 434.942 323.94 434.942C322.971 434.942 322.241 434.649 321.749 434.063C321.256 433.478 321.01 432.646 321.01 431.567V423.704H318.702V422.028H321.01V418.958H323.178ZM333.174 433.173C333.948 433.173 334.624 432.938 335.202 432.47C335.78 432.001 336.1 431.415 336.163 430.712H338.213C338.174 431.438 337.924 432.13 337.463 432.786C337.002 433.442 336.385 433.966 335.612 434.356C334.846 434.747 334.034 434.942 333.174 434.942C331.448 434.942 330.073 434.368 329.049 433.22C328.034 432.063 327.526 430.485 327.526 428.485V428.122C327.526 426.888 327.752 425.79 328.206 424.829C328.659 423.868 329.307 423.122 330.151 422.591C331.002 422.06 332.006 421.794 333.163 421.794C334.584 421.794 335.764 422.22 336.702 423.071C337.647 423.923 338.151 425.028 338.213 426.388H336.163C336.1 425.567 335.788 424.896 335.225 424.372C334.67 423.841 333.983 423.575 333.163 423.575C332.061 423.575 331.206 423.974 330.596 424.771C329.995 425.56 329.694 426.704 329.694 428.204V428.614C329.694 430.075 329.995 431.2 330.596 431.989C331.198 432.778 332.057 433.173 333.174 433.173ZM342.819 423.563C343.78 422.384 345.03 421.794 346.569 421.794C349.249 421.794 350.6 423.306 350.624 426.329V434.708H348.456V426.317C348.448 425.403 348.237 424.728 347.823 424.29C347.417 423.853 346.78 423.634 345.913 423.634C345.209 423.634 344.592 423.821 344.061 424.196C343.53 424.571 343.116 425.063 342.819 425.673V434.708H340.651V416.708H342.819V423.563ZM359.131 434.942C357.413 434.942 356.014 434.38 354.936 433.255C353.858 432.122 353.319 430.61 353.319 428.72V428.321C353.319 427.063 353.557 425.942 354.034 424.958C354.518 423.966 355.19 423.192 356.049 422.638C356.917 422.075 357.854 421.794 358.862 421.794C360.51 421.794 361.792 422.337 362.706 423.423C363.62 424.509 364.077 426.063 364.077 428.087V428.989H355.487C355.518 430.239 355.881 431.251 356.577 432.024C357.28 432.79 358.17 433.173 359.249 433.173C360.014 433.173 360.663 433.017 361.194 432.704C361.725 432.392 362.19 431.978 362.588 431.462L363.913 432.493C362.85 434.126 361.256 434.942 359.131 434.942ZM358.862 423.575C357.987 423.575 357.252 423.896 356.659 424.536C356.065 425.169 355.698 426.06 355.557 427.208H361.909V427.044C361.846 425.942 361.549 425.091 361.018 424.489C360.487 423.88 359.768 423.575 358.862 423.575ZM368.647 422.028L368.717 423.622C369.686 422.403 370.952 421.794 372.514 421.794C375.194 421.794 376.545 423.306 376.569 426.329V434.708H374.401V426.317C374.393 425.403 374.182 424.728 373.768 424.29C373.362 423.853 372.725 423.634 371.858 423.634C371.155 423.634 370.538 423.821 370.006 424.196C369.475 424.571 369.061 425.063 368.764 425.673V434.708H366.596V422.028H368.647Z" fill="#565E76"/>
<path d="M313.651 479.551H299.31V477.104L306.415 469.355C307.44 468.213 308.167 467.261 308.597 466.499C309.037 465.728 309.256 464.956 309.256 464.185C309.256 463.169 308.968 462.349 308.392 461.724C307.826 461.099 307.059 460.786 306.092 460.786C304.94 460.786 304.046 461.138 303.412 461.841C302.777 462.544 302.459 463.506 302.459 464.727H298.9C298.9 463.428 299.193 462.261 299.779 461.226C300.375 460.181 301.219 459.37 302.313 458.794C303.417 458.218 304.686 457.93 306.122 457.93C308.192 457.93 309.823 458.452 311.014 459.497C312.215 460.532 312.816 461.968 312.816 463.804C312.816 464.868 312.513 465.986 311.908 467.158C311.312 468.32 310.331 469.644 308.963 471.128L303.749 476.709H313.651V479.551ZM326 479.551H322.455V462.427L317.225 464.214V461.211L325.545 458.149H326V479.551ZM335.858 475.801C336.522 475.801 337.035 475.991 337.396 476.372C337.757 476.743 337.938 477.212 337.938 477.778C337.938 478.335 337.757 478.799 337.396 479.17C337.035 479.531 336.522 479.712 335.858 479.712C335.223 479.712 334.72 479.531 334.349 479.17C333.978 478.809 333.792 478.345 333.792 477.778C333.792 477.212 333.973 476.743 334.334 476.372C334.696 475.991 335.204 475.801 335.858 475.801ZM342.743 468.975L343.9 458.223H355.355V461.299H346.859L346.273 466.396C347.259 465.83 348.373 465.547 349.613 465.547C351.644 465.547 353.221 466.196 354.344 467.495C355.477 468.794 356.043 470.542 356.043 472.739C356.043 474.907 355.418 476.636 354.168 477.925C352.918 479.204 351.205 479.844 349.027 479.844C347.074 479.844 345.453 479.292 344.164 478.188C342.884 477.075 342.191 475.61 342.083 473.794H345.526C345.663 474.829 346.034 475.625 346.639 476.182C347.245 476.729 348.036 477.002 349.012 477.002C350.106 477.002 350.956 476.611 351.561 475.83C352.176 475.049 352.484 473.984 352.484 472.637C352.484 471.338 352.147 470.312 351.473 469.561C350.799 468.799 349.872 468.418 348.69 468.418C348.045 468.418 347.499 468.506 347.049 468.682C346.6 468.848 346.112 469.18 345.584 469.678L342.743 468.975ZM369.886 463.701L369.989 465.356C371.102 464.058 372.625 463.408 374.559 463.408C376.678 463.408 378.128 464.219 378.91 465.84C380.062 464.219 381.683 463.408 383.773 463.408C385.521 463.408 386.82 463.892 387.669 464.858C388.529 465.825 388.968 467.251 388.988 469.136V479.551H385.428V469.238C385.428 468.232 385.208 467.495 384.769 467.026C384.33 466.558 383.602 466.323 382.586 466.323C381.776 466.323 381.112 466.543 380.594 466.982C380.086 467.412 379.73 467.979 379.525 468.682L379.54 479.551H375.98V469.121C375.931 467.256 374.979 466.323 373.124 466.323C371.698 466.323 370.687 466.904 370.091 468.066V479.551H366.532V463.701H369.886Z" fill="#565E76"/>
<path d="M399.906 464H393.692V462.94L396.771 459.582C397.215 459.087 397.53 458.674 397.716 458.344C397.907 458.01 398.002 457.676 398.002 457.341C398.002 456.901 397.877 456.546 397.627 456.275C397.382 456.004 397.05 455.869 396.631 455.869C396.132 455.869 395.744 456.021 395.469 456.326C395.194 456.63 395.057 457.047 395.057 457.576H393.514C393.514 457.013 393.641 456.508 393.895 456.059C394.153 455.606 394.519 455.255 394.993 455.005C395.471 454.756 396.021 454.631 396.644 454.631C397.541 454.631 398.247 454.857 398.764 455.31C399.284 455.759 399.544 456.381 399.544 457.176C399.544 457.638 399.413 458.122 399.151 458.63C398.893 459.133 398.467 459.707 397.875 460.35L395.615 462.769H399.906V464Z" fill="#565E76"/>
<path d="M682.626 346.169V329.106H688.205C690.056 329.106 691.447 329.489 692.376 330.255C693.314 331.021 693.783 332.153 693.783 333.653C693.783 334.45 693.556 335.157 693.103 335.774C692.65 336.384 692.033 336.856 691.251 337.192C692.173 337.45 692.9 337.942 693.431 338.669C693.97 339.388 694.24 340.247 694.24 341.247C694.24 342.778 693.744 343.981 692.751 344.856C691.759 345.731 690.357 346.169 688.544 346.169H682.626ZM684.876 338.188V344.329H688.591C689.638 344.329 690.462 344.06 691.064 343.521C691.673 342.974 691.978 342.224 691.978 341.271C691.978 339.216 690.861 338.188 688.626 338.188H684.876ZM684.876 336.384H688.275C689.259 336.384 690.044 336.138 690.63 335.646C691.224 335.153 691.521 334.485 691.521 333.642C691.521 332.704 691.248 332.024 690.701 331.603C690.154 331.173 689.322 330.958 688.205 330.958H684.876V336.384ZM702.501 346.403C700.783 346.403 699.384 345.841 698.306 344.716C697.228 343.583 696.689 342.071 696.689 340.181V339.782C696.689 338.524 696.927 337.403 697.404 336.419C697.888 335.427 698.56 334.653 699.419 334.099C700.287 333.536 701.224 333.255 702.232 333.255C703.88 333.255 705.162 333.798 706.076 334.884C706.99 335.97 707.447 337.524 707.447 339.548V340.45H698.857C698.888 341.7 699.251 342.712 699.947 343.485C700.65 344.251 701.541 344.634 702.619 344.634C703.384 344.634 704.033 344.478 704.564 344.165C705.095 343.853 705.56 343.438 705.958 342.923L707.283 343.954C706.22 345.587 704.626 346.403 702.501 346.403ZM702.232 335.036C701.357 335.036 700.623 335.356 700.029 335.997C699.435 336.63 699.068 337.521 698.927 338.669H705.279V338.505C705.216 337.403 704.919 336.552 704.388 335.95C703.857 335.341 703.138 335.036 702.232 335.036ZM709.439 339.724C709.439 337.778 709.9 336.216 710.822 335.036C711.744 333.849 712.951 333.255 714.443 333.255C715.927 333.255 717.103 333.763 717.97 334.778V328.169H720.138V346.169H718.146L718.041 344.81C717.173 345.872 715.966 346.403 714.419 346.403C712.951 346.403 711.751 345.802 710.822 344.599C709.9 343.396 709.439 341.825 709.439 339.888V339.724ZM711.607 339.97C711.607 341.407 711.904 342.532 712.498 343.345C713.091 344.157 713.912 344.563 714.958 344.563C716.333 344.563 717.337 343.946 717.97 342.712V336.888C717.322 335.692 716.326 335.095 714.982 335.095C713.919 335.095 713.091 335.505 712.498 336.325C711.904 337.146 711.607 338.36 711.607 339.97ZM729.642 335.435C729.314 335.38 728.958 335.353 728.576 335.353C727.154 335.353 726.189 335.958 725.681 337.169V346.169H723.513V333.489H725.623L725.658 334.954C726.369 333.821 727.376 333.255 728.681 333.255C729.103 333.255 729.423 333.31 729.642 333.419V335.435ZM730.837 339.712C730.837 338.47 731.08 337.353 731.564 336.36C732.056 335.368 732.736 334.603 733.603 334.063C734.478 333.524 735.474 333.255 736.591 333.255C738.318 333.255 739.712 333.853 740.775 335.048C741.845 336.243 742.38 337.833 742.38 339.817V339.97C742.38 341.204 742.142 342.313 741.666 343.298C741.197 344.274 740.521 345.036 739.638 345.583C738.763 346.13 737.755 346.403 736.615 346.403C734.896 346.403 733.501 345.806 732.431 344.61C731.369 343.415 730.837 341.833 730.837 339.864V339.712ZM733.017 339.97C733.017 341.376 733.341 342.505 733.99 343.356C734.646 344.208 735.521 344.634 736.615 344.634C737.716 344.634 738.591 344.204 739.24 343.345C739.888 342.478 740.212 341.267 740.212 339.712C740.212 338.321 739.88 337.196 739.216 336.337C738.56 335.47 737.685 335.036 736.591 335.036C735.521 335.036 734.658 335.462 734.001 336.313C733.345 337.165 733.017 338.384 733.017 339.97ZM744.525 339.712C744.525 338.47 744.767 337.353 745.251 336.36C745.744 335.368 746.423 334.603 747.291 334.063C748.166 333.524 749.162 333.255 750.279 333.255C752.005 333.255 753.4 333.853 754.462 335.048C755.533 336.243 756.068 337.833 756.068 339.817V339.97C756.068 341.204 755.83 342.313 755.353 343.298C754.884 344.274 754.208 345.036 753.326 345.583C752.451 346.13 751.443 346.403 750.302 346.403C748.583 346.403 747.189 345.806 746.119 344.61C745.056 343.415 744.525 341.833 744.525 339.864V339.712ZM746.705 339.97C746.705 341.376 747.029 342.505 747.677 343.356C748.333 344.208 749.208 344.634 750.302 344.634C751.404 344.634 752.279 344.204 752.927 343.345C753.576 342.478 753.9 341.267 753.9 339.712C753.9 338.321 753.568 337.196 752.904 336.337C752.248 335.47 751.373 335.036 750.279 335.036C749.208 335.036 748.345 335.462 747.689 336.313C747.033 337.165 746.705 338.384 746.705 339.97ZM760.826 333.489L760.884 334.896C761.814 333.802 763.068 333.255 764.646 333.255C766.419 333.255 767.626 333.935 768.267 335.294C768.689 334.685 769.236 334.192 769.908 333.817C770.587 333.442 771.388 333.255 772.31 333.255C775.091 333.255 776.505 334.728 776.552 337.673V346.169H774.384V337.802C774.384 336.896 774.177 336.22 773.763 335.774C773.349 335.321 772.654 335.095 771.677 335.095C770.873 335.095 770.205 335.337 769.673 335.821C769.142 336.298 768.833 336.942 768.748 337.755V346.169H766.568V337.86C766.568 336.017 765.666 335.095 763.861 335.095C762.439 335.095 761.466 335.7 760.943 336.911V346.169H758.775V333.489H760.826Z" fill="#565E76"/>
<path d="M686.359 378.722H688.527C689.621 378.712 690.485 378.429 691.12 377.872C691.764 377.315 692.086 376.51 692.086 375.455C692.086 374.439 691.818 373.653 691.281 373.097C690.753 372.53 689.943 372.247 688.849 372.247C687.892 372.247 687.106 372.525 686.491 373.082C685.875 373.629 685.568 374.347 685.568 375.235H682.008C682.008 374.142 682.296 373.146 682.873 372.247C683.458 371.349 684.269 370.65 685.304 370.152C686.349 369.645 687.516 369.391 688.805 369.391C690.934 369.391 692.604 369.928 693.815 371.002C695.036 372.066 695.646 373.551 695.646 375.455C695.646 376.412 695.338 377.315 694.723 378.165C694.118 379.005 693.332 379.64 692.365 380.069C693.537 380.47 694.425 381.1 695.031 381.959C695.646 382.818 695.954 383.844 695.954 385.035C695.954 386.949 695.294 388.473 693.976 389.605C692.667 390.738 690.944 391.305 688.805 391.305C686.754 391.305 685.075 390.758 683.766 389.664C682.458 388.57 681.803 387.115 681.803 385.299H685.363C685.363 386.236 685.675 386.998 686.3 387.584C686.935 388.17 687.785 388.463 688.849 388.463C689.953 388.463 690.822 388.17 691.457 387.584C692.091 386.998 692.409 386.148 692.409 385.035C692.409 383.912 692.077 383.048 691.413 382.442C690.749 381.837 689.762 381.534 688.454 381.534H686.359V378.722ZM713.195 382.032C713.195 385.099 712.619 387.413 711.466 388.976C710.324 390.528 708.581 391.305 706.237 391.305C703.932 391.305 702.194 390.548 701.022 389.034C699.86 387.511 699.264 385.26 699.235 382.281V378.59C699.235 375.523 699.806 373.224 700.949 371.69C702.101 370.157 703.854 369.391 706.208 369.391C708.542 369.391 710.28 370.138 711.422 371.632C712.575 373.126 713.166 375.362 713.195 378.341V382.032ZM709.635 378.048C709.635 376.046 709.362 374.581 708.815 373.653C708.268 372.716 707.399 372.247 706.208 372.247C705.045 372.247 704.191 372.691 703.644 373.58C703.097 374.459 702.809 375.836 702.78 377.711V382.545C702.78 384.537 703.058 386.021 703.615 386.998C704.171 387.975 705.045 388.463 706.237 388.463C707.379 388.463 708.224 388.014 708.771 387.115C709.318 386.207 709.606 384.791 709.635 382.867V378.048ZM718.791 387.262C719.455 387.262 719.967 387.452 720.329 387.833C720.69 388.204 720.871 388.673 720.871 389.239C720.871 389.796 720.69 390.26 720.329 390.631C719.967 390.992 719.455 391.173 718.791 391.173C718.156 391.173 717.653 390.992 717.282 390.631C716.911 390.27 716.725 389.806 716.725 389.239C716.725 388.673 716.906 388.204 717.267 387.833C717.628 387.452 718.136 387.262 718.791 387.262ZM734.362 391.012H730.817V373.888L725.587 375.675V372.672L733.908 369.61H734.362V391.012ZM742.726 380.436L743.883 369.684H755.338V372.76H746.842L746.256 377.857C747.243 377.291 748.356 377.008 749.596 377.008C751.627 377.008 753.205 377.657 754.328 378.956C755.46 380.255 756.027 382.003 756.027 384.2C756.027 386.368 755.402 388.097 754.152 389.386C752.902 390.665 751.188 391.305 749.01 391.305C747.057 391.305 745.436 390.753 744.147 389.649C742.868 388.536 742.174 387.071 742.067 385.255H745.509C745.646 386.29 746.017 387.086 746.623 387.643C747.228 388.189 748.019 388.463 748.996 388.463C750.089 388.463 750.939 388.072 751.544 387.291C752.16 386.51 752.467 385.445 752.467 384.098C752.467 382.799 752.13 381.773 751.457 381.021C750.783 380.26 749.855 379.879 748.673 379.879C748.029 379.879 747.482 379.967 747.033 380.143C746.583 380.309 746.095 380.641 745.568 381.139L742.726 380.436ZM769.87 375.162L769.972 376.817C771.085 375.519 772.609 374.869 774.542 374.869C776.662 374.869 778.112 375.68 778.893 377.301C780.045 375.68 781.667 374.869 783.756 374.869C785.504 374.869 786.803 375.353 787.653 376.319C788.512 377.286 788.952 378.712 788.971 380.597V391.012H785.412V380.699C785.412 379.693 785.192 378.956 784.752 378.487C784.313 378.019 783.585 377.784 782.57 377.784C781.759 377.784 781.095 378.004 780.578 378.443C780.07 378.873 779.713 379.439 779.508 380.143L779.523 391.012H775.963V380.582C775.915 378.717 774.962 377.784 773.107 377.784C771.681 377.784 770.67 378.365 770.075 379.527V391.012H766.515V375.162H769.87Z" fill="#565E76"/>
<path d="M800.906 376H794.692V374.94L797.771 371.582C798.215 371.087 798.53 370.674 798.716 370.344C798.907 370.01 799.002 369.676 799.002 369.341C799.002 368.901 798.877 368.546 798.627 368.275C798.382 368.004 798.05 367.869 797.631 367.869C797.132 367.869 796.744 368.021 796.469 368.326C796.194 368.63 796.057 369.047 796.057 369.576H794.514C794.514 369.013 794.641 368.508 794.895 368.059C795.153 367.606 795.519 367.255 795.993 367.005C796.471 366.756 797.021 366.631 797.644 366.631C798.541 366.631 799.247 366.857 799.764 367.31C800.284 367.759 800.544 368.381 800.544 369.176C800.544 369.638 800.413 370.122 800.151 370.63C799.893 371.133 799.467 371.707 798.875 372.35L796.615 374.769H800.906V376Z" fill="#565E76"/>
<path d="M818.588 729.102H816.326V721.215H807.725V729.102H805.475V712.039H807.725V719.375H816.326V712.039H818.588V729.102ZM830.073 729.102C829.948 728.852 829.846 728.406 829.768 727.766C828.76 728.812 827.557 729.336 826.158 729.336C824.908 729.336 823.881 728.984 823.076 728.281C822.28 727.57 821.881 726.672 821.881 725.586C821.881 724.266 822.381 723.242 823.381 722.516C824.389 721.781 825.803 721.414 827.623 721.414H829.733V720.418C829.733 719.66 829.506 719.059 829.053 718.613C828.6 718.16 827.932 717.934 827.049 717.934C826.276 717.934 825.627 718.129 825.104 718.52C824.58 718.91 824.319 719.383 824.319 719.938H822.139C822.139 719.305 822.362 718.695 822.807 718.109C823.26 717.516 823.869 717.047 824.635 716.703C825.408 716.359 826.256 716.188 827.178 716.188C828.639 716.188 829.783 716.555 830.612 717.289C831.44 718.016 831.869 719.02 831.901 720.301V726.137C831.901 727.301 832.049 728.227 832.346 728.914V729.102H830.073ZM826.475 727.449C827.155 727.449 827.799 727.273 828.408 726.922C829.018 726.57 829.459 726.113 829.733 725.551V722.949H828.033C825.377 722.949 824.049 723.727 824.049 725.281C824.049 725.961 824.276 726.492 824.729 726.875C825.182 727.258 825.764 727.449 826.475 727.449ZM837.655 729.102H835.487V711.102H837.655V729.102ZM843.49 729.102H841.323V711.102H843.49V729.102ZM858.198 726.113L860.635 716.422H862.803L859.112 729.102H857.354L854.272 719.492L851.272 729.102H849.514L845.834 716.422H847.99L850.487 725.914L853.44 716.422H855.186L858.198 726.113ZM872.846 729.102C872.721 728.852 872.619 728.406 872.541 727.766C871.533 728.812 870.33 729.336 868.932 729.336C867.682 729.336 866.655 728.984 865.85 728.281C865.053 727.57 864.655 726.672 864.655 725.586C864.655 724.266 865.155 723.242 866.155 722.516C867.162 721.781 868.576 721.414 870.397 721.414H872.506V720.418C872.506 719.66 872.28 719.059 871.826 718.613C871.373 718.16 870.705 717.934 869.823 717.934C869.049 717.934 868.401 718.129 867.877 718.52C867.354 718.91 867.092 719.383 867.092 719.938H864.912C864.912 719.305 865.135 718.695 865.58 718.109C866.033 717.516 866.643 717.047 867.408 716.703C868.182 716.359 869.03 716.188 869.951 716.188C871.412 716.188 872.557 716.555 873.385 717.289C874.213 718.016 874.643 719.02 874.674 720.301V726.137C874.674 727.301 874.823 728.227 875.119 728.914V729.102H872.846ZM869.248 727.449C869.928 727.449 870.573 727.273 871.182 726.922C871.791 726.57 872.233 726.113 872.506 725.551V722.949H870.807C868.151 722.949 866.823 723.727 866.823 725.281C866.823 725.961 867.049 726.492 867.502 726.875C867.955 727.258 868.537 727.449 869.248 727.449ZM882.033 725.926L884.987 716.422H887.307L882.209 731.059C881.42 733.168 880.166 734.223 878.448 734.223L878.037 734.188L877.229 734.035V732.277L877.815 732.324C878.549 732.324 879.119 732.176 879.526 731.879C879.94 731.582 880.28 731.039 880.545 730.25L881.026 728.961L876.502 716.422H878.869L882.033 725.926Z" fill="#565E76"/>
<path d="M814.73 773.944H811.185V756.82L805.955 758.607V755.604L814.276 752.543H814.73V773.944ZM834.183 766.342H836.834V769.198H834.183V773.944H830.623V769.198H821.409L821.307 767.03L830.506 752.616H834.183V766.342ZM825.042 766.342H830.623V757.436L830.36 757.904L825.042 766.342ZM841.639 770.194C842.303 770.194 842.816 770.385 843.177 770.766C843.538 771.137 843.719 771.605 843.719 772.172C843.719 772.729 843.538 773.192 843.177 773.563C842.816 773.925 842.303 774.105 841.639 774.105C841.004 774.105 840.501 773.925 840.13 773.563C839.759 773.202 839.573 772.738 839.573 772.172C839.573 771.605 839.754 771.137 840.115 770.766C840.477 770.385 840.985 770.194 841.639 770.194ZM857.21 773.944H853.665V756.82L848.436 758.607V755.604L856.756 752.543H857.21V773.944ZM865.574 763.368L866.732 752.616H878.187V755.692H869.691L869.105 760.79C870.091 760.224 871.204 759.94 872.445 759.94C874.476 759.94 876.053 760.59 877.176 761.889C878.309 763.188 878.875 764.936 878.875 767.133C878.875 769.301 878.25 771.029 877 772.318C875.75 773.598 874.036 774.237 871.859 774.237C869.906 774.237 868.284 773.686 866.995 772.582C865.716 771.469 865.023 770.004 864.915 768.188H868.358C868.494 769.223 868.865 770.019 869.471 770.575C870.076 771.122 870.867 771.396 871.844 771.396C872.938 771.396 873.787 771.005 874.393 770.224C875.008 769.442 875.316 768.378 875.316 767.03C875.316 765.731 874.979 764.706 874.305 763.954C873.631 763.192 872.703 762.812 871.522 762.812C870.877 762.812 870.33 762.899 869.881 763.075C869.432 763.241 868.944 763.573 868.416 764.071L865.574 763.368ZM892.718 758.095L892.821 759.75C893.934 758.451 895.457 757.802 897.391 757.802C899.51 757.802 900.96 758.612 901.741 760.233C902.894 758.612 904.515 757.802 906.605 757.802C908.353 757.802 909.652 758.285 910.501 759.252C911.361 760.219 911.8 761.645 911.82 763.529V773.944H908.26V763.632C908.26 762.626 908.04 761.889 907.601 761.42C907.161 760.951 906.434 760.717 905.418 760.717C904.608 760.717 903.944 760.937 903.426 761.376C902.918 761.806 902.562 762.372 902.357 763.075L902.371 773.944H898.812V763.515C898.763 761.649 897.811 760.717 895.955 760.717C894.53 760.717 893.519 761.298 892.923 762.46V773.944H889.364V758.095H892.718Z" fill="#565E76"/>
<path d="M922.906 758H916.692V756.94L919.771 753.582C920.215 753.087 920.53 752.674 920.716 752.344C920.907 752.01 921.002 751.676 921.002 751.341C921.002 750.901 920.877 750.546 920.627 750.275C920.382 750.004 920.05 749.869 919.631 749.869C919.132 749.869 918.744 750.021 918.469 750.326C918.194 750.63 918.057 751.047 918.057 751.576H916.514C916.514 751.013 916.641 750.508 916.895 750.059C917.153 749.606 917.519 749.255 917.993 749.005C918.471 748.756 919.021 748.631 919.644 748.631C920.541 748.631 921.247 748.857 921.764 749.31C922.284 749.759 922.544 750.381 922.544 751.176C922.544 751.638 922.413 752.122 922.151 752.63C921.893 753.133 921.467 753.707 920.875 754.35L918.615 756.769H922.906V758Z" fill="#565E76"/>
<path d="M316.295 931.635V914.572H321.873C323.725 914.572 325.115 914.955 326.045 915.721C326.983 916.486 327.451 917.619 327.451 919.119C327.451 919.916 327.225 920.623 326.772 921.24C326.319 921.85 325.701 922.322 324.92 922.658C325.842 922.916 326.569 923.408 327.1 924.135C327.639 924.854 327.908 925.713 327.908 926.713C327.908 928.244 327.412 929.447 326.42 930.322C325.428 931.197 324.026 931.635 322.213 931.635H316.295ZM318.545 923.654V929.795H322.26C323.307 929.795 324.131 929.525 324.733 928.986C325.342 928.439 325.647 927.689 325.647 926.736C325.647 924.682 324.53 923.654 322.295 923.654H318.545ZM318.545 921.85H321.944C322.928 921.85 323.713 921.604 324.299 921.111C324.893 920.619 325.19 919.951 325.19 919.107C325.19 918.17 324.916 917.49 324.369 917.068C323.823 916.639 322.99 916.424 321.873 916.424H318.545V921.85ZM338.737 931.635C338.612 931.385 338.51 930.939 338.432 930.299C337.424 931.346 336.221 931.869 334.823 931.869C333.573 931.869 332.545 931.518 331.74 930.814C330.944 930.104 330.545 929.205 330.545 928.119C330.545 926.799 331.045 925.775 332.045 925.049C333.053 924.314 334.467 923.947 336.287 923.947H338.397V922.951C338.397 922.193 338.17 921.592 337.717 921.146C337.264 920.693 336.596 920.467 335.713 920.467C334.94 920.467 334.291 920.662 333.768 921.053C333.244 921.443 332.983 921.916 332.983 922.471H330.803C330.803 921.838 331.026 921.229 331.471 920.643C331.924 920.049 332.533 919.58 333.299 919.236C334.073 918.893 334.92 918.721 335.842 918.721C337.303 918.721 338.448 919.088 339.276 919.822C340.104 920.549 340.533 921.553 340.565 922.834V928.67C340.565 929.834 340.713 930.76 341.01 931.447V931.635H338.737ZM335.139 929.982C335.819 929.982 336.463 929.807 337.073 929.455C337.682 929.104 338.123 928.646 338.397 928.084V925.482H336.698C334.041 925.482 332.713 926.26 332.713 927.814C332.713 928.494 332.94 929.025 333.393 929.408C333.846 929.791 334.428 929.982 335.139 929.982ZM346.905 915.885V918.955H349.272V920.631H346.905V928.494C346.905 929.002 347.01 929.385 347.221 929.643C347.432 929.893 347.791 930.018 348.299 930.018C348.549 930.018 348.893 929.971 349.33 929.877V931.635C348.76 931.791 348.205 931.869 347.666 931.869C346.698 931.869 345.967 931.576 345.475 930.99C344.983 930.404 344.737 929.572 344.737 928.494V920.631H342.428V918.955H344.737V915.885H346.905ZM353.983 920.49C354.944 919.311 356.194 918.721 357.733 918.721C360.412 918.721 361.764 920.232 361.787 923.256V931.635H359.619V923.244C359.612 922.33 359.401 921.654 358.987 921.217C358.58 920.779 357.944 920.561 357.076 920.561C356.373 920.561 355.756 920.748 355.225 921.123C354.694 921.498 354.28 921.99 353.983 922.6V931.635H351.815V913.635H353.983V920.49ZM371.162 920.9C370.834 920.846 370.479 920.818 370.096 920.818C368.674 920.818 367.709 921.424 367.201 922.635V931.635H365.033V918.955H367.143L367.178 920.42C367.889 919.287 368.897 918.721 370.201 918.721C370.623 918.721 370.944 918.775 371.162 918.885V920.9ZM372.358 925.178C372.358 923.936 372.6 922.818 373.084 921.826C373.576 920.834 374.256 920.068 375.123 919.529C375.998 918.99 376.994 918.721 378.112 918.721C379.838 918.721 381.233 919.318 382.295 920.514C383.365 921.709 383.901 923.299 383.901 925.283V925.436C383.901 926.67 383.662 927.779 383.186 928.764C382.717 929.74 382.041 930.502 381.158 931.049C380.283 931.596 379.276 931.869 378.135 931.869C376.416 931.869 375.022 931.271 373.951 930.076C372.889 928.881 372.358 927.299 372.358 925.33V925.178ZM374.537 925.436C374.537 926.842 374.862 927.971 375.51 928.822C376.166 929.674 377.041 930.1 378.135 930.1C379.237 930.1 380.112 929.67 380.76 928.811C381.408 927.943 381.733 926.732 381.733 925.178C381.733 923.787 381.401 922.662 380.737 921.803C380.08 920.936 379.205 920.502 378.112 920.502C377.041 920.502 376.178 920.928 375.522 921.779C374.865 922.631 374.537 923.85 374.537 925.436ZM386.045 925.178C386.045 923.936 386.287 922.818 386.772 921.826C387.264 920.834 387.944 920.068 388.811 919.529C389.686 918.99 390.682 918.721 391.799 918.721C393.526 918.721 394.92 919.318 395.983 920.514C397.053 921.709 397.588 923.299 397.588 925.283V925.436C397.588 926.67 397.35 927.779 396.873 928.764C396.405 929.74 395.729 930.502 394.846 931.049C393.971 931.596 392.963 931.869 391.823 931.869C390.104 931.869 388.709 931.271 387.639 930.076C386.576 928.881 386.045 927.299 386.045 925.33V925.178ZM388.225 925.436C388.225 926.842 388.549 927.971 389.198 928.822C389.854 929.674 390.729 930.1 391.823 930.1C392.924 930.1 393.799 929.67 394.448 928.811C395.096 927.943 395.42 926.732 395.42 925.178C395.42 923.787 395.088 922.662 394.424 921.803C393.768 920.936 392.893 920.502 391.799 920.502C390.729 920.502 389.865 920.928 389.209 921.779C388.553 922.631 388.225 923.85 388.225 925.436ZM402.346 918.955L402.405 920.361C403.334 919.268 404.588 918.721 406.166 918.721C407.94 918.721 409.147 919.4 409.787 920.76C410.209 920.15 410.756 919.658 411.428 919.283C412.108 918.908 412.908 918.721 413.83 918.721C416.612 918.721 418.026 920.193 418.073 923.139V931.635H415.905V923.268C415.905 922.361 415.698 921.686 415.283 921.24C414.869 920.787 414.174 920.561 413.198 920.561C412.393 920.561 411.725 920.803 411.194 921.287C410.662 921.764 410.354 922.408 410.268 923.221V931.635H408.088V923.326C408.088 921.482 407.186 920.561 405.381 920.561C403.959 920.561 402.987 921.166 402.463 922.377V931.635H400.295V918.955H402.346Z" fill="#565E76"/>
<path d="M325.55 976.478H322.005V959.354L316.776 961.141V958.138L325.096 955.076H325.55V976.478ZM347.303 976.478H332.962V974.031L340.067 966.282C341.092 965.14 341.82 964.188 342.249 963.426C342.689 962.654 342.908 961.883 342.908 961.111C342.908 960.096 342.62 959.275 342.044 958.65C341.478 958.025 340.711 957.713 339.744 957.713C338.592 957.713 337.698 958.064 337.064 958.768C336.429 959.471 336.112 960.433 336.112 961.653H332.552C332.552 960.354 332.845 959.188 333.431 958.152C334.027 957.107 334.871 956.297 335.965 955.721C337.069 955.145 338.338 954.856 339.774 954.856C341.844 954.856 343.475 955.379 344.666 956.424C345.867 957.459 346.468 958.895 346.468 960.73C346.468 961.795 346.165 962.913 345.56 964.085C344.964 965.247 343.983 966.57 342.615 968.055L337.401 973.636H347.303V976.478ZM352.459 972.728C353.123 972.728 353.636 972.918 353.997 973.299C354.359 973.67 354.539 974.139 354.539 974.705C354.539 975.262 354.359 975.726 353.997 976.097C353.636 976.458 353.123 976.639 352.459 976.639C351.824 976.639 351.322 976.458 350.95 976.097C350.579 975.735 350.394 975.271 350.394 974.705C350.394 974.139 350.574 973.67 350.936 973.299C351.297 972.918 351.805 972.728 352.459 972.728ZM368.031 976.478H364.486V959.354L359.256 961.141V958.138L367.576 955.076H368.031V976.478ZM376.395 965.901L377.552 955.149H389.007V958.226H380.511L379.925 963.323C380.911 962.757 382.025 962.474 383.265 962.474C385.296 962.474 386.873 963.123 387.996 964.422C389.129 965.721 389.696 967.469 389.696 969.666C389.696 971.834 389.071 973.562 387.821 974.852C386.571 976.131 384.857 976.771 382.679 976.771C380.726 976.771 379.105 976.219 377.816 975.115C376.536 974.002 375.843 972.537 375.736 970.721H379.178C379.315 971.756 379.686 972.552 380.291 973.108C380.897 973.655 381.688 973.929 382.664 973.929C383.758 973.929 384.608 973.538 385.213 972.757C385.828 971.976 386.136 970.911 386.136 969.563C386.136 968.265 385.799 967.239 385.125 966.487C384.451 965.726 383.524 965.345 382.342 965.345C381.698 965.345 381.151 965.433 380.701 965.608C380.252 965.774 379.764 966.106 379.237 966.604L376.395 965.901ZM403.538 960.628L403.641 962.283C404.754 960.984 406.278 960.335 408.211 960.335C410.33 960.335 411.781 961.146 412.562 962.767C413.714 961.146 415.335 960.335 417.425 960.335C419.173 960.335 420.472 960.818 421.322 961.785C422.181 962.752 422.62 964.178 422.64 966.062V976.478H419.08V966.165C419.08 965.159 418.861 964.422 418.421 963.953C417.982 963.484 417.254 963.25 416.239 963.25C415.428 963.25 414.764 963.47 414.246 963.909C413.739 964.339 413.382 964.905 413.177 965.608L413.192 976.478H409.632V966.048C409.583 964.183 408.631 963.25 406.776 963.25C405.35 963.25 404.339 963.831 403.743 964.993V976.478H400.184V960.628H403.538Z" fill="#565E76"/>
<path d="M433.906 959H427.692V957.94L430.771 954.582C431.215 954.087 431.53 953.674 431.716 953.344C431.907 953.01 432.002 952.676 432.002 952.341C432.002 951.901 431.877 951.546 431.627 951.275C431.382 951.004 431.05 950.869 430.631 950.869C430.132 950.869 429.744 951.021 429.469 951.326C429.194 951.63 429.057 952.047 429.057 952.576H427.514C427.514 952.013 427.641 951.508 427.895 951.059C428.153 950.606 428.519 950.255 428.993 950.005C429.471 949.756 430.021 949.631 430.644 949.631C431.541 949.631 432.247 949.857 432.764 950.31C433.284 950.759 433.544 951.381 433.544 952.176C433.544 952.638 433.413 953.122 433.151 953.63C432.893 954.133 432.467 954.707 431.875 955.35L429.615 957.769H433.906V959Z" fill="#565E76"/>
<path d="M1054.49 320.714V303.651H1060.07C1061.92 303.651 1063.31 304.034 1064.24 304.8C1065.18 305.565 1065.65 306.698 1065.65 308.198C1065.65 308.995 1065.42 309.702 1064.97 310.319C1064.52 310.929 1063.9 311.401 1063.12 311.737C1064.04 311.995 1064.77 312.487 1065.3 313.214C1065.84 313.933 1066.1 314.792 1066.1 315.792C1066.1 317.323 1065.61 318.526 1064.62 319.401C1063.62 320.276 1062.22 320.714 1060.41 320.714H1054.49ZM1056.74 312.733V318.874H1060.46C1061.5 318.874 1062.33 318.604 1062.93 318.065C1063.54 317.519 1063.84 316.769 1063.84 315.815C1063.84 313.761 1062.73 312.733 1060.49 312.733H1056.74ZM1056.74 310.929H1060.14C1061.12 310.929 1061.91 310.683 1062.5 310.19C1063.09 309.698 1063.39 309.03 1063.39 308.187C1063.39 307.249 1063.11 306.569 1062.57 306.147C1062.02 305.718 1061.19 305.503 1060.07 305.503H1056.74V310.929ZM1074.37 320.948C1072.65 320.948 1071.25 320.386 1070.17 319.261C1069.09 318.128 1068.55 316.616 1068.55 314.726V314.327C1068.55 313.069 1068.79 311.948 1069.27 310.964C1069.75 309.972 1070.43 309.198 1071.28 308.644C1072.15 308.081 1073.09 307.8 1074.1 307.8C1075.75 307.8 1077.03 308.343 1077.94 309.429C1078.85 310.515 1079.31 312.069 1079.31 314.093V314.995H1070.72C1070.75 316.245 1071.12 317.257 1071.81 318.03C1072.52 318.796 1073.41 319.179 1074.48 319.179C1075.25 319.179 1075.9 319.022 1076.43 318.71C1076.96 318.397 1077.43 317.983 1077.82 317.468L1079.15 318.499C1078.09 320.132 1076.49 320.948 1074.37 320.948ZM1074.1 309.581C1073.22 309.581 1072.49 309.901 1071.89 310.542C1071.3 311.175 1070.93 312.065 1070.79 313.214H1077.14V313.05C1077.08 311.948 1076.78 311.097 1076.25 310.495C1075.72 309.886 1075 309.581 1074.1 309.581ZM1081.3 314.269C1081.3 312.323 1081.77 310.761 1082.69 309.581C1083.61 308.394 1084.82 307.8 1086.31 307.8C1087.79 307.8 1088.97 308.308 1089.84 309.323V302.714H1092V320.714H1090.01L1089.91 319.354C1089.04 320.417 1087.83 320.948 1086.28 320.948C1084.82 320.948 1083.62 320.347 1082.69 319.144C1081.77 317.94 1081.3 316.37 1081.3 314.433V314.269ZM1083.47 314.515C1083.47 315.952 1083.77 317.077 1084.36 317.89C1084.96 318.702 1085.78 319.108 1086.82 319.108C1088.2 319.108 1089.2 318.491 1089.84 317.257V311.433C1089.19 310.237 1088.19 309.64 1086.85 309.64C1085.78 309.64 1084.96 310.05 1084.36 310.87C1083.77 311.69 1083.47 312.905 1083.47 314.515ZM1101.51 309.979C1101.18 309.925 1100.82 309.897 1100.44 309.897C1099.02 309.897 1098.05 310.503 1097.55 311.714V320.714H1095.38V308.034H1097.49L1097.52 309.499C1098.23 308.366 1099.24 307.8 1100.55 307.8C1100.97 307.8 1101.29 307.854 1101.51 307.964V309.979ZM1102.7 314.257C1102.7 313.015 1102.94 311.897 1103.43 310.905C1103.92 309.913 1104.6 309.147 1105.47 308.608C1106.34 308.069 1107.34 307.8 1108.46 307.8C1110.18 307.8 1111.58 308.397 1112.64 309.593C1113.71 310.788 1114.25 312.378 1114.25 314.362V314.515C1114.25 315.749 1114.01 316.858 1113.53 317.843C1113.06 318.819 1112.39 319.581 1111.5 320.128C1110.63 320.675 1109.62 320.948 1108.48 320.948C1106.76 320.948 1105.37 320.351 1104.3 319.155C1103.23 317.96 1102.7 316.378 1102.7 314.409V314.257ZM1104.88 314.515C1104.88 315.921 1105.21 317.05 1105.85 317.901C1106.51 318.753 1107.39 319.179 1108.48 319.179C1109.58 319.179 1110.46 318.749 1111.1 317.89C1111.75 317.022 1112.08 315.812 1112.08 314.257C1112.08 312.866 1111.75 311.741 1111.08 310.882C1110.43 310.015 1109.55 309.581 1108.46 309.581C1107.39 309.581 1106.52 310.007 1105.87 310.858C1105.21 311.71 1104.88 312.929 1104.88 314.515ZM1116.39 314.257C1116.39 313.015 1116.63 311.897 1117.12 310.905C1117.61 309.913 1118.29 309.147 1119.16 308.608C1120.03 308.069 1121.03 307.8 1122.14 307.8C1123.87 307.8 1125.27 308.397 1126.33 309.593C1127.4 310.788 1127.93 312.378 1127.93 314.362V314.515C1127.93 315.749 1127.69 316.858 1127.22 317.843C1126.75 318.819 1126.07 319.581 1125.19 320.128C1124.32 320.675 1123.31 320.948 1122.17 320.948C1120.45 320.948 1119.05 320.351 1117.98 319.155C1116.92 317.96 1116.39 316.378 1116.39 314.409V314.257ZM1118.57 314.515C1118.57 315.921 1118.89 317.05 1119.54 317.901C1120.2 318.753 1121.07 319.179 1122.17 319.179C1123.27 319.179 1124.14 318.749 1124.79 317.89C1125.44 317.022 1125.77 315.812 1125.77 314.257C1125.77 312.866 1125.43 311.741 1124.77 310.882C1124.11 310.015 1123.24 309.581 1122.14 309.581C1121.07 309.581 1120.21 310.007 1119.55 310.858C1118.9 311.71 1118.57 312.929 1118.57 314.515ZM1132.69 308.034L1132.75 309.44C1133.68 308.347 1134.93 307.8 1136.51 307.8C1138.28 307.8 1139.49 308.479 1140.13 309.839C1140.55 309.229 1141.1 308.737 1141.77 308.362C1142.45 307.987 1143.25 307.8 1144.18 307.8C1146.96 307.8 1148.37 309.272 1148.42 312.218V320.714H1146.25V312.347C1146.25 311.44 1146.04 310.765 1145.63 310.319C1145.21 309.866 1144.52 309.64 1143.54 309.64C1142.74 309.64 1142.07 309.882 1141.54 310.366C1141.01 310.843 1140.7 311.487 1140.61 312.3V320.714H1138.43V312.405C1138.43 310.562 1137.53 309.64 1135.73 309.64C1134.3 309.64 1133.33 310.245 1132.81 311.456V320.714H1130.64V308.034H1132.69Z" fill="#565E76"/>
<path d="M1058.22 353.267H1060.39C1061.49 353.257 1062.35 352.974 1062.98 352.417C1063.63 351.86 1063.95 351.055 1063.95 350C1063.95 348.984 1063.68 348.198 1063.15 347.642C1062.62 347.075 1061.81 346.792 1060.71 346.792C1059.76 346.792 1058.97 347.07 1058.36 347.627C1057.74 348.174 1057.43 348.892 1057.43 349.78H1053.87C1053.87 348.687 1054.16 347.69 1054.74 346.792C1055.32 345.894 1056.13 345.195 1057.17 344.697C1058.21 344.189 1059.38 343.936 1060.67 343.936C1062.8 343.936 1064.47 344.473 1065.68 345.547C1066.9 346.611 1067.51 348.096 1067.51 350C1067.51 350.957 1067.2 351.86 1066.59 352.71C1065.98 353.55 1065.2 354.185 1064.23 354.614C1065.4 355.015 1066.29 355.645 1066.9 356.504C1067.51 357.363 1067.82 358.389 1067.82 359.58C1067.82 361.494 1067.16 363.018 1065.84 364.15C1064.53 365.283 1062.81 365.85 1060.67 365.85C1058.62 365.85 1056.94 365.303 1055.63 364.209C1054.32 363.115 1053.67 361.66 1053.67 359.844H1057.23C1057.23 360.781 1057.54 361.543 1058.17 362.129C1058.8 362.715 1059.65 363.008 1060.71 363.008C1061.82 363.008 1062.69 362.715 1063.32 362.129C1063.96 361.543 1064.27 360.693 1064.27 359.58C1064.27 358.457 1063.94 357.593 1063.28 356.987C1062.61 356.382 1061.63 356.079 1060.32 356.079H1058.22V353.267ZM1072.11 354.98L1073.27 344.229H1084.72V347.305H1076.23L1075.64 352.402C1076.63 351.836 1077.74 351.553 1078.98 351.553C1081.01 351.553 1082.59 352.202 1083.71 353.501C1084.85 354.8 1085.41 356.548 1085.41 358.745C1085.41 360.913 1084.79 362.642 1083.54 363.931C1082.29 365.21 1080.57 365.85 1078.4 365.85C1076.44 365.85 1074.82 365.298 1073.53 364.194C1072.25 363.081 1071.56 361.616 1071.45 359.8H1074.89C1075.03 360.835 1075.4 361.631 1076.01 362.188C1076.61 362.734 1077.4 363.008 1078.38 363.008C1079.47 363.008 1080.32 362.617 1080.93 361.836C1081.54 361.055 1081.85 359.99 1081.85 358.643C1081.85 357.344 1081.52 356.318 1080.84 355.566C1080.17 354.805 1079.24 354.424 1078.06 354.424C1077.41 354.424 1076.87 354.512 1076.42 354.688C1075.97 354.854 1075.48 355.186 1074.95 355.684L1072.11 354.98ZM1090.66 361.807C1091.32 361.807 1091.83 361.997 1092.19 362.378C1092.56 362.749 1092.74 363.218 1092.74 363.784C1092.74 364.341 1092.56 364.805 1092.19 365.176C1091.83 365.537 1091.32 365.718 1090.66 365.718C1090.02 365.718 1089.52 365.537 1089.15 365.176C1088.78 364.814 1088.59 364.351 1088.59 363.784C1088.59 363.218 1088.77 362.749 1089.13 362.378C1089.49 361.997 1090 361.807 1090.66 361.807ZM1106.23 365.557H1102.68V348.433L1097.45 350.22V347.217L1105.77 344.155H1106.23V365.557ZM1114.59 354.98L1115.75 344.229H1127.2V347.305H1118.71L1118.12 352.402C1119.11 351.836 1120.22 351.553 1121.46 351.553C1123.49 351.553 1125.07 352.202 1126.19 353.501C1127.33 354.8 1127.89 356.548 1127.89 358.745C1127.89 360.913 1127.27 362.642 1126.02 363.931C1124.77 365.21 1123.05 365.85 1120.88 365.85C1118.92 365.85 1117.3 365.298 1116.01 364.194C1114.73 363.081 1114.04 361.616 1113.93 359.8H1117.37C1117.51 360.835 1117.88 361.631 1118.49 362.188C1119.09 362.734 1119.88 363.008 1120.86 363.008C1121.95 363.008 1122.8 362.617 1123.41 361.836C1124.02 361.055 1124.33 359.99 1124.33 358.643C1124.33 357.344 1124 356.318 1123.32 355.566C1122.65 354.805 1121.72 354.424 1120.54 354.424C1119.89 354.424 1119.35 354.512 1118.9 354.688C1118.45 354.854 1117.96 355.186 1117.43 355.684L1114.59 354.98ZM1141.73 349.707L1141.84 351.362C1142.95 350.063 1144.47 349.414 1146.41 349.414C1148.53 349.414 1149.98 350.225 1150.76 351.846C1151.91 350.225 1153.53 349.414 1155.62 349.414C1157.37 349.414 1158.67 349.897 1159.52 350.864C1160.38 351.831 1160.82 353.257 1160.84 355.142V365.557H1157.28V355.244C1157.28 354.238 1157.06 353.501 1156.62 353.032C1156.18 352.563 1155.45 352.329 1154.44 352.329C1153.62 352.329 1152.96 352.549 1152.44 352.988C1151.94 353.418 1151.58 353.984 1151.37 354.688L1151.39 365.557H1147.83V355.127C1147.78 353.262 1146.83 352.329 1144.97 352.329C1143.55 352.329 1142.54 352.91 1141.94 354.072V365.557H1138.38V349.707H1141.73Z" fill="#565E76"/>
<path d="M1170.91 350H1164.69V348.94L1167.77 345.582C1168.21 345.087 1168.53 344.674 1168.72 344.344C1168.91 344.01 1169 343.676 1169 343.341C1169 342.901 1168.88 342.546 1168.63 342.275C1168.38 342.004 1168.05 341.869 1167.63 341.869C1167.13 341.869 1166.74 342.021 1166.47 342.326C1166.19 342.63 1166.06 343.047 1166.06 343.576H1164.51C1164.51 343.013 1164.64 342.508 1164.9 342.059C1165.15 341.606 1165.52 341.255 1165.99 341.005C1166.47 340.756 1167.02 340.631 1167.64 340.631C1168.54 340.631 1169.25 340.857 1169.76 341.31C1170.28 341.759 1170.54 342.381 1170.54 343.176C1170.54 343.638 1170.41 344.122 1170.15 344.63C1169.89 345.133 1169.47 345.707 1168.88 346.35L1166.62 348.769H1170.91V350Z" fill="#565E76"/>
<path d="M1472.89 674.138H1480.97V675.978H1470.63V658.915H1472.89V674.138ZM1485.56 675.978H1483.39V663.298H1485.56V675.978ZM1483.21 659.935C1483.21 659.583 1483.32 659.286 1483.53 659.044C1483.75 658.802 1484.07 658.681 1484.49 658.681C1484.91 658.681 1485.23 658.802 1485.45 659.044C1485.67 659.286 1485.78 659.583 1485.78 659.935C1485.78 660.286 1485.67 660.579 1485.45 660.813C1485.23 661.048 1484.91 661.165 1484.49 661.165C1484.07 661.165 1483.75 661.048 1483.53 660.813C1483.32 660.579 1483.21 660.286 1483.21 659.935ZM1493.22 673.036L1496.36 663.298H1498.58L1494.03 675.978H1492.38L1487.78 663.298H1490L1493.22 673.036ZM1503.02 675.978H1500.85V663.298H1503.02V675.978ZM1500.67 659.935C1500.67 659.583 1500.78 659.286 1500.99 659.044C1501.21 658.802 1501.53 658.681 1501.95 658.681C1502.37 658.681 1502.69 658.802 1502.91 659.044C1503.13 659.286 1503.24 659.583 1503.24 659.935C1503.24 660.286 1503.13 660.579 1502.91 660.813C1502.69 661.048 1502.37 661.165 1501.95 661.165C1501.53 661.165 1501.21 661.048 1500.99 660.813C1500.78 660.579 1500.67 660.286 1500.67 659.935ZM1508.55 663.298L1508.62 664.892C1509.59 663.673 1510.85 663.063 1512.42 663.063C1515.1 663.063 1516.45 664.575 1516.47 667.599V675.978H1514.3V667.587C1514.29 666.673 1514.08 665.997 1513.67 665.56C1513.26 665.122 1512.63 664.903 1511.76 664.903C1511.06 664.903 1510.44 665.091 1509.91 665.466C1509.38 665.841 1508.96 666.333 1508.67 666.942V675.978H1506.5V663.298H1508.55ZM1519.22 669.532C1519.22 667.556 1519.68 665.985 1520.6 664.821C1521.51 663.649 1522.72 663.063 1524.23 663.063C1525.78 663.063 1526.98 663.61 1527.85 664.704L1527.95 663.298H1529.94V675.673C1529.94 677.313 1529.45 678.606 1528.47 679.552C1527.5 680.497 1526.2 680.97 1524.56 680.97C1523.64 680.97 1522.75 680.774 1521.87 680.384C1521 679.993 1520.33 679.458 1519.87 678.778L1520.99 677.478C1521.92 678.626 1523.06 679.2 1524.4 679.2C1525.46 679.2 1526.28 678.903 1526.86 678.31C1527.46 677.716 1527.76 676.88 1527.76 675.802V674.712C1526.89 675.712 1525.7 676.212 1524.2 676.212C1522.72 676.212 1521.52 675.614 1520.6 674.419C1519.68 673.224 1519.22 671.595 1519.22 669.532ZM1521.4 669.778C1521.4 671.208 1521.7 672.333 1522.28 673.153C1522.87 673.966 1523.69 674.372 1524.74 674.372C1526.11 674.372 1527.11 673.751 1527.76 672.509V666.72C1527.09 665.509 1526.1 664.903 1524.77 664.903C1523.71 664.903 1522.89 665.313 1522.29 666.134C1521.7 666.954 1521.4 668.169 1521.4 669.778ZM1545.3 665.243C1544.97 665.188 1544.61 665.161 1544.23 665.161C1542.81 665.161 1541.85 665.767 1541.34 666.978V675.978H1539.17V663.298H1541.28L1541.31 664.763C1542.03 663.63 1543.03 663.063 1544.34 663.063C1544.76 663.063 1545.08 663.118 1545.3 663.228V665.243ZM1546.49 669.521C1546.49 668.278 1546.74 667.161 1547.22 666.169C1547.71 665.177 1548.39 664.411 1549.26 663.872C1550.13 663.333 1551.13 663.063 1552.25 663.063C1553.97 663.063 1555.37 663.661 1556.43 664.856C1557.5 666.052 1558.04 667.642 1558.04 669.626V669.778C1558.04 671.013 1557.8 672.122 1557.32 673.106C1556.85 674.083 1556.18 674.845 1555.29 675.392C1554.42 675.938 1553.41 676.212 1552.27 676.212C1550.55 676.212 1549.16 675.614 1548.09 674.419C1547.03 673.224 1546.49 671.642 1546.49 669.673V669.521ZM1548.67 669.778C1548.67 671.185 1549 672.313 1549.65 673.165C1550.3 674.017 1551.18 674.442 1552.27 674.442C1553.37 674.442 1554.25 674.013 1554.9 673.153C1555.54 672.286 1555.87 671.075 1555.87 669.521C1555.87 668.13 1555.54 667.005 1554.87 666.146C1554.22 665.278 1553.34 664.845 1552.25 664.845C1551.18 664.845 1550.31 665.271 1549.66 666.122C1549 666.974 1548.67 668.192 1548.67 669.778ZM1560.18 669.521C1560.18 668.278 1560.42 667.161 1560.91 666.169C1561.4 665.177 1562.08 664.411 1562.95 663.872C1563.82 663.333 1564.82 663.063 1565.94 663.063C1567.66 663.063 1569.06 663.661 1570.12 664.856C1571.19 666.052 1571.72 667.642 1571.72 669.626V669.778C1571.72 671.013 1571.49 672.122 1571.01 673.106C1570.54 674.083 1569.86 674.845 1568.98 675.392C1568.11 675.938 1567.1 676.212 1565.96 676.212C1564.24 676.212 1562.85 675.614 1561.78 674.419C1560.71 673.224 1560.18 671.642 1560.18 669.673V669.521ZM1562.36 669.778C1562.36 671.185 1562.69 672.313 1563.33 673.165C1563.99 674.017 1564.86 674.442 1565.96 674.442C1567.06 674.442 1567.94 674.013 1568.58 673.153C1569.23 672.286 1569.56 671.075 1569.56 669.521C1569.56 668.13 1569.22 667.005 1568.56 666.146C1567.9 665.278 1567.03 664.845 1565.94 664.845C1564.86 664.845 1564 665.271 1563.35 666.122C1562.69 666.974 1562.36 668.192 1562.36 669.778ZM1576.48 663.298L1576.54 664.704C1577.47 663.61 1578.72 663.063 1580.3 663.063C1582.08 663.063 1583.28 663.743 1583.92 665.103C1584.35 664.493 1584.89 664.001 1585.56 663.626C1586.24 663.251 1587.04 663.063 1587.97 663.063C1590.75 663.063 1592.16 664.536 1592.21 667.481V675.978H1590.04V667.61C1590.04 666.704 1589.83 666.028 1589.42 665.583C1589.01 665.13 1588.31 664.903 1587.33 664.903C1586.53 664.903 1585.86 665.146 1585.33 665.63C1584.8 666.106 1584.49 666.751 1584.4 667.563V675.978H1582.22V667.669C1582.22 665.825 1581.32 664.903 1579.52 664.903C1578.1 664.903 1577.12 665.509 1576.6 666.72V675.978H1574.43V663.298H1576.48Z" fill="#565E76"/>
<path d="M1474.36 708.53H1476.53C1477.62 708.521 1478.48 708.237 1479.12 707.681C1479.76 707.124 1480.09 706.318 1480.09 705.264C1480.09 704.248 1479.82 703.462 1479.28 702.905C1478.75 702.339 1477.94 702.056 1476.85 702.056C1475.89 702.056 1475.11 702.334 1474.49 702.891C1473.88 703.438 1473.57 704.155 1473.57 705.044H1470.01C1470.01 703.95 1470.3 702.954 1470.87 702.056C1471.46 701.157 1472.27 700.459 1473.3 699.961C1474.35 699.453 1475.52 699.199 1476.81 699.199C1478.93 699.199 1480.6 699.736 1481.82 700.811C1483.04 701.875 1483.65 703.359 1483.65 705.264C1483.65 706.221 1483.34 707.124 1482.72 707.974C1482.12 708.813 1481.33 709.448 1480.36 709.878C1481.54 710.278 1482.43 710.908 1483.03 711.768C1483.65 712.627 1483.95 713.652 1483.95 714.844C1483.95 716.758 1483.29 718.281 1481.98 719.414C1480.67 720.547 1478.94 721.113 1476.81 721.113C1474.75 721.113 1473.07 720.566 1471.77 719.473C1470.46 718.379 1469.8 716.924 1469.8 715.107H1473.36C1473.36 716.045 1473.68 716.807 1474.3 717.393C1474.94 717.979 1475.78 718.271 1476.85 718.271C1477.95 718.271 1478.82 717.979 1479.46 717.393C1480.09 716.807 1480.41 715.957 1480.41 714.844C1480.41 713.721 1480.08 712.856 1479.41 712.251C1478.75 711.646 1477.76 711.343 1476.45 711.343H1474.36V708.53ZM1501.19 711.841C1501.19 714.907 1500.62 717.222 1499.47 718.784C1498.32 720.337 1496.58 721.113 1494.24 721.113C1491.93 721.113 1490.19 720.356 1489.02 718.843C1487.86 717.319 1487.26 715.068 1487.23 712.09V708.398C1487.23 705.332 1487.81 703.032 1488.95 701.499C1490.1 699.966 1491.85 699.199 1494.21 699.199C1496.54 699.199 1498.28 699.946 1499.42 701.44C1500.57 702.935 1501.17 705.171 1501.19 708.149V711.841ZM1497.64 707.856C1497.64 705.854 1497.36 704.39 1496.82 703.462C1496.27 702.524 1495.4 702.056 1494.21 702.056C1493.05 702.056 1492.19 702.5 1491.64 703.389C1491.1 704.268 1490.81 705.645 1490.78 707.52V712.354C1490.78 714.346 1491.06 715.83 1491.61 716.807C1492.17 717.783 1493.05 718.271 1494.24 718.271C1495.38 718.271 1496.22 717.822 1496.77 716.924C1497.32 716.016 1497.61 714.6 1497.64 712.676V707.856ZM1506.79 717.07C1507.45 717.07 1507.97 717.261 1508.33 717.642C1508.69 718.013 1508.87 718.481 1508.87 719.048C1508.87 719.604 1508.69 720.068 1508.33 720.439C1507.97 720.801 1507.45 720.981 1506.79 720.981C1506.16 720.981 1505.65 720.801 1505.28 720.439C1504.91 720.078 1504.73 719.614 1504.73 719.048C1504.73 718.481 1504.91 718.013 1505.27 717.642C1505.63 717.261 1506.14 717.07 1506.79 717.07ZM1522.36 720.82H1518.82V703.696L1513.59 705.483V702.48L1521.91 699.419H1522.36V720.82ZM1530.73 710.244L1531.88 699.492H1543.34V702.568H1534.84L1534.26 707.666C1535.24 707.1 1536.36 706.816 1537.6 706.816C1539.63 706.816 1541.2 707.466 1542.33 708.765C1543.46 710.063 1544.03 711.812 1544.03 714.009C1544.03 716.177 1543.4 717.905 1542.15 719.194C1540.9 720.474 1539.19 721.113 1537.01 721.113C1535.06 721.113 1533.44 720.562 1532.15 719.458C1530.87 718.345 1530.17 716.88 1530.07 715.063H1533.51C1533.65 716.099 1534.02 716.895 1534.62 717.451C1535.23 717.998 1536.02 718.271 1537 718.271C1538.09 718.271 1538.94 717.881 1539.54 717.1C1540.16 716.318 1540.47 715.254 1540.47 713.906C1540.47 712.607 1540.13 711.582 1539.46 710.83C1538.78 710.068 1537.86 709.688 1536.67 709.688C1536.03 709.688 1535.48 709.775 1535.03 709.951C1534.58 710.117 1534.1 710.449 1533.57 710.947L1530.73 710.244ZM1557.87 704.971L1557.97 706.626C1559.09 705.327 1560.61 704.678 1562.54 704.678C1564.66 704.678 1566.11 705.488 1566.89 707.109C1568.05 705.488 1569.67 704.678 1571.76 704.678C1573.5 704.678 1574.8 705.161 1575.65 706.128C1576.51 707.095 1576.95 708.521 1576.97 710.405V720.82H1573.41V710.508C1573.41 709.502 1573.19 708.765 1572.75 708.296C1572.31 707.827 1571.59 707.593 1570.57 707.593C1569.76 707.593 1569.1 707.812 1568.58 708.252C1568.07 708.682 1567.71 709.248 1567.51 709.951L1567.52 720.82H1563.96V710.391C1563.91 708.525 1562.96 707.593 1561.11 707.593C1559.68 707.593 1558.67 708.174 1558.07 709.336V720.82H1554.52V704.971H1557.87Z" fill="#565E76"/>
<path d="M1586.91 704H1580.69V702.94L1583.77 699.582C1584.21 699.087 1584.53 698.674 1584.72 698.344C1584.91 698.01 1585 697.676 1585 697.341C1585 696.901 1584.88 696.546 1584.63 696.275C1584.38 696.004 1584.05 695.869 1583.63 695.869C1583.13 695.869 1582.74 696.021 1582.47 696.326C1582.19 696.63 1582.06 697.047 1582.06 697.576H1580.51C1580.51 697.013 1580.64 696.508 1580.9 696.059C1581.15 695.606 1581.52 695.255 1581.99 695.005C1582.47 694.756 1583.02 694.631 1583.64 694.631C1584.54 694.631 1585.25 694.857 1585.76 695.31C1586.28 695.759 1586.54 696.381 1586.54 697.176C1586.54 697.638 1586.41 698.122 1586.15 698.63C1585.89 699.133 1585.47 699.707 1584.88 700.35L1582.62 702.769H1586.91V704Z" fill="#565E76"/>
<path d="M547.8 76.1768H214.235V95.6783H547.8V76.1768Z" fill="white" stroke="#565E76"/>
<path d="M850.841 76.1768H649.511V101.187H850.841V76.1768Z" fill="white" stroke="#565E76"/>
<path d="M1220 76.1768H1029.69V101.187H1220V76.1768Z" fill="white" stroke="#565E76"/>
<path d="M1638.75 76.1768H1448.43V101.187H1638.75V76.1768Z" fill="white" stroke="#565E76"/>
<path d="M444.382 281.478L524.274 229.148" stroke="#565E76"/>
<path d="M452.644 598.213L529.782 645.036" stroke="#565E76"/>
<path d="M628.959 642.281L700.588 598.213" stroke="#565E76"/>
<path d="M458.156 846.092L538.047 785.501" stroke="#565E76"/>
<path d="M697.833 788.254L777.724 843.34" stroke="#565E76"/>
<path d="M981.589 631.263L1055.97 578.935" stroke="#565E76"/>
<path d="M1193.72 895.668L1102.8 837.83" stroke="#565E76"/>
<path d="M1270.85 716.644L1323.2 634.018" stroke="#565E76"/>
<path d="M861.859 98.2129H643.999V123.223H861.859V98.2129Z" fill="white" stroke="#565E76"/>
<path d="M1231.02 98.2129H1024.18V123.223H1231.02V98.2129Z" fill="white" stroke="#565E76"/>
<path d="M432.095 202.872H357.49V227.882H432.095V202.872Z" fill="white" stroke="#565E76"/>
<path d="M610.712 866.188H563.657V1045.43H610.712V866.188Z" stroke="#565E76"/>
<path d="M1084.56 794.579H1037.5V819.589H1084.56V794.579Z" stroke="#565E76"/>
<path d="M1315.97 778.054H1285.44V819.589H1315.97V778.054Z" stroke="#565E76"/>
<path d="M1718.19 739.493H1654.6V819.587H1718.19V739.493Z" stroke="#565E76"/>
<path d="M432.095 224.906H357.49V260.933H432.095V224.906Z" fill="white" stroke="#565E76"/>
<path d="M1649.76 98.2129H1442.92V123.223H1649.76V98.2129Z" fill="white" stroke="#565E76"/>
<path d="M218.479 74.9111H196.439V76.2464H164.636V1076.19H841.053V1049.91H841.088V851.602H1105.56V818.551H813.538V835.076H774.971V851.602H808.03V1044.14H626.206V851.602H692.324V835.076H554.577V851.602H609.676V1044.14H203.105V851.602H460.909V835.076H411.321V791.008H394.791V835.076H203.105V653.298H394.791V697.364H411.321V653.298H444.382V636.773H203.105V262.198H361.733V201.605H218.479V74.9111Z" fill="white"/>
<path d="M543.559 74.9111L653.753 74.9114V102.454H648.244V124.487H593.147V262.198H576.618V515.586H593.147V636.773H631.715V653.298H527.029V636.773H560.088V262.198H521.518V229.148H516.009V201.605H543.559V74.9111Z" fill="white"/>
<path d="M918.224 124.489V636.775H714.362V653.3L951.283 653.297V636.775H984.342V620.249H951.283V124.489H1028.42V102.455H1033.93V74.9131H846.597V102.455H857.618V124.489H918.224Z" fill="white"/>
<path d="M1314.93 124.489H1226.77V102.455H1215.75V74.9131H1452.68V102.455H1447.17V124.489H1347.99V262.2H1331.46V636.774H1066.99V620.249H1314.93V124.489Z" fill="white"/>
<path d="M849.628 1175.05V1149.46H856.853C859.079 1149.46 861.048 1149.95 862.759 1150.93C864.47 1151.92 865.788 1153.32 866.714 1155.13C867.651 1156.95 868.126 1159.04 868.138 1161.39V1163.03C868.138 1165.44 867.669 1167.56 866.731 1169.37C865.806 1171.19 864.476 1172.58 862.741 1173.56C861.019 1174.53 859.009 1175.03 856.712 1175.05H849.628ZM853.003 1152.23V1172.29H856.554C859.155 1172.29 861.177 1171.48 862.618 1169.87C864.071 1168.25 864.798 1165.95 864.798 1162.96V1161.46C864.798 1158.56 864.112 1156.3 862.741 1154.7C861.382 1153.08 859.448 1152.26 856.94 1152.23H853.003ZM884.485 1173.17C883.22 1174.66 881.362 1175.4 878.913 1175.4C876.886 1175.4 875.339 1174.82 874.272 1173.64C873.218 1172.46 872.685 1170.71 872.673 1168.41V1156.03H875.925V1168.32C875.925 1171.2 877.097 1172.64 879.44 1172.64C881.925 1172.64 883.577 1171.72 884.397 1169.87V1156.03H887.649V1175.05H884.556L884.485 1173.17ZM896.14 1175.05H892.888V1148.05H896.14V1175.05ZM918.2 1170.57L921.856 1156.03H925.108L919.571 1175.05H916.935L912.312 1160.64L907.812 1175.05H905.175L899.655 1156.03H902.89L906.634 1170.27L911.063 1156.03H913.683L918.2 1170.57ZM931.964 1175.05H928.712V1156.03H931.964V1175.05ZM928.448 1150.99C928.448 1150.46 928.606 1150.01 928.923 1149.65C929.251 1149.29 929.731 1149.11 930.364 1149.11C930.997 1149.11 931.478 1149.29 931.806 1149.65C932.134 1150.01 932.298 1150.46 932.298 1150.99C932.298 1151.51 932.134 1151.95 931.806 1152.3C931.478 1152.66 930.997 1152.83 930.364 1152.83C929.731 1152.83 929.251 1152.66 928.923 1152.3C928.606 1151.95 928.448 1151.51 928.448 1150.99ZM944.813 1172.75C945.974 1172.75 946.987 1172.4 947.854 1171.69C948.722 1170.99 949.202 1170.11 949.296 1169.06H952.372C952.313 1170.15 951.938 1171.18 951.247 1172.17C950.556 1173.15 949.63 1173.94 948.47 1174.52C947.321 1175.11 946.103 1175.4 944.813 1175.4C942.224 1175.4 940.161 1174.54 938.626 1172.82C937.103 1171.08 936.341 1168.72 936.341 1165.72V1165.17C936.341 1163.32 936.681 1161.67 937.36 1160.23C938.04 1158.79 939.013 1157.67 940.278 1156.88C941.556 1156.08 943.062 1155.68 944.796 1155.68C946.929 1155.68 948.698 1156.32 950.104 1157.6C951.522 1158.87 952.278 1160.53 952.372 1162.57H949.296C949.202 1161.34 948.733 1160.33 947.89 1159.55C947.058 1158.75 946.026 1158.35 944.796 1158.35C943.144 1158.35 941.86 1158.95 940.946 1160.14C940.044 1161.33 939.593 1163.04 939.593 1165.29V1165.91C939.593 1168.1 940.044 1169.79 940.946 1170.97C941.849 1172.16 943.138 1172.75 944.813 1172.75ZM959.28 1158.33C960.722 1156.56 962.597 1155.68 964.905 1155.68C968.925 1155.68 970.952 1157.95 970.987 1162.48V1175.05H967.735V1162.46C967.724 1161.09 967.407 1160.08 966.786 1159.42C966.177 1158.77 965.222 1158.44 963.921 1158.44C962.866 1158.44 961.94 1158.72 961.144 1159.28C960.347 1159.85 959.726 1160.58 959.28 1161.5V1175.05H956.028V1148.05H959.28V1158.33ZM994.683 1164.7H988.671V1175.05H985.278V1149.46H993.751C996.634 1149.46 998.849 1150.11 1000.4 1151.43C1001.95 1152.74 1002.73 1154.65 1002.73 1157.16C1002.73 1158.75 1002.3 1160.14 1001.43 1161.32C1000.58 1162.51 999.382 1163.39 997.847 1163.98L1003.86 1174.84V1175.05H1000.24L994.683 1164.7ZM988.671 1161.94H993.856C995.532 1161.94 996.862 1161.5 997.847 1160.64C998.843 1159.77 999.341 1158.61 999.341 1157.16C999.341 1155.57 998.866 1154.36 997.917 1153.52C996.979 1152.67 995.62 1152.25 993.839 1152.23H988.671V1161.94ZM1006.18 1165.38C1006.18 1162.46 1006.87 1160.12 1008.25 1158.35C1009.64 1156.57 1011.45 1155.68 1013.68 1155.68C1015.91 1155.68 1017.67 1156.44 1018.98 1157.96V1148.05H1022.23V1175.05H1019.24L1019.08 1173.01C1017.78 1174.61 1015.97 1175.4 1013.65 1175.4C1011.45 1175.4 1009.65 1174.5 1008.25 1172.7C1006.87 1170.89 1006.18 1168.54 1006.18 1165.63V1165.38ZM1009.43 1165.75C1009.43 1167.91 1009.88 1169.6 1010.77 1170.81C1011.66 1172.03 1012.89 1172.64 1014.46 1172.64C1016.52 1172.64 1018.03 1171.72 1018.98 1169.87V1161.13C1018 1159.34 1016.51 1158.44 1014.49 1158.44C1012.9 1158.44 1011.66 1159.05 1010.77 1160.29C1009.88 1161.52 1009.43 1163.34 1009.43 1165.75Z" fill="#565E76"/>
<path d="M103.666 613.43L113.685 613.43L113.685 616.805L88.0916 616.805L88.0916 607.365C88.0916 604.564 88.8064 602.373 90.2361 600.791C91.6658 599.197 93.5583 598.4 95.9138 598.4C98.3982 598.4 100.314 599.18 101.662 600.738C102.998 602.285 103.666 604.506 103.666 607.4L103.666 613.43ZM100.906 613.43L100.906 607.365C100.906 605.561 100.484 604.178 99.6404 603.217C98.7849 602.256 97.5544 601.775 95.949 601.775C94.4255 601.775 93.2068 602.256 92.2927 603.217C91.3787 604.178 90.9041 605.496 90.8689 607.172L90.8689 613.43L100.906 613.43ZM113.685 591.07L113.685 594.322L86.6853 594.322L86.6853 591.07L113.685 591.07ZM111.804 574.107C113.293 575.373 114.037 577.23 114.037 579.68C114.037 581.707 113.451 583.254 112.279 584.32C111.095 585.375 109.349 585.908 107.041 585.92L94.6658 585.92L94.6658 582.668L106.953 582.668C109.836 582.668 111.277 581.496 111.277 579.152C111.277 576.668 110.351 575.016 108.5 574.195L94.6658 574.195L94.6658 570.943L113.685 570.943L113.685 574.037L111.804 574.107ZM94.6658 562.928L96.7751 562.84C95.1345 561.445 94.3142 559.564 94.3142 557.197C94.3142 554.537 95.3337 552.727 97.3728 551.766C96.4587 551.133 95.7205 550.312 95.158 549.305C94.5955 548.285 94.3142 547.084 94.3142 545.701C94.3142 541.529 96.5232 539.408 100.941 539.338L113.685 539.338L113.685 542.59L101.135 542.59C99.7751 542.59 98.7615 542.9 98.0935 543.521C97.4138 544.143 97.074 545.186 97.074 546.65C97.074 547.857 97.4373 548.859 98.1638 549.656C98.8787 550.453 99.8455 550.916 101.064 551.045L113.685 551.045L113.685 554.314L101.222 554.314C98.4568 554.314 97.074 555.668 97.074 558.375C97.074 560.508 97.9822 561.967 99.7986 562.752L113.685 562.752L113.685 566.004L94.6658 566.004L94.6658 562.928ZM108.64 523.342C107.761 523.342 107.082 523.676 106.601 524.344C106.109 525 105.687 526.154 105.336 527.807C104.984 529.447 104.562 530.754 104.07 531.727C103.578 532.687 102.992 533.402 102.312 533.871C101.633 534.328 100.824 534.557 99.8865 534.557C98.3279 534.557 97.0095 533.9 95.9314 532.588C94.8533 531.264 94.3142 529.576 94.3142 527.525C94.3142 525.369 94.8708 523.623 95.9841 522.287C97.0974 520.939 98.5212 520.266 100.256 520.266L100.256 523.535C99.365 523.535 98.5974 523.916 97.9529 524.678C97.3083 525.428 96.9861 526.377 96.9861 527.525C96.9861 528.709 97.2439 529.635 97.7595 530.303C98.2751 530.971 98.949 531.305 99.781 531.305C100.566 531.305 101.158 530.994 101.556 530.373C101.955 529.752 102.336 528.633 102.699 527.016C103.062 525.387 103.496 524.068 104 523.061C104.504 522.053 105.113 521.309 105.828 520.828C106.531 520.336 107.392 520.09 108.412 520.09C110.111 520.09 111.476 520.77 112.508 522.129C113.527 523.488 114.037 525.252 114.037 527.42C114.037 528.943 113.767 530.291 113.228 531.463C112.689 532.635 111.939 533.555 110.978 534.223C110.006 534.879 108.957 535.207 107.832 535.207L107.832 531.955C108.922 531.896 109.789 531.463 110.433 530.654C111.066 529.834 111.383 528.756 111.383 527.42C111.383 526.189 111.136 525.205 110.644 524.467C110.14 523.717 109.472 523.342 108.64 523.342ZM90.0603 511.441L94.6658 511.441L94.6658 507.891L97.1794 507.891L97.1794 511.441L108.974 511.441C109.736 511.441 110.31 511.283 110.697 510.967C111.072 510.65 111.26 510.111 111.26 509.35C111.26 508.975 111.189 508.459 111.049 507.803L113.685 507.803C113.92 508.658 114.037 509.49 114.037 510.299C114.037 511.752 113.597 512.848 112.719 513.586C111.84 514.324 110.592 514.693 108.974 514.693L97.1794 514.693L97.1794 518.156L94.6658 518.156L94.6658 514.693L90.0603 514.693L90.0603 511.441ZM114.037 496.184C114.037 498.762 113.193 500.859 111.506 502.477C109.806 504.094 107.539 504.902 104.703 504.902L104.105 504.902C102.219 504.902 100.537 504.545 99.0603 503.83C97.572 503.104 96.4119 502.096 95.5798 500.807C94.7361 499.506 94.3142 498.1 94.3142 496.588C94.3142 494.115 95.1287 492.193 96.7576 490.822C98.3865 489.451 100.719 488.766 103.754 488.766L105.107 488.766L105.107 501.65C106.982 501.604 108.5 501.059 109.66 500.016C110.808 498.961 111.383 497.625 111.383 496.008C111.383 494.859 111.148 493.887 110.679 493.09C110.211 492.293 109.59 491.596 108.816 490.998L110.363 489.012C112.812 490.605 114.037 492.996 114.037 496.184ZM96.9861 496.588C96.9861 497.9 97.4665 499.002 98.4275 499.893C99.3767 500.783 100.713 501.334 102.435 501.545L102.435 492.018L102.189 492.018C100.537 492.111 99.2595 492.557 98.3572 493.354C97.4431 494.15 96.9861 495.229 96.9861 496.588ZM113.685 473.244C113.31 473.432 112.642 473.584 111.681 473.701C113.252 475.213 114.037 477.018 114.037 479.115C114.037 480.99 113.51 482.531 112.455 483.738C111.388 484.934 110.041 485.531 108.412 485.531C106.431 485.531 104.896 484.781 103.806 483.281C102.705 481.77 102.154 479.648 102.154 476.918L102.154 473.754L100.66 473.754C99.5232 473.754 98.6208 474.094 97.9529 474.773C97.2732 475.453 96.9333 476.455 96.9333 477.779C96.9333 478.939 97.2263 479.912 97.8122 480.697C98.3982 481.482 99.1072 481.875 99.9392 481.875L99.9392 485.145C98.99 485.145 98.0759 484.811 97.197 484.143C96.3064 483.463 95.6033 482.549 95.0876 481.4C94.572 480.24 94.3142 478.969 94.3142 477.586C94.3142 475.395 94.865 473.678 95.9665 472.436C97.0564 471.193 98.5622 470.549 100.484 470.502L109.238 470.502C110.984 470.502 112.373 470.279 113.404 469.834L113.685 469.834L113.685 473.244ZM111.207 478.641C111.207 477.621 110.943 476.654 110.416 475.74C109.888 474.826 109.203 474.164 108.359 473.754L104.457 473.754L104.457 476.303C104.457 480.287 105.623 482.279 107.955 482.279C108.974 482.279 109.771 481.939 110.345 481.26C110.92 480.58 111.207 479.707 111.207 478.641ZM104.017 466.195C101.099 466.195 98.7556 465.504 96.9861 464.121C95.2048 462.738 94.3142 460.928 94.3142 458.689C94.3142 456.463 95.0759 454.699 96.5994 453.398L86.6853 453.398L86.6853 450.146L113.685 450.146L113.685 453.135L111.646 453.293C113.24 454.594 114.037 456.404 114.037 458.725C114.037 460.928 113.135 462.727 111.33 464.121C109.525 465.504 107.17 466.195 104.263 466.195L104.017 466.195ZM104.386 462.943C106.543 462.943 108.23 462.498 109.449 461.607C110.668 460.717 111.277 459.486 111.277 457.916C111.277 455.854 110.351 454.348 108.5 453.398L99.7634 453.398C97.9705 454.371 97.074 455.865 97.074 457.881C97.074 459.475 97.6892 460.717 98.9197 461.607C100.15 462.498 101.972 462.943 104.386 462.943ZM103.332 426.258L103.332 432.27L113.685 432.27L113.685 435.662L88.0915 435.662L88.0915 427.189C88.0915 424.307 88.7478 422.092 90.0603 420.545C91.3728 418.986 93.283 418.207 95.7908 418.207C97.3845 418.207 98.7732 418.641 99.9568 419.508C101.14 420.363 102.025 421.559 102.611 423.094L113.474 417.082L113.685 417.082L113.685 420.703L103.332 426.258ZM100.572 432.27L100.572 427.084C100.572 425.408 100.138 424.078 99.2712 423.094C98.404 422.098 97.2439 421.6 95.7908 421.6C94.2087 421.6 92.9958 422.074 92.1521 423.023C91.3083 423.961 90.8806 425.32 90.8689 427.102L90.8689 432.27L100.572 432.27ZM104.017 414.762C101.099 414.762 98.7556 414.07 96.9861 412.687C95.2048 411.305 94.3142 409.494 94.3142 407.256C94.3142 405.029 95.0759 403.266 96.5994 401.965L86.6853 401.965L86.6853 398.713L113.685 398.713L113.685 401.701L111.646 401.859C113.24 403.16 114.037 404.971 114.037 407.291C114.037 409.494 113.135 411.293 111.33 412.687C109.525 414.07 107.17 414.762 104.263 414.762L104.017 414.762ZM104.386 411.51C106.543 411.51 108.23 411.064 109.449 410.174C110.668 409.283 111.277 408.053 111.277 406.482C111.277 404.42 110.351 402.914 108.5 401.965L99.7634 401.965C97.9704 402.937 97.074 404.432 97.074 406.447C97.074 408.041 97.6892 409.283 98.9197 410.174C100.15 411.064 101.972 411.51 104.386 411.51Z" fill="#565E76"/>
<mask id="mask0" mask-type="alpha" maskUnits="userSpaceOnUse" x="164" y="74" width="1588" height="1003">
<path d="M218.479 74.9111H196.439V76.2464H164.636V1076.19H841.053V1049.91H841.088V851.602H1105.56V818.551H813.538V835.076H774.971V851.602H808.03V1044.14H626.206V851.602H692.324V835.076H554.577V851.602H609.676V1044.14H203.105V851.602H460.909V835.076H411.321V791.008H394.791V835.076H203.105V653.298H394.791V697.364H411.321V653.298H444.382V636.773H203.105V262.198H361.733V201.605H218.479V74.9111Z" fill="white"/>
<path d="M543.559 74.9111L653.753 74.9114V102.454H648.244V124.487H593.147V262.198H576.618V515.586H593.147V636.773H631.715V653.298H527.029V636.773H560.088V262.198H521.518V229.148H516.009V201.605H543.559V74.9111Z" fill="white"/>
<path d="M918.224 124.487V636.773H714.362V653.298L951.283 653.295V636.773H984.342V620.247H951.283V124.487H1028.42V102.453H1033.93V74.9111H846.597V102.453H857.618V124.487H918.224Z" fill="white"/>
<path d="M1314.93 124.487H1226.77V102.453H1215.75V74.9111H1452.68V102.453H1447.17V124.487H1347.99V262.198H1331.46V636.773H1066.99V620.247H1314.93V124.487Z" fill="white"/>
<path d="M1751.49 851.847H1222.54V819.797H1314.93V730.414H1331.46V819.797H1716.23V124.32H1645.7V101.886H1636.08V76.2461H1751.49V851.847Z" fill="white"/>
</mask>
<g mask="url(#mask0)">
<path d="M1751.49 851.847H1222.54V819.797H1314.93V730.414H1331.46V819.797H1716.23V124.32H1645.7V101.886H1636.08V76.2461H1751.49V851.847Z" fill="white"/>
<path d="M218.479 74.9111H196.439V76.2464H164.636V1076.19H841.053V1049.91H841.088V851.602H1105.56V818.551H813.538V835.076H774.971V851.602H808.03V1044.14H626.206V851.602H692.324V835.076H554.577V851.602H609.676V1044.14H203.105V851.602H460.909V835.076H411.321V791.008H394.791V835.076H203.105V653.298H394.791V697.364H411.321V653.298H444.382V636.773H203.105V262.198H361.733V201.605H218.479V74.9111Z" stroke="#565E76" stroke-width="2"/>
<path d="M543.559 74.9111L653.753 74.9114V102.454H648.244V124.487H593.147V262.198H576.618V515.586H593.147V636.773H631.715V653.298H527.029V636.773H560.088V262.198H521.518V229.148H516.009V201.605H543.559V74.9111Z" stroke="#565E76" stroke-width="2"/>
<path d="M918.224 124.489V636.775H714.362V653.3L951.283 653.297V636.775H984.342V620.249H951.283V124.489H1028.42V102.455H1033.93V74.9131H846.597V102.455H857.618V124.489H918.224Z" stroke="#565E76" stroke-width="2"/>
<path d="M1314.93 124.489H1226.77V102.455H1215.75V74.9131H1452.68V102.455H1447.17V124.489H1347.99V262.2H1331.46V636.774H1066.99V620.249H1314.93V124.489Z" stroke="#565E76" stroke-width="2"/>
<path d="M1751.49 851.847H1222.54V819.797H1314.93V730.414H1331.46V819.797H1716.23V124.32H1645.7V101.886H1636.08V76.2461H1751.49V851.847Z" stroke="#565E76" stroke-width="2"/>
</g>
</g>
<defs>
<clipPath id="clip0">
<rect width="1773" height="1266.11" fill="white"/>
</clipPath>
</defs>
</svg>
