<svg width="3992" height="2992" viewBox="0 0 3992 2992" fill="none" xmlns="http://www.w3.org/2000/svg">
  <rect width="3992" height="2992" fill="white"/>
  <path d="M2815.5 1790L2838 2561.5L2103.5 2578L2081 1803L2815.5 1790Z"/>
  <path d="M1399.5 1486L1771.5 1466.5L1747.5 749.5L1233 526.5L993.5 1249.5L1043.5 1371L1399.5 1486Z"/>
  <path d="M2847.5 2558.5L2833 1801.5L3553 1783.5L3569.5 2215.5L3624.5 2240L3634 2364.5H3613L3624.5 2539L3577.5 2524.5L3589 2558.5H2847.5Z"/>
  <path d="M1399.5 1835.5L1427 2576.5L2095.5 2566.5L2068 1806.5L1399.5 1835.5Z"/>
  <path d="M647 2418L448 2296.5L602 1830.5L647 1845L723.5 1622L1391.5 1830.5L1416 2562H1373.5L1191 2503.5V2536L665 2379L647 2418Z"/>
  <path d="M2547.5 1486L2524 680H3291L3312 1466.5L2547.5 1486Z"/>
  <path d="M2503 680L2524 1486L1780 1500.5L1757 732L2503 680Z"/>
</svg>
